<svg width="608" height="440" xmlns="http://www.w3.org/2000/svg">
<style>.small { font: italic 13px sans-serif; }</style>
<rect x="0" y="0" width="608" height="417" fill="lightyellow" stroke-width="4" stroke="black" />
<line x1="5" y1="55" x2="603" y2="55" stroke="lightgrey" stroke-width="1" />
<line x1="55" y1="5" x2="55" y2="414" stroke="lightgrey" stroke-width="1" />
<text x="16.0" y="31" class="small">hex</text>
<text x="20" y="102" font-size="large">2x</text>
<text x="20" y="157" font-size="large">3x</text>
<text x="20" y="212" font-size="large">4x</text>
<text x="20" y="267" font-size="large">5x</text>
<text x="20" y="322" font-size="large">6x</text>
<text x="20" y="377" font-size="large">7x</text>
<text x="72" y="35" font-size="large">0</text>
<text x="104" y="35" font-size="large">1</text>
<text x="136" y="35" font-size="large">2</text>
<text x="168" y="35" font-size="large">3</text>
<text x="200" y="35" font-size="large">4</text>
<text x="232" y="35" font-size="large">5</text>
<text x="264" y="35" font-size="large">6</text>
<text x="296" y="35" font-size="large">7</text>
<text x="328" y="35" font-size="large">8</text>
<text x="360" y="35" font-size="large">9</text>
<text x="392" y="35" font-size="large">A</text>
<text x="424" y="35" font-size="large">B</text>
<text x="456" y="35" font-size="large">C</text>
<text x="488" y="35" font-size="large">D</text>
<text x="520" y="35" font-size="large">E</text>
<text x="552" y="35" font-size="large">F</text>
<polyline points="" stroke="black" stroke-width="1" fill="none" />
<polyline points="100,84.0 104,86.0 106,88.0 107,91.0 107,94.0 106,97.0 104,99.0 100,101.0 " stroke="black" stroke-width="1" fill="none" />
<polyline points="100,84.0 103,85.0 105,86.0 107,88.0 108,91.0 " stroke="black" stroke-width="1" fill="none" />
<polyline points="108,94.0 107,97.0 105,99.0 103,100.0 100,101.0 " stroke="black" stroke-width="1" fill="none" />
<polyline points="116,84.0 113,85.0 111,86.0 109,88.0 108,91.0 " stroke="black" stroke-width="1" fill="none" />
<polyline points="108,94.0 109,97.0 111,99.0 113,100.0 116,101.0 " stroke="black" stroke-width="1" fill="none" />
<polyline points="116,84.0 112,86.0 110,88.0 109,91.0 109,94.0 110,97.0 112,99.0 116,101.0 " stroke="black" stroke-width="1" fill="none" />
<polyline points="99,92.0 117,92.0 " stroke="black" stroke-width="1" fill="none" />
<polyline points="99,93.0 117,93.0 " stroke="black" stroke-width="1" fill="none" />
<polyline points="133,82.0 132,83.0 132,89.0 " stroke="black" stroke-width="1" fill="none" />
<polyline points="133,83.0 132,89.0 " stroke="black" stroke-width="1" fill="none" />
<polyline points="133,82.0 134,83.0 132,89.0 " stroke="black" stroke-width="1" fill="none" />
<polyline points="142,82.0 141,83.0 141,89.0 " stroke="black" stroke-width="1" fill="none" />
<polyline points="142,83.0 141,89.0 " stroke="black" stroke-width="1" fill="none" />
<polyline points="142,82.0 143,83.0 141,89.0 " stroke="black" stroke-width="1" fill="none" />
<polyline points="172,82.0 169,83.0 166,85.0 164,88.0 163,91.0 163,94.0 164,97.0 166,100.0 169,102.0 172,103.0 175,103.0 178,102.0 181,100.0 183,97.0 184,94.0 184,91.0 183,88.0 181,85.0 178,83.0 175,82.0 172,82.0 " stroke="black" stroke-width="1" fill="none" />
<polyline points="173,91.0 172,92.0 172,93.0 173,94.0 174,94.0 175,93.0 175,92.0 174,91.0 173,91.0 " stroke="black" stroke-width="1" fill="none" />
<polyline points="173,92.0 173,93.0 174,93.0 174,92.0 173,92.0 " stroke="black" stroke-width="1" fill="none" />
<polyline points="198,82.0 196,83.0 197,85.0 199,86.0 " stroke="black" stroke-width="1" fill="none" />
<polyline points="198,82.0 197,83.0 197,85.0 " stroke="black" stroke-width="1" fill="none" />
<polyline points="203,82.0 205,83.0 204,85.0 202,86.0 " stroke="black" stroke-width="1" fill="none" />
<polyline points="203,82.0 204,83.0 204,85.0 " stroke="black" stroke-width="1" fill="none" />
<polyline points="199,86.0 197,87.0 196,88.0 195,90.0 195,93.0 196,95.0 197,96.0 199,97.0 202,97.0 204,96.0 205,95.0 206,93.0 206,90.0 205,88.0 204,87.0 202,86.0 199,86.0 " stroke="black" stroke-width="1" fill="none" />
<polyline points="200,97.0 200,103.0 " stroke="black" stroke-width="1" fill="none" />
<polyline points="201,97.0 201,103.0 " stroke="black" stroke-width="1" fill="none" />
<polyline points="196,100.0 205,100.0 " stroke="black" stroke-width="1" fill="none" />
<polyline points="233,82.0 230,83.0 228,85.0 227,88.0 227,89.0 228,92.0 230,94.0 233,95.0 234,95.0 237,94.0 239,92.0 240,89.0 240,88.0 239,85.0 237,83.0 234,82.0 233,82.0 " stroke="black" stroke-width="1" fill="none" />
<polyline points="233,95.0 233,103.0 " stroke="black" stroke-width="1" fill="none" />
<polyline points="234,95.0 234,103.0 " stroke="black" stroke-width="1" fill="none" />
<polyline points="229,99.0 238,99.0 " stroke="black" stroke-width="1" fill="none" />
<polyline points="268,82.0 265,83.0 262,85.0 260,88.0 259,91.0 259,95.0 260,98.0 262,101.0 265,103.0 268,104.0 272,104.0 275,103.0 278,101.0 280,98.0 281,95.0 281,91.0 280,88.0 278,85.0 275,83.0 272,82.0 268,82.0 " stroke="black" stroke-width="1" fill="none" />
<polyline points="270,82.0 270,104.0 " stroke="black" stroke-width="1" fill="none" />
<polyline points="259,93.0 281,93.0 " stroke="black" stroke-width="1" fill="none" />
<polyline points="297,89.0 294,90.0 292,92.0 291,95.0 291,96.0 292,99.0 294,101.0 297,102.0 298,102.0 301,101.0 303,99.0 304,96.0 304,95.0 303,92.0 301,90.0 298,89.0 297,89.0 " stroke="black" stroke-width="1" fill="none" />
<polyline points="310,83.0 304,83.0 308,84.0 302,90.0 " stroke="black" stroke-width="1" fill="none" />
<polyline points="310,83.0 310,89.0 309,85.0 303,91.0 " stroke="black" stroke-width="1" fill="none" />
<polyline points="309,84.0 303,90.0 " stroke="black" stroke-width="1" fill="none" />
<polyline points="331,78.0 329,80.0 327,83.0 325,87.0 324,92.0 324,96.0 325,101.0 327,105.0 329,108.0 331,110.0 " stroke="black" stroke-width="1" fill="none" />
<polyline points="329,80.0 327,84.0 326,87.0 325,92.0 325,96.0 326,101.0 327,104.0 329,108.0 " stroke="black" stroke-width="1" fill="none" />
<polyline points="355,78.0 357,80.0 359,83.0 361,87.0 362,92.0 362,96.0 361,101.0 359,105.0 357,108.0 355,110.0 " stroke="black" stroke-width="1" fill="none" />
<polyline points="357,80.0 359,84.0 360,87.0 361,92.0 361,96.0 360,101.0 359,104.0 357,108.0 " stroke="black" stroke-width="1" fill="none" />
<polyline points="387,85.0 388,83.0 390,82.0 393,82.0 395,83.0 396,85.0 396,88.0 395,91.0 394,93.0 392,95.0 389,97.0 " stroke="black" stroke-width="1" fill="none" />
<polyline points="393,82.0 394,83.0 395,85.0 395,89.0 394,92.0 392,95.0 " stroke="black" stroke-width="1" fill="none" />
<polyline points="400,82.0 398,103.0 " stroke="black" stroke-width="1" fill="none" />
<polyline points="401,82.0 397,103.0 " stroke="black" stroke-width="1" fill="none" />
<polyline points="389,97.0 403,97.0 " stroke="black" stroke-width="1" fill="none" />
<polyline points="420,82.0 420,97.0 " stroke="black" stroke-width="1" fill="none" />
<polyline points="421,82.0 420,93.0 " stroke="black" stroke-width="1" fill="none" />
<polyline points="420,93.0 421,91.0 422,90.0 424,89.0 427,89.0 430,90.0 431,92.0 431,94.0 430,96.0 428,98.0 " stroke="black" stroke-width="1" fill="none" />
<polyline points="427,89.0 429,90.0 430,92.0 430,94.0 427,100.0 427,102.0 428,103.0 430,103.0 432,101.0 " stroke="black" stroke-width="1" fill="none" />
<polyline points="418,82.0 421,82.0 " stroke="black" stroke-width="1" fill="none" />
<polyline points="453,99.0 452,100.0 451,99.0 452,98.0 453,99.0 453,101.0 451,103.0 " stroke="black" stroke-width="1" fill="none" />
<polyline points="489,90.0 486,91.0 484,93.0 483,96.0 483,97.0 484,100.0 486,102.0 489,103.0 490,103.0 493,102.0 495,100.0 496,97.0 496,96.0 495,93.0 493,91.0 490,90.0 489,90.0 " stroke="black" stroke-width="1" fill="none" />
<polyline points="489,84.0 485,86.0 489,82.0 489,90.0 " stroke="black" stroke-width="1" fill="none" />
<polyline points="490,84.0 494,86.0 490,82.0 490,90.0 " stroke="black" stroke-width="1" fill="none" />
<polyline points="489,95.0 488,96.0 488,97.0 489,98.0 490,98.0 491,97.0 491,96.0 490,95.0 489,95.0 " stroke="black" stroke-width="1" fill="none" />
<polyline points="489,96.0 489,97.0 490,97.0 490,96.0 489,96.0 " stroke="black" stroke-width="1" fill="none" />
<polyline points="516,98.0 515,99.0 516,100.0 517,99.0 516,98.0 " stroke="black" stroke-width="1" fill="none" />
<polyline points="554,84.0 555,82.0 555,103.0 " stroke="black" stroke-width="1" fill="none" />
<polyline points="557,84.0 556,82.0 556,103.0 " stroke="black" stroke-width="1" fill="none" />
<polyline points="547,84.0 548,82.0 548,89.0 549,92.0 551,94.0 554,95.0 555,95.0 " stroke="black" stroke-width="1" fill="none" />
<polyline points="550,84.0 549,82.0 549,90.0 550,93.0 " stroke="black" stroke-width="1" fill="none" />
<polyline points="564,84.0 563,82.0 563,89.0 562,92.0 560,94.0 557,95.0 556,95.0 " stroke="black" stroke-width="1" fill="none" />
<polyline points="561,84.0 562,82.0 562,90.0 561,93.0 " stroke="black" stroke-width="1" fill="none" />
<polyline points="551,99.0 560,99.0 " stroke="black" stroke-width="1" fill="none" />
<polyline points="76,137.0 73,138.0 71,140.0 69,143.0 68,146.0 67,150.0 67,153.0 68,156.0 69,157.0 71,158.0 73,158.0 76,157.0 78,155.0 80,152.0 81,149.0 82,145.0 82,142.0 81,139.0 80,138.0 78,137.0 76,137.0 " stroke="black" stroke-width="1" fill="none" />
<polyline points="73,139.0 71,141.0 70,143.0 69,146.0 68,150.0 68,154.0 69,156.0 " stroke="black" stroke-width="1" fill="none" />
<polyline points="76,156.0 78,154.0 79,152.0 80,149.0 81,145.0 81,141.0 80,139.0 " stroke="black" stroke-width="1" fill="none" />
<polyline points="76,137.0 74,138.0 72,141.0 71,143.0 70,146.0 69,150.0 69,155.0 70,157.0 71,158.0 " stroke="black" stroke-width="1" fill="none" />
<polyline points="73,158.0 75,157.0 77,154.0 78,152.0 79,149.0 80,145.0 80,140.0 79,138.0 78,137.0 " stroke="black" stroke-width="1" fill="none" />
<polyline points="108,141.0 103,158.0 105,158.0 " stroke="black" stroke-width="1" fill="none" />
<polyline points="111,137.0 109,141.0 104,158.0 " stroke="black" stroke-width="1" fill="none" />
<polyline points="111,137.0 105,158.0 " stroke="black" stroke-width="1" fill="none" />
<polyline points="111,137.0 108,140.0 105,142.0 103,143.0 " stroke="black" stroke-width="1" fill="none" />
<polyline points="108,141.0 106,142.0 103,143.0 " stroke="black" stroke-width="1" fill="none" />
<polyline points="135,142.0 135,141.0 136,141.0 136,143.0 134,143.0 134,141.0 135,139.0 136,138.0 139,137.0 142,137.0 145,138.0 146,140.0 146,142.0 145,144.0 143,146.0 133,152.0 131,154.0 129,158.0 " stroke="black" stroke-width="1" fill="none" />
<polyline points="144,138.0 145,140.0 145,142.0 144,144.0 142,146.0 139,148.0 " stroke="black" stroke-width="1" fill="none" />
<polyline points="142,137.0 143,138.0 144,140.0 144,142.0 143,144.0 141,146.0 133,152.0 " stroke="black" stroke-width="1" fill="none" />
<polyline points="130,156.0 131,155.0 133,155.0 138,156.0 143,156.0 144,155.0 " stroke="black" stroke-width="1" fill="none" />
<polyline points="133,155.0 138,157.0 143,157.0 " stroke="black" stroke-width="1" fill="none" />
<polyline points="133,155.0 138,158.0 141,158.0 143,157.0 144,155.0 144,154.0 " stroke="black" stroke-width="1" fill="none" />
<polyline points="167,142.0 167,141.0 168,141.0 168,143.0 166,143.0 166,141.0 167,139.0 168,138.0 171,137.0 174,137.0 177,138.0 178,140.0 178,142.0 177,144.0 176,145.0 174,146.0 171,147.0 " stroke="black" stroke-width="1" fill="none" />
<polyline points="176,138.0 177,140.0 177,142.0 176,144.0 175,145.0 " stroke="black" stroke-width="1" fill="none" />
<polyline points="174,137.0 175,138.0 176,140.0 176,142.0 175,144.0 173,146.0 171,147.0 " stroke="black" stroke-width="1" fill="none" />
<polyline points="169,147.0 171,147.0 174,148.0 175,149.0 176,151.0 176,154.0 175,156.0 173,157.0 170,158.0 167,158.0 164,157.0 163,156.0 162,154.0 162,152.0 164,152.0 164,154.0 163,154.0 163,153.0 " stroke="black" stroke-width="1" fill="none" />
<polyline points="174,149.0 175,151.0 175,154.0 174,156.0 " stroke="black" stroke-width="1" fill="none" />
<polyline points="171,147.0 173,148.0 174,150.0 174,154.0 173,156.0 172,157.0 170,158.0 " stroke="black" stroke-width="1" fill="none" />
<polyline points="207,141.0 202,158.0 204,158.0 " stroke="black" stroke-width="1" fill="none" />
<polyline points="210,137.0 208,141.0 203,158.0 " stroke="black" stroke-width="1" fill="none" />
<polyline points="210,137.0 204,158.0 " stroke="black" stroke-width="1" fill="none" />
<polyline points="210,137.0 194,152.0 210,152.0 " stroke="black" stroke-width="1" fill="none" />
<polyline points="233,137.0 228,147.0 " stroke="black" stroke-width="1" fill="none" />
<polyline points="233,137.0 243,137.0 " stroke="black" stroke-width="1" fill="none" />
<polyline points="233,138.0 241,138.0 " stroke="black" stroke-width="1" fill="none" />
<polyline points="232,139.0 237,139.0 241,138.0 243,137.0 " stroke="black" stroke-width="1" fill="none" />
<polyline points="228,147.0 229,146.0 232,145.0 235,145.0 238,146.0 239,147.0 240,149.0 240,152.0 239,155.0 237,157.0 233,158.0 230,158.0 228,157.0 227,156.0 226,154.0 226,152.0 228,152.0 228,154.0 227,154.0 227,153.0 " stroke="black" stroke-width="1" fill="none" />
<polyline points="238,147.0 239,149.0 239,152.0 238,155.0 236,157.0 " stroke="black" stroke-width="1" fill="none" />
<polyline points="235,145.0 237,146.0 238,148.0 238,152.0 237,155.0 235,157.0 233,158.0 " stroke="black" stroke-width="1" fill="none" />
<polyline points="273,141.0 273,140.0 272,140.0 272,142.0 274,142.0 274,140.0 273,138.0 271,137.0 268,137.0 265,138.0 263,140.0 261,143.0 260,146.0 259,150.0 259,153.0 260,156.0 261,157.0 263,158.0 266,158.0 269,157.0 271,155.0 272,153.0 272,150.0 271,148.0 270,147.0 268,146.0 265,146.0 263,147.0 262,148.0 261,150.0 " stroke="black" stroke-width="1" fill="none" />
<polyline points="264,140.0 262,143.0 261,146.0 260,150.0 260,154.0 261,156.0 " stroke="black" stroke-width="1" fill="none" />
<polyline points="270,155.0 271,153.0 271,150.0 270,148.0 " stroke="black" stroke-width="1" fill="none" />
<polyline points="268,137.0 266,138.0 264,141.0 263,143.0 262,146.0 261,150.0 261,155.0 262,157.0 263,158.0 " stroke="black" stroke-width="1" fill="none" />
<polyline points="266,158.0 268,157.0 269,156.0 270,153.0 270,149.0 269,147.0 268,146.0 " stroke="black" stroke-width="1" fill="none" />
<polyline points="294,137.0 292,143.0 " stroke="black" stroke-width="1" fill="none" />
<polyline points="307,137.0 306,140.0 304,143.0 300,148.0 298,151.0 297,154.0 296,158.0 " stroke="black" stroke-width="1" fill="none" />
<polyline points="298,150.0 296,154.0 295,158.0 " stroke="black" stroke-width="1" fill="none" />
<polyline points="304,143.0 298,149.0 296,152.0 295,154.0 294,158.0 296,158.0 " stroke="black" stroke-width="1" fill="none" />
<polyline points="293,140.0 296,137.0 298,137.0 303,140.0 " stroke="black" stroke-width="1" fill="none" />
<polyline points="295,138.0 298,138.0 303,140.0 " stroke="black" stroke-width="1" fill="none" />
<polyline points="293,140.0 295,139.0 298,139.0 303,140.0 305,140.0 306,139.0 307,137.0 " stroke="black" stroke-width="1" fill="none" />
<polyline points="331,137.0 328,138.0 327,139.0 326,141.0 326,144.0 327,146.0 329,147.0 332,147.0 335,146.0 337,145.0 338,143.0 338,140.0 337,138.0 335,137.0 331,137.0 " stroke="black" stroke-width="1" fill="none" />
<polyline points="333,137.0 328,138.0 " stroke="black" stroke-width="1" fill="none" />
<polyline points="328,139.0 327,141.0 327,145.0 328,146.0 " stroke="black" stroke-width="1" fill="none" />
<polyline points="327,146.0 330,147.0 " stroke="black" stroke-width="1" fill="none" />
<polyline points="331,147.0 335,146.0 " stroke="black" stroke-width="1" fill="none" />
<polyline points="336,145.0 337,143.0 337,140.0 336,138.0 " stroke="black" stroke-width="1" fill="none" />
<polyline points="337,138.0 333,137.0 " stroke="black" stroke-width="1" fill="none" />
<polyline points="331,137.0 329,139.0 328,141.0 328,145.0 329,147.0 " stroke="black" stroke-width="1" fill="none" />
<polyline points="332,147.0 334,146.0 335,145.0 336,143.0 336,139.0 335,137.0 " stroke="black" stroke-width="1" fill="none" />
<polyline points="329,147.0 325,148.0 323,150.0 322,152.0 322,155.0 323,157.0 326,158.0 330,158.0 334,157.0 335,156.0 336,154.0 336,151.0 335,149.0 334,148.0 332,147.0 " stroke="black" stroke-width="1" fill="none" />
<polyline points="330,147.0 325,148.0 " stroke="black" stroke-width="1" fill="none" />
<polyline points="326,148.0 324,150.0 323,152.0 323,155.0 324,157.0 " stroke="black" stroke-width="1" fill="none" />
<polyline points="323,157.0 328,158.0 334,157.0 " stroke="black" stroke-width="1" fill="none" />
<polyline points="334,156.0 335,154.0 335,151.0 334,149.0 " stroke="black" stroke-width="1" fill="none" />
<polyline points="334,148.0 331,147.0 " stroke="black" stroke-width="1" fill="none" />
<polyline points="329,147.0 327,148.0 325,150.0 324,152.0 324,155.0 325,157.0 326,158.0 " stroke="black" stroke-width="1" fill="none" />
<polyline points="330,158.0 332,157.0 333,156.0 334,154.0 334,150.0 333,148.0 332,147.0 " stroke="black" stroke-width="1" fill="none" />
<polyline points="368,145.0 367,147.0 366,148.0 364,149.0 361,149.0 359,148.0 358,147.0 357,145.0 357,142.0 358,140.0 360,138.0 363,137.0 366,137.0 368,138.0 369,139.0 370,142.0 370,145.0 369,149.0 368,152.0 366,155.0 364,157.0 361,158.0 358,158.0 356,157.0 355,155.0 355,153.0 357,153.0 357,155.0 356,155.0 356,154.0 " stroke="black" stroke-width="1" fill="none" />
<polyline points="359,147.0 358,145.0 358,142.0 359,140.0 " stroke="black" stroke-width="1" fill="none" />
<polyline points="368,139.0 369,141.0 369,145.0 368,149.0 367,152.0 365,155.0 " stroke="black" stroke-width="1" fill="none" />
<polyline points="361,149.0 360,148.0 359,146.0 359,142.0 360,139.0 361,138.0 363,137.0 " stroke="black" stroke-width="1" fill="none" />
<polyline points="366,137.0 367,138.0 368,140.0 368,145.0 367,149.0 366,152.0 365,154.0 363,157.0 361,158.0 " stroke="black" stroke-width="1" fill="none" />
<polyline points="389,137.0 389,158.0 " stroke="black" stroke-width="1" fill="none" />
<polyline points="390,137.0 390,158.0 " stroke="black" stroke-width="1" fill="none" />
<polyline points="386,137.0 398,137.0 401,138.0 402,139.0 403,141.0 403,144.0 402,146.0 401,147.0 398,148.0 390,148.0 " stroke="black" stroke-width="1" fill="none" />
<polyline points="398,137.0 400,138.0 401,139.0 402,141.0 402,144.0 401,146.0 400,147.0 398,148.0 " stroke="black" stroke-width="1" fill="none" />
<polyline points="386,158.0 402,158.0 402,153.0 401,158.0 " stroke="black" stroke-width="1" fill="none" />
<polyline points="433,138.0 429,138.0 425,139.0 422,141.0 420,144.0 419,147.0 419,150.0 420,153.0 422,156.0 425,158.0 429,159.0 433,159.0 " stroke="black" stroke-width="1" fill="none" />
<polyline points="433,138.0 430,139.0 427,141.0 425,144.0 424,147.0 424,150.0 425,153.0 427,156.0 430,158.0 433,159.0 " stroke="black" stroke-width="1" fill="none" />
<polyline points="457,148.0 455,148.0 453,149.0 452,150.0 451,152.0 451,154.0 452,156.0 453,157.0 455,158.0 457,158.0 459,157.0 460,156.0 461,154.0 461,152.0 460,150.0 459,149.0 457,148.0 " stroke="black" stroke-width="1" fill="none" />
<polyline points="461,139.0 458,148.0 " stroke="black" stroke-width="1" fill="none" />
<polyline points="468,141.0 460,149.0 " stroke="black" stroke-width="1" fill="none" />
<polyline points="470,148.0 461,151.0 " stroke="black" stroke-width="1" fill="none" />
<polyline points="487,142.0 493,156.0 " stroke="black" stroke-width="1" fill="none" />
<polyline points="493,142.0 487,156.0 " stroke="black" stroke-width="1" fill="none" />
<polyline points="483,146.0 497,152.0 " stroke="black" stroke-width="1" fill="none" />
<polyline points="497,146.0 483,152.0 " stroke="black" stroke-width="1" fill="none" />
<polyline points="520,153.0 518,152.0 517,152.0 515,153.0 514,155.0 514,156.0 515,158.0 517,159.0 518,159.0 520,158.0 521,156.0 521,155.0 520,153.0 517,149.0 516,146.0 516,144.0 517,141.0 519,139.0 522,138.0 526,138.0 529,139.0 531,141.0 532,144.0 532,146.0 531,149.0 528,153.0 527,155.0 527,156.0 528,158.0 530,159.0 531,159.0 533,158.0 534,156.0 534,155.0 533,153.0 531,152.0 530,152.0 528,153.0 " stroke="black" stroke-width="1" fill="none" />
<polyline points="516,144.0 517,142.0 519,140.0 522,139.0 526,139.0 529,140.0 531,142.0 532,144.0 " stroke="black" stroke-width="1" fill="none" />
<polyline points="552,144.0 550,145.0 549,145.0 547,144.0 546,142.0 546,141.0 547,139.0 549,138.0 550,138.0 552,139.0 553,141.0 553,142.0 552,144.0 549,148.0 548,151.0 548,153.0 549,156.0 551,158.0 554,159.0 558,159.0 561,158.0 563,156.0 564,153.0 564,151.0 563,148.0 560,144.0 559,142.0 559,141.0 560,139.0 562,138.0 563,138.0 565,139.0 566,141.0 566,142.0 565,144.0 563,145.0 562,145.0 560,144.0 " stroke="black" stroke-width="1" fill="none" />
<polyline points="548,153.0 549,155.0 551,157.0 554,158.0 558,158.0 561,157.0 563,155.0 564,153.0 " stroke="black" stroke-width="1" fill="none" />
<polyline points="68,199.0 67,198.0 67,196.0 68,194.0 70,193.0 72,193.0 74,194.0 75,195.0 76,197.0 77,202.0 " stroke="black" stroke-width="1" fill="none" />
<polyline points="67,196.0 69,194.0 71,194.0 73,195.0 74,196.0 75,198.0 76,202.0 76,213.0 " stroke="black" stroke-width="1" fill="none" />
<polyline points="85,199.0 86,198.0 86,196.0 85,194.0 83,193.0 81,193.0 79,194.0 78,195.0 77,197.0 76,202.0 " stroke="black" stroke-width="1" fill="none" />
<polyline points="86,196.0 84,194.0 82,194.0 80,195.0 79,196.0 78,198.0 77,202.0 77,213.0 " stroke="black" stroke-width="1" fill="none" />
<polyline points="106,192.0 99,212.0 " stroke="black" stroke-width="1" fill="none" />
<polyline points="105,195.0 111,213.0 " stroke="black" stroke-width="1" fill="none" />
<polyline points="106,195.0 112,213.0 " stroke="black" stroke-width="1" fill="none" />
<polyline points="106,192.0 113,213.0 " stroke="black" stroke-width="1" fill="none" />
<polyline points="101,207.0 110,207.0 " stroke="black" stroke-width="1" fill="none" />
<polyline points="97,213.0 103,213.0 " stroke="black" stroke-width="1" fill="none" />
<polyline points="108,213.0 115,213.0 " stroke="black" stroke-width="1" fill="none" />
<polyline points="99,212.0 98,213.0 " stroke="black" stroke-width="1" fill="none" />
<polyline points="99,212.0 101,213.0 " stroke="black" stroke-width="1" fill="none" />
<polyline points="111,212.0 109,213.0 " stroke="black" stroke-width="1" fill="none" />
<polyline points="111,211.0 110,213.0 " stroke="black" stroke-width="1" fill="none" />
<polyline points="112,211.0 114,213.0 " stroke="black" stroke-width="1" fill="none" />
<polyline points="133,192.0 133,213.0 " stroke="black" stroke-width="1" fill="none" />
<polyline points="134,193.0 134,212.0 " stroke="black" stroke-width="1" fill="none" />
<polyline points="135,192.0 135,213.0 " stroke="black" stroke-width="1" fill="none" />
<polyline points="130,192.0 142,192.0 145,193.0 146,194.0 147,196.0 147,198.0 146,200.0 145,201.0 142,202.0 " stroke="black" stroke-width="1" fill="none" />
<polyline points="145,194.0 146,196.0 146,198.0 145,200.0 " stroke="black" stroke-width="1" fill="none" />
<polyline points="142,192.0 144,193.0 145,195.0 145,199.0 144,201.0 142,202.0 " stroke="black" stroke-width="1" fill="none" />
<polyline points="135,202.0 142,202.0 145,203.0 146,204.0 147,206.0 147,209.0 146,211.0 145,212.0 142,213.0 130,213.0 " stroke="black" stroke-width="1" fill="none" />
<polyline points="145,204.0 146,206.0 146,209.0 145,211.0 " stroke="black" stroke-width="1" fill="none" />
<polyline points="142,202.0 144,203.0 145,205.0 145,210.0 144,212.0 142,213.0 " stroke="black" stroke-width="1" fill="none" />
<polyline points="131,192.0 133,193.0 " stroke="black" stroke-width="1" fill="none" />
<polyline points="132,192.0 133,194.0 " stroke="black" stroke-width="1" fill="none" />
<polyline points="136,192.0 135,194.0 " stroke="black" stroke-width="1" fill="none" />
<polyline points="137,192.0 135,193.0 " stroke="black" stroke-width="1" fill="none" />
<polyline points="133,212.0 131,213.0 " stroke="black" stroke-width="1" fill="none" />
<polyline points="133,211.0 132,213.0 " stroke="black" stroke-width="1" fill="none" />
<polyline points="135,211.0 136,213.0 " stroke="black" stroke-width="1" fill="none" />
<polyline points="135,212.0 137,213.0 " stroke="black" stroke-width="1" fill="none" />
<polyline points="177,195.0 178,192.0 178,198.0 177,195.0 175,193.0 173,192.0 170,192.0 167,193.0 165,195.0 164,197.0 163,200.0 163,205.0 164,208.0 165,210.0 167,212.0 170,213.0 173,213.0 175,212.0 177,210.0 178,208.0 " stroke="black" stroke-width="1" fill="none" />
<polyline points="166,195.0 165,197.0 164,200.0 164,205.0 165,208.0 166,210.0 " stroke="black" stroke-width="1" fill="none" />
<polyline points="170,192.0 168,193.0 166,196.0 165,200.0 165,205.0 166,209.0 168,212.0 170,213.0 " stroke="black" stroke-width="1" fill="none" />
<polyline points="197,192.0 197,213.0 " stroke="black" stroke-width="1" fill="none" />
<polyline points="198,193.0 198,212.0 " stroke="black" stroke-width="1" fill="none" />
<polyline points="199,192.0 199,213.0 " stroke="black" stroke-width="1" fill="none" />
<polyline points="194,192.0 204,192.0 207,193.0 209,195.0 210,197.0 211,200.0 211,205.0 210,208.0 209,210.0 207,212.0 204,213.0 194,213.0 " stroke="black" stroke-width="1" fill="none" />
<polyline points="208,195.0 209,197.0 210,200.0 210,205.0 209,208.0 208,210.0 " stroke="black" stroke-width="1" fill="none" />
<polyline points="204,192.0 206,193.0 208,196.0 209,200.0 209,205.0 208,209.0 206,212.0 204,213.0 " stroke="black" stroke-width="1" fill="none" />
<polyline points="195,192.0 197,193.0 " stroke="black" stroke-width="1" fill="none" />
<polyline points="196,192.0 197,194.0 " stroke="black" stroke-width="1" fill="none" />
<polyline points="200,192.0 199,194.0 " stroke="black" stroke-width="1" fill="none" />
<polyline points="201,192.0 199,193.0 " stroke="black" stroke-width="1" fill="none" />
<polyline points="197,212.0 195,213.0 " stroke="black" stroke-width="1" fill="none" />
<polyline points="197,211.0 196,213.0 " stroke="black" stroke-width="1" fill="none" />
<polyline points="199,211.0 200,213.0 " stroke="black" stroke-width="1" fill="none" />
<polyline points="199,212.0 201,213.0 " stroke="black" stroke-width="1" fill="none" />
<polyline points="229,192.0 229,213.0 " stroke="black" stroke-width="1" fill="none" />
<polyline points="230,193.0 230,212.0 " stroke="black" stroke-width="1" fill="none" />
<polyline points="231,192.0 231,213.0 " stroke="black" stroke-width="1" fill="none" />
<polyline points="226,192.0 242,192.0 242,198.0 " stroke="black" stroke-width="1" fill="none" />
<polyline points="231,202.0 237,202.0 " stroke="black" stroke-width="1" fill="none" />
<polyline points="237,198.0 237,206.0 " stroke="black" stroke-width="1" fill="none" />
<polyline points="226,213.0 242,213.0 242,207.0 " stroke="black" stroke-width="1" fill="none" />
<polyline points="227,192.0 229,193.0 " stroke="black" stroke-width="1" fill="none" />
<polyline points="228,192.0 229,194.0 " stroke="black" stroke-width="1" fill="none" />
<polyline points="232,192.0 231,194.0 " stroke="black" stroke-width="1" fill="none" />
<polyline points="233,192.0 231,193.0 " stroke="black" stroke-width="1" fill="none" />
<polyline points="237,192.0 242,193.0 " stroke="black" stroke-width="1" fill="none" />
<polyline points="239,192.0 242,194.0 " stroke="black" stroke-width="1" fill="none" />
<polyline points="240,192.0 242,195.0 " stroke="black" stroke-width="1" fill="none" />
<polyline points="241,192.0 242,198.0 " stroke="black" stroke-width="1" fill="none" />
<polyline points="237,198.0 236,202.0 237,206.0 " stroke="black" stroke-width="1" fill="none" />
<polyline points="237,200.0 235,202.0 237,204.0 " stroke="black" stroke-width="1" fill="none" />
<polyline points="237,201.0 233,202.0 237,203.0 " stroke="black" stroke-width="1" fill="none" />
<polyline points="229,212.0 227,213.0 " stroke="black" stroke-width="1" fill="none" />
<polyline points="229,211.0 228,213.0 " stroke="black" stroke-width="1" fill="none" />
<polyline points="231,211.0 232,213.0 " stroke="black" stroke-width="1" fill="none" />
<polyline points="231,212.0 233,213.0 " stroke="black" stroke-width="1" fill="none" />
<polyline points="237,213.0 242,212.0 " stroke="black" stroke-width="1" fill="none" />
<polyline points="239,213.0 242,211.0 " stroke="black" stroke-width="1" fill="none" />
<polyline points="240,213.0 242,210.0 " stroke="black" stroke-width="1" fill="none" />
<polyline points="241,213.0 242,207.0 " stroke="black" stroke-width="1" fill="none" />
<polyline points="261,192.0 261,213.0 " stroke="black" stroke-width="1" fill="none" />
<polyline points="262,193.0 262,212.0 " stroke="black" stroke-width="1" fill="none" />
<polyline points="263,192.0 263,213.0 " stroke="black" stroke-width="1" fill="none" />
<polyline points="258,192.0 274,192.0 274,198.0 " stroke="black" stroke-width="1" fill="none" />
<polyline points="263,202.0 269,202.0 " stroke="black" stroke-width="1" fill="none" />
<polyline points="269,198.0 269,206.0 " stroke="black" stroke-width="1" fill="none" />
<polyline points="258,213.0 266,213.0 " stroke="black" stroke-width="1" fill="none" />
<polyline points="259,192.0 261,193.0 " stroke="black" stroke-width="1" fill="none" />
<polyline points="260,192.0 261,194.0 " stroke="black" stroke-width="1" fill="none" />
<polyline points="264,192.0 263,194.0 " stroke="black" stroke-width="1" fill="none" />
<polyline points="265,192.0 263,193.0 " stroke="black" stroke-width="1" fill="none" />
<polyline points="269,192.0 274,193.0 " stroke="black" stroke-width="1" fill="none" />
<polyline points="271,192.0 274,194.0 " stroke="black" stroke-width="1" fill="none" />
<polyline points="272,192.0 274,195.0 " stroke="black" stroke-width="1" fill="none" />
<polyline points="273,192.0 274,198.0 " stroke="black" stroke-width="1" fill="none" />
<polyline points="269,198.0 268,202.0 269,206.0 " stroke="black" stroke-width="1" fill="none" />
<polyline points="269,200.0 267,202.0 269,204.0 " stroke="black" stroke-width="1" fill="none" />
<polyline points="269,201.0 265,202.0 269,203.0 " stroke="black" stroke-width="1" fill="none" />
<polyline points="261,212.0 259,213.0 " stroke="black" stroke-width="1" fill="none" />
<polyline points="261,211.0 260,213.0 " stroke="black" stroke-width="1" fill="none" />
<polyline points="263,211.0 264,213.0 " stroke="black" stroke-width="1" fill="none" />
<polyline points="263,212.0 265,213.0 " stroke="black" stroke-width="1" fill="none" />
<polyline points="305,195.0 306,192.0 306,198.0 305,195.0 303,193.0 301,192.0 298,192.0 295,193.0 293,195.0 292,197.0 291,200.0 291,205.0 292,208.0 293,210.0 295,212.0 298,213.0 301,213.0 303,212.0 305,212.0 306,213.0 306,205.0 " stroke="black" stroke-width="1" fill="none" />
<polyline points="294,195.0 293,197.0 292,200.0 292,205.0 293,208.0 294,210.0 " stroke="black" stroke-width="1" fill="none" />
<polyline points="298,192.0 296,193.0 294,196.0 293,200.0 293,205.0 294,209.0 296,212.0 298,213.0 " stroke="black" stroke-width="1" fill="none" />
<polyline points="305,206.0 305,211.0 " stroke="black" stroke-width="1" fill="none" />
<polyline points="304,205.0 304,211.0 303,212.0 " stroke="black" stroke-width="1" fill="none" />
<polyline points="301,205.0 309,205.0 " stroke="black" stroke-width="1" fill="none" />
<polyline points="302,205.0 304,206.0 " stroke="black" stroke-width="1" fill="none" />
<polyline points="303,205.0 304,207.0 " stroke="black" stroke-width="1" fill="none" />
<polyline points="307,205.0 306,207.0 " stroke="black" stroke-width="1" fill="none" />
<polyline points="308,205.0 306,206.0 " stroke="black" stroke-width="1" fill="none" />
<polyline points="325,192.0 325,213.0 " stroke="black" stroke-width="1" fill="none" />
<polyline points="326,193.0 326,212.0 " stroke="black" stroke-width="1" fill="none" />
<polyline points="327,192.0 327,213.0 " stroke="black" stroke-width="1" fill="none" />
<polyline points="337,192.0 337,213.0 " stroke="black" stroke-width="1" fill="none" />
<polyline points="338,193.0 338,212.0 " stroke="black" stroke-width="1" fill="none" />
<polyline points="339,192.0 339,213.0 " stroke="black" stroke-width="1" fill="none" />
<polyline points="322,192.0 330,192.0 " stroke="black" stroke-width="1" fill="none" />
<polyline points="334,192.0 342,192.0 " stroke="black" stroke-width="1" fill="none" />
<polyline points="327,202.0 337,202.0 " stroke="black" stroke-width="1" fill="none" />
<polyline points="322,213.0 330,213.0 " stroke="black" stroke-width="1" fill="none" />
<polyline points="334,213.0 342,213.0 " stroke="black" stroke-width="1" fill="none" />
<polyline points="323,192.0 325,193.0 " stroke="black" stroke-width="1" fill="none" />
<polyline points="324,192.0 325,194.0 " stroke="black" stroke-width="1" fill="none" />
<polyline points="328,192.0 327,194.0 " stroke="black" stroke-width="1" fill="none" />
<polyline points="329,192.0 327,193.0 " stroke="black" stroke-width="1" fill="none" />
<polyline points="335,192.0 337,193.0 " stroke="black" stroke-width="1" fill="none" />
<polyline points="336,192.0 337,194.0 " stroke="black" stroke-width="1" fill="none" />
<polyline points="340,192.0 339,194.0 " stroke="black" stroke-width="1" fill="none" />
<polyline points="341,192.0 339,193.0 " stroke="black" stroke-width="1" fill="none" />
<polyline points="325,212.0 323,213.0 " stroke="black" stroke-width="1" fill="none" />
<polyline points="325,211.0 324,213.0 " stroke="black" stroke-width="1" fill="none" />
<polyline points="327,211.0 328,213.0 " stroke="black" stroke-width="1" fill="none" />
<polyline points="327,212.0 329,213.0 " stroke="black" stroke-width="1" fill="none" />
<polyline points="337,212.0 335,213.0 " stroke="black" stroke-width="1" fill="none" />
<polyline points="337,211.0 336,213.0 " stroke="black" stroke-width="1" fill="none" />
<polyline points="339,211.0 340,213.0 " stroke="black" stroke-width="1" fill="none" />
<polyline points="339,212.0 341,213.0 " stroke="black" stroke-width="1" fill="none" />
<polyline points="357,192.0 357,213.0 " stroke="black" stroke-width="1" fill="none" />
<polyline points="358,193.0 358,212.0 " stroke="black" stroke-width="1" fill="none" />
<polyline points="359,192.0 359,213.0 " stroke="black" stroke-width="1" fill="none" />
<polyline points="354,192.0 362,192.0 " stroke="black" stroke-width="1" fill="none" />
<polyline points="354,213.0 362,213.0 " stroke="black" stroke-width="1" fill="none" />
<polyline points="355,192.0 357,193.0 " stroke="black" stroke-width="1" fill="none" />
<polyline points="356,192.0 357,194.0 " stroke="black" stroke-width="1" fill="none" />
<polyline points="360,192.0 359,194.0 " stroke="black" stroke-width="1" fill="none" />
<polyline points="361,192.0 359,193.0 " stroke="black" stroke-width="1" fill="none" />
<polyline points="357,212.0 355,213.0 " stroke="black" stroke-width="1" fill="none" />
<polyline points="357,211.0 356,213.0 " stroke="black" stroke-width="1" fill="none" />
<polyline points="359,211.0 360,213.0 " stroke="black" stroke-width="1" fill="none" />
<polyline points="359,212.0 361,213.0 " stroke="black" stroke-width="1" fill="none" />
<polyline points="393,192.0 393,209.0 392,212.0 391,213.0 " stroke="black" stroke-width="1" fill="none" />
<polyline points="394,193.0 394,209.0 393,212.0 " stroke="black" stroke-width="1" fill="none" />
<polyline points="395,192.0 395,209.0 394,212.0 391,213.0 389,213.0 387,212.0 386,210.0 386,208.0 387,207.0 388,207.0 389,208.0 389,209.0 388,210.0 387,210.0 " stroke="black" stroke-width="1" fill="none" />
<polyline points="387,208.0 387,209.0 388,209.0 388,208.0 387,208.0 " stroke="black" stroke-width="1" fill="none" />
<polyline points="390,192.0 398,192.0 " stroke="black" stroke-width="1" fill="none" />
<polyline points="391,192.0 393,193.0 " stroke="black" stroke-width="1" fill="none" />
<polyline points="392,192.0 393,194.0 " stroke="black" stroke-width="1" fill="none" />
<polyline points="396,192.0 395,194.0 " stroke="black" stroke-width="1" fill="none" />
<polyline points="397,192.0 395,193.0 " stroke="black" stroke-width="1" fill="none" />
<polyline points="421,192.0 421,213.0 " stroke="black" stroke-width="1" fill="none" />
<polyline points="422,193.0 422,212.0 " stroke="black" stroke-width="1" fill="none" />
<polyline points="423,192.0 423,213.0 " stroke="black" stroke-width="1" fill="none" />
<polyline points="434,193.0 423,204.0 " stroke="black" stroke-width="1" fill="none" />
<polyline points="426,202.0 433,213.0 " stroke="black" stroke-width="1" fill="none" />
<polyline points="427,202.0 434,213.0 " stroke="black" stroke-width="1" fill="none" />
<polyline points="427,200.0 435,213.0 " stroke="black" stroke-width="1" fill="none" />
<polyline points="418,192.0 426,192.0 " stroke="black" stroke-width="1" fill="none" />
<polyline points="431,192.0 437,192.0 " stroke="black" stroke-width="1" fill="none" />
<polyline points="418,213.0 426,213.0 " stroke="black" stroke-width="1" fill="none" />
<polyline points="430,213.0 437,213.0 " stroke="black" stroke-width="1" fill="none" />
<polyline points="419,192.0 421,193.0 " stroke="black" stroke-width="1" fill="none" />
<polyline points="420,192.0 421,194.0 " stroke="black" stroke-width="1" fill="none" />
<polyline points="424,192.0 423,194.0 " stroke="black" stroke-width="1" fill="none" />
<polyline points="425,192.0 423,193.0 " stroke="black" stroke-width="1" fill="none" />
<polyline points="433,192.0 434,193.0 " stroke="black" stroke-width="1" fill="none" />
<polyline points="436,192.0 434,193.0 " stroke="black" stroke-width="1" fill="none" />
<polyline points="421,212.0 419,213.0 " stroke="black" stroke-width="1" fill="none" />
<polyline points="421,211.0 420,213.0 " stroke="black" stroke-width="1" fill="none" />
<polyline points="423,211.0 424,213.0 " stroke="black" stroke-width="1" fill="none" />
<polyline points="423,212.0 425,213.0 " stroke="black" stroke-width="1" fill="none" />
<polyline points="433,211.0 431,213.0 " stroke="black" stroke-width="1" fill="none" />
<polyline points="433,211.0 436,213.0 " stroke="black" stroke-width="1" fill="none" />
<polyline points="453,192.0 453,213.0 " stroke="black" stroke-width="1" fill="none" />
<polyline points="454,193.0 454,212.0 " stroke="black" stroke-width="1" fill="none" />
<polyline points="455,192.0 455,213.0 " stroke="black" stroke-width="1" fill="none" />
<polyline points="450,192.0 458,192.0 " stroke="black" stroke-width="1" fill="none" />
<polyline points="450,213.0 465,213.0 465,207.0 " stroke="black" stroke-width="1" fill="none" />
<polyline points="451,192.0 453,193.0 " stroke="black" stroke-width="1" fill="none" />
<polyline points="452,192.0 453,194.0 " stroke="black" stroke-width="1" fill="none" />
<polyline points="456,192.0 455,194.0 " stroke="black" stroke-width="1" fill="none" />
<polyline points="457,192.0 455,193.0 " stroke="black" stroke-width="1" fill="none" />
<polyline points="453,212.0 451,213.0 " stroke="black" stroke-width="1" fill="none" />
<polyline points="453,211.0 452,213.0 " stroke="black" stroke-width="1" fill="none" />
<polyline points="455,211.0 456,213.0 " stroke="black" stroke-width="1" fill="none" />
<polyline points="455,212.0 457,213.0 " stroke="black" stroke-width="1" fill="none" />
<polyline points="460,213.0 465,212.0 " stroke="black" stroke-width="1" fill="none" />
<polyline points="462,213.0 465,211.0 " stroke="black" stroke-width="1" fill="none" />
<polyline points="463,213.0 465,210.0 " stroke="black" stroke-width="1" fill="none" />
<polyline points="464,213.0 465,207.0 " stroke="black" stroke-width="1" fill="none" />
<polyline points="485,192.0 485,212.0 " stroke="black" stroke-width="1" fill="none" />
<polyline points="485,192.0 492,213.0 " stroke="black" stroke-width="1" fill="none" />
<polyline points="486,192.0 492,210.0 " stroke="black" stroke-width="1" fill="none" />
<polyline points="487,192.0 493,210.0 " stroke="black" stroke-width="1" fill="none" />
<polyline points="499,192.0 492,213.0 " stroke="black" stroke-width="1" fill="none" />
<polyline points="499,192.0 499,213.0 " stroke="black" stroke-width="1" fill="none" />
<polyline points="500,193.0 500,212.0 " stroke="black" stroke-width="1" fill="none" />
<polyline points="501,192.0 501,213.0 " stroke="black" stroke-width="1" fill="none" />
<polyline points="482,192.0 487,192.0 " stroke="black" stroke-width="1" fill="none" />
<polyline points="499,192.0 504,192.0 " stroke="black" stroke-width="1" fill="none" />
<polyline points="482,213.0 488,213.0 " stroke="black" stroke-width="1" fill="none" />
<polyline points="496,213.0 504,213.0 " stroke="black" stroke-width="1" fill="none" />
<polyline points="483,192.0 485,193.0 " stroke="black" stroke-width="1" fill="none" />
<polyline points="502,192.0 501,194.0 " stroke="black" stroke-width="1" fill="none" />
<polyline points="503,192.0 501,193.0 " stroke="black" stroke-width="1" fill="none" />
<polyline points="485,212.0 483,213.0 " stroke="black" stroke-width="1" fill="none" />
<polyline points="485,212.0 487,213.0 " stroke="black" stroke-width="1" fill="none" />
<polyline points="499,212.0 497,213.0 " stroke="black" stroke-width="1" fill="none" />
<polyline points="499,211.0 498,213.0 " stroke="black" stroke-width="1" fill="none" />
<polyline points="501,211.0 502,213.0 " stroke="black" stroke-width="1" fill="none" />
<polyline points="501,212.0 503,213.0 " stroke="black" stroke-width="1" fill="none" />
<polyline points="517,192.0 517,212.0 " stroke="black" stroke-width="1" fill="none" />
<polyline points="517,192.0 531,213.0 " stroke="black" stroke-width="1" fill="none" />
<polyline points="518,192.0 530,210.0 " stroke="black" stroke-width="1" fill="none" />
<polyline points="519,192.0 531,210.0 " stroke="black" stroke-width="1" fill="none" />
<polyline points="531,193.0 531,213.0 " stroke="black" stroke-width="1" fill="none" />
<polyline points="514,192.0 519,192.0 " stroke="black" stroke-width="1" fill="none" />
<polyline points="528,192.0 534,192.0 " stroke="black" stroke-width="1" fill="none" />
<polyline points="514,213.0 520,213.0 " stroke="black" stroke-width="1" fill="none" />
<polyline points="515,192.0 517,193.0 " stroke="black" stroke-width="1" fill="none" />
<polyline points="529,192.0 531,193.0 " stroke="black" stroke-width="1" fill="none" />
<polyline points="533,192.0 531,193.0 " stroke="black" stroke-width="1" fill="none" />
<polyline points="517,212.0 515,213.0 " stroke="black" stroke-width="1" fill="none" />
<polyline points="517,212.0 519,213.0 " stroke="black" stroke-width="1" fill="none" />
<polyline points="554,192.0 551,193.0 549,195.0 548,197.0 547,201.0 547,204.0 548,208.0 549,210.0 551,212.0 554,213.0 556,213.0 559,212.0 561,210.0 562,208.0 563,204.0 563,201.0 562,197.0 561,195.0 559,193.0 556,192.0 554,192.0 " stroke="black" stroke-width="1" fill="none" />
<polyline points="550,195.0 549,197.0 548,200.0 548,205.0 549,208.0 550,210.0 " stroke="black" stroke-width="1" fill="none" />
<polyline points="560,210.0 561,208.0 562,205.0 562,200.0 561,197.0 560,195.0 " stroke="black" stroke-width="1" fill="none" />
<polyline points="554,192.0 552,193.0 550,196.0 549,200.0 549,205.0 550,209.0 552,212.0 554,213.0 " stroke="black" stroke-width="1" fill="none" />
<polyline points="556,213.0 558,212.0 560,209.0 561,205.0 561,200.0 560,196.0 558,193.0 556,192.0 " stroke="black" stroke-width="1" fill="none" />
<polyline points="69,247.0 69,268.0 " stroke="black" stroke-width="1" fill="none" />
<polyline points="70,248.0 70,267.0 " stroke="black" stroke-width="1" fill="none" />
<polyline points="71,247.0 71,268.0 " stroke="black" stroke-width="1" fill="none" />
<polyline points="66,247.0 78,247.0 81,248.0 82,249.0 83,251.0 83,254.0 82,256.0 81,257.0 78,258.0 71,258.0 " stroke="black" stroke-width="1" fill="none" />
<polyline points="81,249.0 82,251.0 82,254.0 81,256.0 " stroke="black" stroke-width="1" fill="none" />
<polyline points="78,247.0 80,248.0 81,250.0 81,255.0 80,257.0 78,258.0 " stroke="black" stroke-width="1" fill="none" />
<polyline points="66,268.0 74,268.0 " stroke="black" stroke-width="1" fill="none" />
<polyline points="67,247.0 69,248.0 " stroke="black" stroke-width="1" fill="none" />
<polyline points="68,247.0 69,249.0 " stroke="black" stroke-width="1" fill="none" />
<polyline points="72,247.0 71,249.0 " stroke="black" stroke-width="1" fill="none" />
<polyline points="73,247.0 71,248.0 " stroke="black" stroke-width="1" fill="none" />
<polyline points="69,267.0 67,268.0 " stroke="black" stroke-width="1" fill="none" />
<polyline points="69,266.0 68,268.0 " stroke="black" stroke-width="1" fill="none" />
<polyline points="71,266.0 72,268.0 " stroke="black" stroke-width="1" fill="none" />
<polyline points="71,267.0 73,268.0 " stroke="black" stroke-width="1" fill="none" />
<polyline points="106,247.0 103,248.0 101,250.0 100,252.0 99,256.0 99,259.0 100,263.0 101,265.0 103,267.0 106,268.0 108,268.0 111,267.0 113,265.0 114,263.0 115,259.0 115,256.0 114,252.0 113,250.0 111,248.0 108,247.0 106,247.0 " stroke="black" stroke-width="1" fill="none" />
<polyline points="102,250.0 101,252.0 100,255.0 100,260.0 101,263.0 102,265.0 " stroke="black" stroke-width="1" fill="none" />
<polyline points="112,265.0 113,263.0 114,260.0 114,255.0 113,252.0 112,250.0 " stroke="black" stroke-width="1" fill="none" />
<polyline points="106,247.0 104,248.0 102,251.0 101,255.0 101,260.0 102,264.0 104,267.0 106,268.0 " stroke="black" stroke-width="1" fill="none" />
<polyline points="108,268.0 110,267.0 112,264.0 113,260.0 113,255.0 112,251.0 110,248.0 108,247.0 " stroke="black" stroke-width="1" fill="none" />
<polyline points="103,265.0 104,263.0 106,262.0 107,262.0 109,263.0 110,265.0 111,271.0 112,273.0 114,273.0 115,271.0 115,269.0 " stroke="black" stroke-width="1" fill="none" />
<polyline points="111,269.0 112,271.0 113,272.0 114,272.0 " stroke="black" stroke-width="1" fill="none" />
<polyline points="110,265.0 112,270.0 113,271.0 114,271.0 115,270.0 " stroke="black" stroke-width="1" fill="none" />
<polyline points="133,247.0 133,268.0 " stroke="black" stroke-width="1" fill="none" />
<polyline points="134,248.0 134,267.0 " stroke="black" stroke-width="1" fill="none" />
<polyline points="135,247.0 135,268.0 " stroke="black" stroke-width="1" fill="none" />
<polyline points="130,247.0 142,247.0 145,248.0 146,249.0 147,251.0 147,253.0 146,255.0 145,256.0 142,257.0 135,257.0 " stroke="black" stroke-width="1" fill="none" />
<polyline points="145,249.0 146,251.0 146,253.0 145,255.0 " stroke="black" stroke-width="1" fill="none" />
<polyline points="142,247.0 144,248.0 145,250.0 145,254.0 144,256.0 142,257.0 " stroke="black" stroke-width="1" fill="none" />
<polyline points="139,257.0 141,258.0 142,260.0 144,266.0 145,268.0 147,268.0 148,266.0 148,264.0 " stroke="black" stroke-width="1" fill="none" />
<polyline points="144,264.0 145,266.0 146,267.0 147,267.0 " stroke="black" stroke-width="1" fill="none" />
<polyline points="141,258.0 142,259.0 145,265.0 146,266.0 147,266.0 148,265.0 " stroke="black" stroke-width="1" fill="none" />
<polyline points="130,268.0 138,268.0 " stroke="black" stroke-width="1" fill="none" />
<polyline points="131,247.0 133,248.0 " stroke="black" stroke-width="1" fill="none" />
<polyline points="132,247.0 133,249.0 " stroke="black" stroke-width="1" fill="none" />
<polyline points="136,247.0 135,249.0 " stroke="black" stroke-width="1" fill="none" />
<polyline points="137,247.0 135,248.0 " stroke="black" stroke-width="1" fill="none" />
<polyline points="133,267.0 131,268.0 " stroke="black" stroke-width="1" fill="none" />
<polyline points="133,266.0 132,268.0 " stroke="black" stroke-width="1" fill="none" />
<polyline points="135,266.0 136,268.0 " stroke="black" stroke-width="1" fill="none" />
<polyline points="135,267.0 137,268.0 " stroke="black" stroke-width="1" fill="none" />
<polyline points="176,250.0 177,247.0 177,253.0 176,250.0 174,248.0 171,247.0 168,247.0 165,248.0 163,250.0 163,253.0 164,255.0 167,257.0 173,259.0 175,260.0 176,262.0 176,265.0 175,267.0 " stroke="black" stroke-width="1" fill="none" />
<polyline points="164,253.0 165,255.0 167,256.0 173,258.0 175,259.0 176,261.0 " stroke="black" stroke-width="1" fill="none" />
<polyline points="165,248.0 164,250.0 164,252.0 165,254.0 167,255.0 173,257.0 176,259.0 177,261.0 177,264.0 176,266.0 175,267.0 172,268.0 169,268.0 166,267.0 164,265.0 163,262.0 163,268.0 164,265.0 " stroke="black" stroke-width="1" fill="none" />
<polyline points="194,247.0 194,253.0 " stroke="black" stroke-width="1" fill="none" />
<polyline points="201,247.0 201,268.0 " stroke="black" stroke-width="1" fill="none" />
<polyline points="202,248.0 202,267.0 " stroke="black" stroke-width="1" fill="none" />
<polyline points="203,247.0 203,268.0 " stroke="black" stroke-width="1" fill="none" />
<polyline points="210,247.0 210,253.0 " stroke="black" stroke-width="1" fill="none" />
<polyline points="194,247.0 210,247.0 " stroke="black" stroke-width="1" fill="none" />
<polyline points="198,268.0 206,268.0 " stroke="black" stroke-width="1" fill="none" />
<polyline points="195,247.0 194,253.0 " stroke="black" stroke-width="1" fill="none" />
<polyline points="196,247.0 194,250.0 " stroke="black" stroke-width="1" fill="none" />
<polyline points="197,247.0 194,249.0 " stroke="black" stroke-width="1" fill="none" />
<polyline points="199,247.0 194,248.0 " stroke="black" stroke-width="1" fill="none" />
<polyline points="205,247.0 210,248.0 " stroke="black" stroke-width="1" fill="none" />
<polyline points="207,247.0 210,249.0 " stroke="black" stroke-width="1" fill="none" />
<polyline points="208,247.0 210,250.0 " stroke="black" stroke-width="1" fill="none" />
<polyline points="209,247.0 210,253.0 " stroke="black" stroke-width="1" fill="none" />
<polyline points="201,267.0 199,268.0 " stroke="black" stroke-width="1" fill="none" />
<polyline points="201,266.0 200,268.0 " stroke="black" stroke-width="1" fill="none" />
<polyline points="203,266.0 204,268.0 " stroke="black" stroke-width="1" fill="none" />
<polyline points="203,267.0 205,268.0 " stroke="black" stroke-width="1" fill="none" />
<polyline points="229,247.0 229,262.0 230,265.0 232,267.0 235,268.0 237,268.0 240,267.0 242,265.0 243,262.0 243,248.0 " stroke="black" stroke-width="1" fill="none" />
<polyline points="230,248.0 230,263.0 231,265.0 " stroke="black" stroke-width="1" fill="none" />
<polyline points="231,247.0 231,263.0 232,266.0 233,267.0 235,268.0 " stroke="black" stroke-width="1" fill="none" />
<polyline points="226,247.0 234,247.0 " stroke="black" stroke-width="1" fill="none" />
<polyline points="240,247.0 246,247.0 " stroke="black" stroke-width="1" fill="none" />
<polyline points="227,247.0 229,248.0 " stroke="black" stroke-width="1" fill="none" />
<polyline points="228,247.0 229,249.0 " stroke="black" stroke-width="1" fill="none" />
<polyline points="232,247.0 231,249.0 " stroke="black" stroke-width="1" fill="none" />
<polyline points="233,247.0 231,248.0 " stroke="black" stroke-width="1" fill="none" />
<polyline points="241,247.0 243,248.0 " stroke="black" stroke-width="1" fill="none" />
<polyline points="245,247.0 243,248.0 " stroke="black" stroke-width="1" fill="none" />
<polyline points="259,247.0 266,268.0 " stroke="black" stroke-width="1" fill="none" />
<polyline points="260,247.0 266,265.0 266,268.0 " stroke="black" stroke-width="1" fill="none" />
<polyline points="261,247.0 267,265.0 " stroke="black" stroke-width="1" fill="none" />
<polyline points="273,248.0 266,268.0 " stroke="black" stroke-width="1" fill="none" />
<polyline points="257,247.0 264,247.0 " stroke="black" stroke-width="1" fill="none" />
<polyline points="269,247.0 275,247.0 " stroke="black" stroke-width="1" fill="none" />
<polyline points="258,247.0 260,249.0 " stroke="black" stroke-width="1" fill="none" />
<polyline points="262,247.0 261,249.0 " stroke="black" stroke-width="1" fill="none" />
<polyline points="263,247.0 261,248.0 " stroke="black" stroke-width="1" fill="none" />
<polyline points="271,247.0 273,248.0 " stroke="black" stroke-width="1" fill="none" />
<polyline points="274,247.0 273,248.0 " stroke="black" stroke-width="1" fill="none" />
<polyline points="292,247.0 296,268.0 " stroke="black" stroke-width="1" fill="none" />
<polyline points="293,247.0 296,263.0 296,268.0 " stroke="black" stroke-width="1" fill="none" />
<polyline points="294,247.0 297,263.0 " stroke="black" stroke-width="1" fill="none" />
<polyline points="300,247.0 297,263.0 296,268.0 " stroke="black" stroke-width="1" fill="none" />
<polyline points="300,247.0 304,268.0 " stroke="black" stroke-width="1" fill="none" />
<polyline points="301,247.0 304,263.0 304,268.0 " stroke="black" stroke-width="1" fill="none" />
<polyline points="302,247.0 305,263.0 " stroke="black" stroke-width="1" fill="none" />
<polyline points="308,248.0 305,263.0 304,268.0 " stroke="black" stroke-width="1" fill="none" />
<polyline points="289,247.0 297,247.0 " stroke="black" stroke-width="1" fill="none" />
<polyline points="300,247.0 302,247.0 " stroke="black" stroke-width="1" fill="none" />
<polyline points="305,247.0 311,247.0 " stroke="black" stroke-width="1" fill="none" />
<polyline points="290,247.0 293,248.0 " stroke="black" stroke-width="1" fill="none" />
<polyline points="291,247.0 293,249.0 " stroke="black" stroke-width="1" fill="none" />
<polyline points="295,247.0 294,249.0 " stroke="black" stroke-width="1" fill="none" />
<polyline points="296,247.0 294,248.0 " stroke="black" stroke-width="1" fill="none" />
<polyline points="306,247.0 308,248.0 " stroke="black" stroke-width="1" fill="none" />
<polyline points="310,247.0 308,248.0 " stroke="black" stroke-width="1" fill="none" />
<polyline points="323,247.0 335,268.0 " stroke="black" stroke-width="1" fill="none" />
<polyline points="324,247.0 336,268.0 " stroke="black" stroke-width="1" fill="none" />
<polyline points="325,247.0 337,268.0 " stroke="black" stroke-width="1" fill="none" />
<polyline points="336,248.0 324,267.0 " stroke="black" stroke-width="1" fill="none" />
<polyline points="321,247.0 328,247.0 " stroke="black" stroke-width="1" fill="none" />
<polyline points="333,247.0 339,247.0 " stroke="black" stroke-width="1" fill="none" />
<polyline points="321,268.0 327,268.0 " stroke="black" stroke-width="1" fill="none" />
<polyline points="332,268.0 339,268.0 " stroke="black" stroke-width="1" fill="none" />
<polyline points="322,247.0 325,249.0 " stroke="black" stroke-width="1" fill="none" />
<polyline points="326,247.0 325,249.0 " stroke="black" stroke-width="1" fill="none" />
<polyline points="327,247.0 325,248.0 " stroke="black" stroke-width="1" fill="none" />
<polyline points="334,247.0 336,248.0 " stroke="black" stroke-width="1" fill="none" />
<polyline points="338,247.0 336,248.0 " stroke="black" stroke-width="1" fill="none" />
<polyline points="324,267.0 322,268.0 " stroke="black" stroke-width="1" fill="none" />
<polyline points="324,267.0 326,268.0 " stroke="black" stroke-width="1" fill="none" />
<polyline points="335,267.0 333,268.0 " stroke="black" stroke-width="1" fill="none" />
<polyline points="335,266.0 334,268.0 " stroke="black" stroke-width="1" fill="none" />
<polyline points="335,266.0 338,268.0 " stroke="black" stroke-width="1" fill="none" />
<polyline points="355,247.0 362,258.0 362,268.0 " stroke="black" stroke-width="1" fill="none" />
<polyline points="356,247.0 363,258.0 363,267.0 " stroke="black" stroke-width="1" fill="none" />
<polyline points="357,247.0 364,258.0 364,268.0 " stroke="black" stroke-width="1" fill="none" />
<polyline points="370,248.0 364,258.0 " stroke="black" stroke-width="1" fill="none" />
<polyline points="353,247.0 360,247.0 " stroke="black" stroke-width="1" fill="none" />
<polyline points="367,247.0 373,247.0 " stroke="black" stroke-width="1" fill="none" />
<polyline points="359,268.0 367,268.0 " stroke="black" stroke-width="1" fill="none" />
<polyline points="354,247.0 356,248.0 " stroke="black" stroke-width="1" fill="none" />
<polyline points="359,247.0 357,248.0 " stroke="black" stroke-width="1" fill="none" />
<polyline points="368,247.0 370,248.0 " stroke="black" stroke-width="1" fill="none" />
<polyline points="372,247.0 370,248.0 " stroke="black" stroke-width="1" fill="none" />
<polyline points="362,267.0 360,268.0 " stroke="black" stroke-width="1" fill="none" />
<polyline points="362,266.0 361,268.0 " stroke="black" stroke-width="1" fill="none" />
<polyline points="364,266.0 365,268.0 " stroke="black" stroke-width="1" fill="none" />
<polyline points="364,267.0 366,268.0 " stroke="black" stroke-width="1" fill="none" />
<polyline points="401,247.0 387,247.0 387,253.0 " stroke="black" stroke-width="1" fill="none" />
<polyline points="399,247.0 387,268.0 " stroke="black" stroke-width="1" fill="none" />
<polyline points="400,247.0 388,268.0 " stroke="black" stroke-width="1" fill="none" />
<polyline points="401,247.0 389,268.0 " stroke="black" stroke-width="1" fill="none" />
<polyline points="387,268.0 401,268.0 401,262.0 " stroke="black" stroke-width="1" fill="none" />
<polyline points="388,247.0 387,253.0 " stroke="black" stroke-width="1" fill="none" />
<polyline points="389,247.0 387,250.0 " stroke="black" stroke-width="1" fill="none" />
<polyline points="390,247.0 387,249.0 " stroke="black" stroke-width="1" fill="none" />
<polyline points="392,247.0 387,248.0 " stroke="black" stroke-width="1" fill="none" />
<polyline points="396,268.0 401,267.0 " stroke="black" stroke-width="1" fill="none" />
<polyline points="398,268.0 401,266.0 " stroke="black" stroke-width="1" fill="none" />
<polyline points="399,268.0 401,265.0 " stroke="black" stroke-width="1" fill="none" />
<polyline points="400,268.0 401,262.0 " stroke="black" stroke-width="1" fill="none" />
<polyline points="419,248.0 420,252.0 421,254.0 423,256.0 426,257.0 430,257.0 433,256.0 435,254.0 436,252.0 437,248.0 " stroke="black" stroke-width="1" fill="none" />
<polyline points="419,248.0 420,251.0 421,253.0 423,255.0 426,256.0 430,256.0 433,255.0 435,253.0 436,251.0 437,248.0 " stroke="black" stroke-width="1" fill="none" />
<polyline points="426,256.0 424,257.0 423,258.0 422,260.0 422,263.0 423,265.0 425,267.0 427,268.0 429,268.0 431,267.0 433,265.0 434,263.0 434,260.0 433,258.0 432,257.0 430,256.0 " stroke="black" stroke-width="1" fill="none" />
<polyline points="426,257.0 424,258.0 423,260.0 423,263.0 424,266.0 " stroke="black" stroke-width="1" fill="none" />
<polyline points="432,266.0 433,263.0 433,260.0 432,258.0 430,257.0 " stroke="black" stroke-width="1" fill="none" />
<polyline points="448,247.0 462,271.0 " stroke="black" stroke-width="1" fill="none" />
<polyline points="487,251.0 487,263.0 " stroke="black" stroke-width="1" fill="none" />
<polyline points="488,252.0 488,262.0 " stroke="black" stroke-width="1" fill="none" />
<polyline points="496,252.0 496,262.0 " stroke="black" stroke-width="1" fill="none" />
<polyline points="497,251.0 497,263.0 " stroke="black" stroke-width="1" fill="none" />
<polyline points="483,248.0 485,250.0 487,251.0 490,252.0 494,252.0 497,251.0 499,250.0 501,248.0 " stroke="black" stroke-width="1" fill="none" />
<polyline points="483,266.0 485,264.0 487,263.0 490,262.0 494,262.0 497,263.0 499,264.0 501,266.0 " stroke="black" stroke-width="1" fill="none" />
<polyline points="533,250.0 518,250.0 516,251.0 515,253.0 515,255.0 516,257.0 518,258.0 520,258.0 522,257.0 523,255.0 523,253.0 522,251.0 533,251.0 " stroke="black" stroke-width="1" fill="none" />
<polyline points="515,254.0 516,256.0 517,257.0 519,258.0 " stroke="black" stroke-width="1" fill="none" />
<polyline points="523,254.0 522,252.0 521,251.0 519,250.0 " stroke="black" stroke-width="1" fill="none" />
<polyline points="515,265.0 530,265.0 532,264.0 533,262.0 533,260.0 532,258.0 530,257.0 528,257.0 526,258.0 525,260.0 525,262.0 526,264.0 515,264.0 " stroke="black" stroke-width="1" fill="none" />
<polyline points="533,261.0 532,259.0 531,258.0 529,257.0 " stroke="black" stroke-width="1" fill="none" />
<polyline points="525,261.0 526,263.0 527,264.0 529,265.0 " stroke="black" stroke-width="1" fill="none" />
<polyline points="553,262.0 551,261.0 550,261.0 548,262.0 547,264.0 547,265.0 548,267.0 550,268.0 551,268.0 553,267.0 554,265.0 554,264.0 553,262.0 548,257.0 547,255.0 547,252.0 548,250.0 550,249.0 553,248.0 557,248.0 561,249.0 563,251.0 564,253.0 564,256.0 563,259.0 560,262.0 559,264.0 559,266.0 560,268.0 562,268.0 563,267.0 564,265.0 " stroke="black" stroke-width="1" fill="none" />
<polyline points="551,260.0 549,257.0 548,255.0 548,252.0 549,250.0 550,249.0 " stroke="black" stroke-width="1" fill="none" />
<polyline points="557,248.0 560,249.0 562,251.0 563,253.0 563,256.0 562,259.0 560,262.0 " stroke="black" stroke-width="1" fill="none" />
<polyline points="65,307.0 68,304.0 70,307.0 70,318.0 " stroke="black" stroke-width="1" fill="none" />
<polyline points="67,305.0 69,308.0 69,318.0 " stroke="black" stroke-width="1" fill="none" />
<polyline points="70,307.0 73,304.0 75,307.0 75,317.0 " stroke="black" stroke-width="1" fill="none" />
<polyline points="72,305.0 74,308.0 74,317.0 " stroke="black" stroke-width="1" fill="none" />
<polyline points="75,307.0 78,304.0 80,307.0 80,323.0 " stroke="black" stroke-width="1" fill="none" />
<polyline points="77,305.0 79,308.0 79,323.0 " stroke="black" stroke-width="1" fill="none" />
<polyline points="80,307.0 83,304.0 84,306.0 85,309.0 85,312.0 84,315.0 83,317.0 81,319.0 78,321.0 73,323.0 " stroke="black" stroke-width="1" fill="none" />
<polyline points="82,305.0 83,306.0 84,309.0 84,312.0 83,315.0 82,317.0 80,319.0 77,321.0 73,323.0 " stroke="black" stroke-width="1" fill="none" />
<polyline points="112,309.0 110,316.0 110,320.0 111,322.0 112,323.0 114,323.0 116,321.0 117,319.0 " stroke="black" stroke-width="1" fill="none" />
<polyline points="113,309.0 111,316.0 111,322.0 " stroke="black" stroke-width="1" fill="none" />
<polyline points="112,309.0 114,309.0 112,316.0 111,320.0 " stroke="black" stroke-width="1" fill="none" />
<polyline points="110,316.0 110,313.0 109,310.0 107,309.0 105,309.0 102,310.0 100,313.0 99,316.0 99,318.0 100,321.0 101,322.0 103,323.0 105,323.0 107,322.0 108,321.0 109,319.0 110,316.0 " stroke="black" stroke-width="1" fill="none" />
<polyline points="103,310.0 101,313.0 100,316.0 100,319.0 101,321.0 " stroke="black" stroke-width="1" fill="none" />
<polyline points="105,309.0 103,311.0 102,313.0 101,316.0 101,319.0 102,322.0 103,323.0 " stroke="black" stroke-width="1" fill="none" />
<polyline points="135,302.0 133,309.0 132,315.0 132,319.0 133,321.0 134,322.0 136,323.0 138,323.0 141,322.0 143,319.0 144,316.0 144,314.0 143,311.0 142,310.0 140,309.0 138,309.0 136,310.0 135,311.0 134,313.0 133,316.0 " stroke="black" stroke-width="1" fill="none" />
<polyline points="136,302.0 134,309.0 133,313.0 133,319.0 134,322.0 " stroke="black" stroke-width="1" fill="none" />
<polyline points="141,321.0 142,319.0 143,316.0 143,313.0 142,311.0 " stroke="black" stroke-width="1" fill="none" />
<polyline points="132,302.0 137,302.0 135,309.0 133,316.0 " stroke="black" stroke-width="1" fill="none" />
<polyline points="138,323.0 140,321.0 141,319.0 142,316.0 142,313.0 141,310.0 140,309.0 " stroke="black" stroke-width="1" fill="none" />
<polyline points="133,302.0 136,303.0 " stroke="black" stroke-width="1" fill="none" />
<polyline points="134,302.0 135,304.0 " stroke="black" stroke-width="1" fill="none" />
<polyline points="174,313.0 174,312.0 173,312.0 173,314.0 175,314.0 175,312.0 174,310.0 172,309.0 169,309.0 166,310.0 164,313.0 163,316.0 163,318.0 164,321.0 165,322.0 167,323.0 169,323.0 172,322.0 174,319.0 " stroke="black" stroke-width="1" fill="none" />
<polyline points="166,311.0 165,313.0 164,316.0 164,319.0 165,321.0 " stroke="black" stroke-width="1" fill="none" />
<polyline points="169,309.0 167,311.0 166,313.0 165,316.0 165,319.0 166,322.0 167,323.0 " stroke="black" stroke-width="1" fill="none" />
<polyline points="210,302.0 207,313.0 206,317.0 206,320.0 207,322.0 208,323.0 210,323.0 212,321.0 213,319.0 " stroke="black" stroke-width="1" fill="none" />
<polyline points="211,302.0 208,313.0 207,317.0 207,322.0 " stroke="black" stroke-width="1" fill="none" />
<polyline points="207,302.0 212,302.0 208,316.0 207,320.0 " stroke="black" stroke-width="1" fill="none" />
<polyline points="206,316.0 206,313.0 205,310.0 203,309.0 201,309.0 198,310.0 196,313.0 195,316.0 195,318.0 196,321.0 197,322.0 199,323.0 201,323.0 203,322.0 204,321.0 205,319.0 206,316.0 " stroke="black" stroke-width="1" fill="none" />
<polyline points="198,311.0 197,313.0 196,316.0 196,319.0 197,321.0 " stroke="black" stroke-width="1" fill="none" />
<polyline points="201,309.0 199,311.0 198,313.0 197,316.0 197,319.0 198,322.0 199,323.0 " stroke="black" stroke-width="1" fill="none" />
<polyline points="208,302.0 211,303.0 " stroke="black" stroke-width="1" fill="none" />
<polyline points="209,302.0 210,304.0 " stroke="black" stroke-width="1" fill="none" />
<polyline points="228,318.0 232,317.0 235,316.0 238,314.0 239,312.0 238,310.0 236,309.0 233,309.0 230,310.0 228,313.0 227,316.0 227,318.0 228,321.0 229,322.0 231,323.0 233,323.0 236,322.0 238,320.0 " stroke="black" stroke-width="1" fill="none" />
<polyline points="230,311.0 229,313.0 228,316.0 228,319.0 229,321.0 " stroke="black" stroke-width="1" fill="none" />
<polyline points="233,309.0 231,311.0 230,313.0 229,316.0 229,319.0 230,322.0 231,323.0 " stroke="black" stroke-width="1" fill="none" />
<polyline points="272,304.0 272,303.0 271,303.0 271,305.0 273,305.0 273,303.0 272,302.0 270,302.0 268,303.0 266,305.0 265,307.0 264,310.0 263,314.0 261,323.0 260,326.0 259,328.0 257,330.0 " stroke="black" stroke-width="1" fill="none" />
<polyline points="266,306.0 265,309.0 264,314.0 262,323.0 261,326.0 " stroke="black" stroke-width="1" fill="none" />
<polyline points="270,302.0 268,304.0 267,306.0 266,309.0 265,314.0 263,322.0 262,325.0 261,327.0 259,329.0 257,330.0 255,330.0 254,329.0 254,327.0 256,327.0 256,329.0 255,329.0 255,328.0 " stroke="black" stroke-width="1" fill="none" />
<polyline points="260,309.0 271,309.0 " stroke="black" stroke-width="1" fill="none" />
<polyline points="304,309.0 300,323.0 299,326.0 297,329.0 295,330.0 " stroke="black" stroke-width="1" fill="none" />
<polyline points="305,309.0 301,323.0 299,327.0 " stroke="black" stroke-width="1" fill="none" />
<polyline points="304,309.0 306,309.0 302,323.0 300,327.0 298,329.0 295,330.0 292,330.0 290,329.0 289,328.0 289,326.0 291,326.0 291,328.0 290,328.0 290,327.0 " stroke="black" stroke-width="1" fill="none" />
<polyline points="302,316.0 302,313.0 301,310.0 299,309.0 297,309.0 294,310.0 292,313.0 291,316.0 291,318.0 292,321.0 293,322.0 295,323.0 297,323.0 299,322.0 300,321.0 301,319.0 302,316.0 " stroke="black" stroke-width="1" fill="none" />
<polyline points="294,311.0 293,313.0 292,316.0 292,319.0 293,321.0 " stroke="black" stroke-width="1" fill="none" />
<polyline points="297,309.0 295,311.0 294,313.0 293,316.0 293,319.0 294,322.0 295,323.0 " stroke="black" stroke-width="1" fill="none" />
<polyline points="328,302.0 322,323.0 324,323.0 " stroke="black" stroke-width="1" fill="none" />
<polyline points="329,302.0 323,323.0 " stroke="black" stroke-width="1" fill="none" />
<polyline points="325,302.0 330,302.0 324,323.0 " stroke="black" stroke-width="1" fill="none" />
<polyline points="326,316.0 328,312.0 330,310.0 332,309.0 334,309.0 336,310.0 337,312.0 337,315.0 335,320.0 " stroke="black" stroke-width="1" fill="none" />
<polyline points="336,310.0 336,314.0 335,318.0 335,322.0 " stroke="black" stroke-width="1" fill="none" />
<polyline points="336,312.0 334,317.0 334,320.0 335,322.0 336,323.0 338,323.0 340,321.0 341,319.0 " stroke="black" stroke-width="1" fill="none" />
<polyline points="326,302.0 329,303.0 " stroke="black" stroke-width="1" fill="none" />
<polyline points="327,302.0 328,304.0 " stroke="black" stroke-width="1" fill="none" />
<polyline points="360,302.0 360,304.0 362,304.0 362,302.0 360,302.0 " stroke="black" stroke-width="1" fill="none" />
<polyline points="361,302.0 361,304.0 " stroke="black" stroke-width="1" fill="none" />
<polyline points="360,303.0 362,303.0 " stroke="black" stroke-width="1" fill="none" />
<polyline points="353,313.0 354,311.0 356,309.0 358,309.0 359,310.0 360,312.0 360,315.0 358,320.0 " stroke="black" stroke-width="1" fill="none" />
<polyline points="359,310.0 359,314.0 358,318.0 358,322.0 " stroke="black" stroke-width="1" fill="none" />
<polyline points="359,312.0 357,317.0 357,320.0 358,322.0 359,323.0 361,323.0 363,321.0 364,319.0 " stroke="black" stroke-width="1" fill="none" />
<polyline points="394,302.0 394,304.0 396,304.0 396,302.0 394,302.0 " stroke="black" stroke-width="1" fill="none" />
<polyline points="395,302.0 395,304.0 " stroke="black" stroke-width="1" fill="none" />
<polyline points="394,303.0 396,303.0 " stroke="black" stroke-width="1" fill="none" />
<polyline points="386,313.0 387,311.0 389,309.0 391,309.0 392,310.0 393,312.0 393,315.0 391,322.0 390,325.0 389,327.0 387,329.0 385,330.0 383,330.0 382,329.0 382,327.0 384,327.0 384,329.0 383,329.0 383,328.0 " stroke="black" stroke-width="1" fill="none" />
<polyline points="392,310.0 392,315.0 390,322.0 389,325.0 388,327.0 " stroke="black" stroke-width="1" fill="none" />
<polyline points="392,312.0 391,316.0 389,323.0 388,326.0 387,328.0 385,330.0 " stroke="black" stroke-width="1" fill="none" />
<polyline points="424,302.0 418,323.0 420,323.0 " stroke="black" stroke-width="1" fill="none" />
<polyline points="425,302.0 419,323.0 " stroke="black" stroke-width="1" fill="none" />
<polyline points="421,302.0 426,302.0 420,323.0 " stroke="black" stroke-width="1" fill="none" />
<polyline points="434,311.0 434,310.0 433,310.0 433,312.0 435,312.0 435,310.0 434,309.0 432,309.0 430,310.0 426,314.0 424,315.0 " stroke="black" stroke-width="1" fill="none" />
<polyline points="422,315.0 424,315.0 426,316.0 427,317.0 429,321.0 430,322.0 432,322.0 " stroke="black" stroke-width="1" fill="none" />
<polyline points="426,317.0 428,321.0 429,322.0 " stroke="black" stroke-width="1" fill="none" />
<polyline points="424,315.0 425,316.0 427,322.0 428,323.0 430,323.0 432,322.0 434,319.0 " stroke="black" stroke-width="1" fill="none" />
<polyline points="422,302.0 425,303.0 " stroke="black" stroke-width="1" fill="none" />
<polyline points="423,302.0 424,304.0 " stroke="black" stroke-width="1" fill="none" />
<polyline points="456,302.0 453,313.0 452,317.0 452,320.0 453,322.0 454,323.0 456,323.0 458,321.0 459,319.0 " stroke="black" stroke-width="1" fill="none" />
<polyline points="457,302.0 454,313.0 453,317.0 453,322.0 " stroke="black" stroke-width="1" fill="none" />
<polyline points="453,302.0 458,302.0 454,316.0 453,320.0 " stroke="black" stroke-width="1" fill="none" />
<polyline points="454,302.0 457,303.0 " stroke="black" stroke-width="1" fill="none" />
<polyline points="455,302.0 456,304.0 " stroke="black" stroke-width="1" fill="none" />
<polyline points="481,313.0 482,311.0 484,309.0 486,309.0 487,310.0 488,312.0 488,315.0 486,323.0 " stroke="black" stroke-width="1" fill="none" />
<polyline points="487,310.0 487,315.0 485,323.0 " stroke="black" stroke-width="1" fill="none" />
<polyline points="487,312.0 486,316.0 484,323.0 486,323.0 " stroke="black" stroke-width="1" fill="none" />
<polyline points="488,315.0 490,312.0 492,310.0 494,309.0 496,309.0 498,310.0 499,312.0 499,315.0 497,323.0 " stroke="black" stroke-width="1" fill="none" />
<polyline points="498,310.0 498,315.0 496,323.0 " stroke="black" stroke-width="1" fill="none" />
<polyline points="498,312.0 497,316.0 495,323.0 497,323.0 " stroke="black" stroke-width="1" fill="none" />
<polyline points="499,315.0 501,312.0 503,310.0 505,309.0 507,309.0 509,310.0 510,312.0 510,315.0 508,320.0 " stroke="black" stroke-width="1" fill="none" />
<polyline points="509,310.0 509,314.0 508,318.0 508,322.0 " stroke="black" stroke-width="1" fill="none" />
<polyline points="509,312.0 507,317.0 507,320.0 508,322.0 509,323.0 511,323.0 513,321.0 514,319.0 " stroke="black" stroke-width="1" fill="none" />
<polyline points="513,313.0 514,311.0 516,309.0 518,309.0 519,310.0 520,312.0 520,315.0 518,323.0 " stroke="black" stroke-width="1" fill="none" />
<polyline points="519,310.0 519,315.0 517,323.0 " stroke="black" stroke-width="1" fill="none" />
<polyline points="519,312.0 518,316.0 516,323.0 518,323.0 " stroke="black" stroke-width="1" fill="none" />
<polyline points="520,315.0 522,312.0 524,310.0 526,309.0 528,309.0 530,310.0 531,312.0 531,315.0 529,320.0 " stroke="black" stroke-width="1" fill="none" />
<polyline points="530,310.0 530,314.0 529,318.0 529,322.0 " stroke="black" stroke-width="1" fill="none" />
<polyline points="530,312.0 528,317.0 528,320.0 529,322.0 530,323.0 532,323.0 534,321.0 535,319.0 " stroke="black" stroke-width="1" fill="none" />
<polyline points="553,309.0 550,310.0 548,313.0 547,316.0 547,318.0 548,321.0 549,322.0 552,323.0 555,323.0 558,322.0 560,319.0 561,316.0 561,314.0 560,311.0 559,310.0 556,309.0 553,309.0 " stroke="black" stroke-width="1" fill="none" />
<polyline points="550,311.0 549,313.0 548,316.0 548,319.0 549,321.0 " stroke="black" stroke-width="1" fill="none" />
<polyline points="558,321.0 559,319.0 560,316.0 560,313.0 559,311.0 " stroke="black" stroke-width="1" fill="none" />
<polyline points="553,309.0 551,311.0 550,313.0 549,316.0 549,319.0 550,322.0 552,323.0 " stroke="black" stroke-width="1" fill="none" />
<polyline points="555,323.0 557,321.0 558,319.0 559,316.0 559,313.0 558,310.0 556,309.0 " stroke="black" stroke-width="1" fill="none" />
<polyline points="65,368.0 66,366.0 68,364.0 70,364.0 71,365.0 72,367.0 72,370.0 71,374.0 68,385.0 " stroke="black" stroke-width="1" fill="none" />
<polyline points="71,365.0 71,370.0 70,374.0 67,385.0 " stroke="black" stroke-width="1" fill="none" />
<polyline points="71,367.0 70,371.0 66,385.0 " stroke="black" stroke-width="1" fill="none" />
<polyline points="72,371.0 73,368.0 74,366.0 75,365.0 77,364.0 79,364.0 81,365.0 82,366.0 83,369.0 83,371.0 82,374.0 80,377.0 77,378.0 75,378.0 73,377.0 72,374.0 72,371.0 " stroke="black" stroke-width="1" fill="none" />
<polyline points="81,366.0 82,368.0 82,371.0 81,374.0 80,376.0 " stroke="black" stroke-width="1" fill="none" />
<polyline points="79,364.0 80,365.0 81,368.0 81,371.0 80,374.0 79,376.0 77,378.0 " stroke="black" stroke-width="1" fill="none" />
<polyline points="63,385.0 71,385.0 " stroke="black" stroke-width="1" fill="none" />
<polyline points="67,384.0 64,385.0 " stroke="black" stroke-width="1" fill="none" />
<polyline points="67,383.0 65,385.0 " stroke="black" stroke-width="1" fill="none" />
<polyline points="68,383.0 69,385.0 " stroke="black" stroke-width="1" fill="none" />
<polyline points="67,384.0 70,385.0 " stroke="black" stroke-width="1" fill="none" />
<polyline points="112,364.0 106,385.0 " stroke="black" stroke-width="1" fill="none" />
<polyline points="113,364.0 107,385.0 " stroke="black" stroke-width="1" fill="none" />
<polyline points="112,364.0 114,364.0 108,385.0 " stroke="black" stroke-width="1" fill="none" />
<polyline points="110,371.0 110,368.0 109,365.0 107,364.0 105,364.0 102,365.0 100,368.0 99,371.0 99,373.0 100,376.0 101,377.0 103,378.0 105,378.0 107,377.0 108,376.0 109,374.0 110,371.0 " stroke="black" stroke-width="1" fill="none" />
<polyline points="102,366.0 101,368.0 100,371.0 100,374.0 101,376.0 " stroke="black" stroke-width="1" fill="none" />
<polyline points="105,364.0 103,366.0 102,368.0 101,371.0 101,374.0 102,377.0 103,378.0 " stroke="black" stroke-width="1" fill="none" />
<polyline points="103,385.0 111,385.0 " stroke="black" stroke-width="1" fill="none" />
<polyline points="107,384.0 104,385.0 " stroke="black" stroke-width="1" fill="none" />
<polyline points="107,383.0 105,385.0 " stroke="black" stroke-width="1" fill="none" />
<polyline points="108,383.0 109,385.0 " stroke="black" stroke-width="1" fill="none" />
<polyline points="107,384.0 110,385.0 " stroke="black" stroke-width="1" fill="none" />
<polyline points="129,368.0 130,366.0 132,364.0 134,364.0 135,365.0 136,367.0 136,371.0 134,378.0 " stroke="black" stroke-width="1" fill="none" />
<polyline points="135,365.0 135,371.0 133,378.0 " stroke="black" stroke-width="1" fill="none" />
<polyline points="135,367.0 134,371.0 132,378.0 134,378.0 " stroke="black" stroke-width="1" fill="none" />
<polyline points="144,366.0 144,365.0 143,365.0 143,367.0 145,367.0 145,365.0 144,364.0 142,364.0 140,365.0 138,367.0 136,371.0 " stroke="black" stroke-width="1" fill="none" />
<polyline points="174,367.0 174,366.0 173,366.0 173,368.0 175,368.0 175,366.0 174,365.0 171,364.0 168,364.0 165,365.0 164,366.0 164,368.0 165,370.0 167,371.0 170,372.0 172,373.0 173,375.0 " stroke="black" stroke-width="1" fill="none" />
<polyline points="165,365.0 164,368.0 " stroke="black" stroke-width="1" fill="none" />
<polyline points="165,369.0 167,370.0 170,371.0 172,372.0 " stroke="black" stroke-width="1" fill="none" />
<polyline points="173,373.0 172,377.0 " stroke="black" stroke-width="1" fill="none" />
<polyline points="164,366.0 165,368.0 167,369.0 170,370.0 172,371.0 173,373.0 173,375.0 172,377.0 169,378.0 166,378.0 163,377.0 162,376.0 162,374.0 164,374.0 164,376.0 163,376.0 163,375.0 " stroke="black" stroke-width="1" fill="none" />
<polyline points="201,357.0 198,368.0 197,372.0 197,375.0 198,377.0 199,378.0 201,378.0 203,376.0 204,374.0 " stroke="black" stroke-width="1" fill="none" />
<polyline points="202,357.0 199,368.0 198,372.0 198,377.0 " stroke="black" stroke-width="1" fill="none" />
<polyline points="201,357.0 203,357.0 199,371.0 198,375.0 " stroke="black" stroke-width="1" fill="none" />
<polyline points="195,364.0 205,364.0 " stroke="black" stroke-width="1" fill="none" />
<polyline points="225,368.0 226,366.0 228,364.0 230,364.0 231,365.0 232,367.0 232,370.0 230,375.0 " stroke="black" stroke-width="1" fill="none" />
<polyline points="231,365.0 231,369.0 230,373.0 230,377.0 " stroke="black" stroke-width="1" fill="none" />
<polyline points="231,367.0 229,372.0 229,375.0 230,377.0 232,378.0 234,378.0 236,377.0 238,375.0 240,372.0 " stroke="black" stroke-width="1" fill="none" />
<polyline points="242,364.0 240,372.0 240,375.0 241,377.0 242,378.0 244,378.0 246,376.0 247,374.0 " stroke="black" stroke-width="1" fill="none" />
<polyline points="243,364.0 241,372.0 241,377.0 " stroke="black" stroke-width="1" fill="none" />
<polyline points="242,364.0 244,364.0 242,371.0 241,375.0 " stroke="black" stroke-width="1" fill="none" />
<polyline points="257,368.0 258,366.0 260,364.0 262,364.0 263,365.0 264,367.0 264,370.0 262,375.0 " stroke="black" stroke-width="1" fill="none" />
<polyline points="263,365.0 263,369.0 262,373.0 262,377.0 " stroke="black" stroke-width="1" fill="none" />
<polyline points="263,367.0 261,372.0 261,375.0 262,377.0 264,378.0 266,378.0 268,377.0 270,375.0 272,372.0 273,368.0 273,364.0 272,364.0 272,365.0 273,367.0 " stroke="black" stroke-width="1" fill="none" />
<polyline points="289,368.0 290,366.0 292,364.0 294,364.0 295,365.0 296,367.0 296,370.0 294,375.0 " stroke="black" stroke-width="1" fill="none" />
<polyline points="295,365.0 295,369.0 294,373.0 294,377.0 " stroke="black" stroke-width="1" fill="none" />
<polyline points="295,367.0 293,372.0 293,375.0 294,377.0 296,378.0 298,378.0 300,377.0 302,375.0 303,372.0 " stroke="black" stroke-width="1" fill="none" />
<polyline points="305,364.0 303,372.0 303,375.0 304,377.0 306,378.0 308,378.0 310,377.0 312,375.0 314,372.0 315,368.0 315,364.0 314,364.0 314,365.0 315,367.0 " stroke="black" stroke-width="1" fill="none" />
<polyline points="306,364.0 304,372.0 304,377.0 " stroke="black" stroke-width="1" fill="none" />
<polyline points="305,364.0 307,364.0 305,371.0 304,375.0 " stroke="black" stroke-width="1" fill="none" />
<polyline points="323,368.0 325,365.0 327,364.0 329,364.0 331,365.0 332,367.0 332,369.0 " stroke="black" stroke-width="1" fill="none" />
<polyline points="329,364.0 330,365.0 330,369.0 329,373.0 328,375.0 326,377.0 324,378.0 322,378.0 321,377.0 321,375.0 323,375.0 323,377.0 322,377.0 322,376.0 " stroke="black" stroke-width="1" fill="none" />
<polyline points="331,366.0 331,369.0 330,373.0 330,376.0 " stroke="black" stroke-width="1" fill="none" />
<polyline points="339,366.0 339,365.0 338,365.0 338,367.0 340,367.0 340,365.0 339,364.0 337,364.0 335,365.0 333,367.0 332,369.0 331,373.0 331,377.0 332,378.0 " stroke="black" stroke-width="1" fill="none" />
<polyline points="329,373.0 329,375.0 330,377.0 332,378.0 334,378.0 336,377.0 338,374.0 " stroke="black" stroke-width="1" fill="none" />
<polyline points="353,368.0 354,366.0 356,364.0 358,364.0 359,365.0 360,367.0 360,370.0 358,375.0 " stroke="black" stroke-width="1" fill="none" />
<polyline points="359,365.0 359,369.0 358,373.0 358,377.0 " stroke="black" stroke-width="1" fill="none" />
<polyline points="359,367.0 357,372.0 357,375.0 358,377.0 360,378.0 362,378.0 364,377.0 366,375.0 368,371.0 " stroke="black" stroke-width="1" fill="none" />
<polyline points="370,364.0 366,378.0 365,381.0 363,384.0 361,385.0 " stroke="black" stroke-width="1" fill="none" />
<polyline points="371,364.0 367,378.0 365,382.0 " stroke="black" stroke-width="1" fill="none" />
<polyline points="370,364.0 372,364.0 368,378.0 366,382.0 364,384.0 361,385.0 358,385.0 356,384.0 355,383.0 355,381.0 357,381.0 357,383.0 356,383.0 356,382.0 " stroke="black" stroke-width="1" fill="none" />
<polyline points="401,364.0 400,366.0 398,368.0 390,374.0 388,376.0 387,378.0 " stroke="black" stroke-width="1" fill="none" />
<polyline points="400,366.0 391,366.0 389,367.0 388,369.0 " stroke="black" stroke-width="1" fill="none" />
<polyline points="398,366.0 394,365.0 391,365.0 390,366.0 " stroke="black" stroke-width="1" fill="none" />
<polyline points="398,366.0 394,364.0 391,364.0 389,366.0 388,369.0 " stroke="black" stroke-width="1" fill="none" />
<polyline points="388,376.0 397,376.0 399,375.0 400,373.0 " stroke="black" stroke-width="1" fill="none" />
<polyline points="390,376.0 394,377.0 397,377.0 398,376.0 " stroke="black" stroke-width="1" fill="none" />
<polyline points="390,376.0 394,378.0 397,378.0 399,376.0 400,373.0 " stroke="black" stroke-width="1" fill="none" />
<polyline points="417,363.0 420,360.0 423,363.0 423,375.0 " stroke="black" stroke-width="1" fill="none" />
<polyline points="419,361.0 422,364.0 422,375.0 " stroke="black" stroke-width="1" fill="none" />
<polyline points="423,363.0 426,360.0 429,363.0 429,375.0 " stroke="black" stroke-width="1" fill="none" />
<polyline points="425,361.0 428,364.0 428,375.0 " stroke="black" stroke-width="1" fill="none" />
<polyline points="429,363.0 432,360.0 435,363.0 435,374.0 437,376.0 " stroke="black" stroke-width="1" fill="none" />
<polyline points="431,361.0 434,364.0 434,375.0 436,377.0 439,374.0 " stroke="black" stroke-width="1" fill="none" />
<polyline points="467,360.0 451,376.0 " stroke="black" stroke-width="1" fill="none" />
<polyline points="467,360.0 464,361.0 458,361.0 " stroke="black" stroke-width="1" fill="none" />
<polyline points="465,362.0 462,362.0 458,361.0 " stroke="black" stroke-width="1" fill="none" />
<polyline points="467,360.0 466,363.0 466,369.0 " stroke="black" stroke-width="1" fill="none" />
<polyline points="465,362.0 465,365.0 466,369.0 " stroke="black" stroke-width="1" fill="none" />
<polyline points="458,369.0 451,369.0 " stroke="black" stroke-width="1" fill="none" />
<polyline points="457,370.0 454,370.0 451,369.0 " stroke="black" stroke-width="1" fill="none" />
<polyline points="458,369.0 458,376.0 " stroke="black" stroke-width="1" fill="none" />
<polyline points="457,370.0 457,373.0 458,376.0 " stroke="black" stroke-width="1" fill="none" />
<polyline points="482,366.0 484,362.0 489,372.0 " stroke="black" stroke-width="1" fill="none" />
<polyline points="484,364.0 489,374.0 492,367.0 497,367.0 500,366.0 501,364.0 501,362.0 500,360.0 498,359.0 497,359.0 495,360.0 494,362.0 494,364.0 495,367.0 496,369.0 497,372.0 497,375.0 495,377.0 " stroke="black" stroke-width="1" fill="none" />
<polyline points="497,359.0 496,360.0 495,362.0 495,364.0 497,368.0 498,371.0 498,374.0 497,376.0 495,377.0 " stroke="black" stroke-width="1" fill="none" />
<polyline points="515,366.0 518,363.0 522,365.0 " stroke="black" stroke-width="1" fill="none" />
<polyline points="517,364.0 521,366.0 524,363.0 527,365.0 " stroke="black" stroke-width="1" fill="none" />
<polyline points="523,364.0 526,366.0 529,363.0 531,365.0 " stroke="black" stroke-width="1" fill="none" />
<polyline points="528,364.0 530,366.0 533,363.0 " stroke="black" stroke-width="1" fill="none" />
<polyline points="515,372.0 518,369.0 522,371.0 " stroke="black" stroke-width="1" fill="none" />
<polyline points="517,370.0 521,372.0 524,369.0 527,371.0 " stroke="black" stroke-width="1" fill="none" />
<polyline points="523,370.0 526,372.0 529,369.0 531,371.0 " stroke="black" stroke-width="1" fill="none" />
<polyline points="528,370.0 530,372.0 533,369.0 " stroke="black" stroke-width="1" fill="none" />
<polyline points="547,372.0 547,370.0 548,367.0 550,366.0 552,366.0 554,367.0 558,370.0 560,371.0 562,371.0 564,370.0 565,368.0 " stroke="black" stroke-width="1" fill="none" />
<polyline points="547,370.0 548,368.0 550,367.0 552,367.0 554,368.0 558,371.0 560,372.0 562,372.0 564,371.0 565,368.0 565,366.0 " stroke="black" stroke-width="1" fill="none" />
<text x="370" y="405.625" font-size="smaller">Max Height 32 Width 32</text>
</svg>
