<svg width="608" height="440" xmlns="http://www.w3.org/2000/svg">
<style>.small { font: italic 13px sans-serif; }</style>
<rect x="0" y="0" width="608" height="417" fill="lightyellow" stroke-width="4" stroke="black" />
<line x1="5" y1="55" x2="603" y2="55" stroke="lightgrey" stroke-width="1" />
<line x1="55" y1="5" x2="55" y2="414" stroke="lightgrey" stroke-width="1" />
<text x="16.0" y="31" class="small">hex</text>
<text x="20" y="102" font-size="large">2x</text>
<text x="20" y="157" font-size="large">3x</text>
<text x="20" y="212" font-size="large">4x</text>
<text x="20" y="267" font-size="large">5x</text>
<text x="20" y="322" font-size="large">6x</text>
<text x="20" y="377" font-size="large">7x</text>
<text x="72" y="35" font-size="large">0</text>
<text x="104" y="35" font-size="large">1</text>
<text x="136" y="35" font-size="large">2</text>
<text x="168" y="35" font-size="large">3</text>
<text x="200" y="35" font-size="large">4</text>
<text x="232" y="35" font-size="large">5</text>
<text x="264" y="35" font-size="large">6</text>
<text x="296" y="35" font-size="large">7</text>
<text x="328" y="35" font-size="large">8</text>
<text x="360" y="35" font-size="large">9</text>
<text x="392" y="35" font-size="large">A</text>
<text x="424" y="35" font-size="large">B</text>
<text x="456" y="35" font-size="large">C</text>
<text x="488" y="35" font-size="large">D</text>
<text x="520" y="35" font-size="large">E</text>
<text x="552" y="35" font-size="large">F</text>
<polyline points="" stroke="black" stroke-width="1" fill="none" />
<polyline points="101,82.0 101,96.0 " stroke="black" stroke-width="1" fill="none" />
<polyline points="101,101.0 100,102.0 101,103.0 102,102.0 101,101.0 " stroke="black" stroke-width="1" fill="none" />
<polyline points="132,82.0 132,89.0 " stroke="black" stroke-width="1" fill="none" />
<polyline points="140,82.0 140,89.0 " stroke="black" stroke-width="1" fill="none" />
<polyline points="171,78.0 164,110.0 " stroke="black" stroke-width="1" fill="none" />
<polyline points="177,78.0 170,110.0 " stroke="black" stroke-width="1" fill="none" />
<polyline points="164,91.0 178,91.0 " stroke="black" stroke-width="1" fill="none" />
<polyline points="163,97.0 177,97.0 " stroke="black" stroke-width="1" fill="none" />
<polyline points="200,78.0 200,107.0 " stroke="black" stroke-width="1" fill="none" />
<polyline points="204,78.0 204,107.0 " stroke="black" stroke-width="1" fill="none" />
<polyline points="209,85.0 207,83.0 204,82.0 200,82.0 197,83.0 195,85.0 195,87.0 196,89.0 197,90.0 199,91.0 205,93.0 207,94.0 208,95.0 209,97.0 209,100.0 207,102.0 204,103.0 200,103.0 197,102.0 195,100.0 " stroke="black" stroke-width="1" fill="none" />
<polyline points="245,82.0 227,103.0 " stroke="black" stroke-width="1" fill="none" />
<polyline points="232,82.0 234,84.0 234,86.0 233,88.0 231,89.0 229,89.0 227,87.0 227,85.0 228,83.0 230,82.0 232,82.0 234,83.0 237,84.0 240,84.0 243,83.0 245,82.0 " stroke="black" stroke-width="1" fill="none" />
<polyline points="241,96.0 239,97.0 238,99.0 238,101.0 240,103.0 242,103.0 244,102.0 245,100.0 245,98.0 243,96.0 241,96.0 " stroke="black" stroke-width="1" fill="none" />
<polyline points="279,91.0 279,90.0 278,89.0 277,89.0 276,90.0 275,92.0 273,97.0 271,100.0 269,102.0 267,103.0 263,103.0 261,102.0 260,101.0 259,99.0 259,97.0 260,95.0 261,94.0 268,90.0 269,89.0 270,87.0 270,85.0 269,83.0 267,82.0 265,83.0 264,85.0 264,87.0 265,90.0 267,93.0 272,100.0 274,102.0 276,103.0 278,103.0 279,102.0 279,101.0 " stroke="black" stroke-width="1" fill="none" />
<polyline points="293,84.0 292,83.0 293,82.0 294,83.0 294,85.0 293,87.0 292,88.0 " stroke="black" stroke-width="1" fill="none" />
<polyline points="331,78.0 329,80.0 327,83.0 325,87.0 324,92.0 324,96.0 325,101.0 327,105.0 329,108.0 331,110.0 " stroke="black" stroke-width="1" fill="none" />
<polyline points="355,78.0 357,80.0 359,83.0 361,87.0 362,92.0 362,96.0 361,101.0 359,105.0 357,108.0 355,110.0 " stroke="black" stroke-width="1" fill="none" />
<polyline points="392,88.0 392,100.0 " stroke="black" stroke-width="1" fill="none" />
<polyline points="387,91.0 397,97.0 " stroke="black" stroke-width="1" fill="none" />
<polyline points="397,91.0 387,97.0 " stroke="black" stroke-width="1" fill="none" />
<polyline points="429,85.0 429,103.0 " stroke="black" stroke-width="1" fill="none" />
<polyline points="420,94.0 438,94.0 " stroke="black" stroke-width="1" fill="none" />
<polyline points="453,99.0 452,100.0 451,99.0 452,98.0 453,99.0 453,101.0 451,103.0 " stroke="black" stroke-width="1" fill="none" />
<polyline points="484,94.0 502,94.0 " stroke="black" stroke-width="1" fill="none" />
<polyline points="516,98.0 515,99.0 516,100.0 517,99.0 516,98.0 " stroke="black" stroke-width="1" fill="none" />
<polyline points="564,78.0 546,110.0 " stroke="black" stroke-width="1" fill="none" />
<polyline points="73,137.0 70,138.0 68,141.0 67,146.0 67,149.0 68,154.0 70,157.0 73,158.0 75,158.0 78,157.0 80,154.0 81,149.0 81,146.0 80,141.0 78,138.0 75,137.0 73,137.0 " stroke="black" stroke-width="1" fill="none" />
<polyline points="102,141.0 104,140.0 107,137.0 107,158.0 " stroke="black" stroke-width="1" fill="none" />
<polyline points="132,142.0 132,141.0 133,139.0 134,138.0 136,137.0 140,137.0 142,138.0 143,139.0 144,141.0 144,143.0 143,145.0 141,148.0 131,158.0 145,158.0 " stroke="black" stroke-width="1" fill="none" />
<polyline points="165,137.0 176,137.0 170,145.0 173,145.0 175,146.0 176,147.0 177,150.0 177,152.0 176,155.0 174,157.0 171,158.0 168,158.0 165,157.0 164,156.0 163,154.0 " stroke="black" stroke-width="1" fill="none" />
<polyline points="205,137.0 195,151.0 210,151.0 " stroke="black" stroke-width="1" fill="none" />
<polyline points="205,137.0 205,158.0 " stroke="black" stroke-width="1" fill="none" />
<polyline points="239,137.0 229,137.0 228,146.0 229,145.0 232,144.0 235,144.0 238,145.0 240,147.0 241,150.0 241,152.0 240,155.0 238,157.0 235,158.0 232,158.0 229,157.0 228,156.0 227,154.0 " stroke="black" stroke-width="1" fill="none" />
<polyline points="272,140.0 271,138.0 268,137.0 266,137.0 263,138.0 261,141.0 260,146.0 260,151.0 261,155.0 263,157.0 266,158.0 267,158.0 270,157.0 272,155.0 273,152.0 273,151.0 272,148.0 270,146.0 267,145.0 266,145.0 263,146.0 261,148.0 260,151.0 " stroke="black" stroke-width="1" fill="none" />
<polyline points="305,137.0 295,158.0 " stroke="black" stroke-width="1" fill="none" />
<polyline points="291,137.0 305,137.0 " stroke="black" stroke-width="1" fill="none" />
<polyline points="328,137.0 325,138.0 324,140.0 324,142.0 325,144.0 327,145.0 331,146.0 334,147.0 336,149.0 337,151.0 337,154.0 336,156.0 335,157.0 332,158.0 328,158.0 325,157.0 324,156.0 323,154.0 323,151.0 324,149.0 326,147.0 329,146.0 333,145.0 335,144.0 336,142.0 336,140.0 335,138.0 332,137.0 328,137.0 " stroke="black" stroke-width="1" fill="none" />
<polyline points="368,144.0 367,147.0 365,149.0 362,150.0 361,150.0 358,149.0 356,147.0 355,144.0 355,143.0 356,140.0 358,138.0 361,137.0 362,137.0 365,138.0 367,140.0 368,144.0 368,149.0 367,154.0 365,157.0 362,158.0 360,158.0 357,157.0 356,155.0 " stroke="black" stroke-width="1" fill="none" />
<polyline points="388,146.0 387,147.0 388,148.0 389,147.0 388,146.0 " stroke="black" stroke-width="1" fill="none" />
<polyline points="388,153.0 387,154.0 388,155.0 389,154.0 388,153.0 " stroke="black" stroke-width="1" fill="none" />
<polyline points="420,146.0 419,147.0 420,148.0 421,147.0 420,146.0 " stroke="black" stroke-width="1" fill="none" />
<polyline points="421,154.0 420,155.0 419,154.0 420,153.0 421,154.0 421,156.0 419,158.0 " stroke="black" stroke-width="1" fill="none" />
<polyline points="468,140.0 452,149.0 468,158.0 " stroke="black" stroke-width="1" fill="none" />
<polyline points="484,146.0 502,146.0 " stroke="black" stroke-width="1" fill="none" />
<polyline points="484,152.0 502,152.0 " stroke="black" stroke-width="1" fill="none" />
<polyline points="516,140.0 532,149.0 516,158.0 " stroke="black" stroke-width="1" fill="none" />
<polyline points="547,142.0 547,141.0 548,139.0 549,138.0 551,137.0 555,137.0 557,138.0 558,139.0 559,141.0 559,143.0 558,145.0 557,146.0 553,148.0 553,151.0 " stroke="black" stroke-width="1" fill="none" />
<polyline points="553,156.0 552,157.0 553,158.0 554,157.0 553,156.0 " stroke="black" stroke-width="1" fill="none" />
<polyline points="82,200.0 81,198.0 79,197.0 76,197.0 74,198.0 73,199.0 72,202.0 72,205.0 73,207.0 75,208.0 78,208.0 80,207.0 81,205.0 " stroke="black" stroke-width="1" fill="none" />
<polyline points="76,197.0 74,199.0 73,202.0 73,205.0 74,207.0 75,208.0 " stroke="black" stroke-width="1" fill="none" />
<polyline points="82,197.0 81,205.0 81,207.0 83,208.0 85,208.0 87,206.0 88,203.0 88,201.0 87,198.0 86,196.0 84,194.0 82,193.0 79,192.0 76,192.0 73,193.0 71,194.0 69,196.0 68,198.0 67,201.0 67,204.0 68,207.0 69,209.0 71,211.0 73,212.0 76,213.0 79,213.0 82,212.0 84,211.0 85,210.0 " stroke="black" stroke-width="1" fill="none" />
<polyline points="83,197.0 82,205.0 82,207.0 83,208.0 " stroke="black" stroke-width="1" fill="none" />
<polyline points="105,192.0 97,213.0 " stroke="black" stroke-width="1" fill="none" />
<polyline points="105,192.0 113,213.0 " stroke="black" stroke-width="1" fill="none" />
<polyline points="100,206.0 110,206.0 " stroke="black" stroke-width="1" fill="none" />
<polyline points="132,192.0 132,213.0 " stroke="black" stroke-width="1" fill="none" />
<polyline points="132,192.0 141,192.0 144,193.0 145,194.0 146,196.0 146,198.0 145,200.0 144,201.0 141,202.0 " stroke="black" stroke-width="1" fill="none" />
<polyline points="132,202.0 141,202.0 144,203.0 145,204.0 146,206.0 146,209.0 145,211.0 144,212.0 141,213.0 132,213.0 " stroke="black" stroke-width="1" fill="none" />
<polyline points="163,192.0 177,213.0 " stroke="black" stroke-width="1" fill="none" />
<polyline points="163,213.0 177,192.0 " stroke="black" stroke-width="1" fill="none" />
<polyline points="201,192.0 193,213.0 " stroke="black" stroke-width="1" fill="none" />
<polyline points="201,192.0 209,213.0 " stroke="black" stroke-width="1" fill="none" />
<polyline points="193,213.0 209,213.0 " stroke="black" stroke-width="1" fill="none" />
<polyline points="228,192.0 228,213.0 " stroke="black" stroke-width="1" fill="none" />
<polyline points="228,192.0 241,192.0 " stroke="black" stroke-width="1" fill="none" />
<polyline points="228,202.0 236,202.0 " stroke="black" stroke-width="1" fill="none" />
<polyline points="228,213.0 241,213.0 " stroke="black" stroke-width="1" fill="none" />
<polyline points="266,192.0 266,213.0 " stroke="black" stroke-width="1" fill="none" />
<polyline points="264,197.0 261,198.0 260,199.0 259,201.0 259,204.0 260,206.0 261,207.0 264,208.0 268,208.0 271,207.0 272,206.0 273,204.0 273,201.0 272,199.0 271,198.0 268,197.0 264,197.0 " stroke="black" stroke-width="1" fill="none" />
<polyline points="292,192.0 292,213.0 " stroke="black" stroke-width="1" fill="none" />
<polyline points="292,192.0 304,192.0 " stroke="black" stroke-width="1" fill="none" />
<polyline points="324,192.0 324,213.0 " stroke="black" stroke-width="1" fill="none" />
<polyline points="338,192.0 338,213.0 " stroke="black" stroke-width="1" fill="none" />
<polyline points="324,202.0 338,202.0 " stroke="black" stroke-width="1" fill="none" />
<polyline points="356,192.0 356,213.0 " stroke="black" stroke-width="1" fill="none" />
<polyline points="386,203.0 386,204.0 387,204.0 387,203.0 386,203.0 " stroke="black" stroke-width="1" fill="none" />
<polyline points="420,192.0 420,213.0 " stroke="black" stroke-width="1" fill="none" />
<polyline points="434,192.0 420,206.0 " stroke="black" stroke-width="1" fill="none" />
<polyline points="425,201.0 434,213.0 " stroke="black" stroke-width="1" fill="none" />
<polyline points="457,192.0 449,213.0 " stroke="black" stroke-width="1" fill="none" />
<polyline points="457,192.0 465,213.0 " stroke="black" stroke-width="1" fill="none" />
<polyline points="484,192.0 484,213.0 " stroke="black" stroke-width="1" fill="none" />
<polyline points="484,192.0 492,213.0 " stroke="black" stroke-width="1" fill="none" />
<polyline points="500,192.0 492,213.0 " stroke="black" stroke-width="1" fill="none" />
<polyline points="500,192.0 500,213.0 " stroke="black" stroke-width="1" fill="none" />
<polyline points="516,192.0 516,213.0 " stroke="black" stroke-width="1" fill="none" />
<polyline points="516,192.0 530,213.0 " stroke="black" stroke-width="1" fill="none" />
<polyline points="530,192.0 530,213.0 " stroke="black" stroke-width="1" fill="none" />
<polyline points="553,192.0 551,193.0 549,195.0 548,197.0 547,200.0 547,205.0 548,208.0 549,210.0 551,212.0 553,213.0 557,213.0 559,212.0 561,210.0 562,208.0 563,205.0 563,200.0 562,197.0 561,195.0 559,193.0 557,192.0 553,192.0 " stroke="black" stroke-width="1" fill="none" />
<polyline points="68,247.0 68,268.0 " stroke="black" stroke-width="1" fill="none" />
<polyline points="82,247.0 82,268.0 " stroke="black" stroke-width="1" fill="none" />
<polyline points="68,247.0 82,247.0 " stroke="black" stroke-width="1" fill="none" />
<polyline points="105,247.0 103,248.0 101,250.0 100,252.0 99,255.0 99,260.0 100,263.0 101,265.0 103,267.0 105,268.0 109,268.0 111,267.0 113,265.0 114,263.0 115,260.0 115,255.0 114,252.0 113,250.0 111,248.0 109,247.0 105,247.0 " stroke="black" stroke-width="1" fill="none" />
<polyline points="104,257.0 110,257.0 " stroke="black" stroke-width="1" fill="none" />
<polyline points="132,247.0 132,268.0 " stroke="black" stroke-width="1" fill="none" />
<polyline points="132,247.0 141,247.0 144,248.0 145,249.0 146,251.0 146,254.0 145,256.0 144,257.0 141,258.0 132,258.0 " stroke="black" stroke-width="1" fill="none" />
<polyline points="162,247.0 169,257.0 162,268.0 " stroke="black" stroke-width="1" fill="none" />
<polyline points="162,247.0 176,247.0 " stroke="black" stroke-width="1" fill="none" />
<polyline points="162,268.0 176,268.0 " stroke="black" stroke-width="1" fill="none" />
<polyline points="200,247.0 200,268.0 " stroke="black" stroke-width="1" fill="none" />
<polyline points="193,247.0 207,247.0 " stroke="black" stroke-width="1" fill="none" />
<polyline points="226,252.0 226,250.0 227,248.0 228,247.0 230,247.0 231,248.0 232,250.0 233,254.0 233,268.0 " stroke="black" stroke-width="1" fill="none" />
<polyline points="240,252.0 240,250.0 239,248.0 238,247.0 236,247.0 235,248.0 234,250.0 233,254.0 " stroke="black" stroke-width="1" fill="none" />
<polyline points="262,247.0 260,248.0 259,250.0 259,252.0 260,254.0 262,255.0 264,255.0 266,254.0 267,252.0 267,250.0 266,248.0 264,247.0 262,247.0 " stroke="black" stroke-width="1" fill="none" />
<polyline points="291,268.0 295,268.0 292,261.0 291,257.0 291,253.0 292,250.0 294,248.0 297,247.0 299,247.0 302,248.0 304,250.0 305,253.0 305,257.0 304,261.0 301,268.0 305,268.0 " stroke="black" stroke-width="1" fill="none" />
<polyline points="322,247.0 336,247.0 " stroke="black" stroke-width="1" fill="none" />
<polyline points="326,257.0 332,257.0 " stroke="black" stroke-width="1" fill="none" />
<polyline points="322,268.0 336,268.0 " stroke="black" stroke-width="1" fill="none" />
<polyline points="363,247.0 363,268.0 " stroke="black" stroke-width="1" fill="none" />
<polyline points="354,253.0 355,253.0 356,254.0 357,258.0 358,260.0 359,261.0 362,262.0 364,262.0 367,261.0 368,260.0 369,258.0 370,254.0 371,253.0 372,253.0 " stroke="black" stroke-width="1" fill="none" />
<polyline points="401,247.0 387,268.0 " stroke="black" stroke-width="1" fill="none" />
<polyline points="387,247.0 401,247.0 " stroke="black" stroke-width="1" fill="none" />
<polyline points="387,268.0 401,268.0 " stroke="black" stroke-width="1" fill="none" />
<polyline points="420,243.0 420,275.0 " stroke="black" stroke-width="1" fill="none" />
<polyline points="421,243.0 421,275.0 " stroke="black" stroke-width="1" fill="none" />
<polyline points="420,243.0 427,243.0 " stroke="black" stroke-width="1" fill="none" />
<polyline points="420,275.0 427,275.0 " stroke="black" stroke-width="1" fill="none" />
<polyline points="448,247.0 462,271.0 " stroke="black" stroke-width="1" fill="none" />
<polyline points="489,243.0 489,275.0 " stroke="black" stroke-width="1" fill="none" />
<polyline points="490,243.0 490,275.0 " stroke="black" stroke-width="1" fill="none" />
<polyline points="483,243.0 490,243.0 " stroke="black" stroke-width="1" fill="none" />
<polyline points="483,275.0 490,275.0 " stroke="black" stroke-width="1" fill="none" />
<polyline points="520,245.0 512,259.0 " stroke="black" stroke-width="1" fill="none" />
<polyline points="520,245.0 528,259.0 " stroke="black" stroke-width="1" fill="none" />
<polyline points="544,275.0 562,275.0 " stroke="black" stroke-width="1" fill="none" />
<polyline points="69,307.0 67,309.0 67,311.0 68,312.0 69,311.0 68,310.0 67,311.0 " stroke="black" stroke-width="1" fill="none" />
<polyline points="105,309.0 103,310.0 101,312.0 100,314.0 99,317.0 99,320.0 100,322.0 102,323.0 104,323.0 106,322.0 109,319.0 111,316.0 113,312.0 114,309.0 " stroke="black" stroke-width="1" fill="none" />
<polyline points="105,309.0 107,309.0 108,310.0 109,312.0 111,320.0 112,322.0 113,323.0 114,323.0 " stroke="black" stroke-width="1" fill="none" />
<polyline points="140,302.0 138,303.0 136,305.0 134,309.0 133,312.0 132,316.0 131,322.0 130,330.0 " stroke="black" stroke-width="1" fill="none" />
<polyline points="140,302.0 142,302.0 144,304.0 144,307.0 143,309.0 142,310.0 140,311.0 137,311.0 " stroke="black" stroke-width="1" fill="none" />
<polyline points="137,311.0 139,312.0 141,314.0 142,316.0 142,319.0 141,321.0 140,322.0 138,323.0 136,323.0 134,322.0 133,321.0 132,318.0 " stroke="black" stroke-width="1" fill="none" />
<polyline points="162,309.0 164,309.0 166,311.0 172,328.0 174,330.0 176,330.0 " stroke="black" stroke-width="1" fill="none" />
<polyline points="177,309.0 176,311.0 174,314.0 164,325.0 162,328.0 161,330.0 " stroke="black" stroke-width="1" fill="none" />
<polyline points="203,309.0 200,309.0 198,310.0 196,312.0 195,315.0 195,318.0 196,321.0 197,322.0 199,323.0 201,323.0 203,322.0 205,320.0 206,317.0 206,314.0 205,311.0 203,309.0 201,307.0 200,305.0 200,303.0 201,302.0 203,302.0 205,303.0 207,305.0 " stroke="black" stroke-width="1" fill="none" />
<polyline points="237,311.0 236,310.0 234,309.0 231,309.0 229,310.0 229,312.0 230,314.0 233,315.0 " stroke="black" stroke-width="1" fill="none" />
<polyline points="233,315.0 229,316.0 227,318.0 227,320.0 228,322.0 230,323.0 233,323.0 235,322.0 237,320.0 " stroke="black" stroke-width="1" fill="none" />
<polyline points="264,310.0 262,311.0 260,313.0 259,316.0 259,319.0 260,321.0 261,322.0 263,323.0 266,323.0 269,322.0 272,320.0 274,317.0 275,314.0 275,311.0 273,309.0 271,309.0 269,311.0 267,315.0 265,320.0 262,330.0 " stroke="black" stroke-width="1" fill="none" />
<polyline points="289,312.0 291,310.0 293,309.0 294,309.0 296,310.0 297,311.0 298,314.0 298,318.0 297,323.0 " stroke="black" stroke-width="1" fill="none" />
<polyline points="305,309.0 304,312.0 303,314.0 297,323.0 295,327.0 294,330.0 " stroke="black" stroke-width="1" fill="none" />
<polyline points="321,313.0 322,311.0 324,309.0 326,309.0 327,310.0 327,312.0 326,316.0 324,323.0 " stroke="black" stroke-width="1" fill="none" />
<polyline points="326,316.0 328,312.0 330,310.0 332,309.0 334,309.0 336,311.0 336,314.0 335,319.0 332,330.0 " stroke="black" stroke-width="1" fill="none" />
<polyline points="358,309.0 356,316.0 355,320.0 355,322.0 356,323.0 358,323.0 360,321.0 361,319.0 " stroke="black" stroke-width="1" fill="none" />
<polyline points="388,307.0 402,321.0 " stroke="black" stroke-width="1" fill="none" />
<polyline points="402,307.0 388,321.0 " stroke="black" stroke-width="1" fill="none" />
<polyline points="422,309.0 418,323.0 " stroke="black" stroke-width="1" fill="none" />
<polyline points="432,310.0 431,309.0 430,309.0 428,310.0 424,314.0 422,315.0 421,315.0 " stroke="black" stroke-width="1" fill="none" />
<polyline points="421,315.0 423,316.0 424,317.0 426,322.0 427,323.0 428,323.0 429,322.0 " stroke="black" stroke-width="1" fill="none" />
<polyline points="449,302.0 451,302.0 453,303.0 454,304.0 462,323.0 " stroke="black" stroke-width="1" fill="none" />
<polyline points="456,309.0 450,323.0 " stroke="black" stroke-width="1" fill="none" />
<polyline points="487,309.0 481,330.0 " stroke="black" stroke-width="1" fill="none" />
<polyline points="486,313.0 485,318.0 485,321.0 487,323.0 489,323.0 491,322.0 493,320.0 495,316.0 " stroke="black" stroke-width="1" fill="none" />
<polyline points="497,309.0 495,316.0 494,320.0 494,322.0 495,323.0 497,323.0 499,321.0 500,319.0 " stroke="black" stroke-width="1" fill="none" />
<polyline points="515,309.0 518,309.0 517,315.0 516,320.0 515,323.0 " stroke="black" stroke-width="1" fill="none" />
<polyline points="528,309.0 527,312.0 526,314.0 524,317.0 521,320.0 518,322.0 515,323.0 " stroke="black" stroke-width="1" fill="none" />
<polyline points="552,309.0 550,310.0 548,312.0 547,315.0 547,318.0 548,321.0 549,322.0 551,323.0 553,323.0 555,322.0 557,320.0 558,317.0 558,314.0 557,311.0 556,310.0 554,309.0 552,309.0 " stroke="black" stroke-width="1" fill="none" />
<polyline points="73,364.0 69,378.0 " stroke="black" stroke-width="1" fill="none" />
<polyline points="78,364.0 79,370.0 80,375.0 81,378.0 " stroke="black" stroke-width="1" fill="none" />
<polyline points="66,367.0 68,365.0 71,364.0 84,364.0 " stroke="black" stroke-width="1" fill="none" />
<polyline points="97,368.0 98,366.0 100,364.0 102,364.0 103,365.0 103,367.0 102,372.0 102,375.0 103,377.0 104,378.0 106,378.0 108,377.0 110,374.0 111,372.0 112,369.0 113,364.0 113,361.0 112,358.0 110,357.0 108,357.0 107,359.0 107,361.0 108,364.0 110,367.0 112,369.0 115,371.0 " stroke="black" stroke-width="1" fill="none" />
<polyline points="132,370.0 132,373.0 133,376.0 134,377.0 136,378.0 138,378.0 140,377.0 142,375.0 143,372.0 143,369.0 142,366.0 141,365.0 139,364.0 137,364.0 135,365.0 133,367.0 132,370.0 128,385.0 " stroke="black" stroke-width="1" fill="none" />
<polyline points="178,364.0 168,364.0 166,365.0 164,367.0 163,370.0 163,373.0 164,376.0 165,377.0 167,378.0 169,378.0 171,377.0 173,375.0 174,372.0 174,369.0 173,366.0 172,365.0 170,364.0 " stroke="black" stroke-width="1" fill="none" />
<polyline points="203,364.0 200,378.0 " stroke="black" stroke-width="1" fill="none" />
<polyline points="194,367.0 196,365.0 199,364.0 210,364.0 " stroke="black" stroke-width="1" fill="none" />
<polyline points="225,368.0 226,366.0 228,364.0 230,364.0 231,365.0 231,367.0 229,373.0 229,376.0 231,378.0 233,378.0 236,377.0 238,375.0 240,371.0 241,367.0 241,364.0 " stroke="black" stroke-width="1" fill="none" />
<polyline points="269,360.0 268,361.0 269,362.0 270,361.0 269,360.0 " stroke="black" stroke-width="1" fill="none" />
<polyline points="260,369.0 278,369.0 " stroke="black" stroke-width="1" fill="none" />
<polyline points="269,376.0 268,377.0 269,378.0 270,377.0 269,376.0 " stroke="black" stroke-width="1" fill="none" />
<polyline points="296,364.0 294,365.0 292,368.0 291,371.0 291,374.0 292,377.0 293,378.0 295,378.0 297,377.0 299,374.0 " stroke="black" stroke-width="1" fill="none" />
<polyline points="300,370.0 299,374.0 300,377.0 301,378.0 303,378.0 305,377.0 307,374.0 308,371.0 308,368.0 307,365.0 306,364.0 " stroke="black" stroke-width="1" fill="none" />
<polyline points="330,357.0 328,358.0 327,359.0 327,360.0 328,361.0 331,362.0 334,362.0 " stroke="black" stroke-width="1" fill="none" />
<polyline points="331,362.0 328,363.0 326,364.0 325,366.0 325,368.0 327,370.0 330,371.0 332,371.0 " stroke="black" stroke-width="1" fill="none" />
<polyline points="330,371.0 326,372.0 324,373.0 323,375.0 323,377.0 325,379.0 329,381.0 330,382.0 330,384.0 328,385.0 326,385.0 " stroke="black" stroke-width="1" fill="none" />
<polyline points="368,357.0 360,385.0 " stroke="black" stroke-width="1" fill="none" />
<polyline points="353,368.0 354,366.0 356,364.0 358,364.0 359,365.0 359,367.0 358,372.0 358,375.0 359,377.0 361,378.0 363,378.0 366,377.0 368,375.0 370,372.0 372,367.0 373,364.0 " stroke="black" stroke-width="1" fill="none" />
<polyline points="394,357.0 392,358.0 391,359.0 391,360.0 392,361.0 395,362.0 398,362.0 " stroke="black" stroke-width="1" fill="none" />
<polyline points="398,362.0 394,364.0 391,366.0 388,369.0 387,372.0 387,374.0 388,376.0 390,378.0 393,380.0 394,382.0 394,384.0 393,385.0 391,385.0 390,383.0 " stroke="black" stroke-width="1" fill="none" />
<polyline points="425,353.0 423,354.0 422,355.0 421,357.0 421,359.0 422,361.0 423,362.0 424,364.0 424,366.0 422,368.0 " stroke="black" stroke-width="1" fill="none" />
<polyline points="423,354.0 422,356.0 422,358.0 423,360.0 424,361.0 425,363.0 425,365.0 424,367.0 420,369.0 424,371.0 425,373.0 425,375.0 424,377.0 423,378.0 422,380.0 422,382.0 423,384.0 " stroke="black" stroke-width="1" fill="none" />
<polyline points="422,370.0 424,372.0 424,374.0 423,376.0 422,377.0 421,379.0 421,381.0 422,383.0 423,384.0 425,385.0 " stroke="black" stroke-width="1" fill="none" />
<polyline points="452,353.0 452,385.0 " stroke="black" stroke-width="1" fill="none" />
<polyline points="485,353.0 487,354.0 488,355.0 489,357.0 489,359.0 488,361.0 487,362.0 486,364.0 486,366.0 488,368.0 " stroke="black" stroke-width="1" fill="none" />
<polyline points="487,354.0 488,356.0 488,358.0 487,360.0 486,361.0 485,363.0 485,365.0 486,367.0 490,369.0 486,371.0 485,373.0 485,375.0 486,377.0 487,378.0 488,380.0 488,382.0 487,384.0 " stroke="black" stroke-width="1" fill="none" />
<polyline points="488,370.0 486,372.0 486,374.0 487,376.0 488,377.0 489,379.0 489,381.0 488,383.0 487,384.0 485,385.0 " stroke="black" stroke-width="1" fill="none" />
<polyline points="515,372.0 515,370.0 516,367.0 518,366.0 520,366.0 522,367.0 526,370.0 528,371.0 530,371.0 532,370.0 533,368.0 " stroke="black" stroke-width="1" fill="none" />
<polyline points="515,370.0 516,368.0 518,367.0 520,367.0 522,368.0 526,371.0 528,372.0 530,372.0 532,371.0 533,368.0 533,366.0 " stroke="black" stroke-width="1" fill="none" />
<polyline points="544,357.0 544,378.0 545,378.0 545,357.0 546,357.0 546,378.0 547,378.0 547,357.0 548,357.0 548,378.0 549,378.0 549,357.0 550,357.0 550,378.0 551,378.0 551,357.0 552,357.0 552,378.0 553,378.0 553,357.0 554,357.0 554,378.0 555,378.0 555,357.0 556,357.0 556,378.0 557,378.0 557,357.0 558,357.0 558,378.0 559,378.0 559,357.0 560,357.0 560,378.0 " stroke="black" stroke-width="1" fill="none" />
<text x="370" y="405.625" font-size="smaller">Max Height 32 Width 32</text>
</svg>
