<svg width="608" height="440" xmlns="http://www.w3.org/2000/svg">
<style>.small { font: italic 13px sans-serif; }</style>
<rect x="0" y="0" width="608" height="417" fill="lightyellow" stroke-width="4" stroke="black" />
<line x1="5" y1="55" x2="603" y2="55" stroke="lightgrey" stroke-width="1" />
<line x1="55" y1="5" x2="55" y2="414" stroke="lightgrey" stroke-width="1" />
<text x="16.0" y="31" class="small">hex</text>
<text x="20" y="102" font-size="large">2x</text>
<text x="20" y="157" font-size="large">3x</text>
<text x="20" y="212" font-size="large">4x</text>
<text x="20" y="267" font-size="large">5x</text>
<text x="20" y="322" font-size="large">6x</text>
<text x="20" y="377" font-size="large">7x</text>
<text x="72" y="35" font-size="large">0</text>
<text x="104" y="35" font-size="large">1</text>
<text x="136" y="35" font-size="large">2</text>
<text x="168" y="35" font-size="large">3</text>
<text x="200" y="35" font-size="large">4</text>
<text x="232" y="35" font-size="large">5</text>
<text x="264" y="35" font-size="large">6</text>
<text x="296" y="35" font-size="large">7</text>
<text x="328" y="35" font-size="large">8</text>
<text x="360" y="35" font-size="large">9</text>
<text x="392" y="35" font-size="large">A</text>
<text x="424" y="35" font-size="large">B</text>
<text x="456" y="35" font-size="large">C</text>
<text x="488" y="35" font-size="large">D</text>
<text x="520" y="35" font-size="large">E</text>
<text x="552" y="35" font-size="large">F</text>
<polyline points="" stroke="black" stroke-width="1" fill="none" />
<polyline points="105,82.0 104,82.0 103,83.0 101,96.0 " stroke="black" stroke-width="1" fill="none" />
<polyline points="105,83.0 104,83.0 101,96.0 " stroke="black" stroke-width="1" fill="none" />
<polyline points="105,83.0 105,84.0 101,96.0 " stroke="black" stroke-width="1" fill="none" />
<polyline points="105,82.0 106,83.0 106,84.0 101,96.0 " stroke="black" stroke-width="1" fill="none" />
<polyline points="99,100.0 98,101.0 98,102.0 99,103.0 100,103.0 101,102.0 101,101.0 100,100.0 99,100.0 " stroke="black" stroke-width="1" fill="none" />
<polyline points="99,101.0 99,102.0 100,102.0 100,101.0 99,101.0 " stroke="black" stroke-width="1" fill="none" />
<polyline points="135,82.0 133,89.0 " stroke="black" stroke-width="1" fill="none" />
<polyline points="136,82.0 133,89.0 " stroke="black" stroke-width="1" fill="none" />
<polyline points="144,82.0 142,89.0 " stroke="black" stroke-width="1" fill="none" />
<polyline points="145,82.0 142,89.0 " stroke="black" stroke-width="1" fill="none" />
<polyline points="171,78.0 164,110.0 " stroke="black" stroke-width="1" fill="none" />
<polyline points="177,78.0 170,110.0 " stroke="black" stroke-width="1" fill="none" />
<polyline points="164,91.0 178,91.0 " stroke="black" stroke-width="1" fill="none" />
<polyline points="163,97.0 177,97.0 " stroke="black" stroke-width="1" fill="none" />
<polyline points="204,78.0 196,107.0 " stroke="black" stroke-width="1" fill="none" />
<polyline points="209,78.0 201,107.0 " stroke="black" stroke-width="1" fill="none" />
<polyline points="210,87.0 210,86.0 209,86.0 209,88.0 211,88.0 211,86.0 210,84.0 209,83.0 206,82.0 202,82.0 199,83.0 197,85.0 197,88.0 198,90.0 200,92.0 206,95.0 207,97.0 207,100.0 206,102.0 " stroke="black" stroke-width="1" fill="none" />
<polyline points="198,88.0 199,90.0 206,94.0 207,96.0 " stroke="black" stroke-width="1" fill="none" />
<polyline points="199,83.0 198,85.0 198,87.0 199,89.0 205,92.0 207,94.0 208,96.0 208,99.0 207,101.0 206,102.0 203,103.0 199,103.0 196,102.0 195,101.0 194,99.0 194,97.0 196,97.0 196,99.0 195,99.0 195,98.0 " stroke="black" stroke-width="1" fill="none" />
<polyline points="245,82.0 227,103.0 " stroke="black" stroke-width="1" fill="none" />
<polyline points="232,82.0 234,84.0 234,86.0 233,88.0 231,89.0 229,89.0 227,87.0 227,85.0 228,83.0 230,82.0 232,82.0 234,83.0 237,84.0 240,84.0 243,83.0 245,82.0 " stroke="black" stroke-width="1" fill="none" />
<polyline points="241,96.0 239,97.0 238,99.0 238,101.0 240,103.0 242,103.0 244,102.0 245,100.0 245,98.0 243,96.0 241,96.0 " stroke="black" stroke-width="1" fill="none" />
<polyline points="279,91.0 279,90.0 278,90.0 278,92.0 280,92.0 280,90.0 279,89.0 278,89.0 276,90.0 274,92.0 269,100.0 267,102.0 265,103.0 262,103.0 259,102.0 258,100.0 258,98.0 259,96.0 260,95.0 262,94.0 267,92.0 269,91.0 271,89.0 272,87.0 272,85.0 271,83.0 269,82.0 267,83.0 266,85.0 266,88.0 267,94.0 268,97.0 269,99.0 271,102.0 273,103.0 275,103.0 276,101.0 276,100.0 " stroke="black" stroke-width="1" fill="none" />
<polyline points="263,103.0 259,102.0 " stroke="black" stroke-width="1" fill="none" />
<polyline points="260,102.0 259,100.0 259,98.0 260,96.0 261,95.0 263,94.0 " stroke="black" stroke-width="1" fill="none" />
<polyline points="267,92.0 268,95.0 271,101.0 273,102.0 " stroke="black" stroke-width="1" fill="none" />
<polyline points="262,103.0 261,102.0 260,100.0 260,98.0 261,96.0 262,95.0 264,94.0 269,91.0 " stroke="black" stroke-width="1" fill="none" />
<polyline points="266,88.0 267,91.0 268,94.0 270,98.0 272,101.0 274,102.0 275,102.0 276,101.0 " stroke="black" stroke-width="1" fill="none" />
<polyline points="295,82.0 293,89.0 " stroke="black" stroke-width="1" fill="none" />
<polyline points="296,82.0 293,89.0 " stroke="black" stroke-width="1" fill="none" />
<polyline points="336,78.0 334,79.0 331,81.0 328,84.0 326,87.0 324,91.0 323,95.0 323,100.0 324,104.0 325,107.0 327,110.0 " stroke="black" stroke-width="1" fill="none" />
<polyline points="329,84.0 327,87.0 325,91.0 324,96.0 324,104.0 " stroke="black" stroke-width="1" fill="none" />
<polyline points="336,78.0 333,80.0 330,83.0 328,86.0 327,88.0 326,91.0 325,95.0 324,104.0 " stroke="black" stroke-width="1" fill="none" />
<polyline points="324,96.0 325,105.0 326,108.0 327,110.0 " stroke="black" stroke-width="1" fill="none" />
<polyline points="361,78.0 363,81.0 364,84.0 365,88.0 365,93.0 364,97.0 362,101.0 360,104.0 357,107.0 354,109.0 352,110.0 " stroke="black" stroke-width="1" fill="none" />
<polyline points="364,84.0 364,92.0 363,97.0 361,101.0 359,104.0 " stroke="black" stroke-width="1" fill="none" />
<polyline points="361,78.0 362,80.0 363,83.0 364,92.0 " stroke="black" stroke-width="1" fill="none" />
<polyline points="364,84.0 363,93.0 362,97.0 361,100.0 360,102.0 358,105.0 355,108.0 352,110.0 " stroke="black" stroke-width="1" fill="none" />
<polyline points="394,82.0 393,83.0 395,93.0 394,94.0 " stroke="black" stroke-width="1" fill="none" />
<polyline points="394,82.0 394,94.0 " stroke="black" stroke-width="1" fill="none" />
<polyline points="394,82.0 395,83.0 393,93.0 394,94.0 " stroke="black" stroke-width="1" fill="none" />
<polyline points="389,85.0 390,85.0 398,91.0 399,91.0 " stroke="black" stroke-width="1" fill="none" />
<polyline points="389,85.0 399,91.0 " stroke="black" stroke-width="1" fill="none" />
<polyline points="389,85.0 389,86.0 399,90.0 399,91.0 " stroke="black" stroke-width="1" fill="none" />
<polyline points="399,85.0 398,85.0 390,91.0 389,91.0 " stroke="black" stroke-width="1" fill="none" />
<polyline points="399,85.0 389,91.0 " stroke="black" stroke-width="1" fill="none" />
<polyline points="399,85.0 399,86.0 389,90.0 389,91.0 " stroke="black" stroke-width="1" fill="none" />
<polyline points="428,85.0 428,102.0 429,102.0 " stroke="black" stroke-width="1" fill="none" />
<polyline points="428,85.0 429,85.0 429,102.0 " stroke="black" stroke-width="1" fill="none" />
<polyline points="420,93.0 437,93.0 437,94.0 " stroke="black" stroke-width="1" fill="none" />
<polyline points="420,93.0 420,94.0 437,94.0 " stroke="black" stroke-width="1" fill="none" />
<polyline points="452,103.0 451,103.0 450,102.0 450,101.0 451,100.0 452,100.0 453,101.0 453,103.0 452,105.0 451,106.0 449,107.0 " stroke="black" stroke-width="1" fill="none" />
<polyline points="451,101.0 451,102.0 452,102.0 452,101.0 451,101.0 " stroke="black" stroke-width="1" fill="none" />
<polyline points="452,103.0 452,104.0 451,106.0 " stroke="black" stroke-width="1" fill="none" />
<polyline points="484,94.0 502,94.0 " stroke="black" stroke-width="1" fill="none" />
<polyline points="515,100.0 514,101.0 514,102.0 515,103.0 516,103.0 517,102.0 517,101.0 516,100.0 515,100.0 " stroke="black" stroke-width="1" fill="none" />
<polyline points="515,101.0 515,102.0 516,102.0 516,101.0 515,101.0 " stroke="black" stroke-width="1" fill="none" />
<polyline points="564,78.0 546,110.0 547,110.0 " stroke="black" stroke-width="1" fill="none" />
<polyline points="564,78.0 565,78.0 547,110.0 " stroke="black" stroke-width="1" fill="none" />
<polyline points="76,137.0 73,138.0 71,140.0 69,143.0 68,146.0 67,150.0 67,153.0 68,156.0 69,157.0 71,158.0 73,158.0 76,157.0 78,155.0 80,152.0 81,149.0 82,145.0 82,142.0 81,139.0 80,138.0 78,137.0 76,137.0 " stroke="black" stroke-width="1" fill="none" />
<polyline points="73,139.0 71,141.0 70,143.0 69,146.0 68,150.0 68,154.0 69,156.0 " stroke="black" stroke-width="1" fill="none" />
<polyline points="76,156.0 78,154.0 79,152.0 80,149.0 81,145.0 81,141.0 80,139.0 " stroke="black" stroke-width="1" fill="none" />
<polyline points="76,137.0 74,138.0 72,141.0 71,143.0 70,146.0 69,150.0 69,155.0 70,157.0 71,158.0 " stroke="black" stroke-width="1" fill="none" />
<polyline points="73,158.0 75,157.0 77,154.0 78,152.0 79,149.0 80,145.0 80,140.0 79,138.0 78,137.0 " stroke="black" stroke-width="1" fill="none" />
<polyline points="108,141.0 103,158.0 105,158.0 " stroke="black" stroke-width="1" fill="none" />
<polyline points="111,137.0 109,141.0 104,158.0 " stroke="black" stroke-width="1" fill="none" />
<polyline points="111,137.0 105,158.0 " stroke="black" stroke-width="1" fill="none" />
<polyline points="111,137.0 108,140.0 105,142.0 103,143.0 " stroke="black" stroke-width="1" fill="none" />
<polyline points="108,141.0 106,142.0 103,143.0 " stroke="black" stroke-width="1" fill="none" />
<polyline points="135,142.0 135,141.0 136,141.0 136,143.0 134,143.0 134,141.0 135,139.0 136,138.0 139,137.0 142,137.0 145,138.0 146,140.0 146,142.0 145,144.0 143,146.0 133,152.0 131,154.0 129,158.0 " stroke="black" stroke-width="1" fill="none" />
<polyline points="144,138.0 145,140.0 145,142.0 144,144.0 142,146.0 139,148.0 " stroke="black" stroke-width="1" fill="none" />
<polyline points="142,137.0 143,138.0 144,140.0 144,142.0 143,144.0 141,146.0 133,152.0 " stroke="black" stroke-width="1" fill="none" />
<polyline points="130,156.0 131,155.0 133,155.0 138,156.0 143,156.0 144,155.0 " stroke="black" stroke-width="1" fill="none" />
<polyline points="133,155.0 138,157.0 143,157.0 " stroke="black" stroke-width="1" fill="none" />
<polyline points="133,155.0 138,158.0 141,158.0 143,157.0 144,155.0 144,154.0 " stroke="black" stroke-width="1" fill="none" />
<polyline points="167,142.0 167,141.0 168,141.0 168,143.0 166,143.0 166,141.0 167,139.0 168,138.0 171,137.0 174,137.0 177,138.0 178,140.0 178,142.0 177,144.0 176,145.0 174,146.0 171,147.0 " stroke="black" stroke-width="1" fill="none" />
<polyline points="176,138.0 177,140.0 177,142.0 176,144.0 175,145.0 " stroke="black" stroke-width="1" fill="none" />
<polyline points="174,137.0 175,138.0 176,140.0 176,142.0 175,144.0 173,146.0 171,147.0 " stroke="black" stroke-width="1" fill="none" />
<polyline points="169,147.0 171,147.0 174,148.0 175,149.0 176,151.0 176,154.0 175,156.0 173,157.0 170,158.0 167,158.0 164,157.0 163,156.0 162,154.0 162,152.0 164,152.0 164,154.0 163,154.0 163,153.0 " stroke="black" stroke-width="1" fill="none" />
<polyline points="174,149.0 175,151.0 175,154.0 174,156.0 " stroke="black" stroke-width="1" fill="none" />
<polyline points="171,147.0 173,148.0 174,150.0 174,154.0 173,156.0 172,157.0 170,158.0 " stroke="black" stroke-width="1" fill="none" />
<polyline points="207,141.0 202,158.0 204,158.0 " stroke="black" stroke-width="1" fill="none" />
<polyline points="210,137.0 208,141.0 203,158.0 " stroke="black" stroke-width="1" fill="none" />
<polyline points="210,137.0 204,158.0 " stroke="black" stroke-width="1" fill="none" />
<polyline points="210,137.0 194,152.0 210,152.0 " stroke="black" stroke-width="1" fill="none" />
<polyline points="233,137.0 228,147.0 " stroke="black" stroke-width="1" fill="none" />
<polyline points="233,137.0 243,137.0 " stroke="black" stroke-width="1" fill="none" />
<polyline points="233,138.0 241,138.0 " stroke="black" stroke-width="1" fill="none" />
<polyline points="232,139.0 237,139.0 241,138.0 243,137.0 " stroke="black" stroke-width="1" fill="none" />
<polyline points="228,147.0 229,146.0 232,145.0 235,145.0 238,146.0 239,147.0 240,149.0 240,152.0 239,155.0 237,157.0 233,158.0 230,158.0 228,157.0 227,156.0 226,154.0 226,152.0 228,152.0 228,154.0 227,154.0 227,153.0 " stroke="black" stroke-width="1" fill="none" />
<polyline points="238,147.0 239,149.0 239,152.0 238,155.0 236,157.0 " stroke="black" stroke-width="1" fill="none" />
<polyline points="235,145.0 237,146.0 238,148.0 238,152.0 237,155.0 235,157.0 233,158.0 " stroke="black" stroke-width="1" fill="none" />
<polyline points="273,141.0 273,140.0 272,140.0 272,142.0 274,142.0 274,140.0 273,138.0 271,137.0 268,137.0 265,138.0 263,140.0 261,143.0 260,146.0 259,150.0 259,153.0 260,156.0 261,157.0 263,158.0 266,158.0 269,157.0 271,155.0 272,153.0 272,150.0 271,148.0 270,147.0 268,146.0 265,146.0 263,147.0 262,148.0 261,150.0 " stroke="black" stroke-width="1" fill="none" />
<polyline points="264,140.0 262,143.0 261,146.0 260,150.0 260,154.0 261,156.0 " stroke="black" stroke-width="1" fill="none" />
<polyline points="270,155.0 271,153.0 271,150.0 270,148.0 " stroke="black" stroke-width="1" fill="none" />
<polyline points="268,137.0 266,138.0 264,141.0 263,143.0 262,146.0 261,150.0 261,155.0 262,157.0 263,158.0 " stroke="black" stroke-width="1" fill="none" />
<polyline points="266,158.0 268,157.0 269,156.0 270,153.0 270,149.0 269,147.0 268,146.0 " stroke="black" stroke-width="1" fill="none" />
<polyline points="294,137.0 292,143.0 " stroke="black" stroke-width="1" fill="none" />
<polyline points="307,137.0 306,140.0 304,143.0 300,148.0 298,151.0 297,154.0 296,158.0 " stroke="black" stroke-width="1" fill="none" />
<polyline points="298,150.0 296,154.0 295,158.0 " stroke="black" stroke-width="1" fill="none" />
<polyline points="304,143.0 298,149.0 296,152.0 295,154.0 294,158.0 296,158.0 " stroke="black" stroke-width="1" fill="none" />
<polyline points="293,140.0 296,137.0 298,137.0 303,140.0 " stroke="black" stroke-width="1" fill="none" />
<polyline points="295,138.0 298,138.0 303,140.0 " stroke="black" stroke-width="1" fill="none" />
<polyline points="293,140.0 295,139.0 298,139.0 303,140.0 305,140.0 306,139.0 307,137.0 " stroke="black" stroke-width="1" fill="none" />
<polyline points="331,137.0 328,138.0 327,139.0 326,141.0 326,144.0 327,146.0 329,147.0 332,147.0 335,146.0 337,145.0 338,143.0 338,140.0 337,138.0 335,137.0 331,137.0 " stroke="black" stroke-width="1" fill="none" />
<polyline points="333,137.0 328,138.0 " stroke="black" stroke-width="1" fill="none" />
<polyline points="328,139.0 327,141.0 327,145.0 328,146.0 " stroke="black" stroke-width="1" fill="none" />
<polyline points="327,146.0 330,147.0 " stroke="black" stroke-width="1" fill="none" />
<polyline points="331,147.0 335,146.0 " stroke="black" stroke-width="1" fill="none" />
<polyline points="336,145.0 337,143.0 337,140.0 336,138.0 " stroke="black" stroke-width="1" fill="none" />
<polyline points="337,138.0 333,137.0 " stroke="black" stroke-width="1" fill="none" />
<polyline points="331,137.0 329,139.0 328,141.0 328,145.0 329,147.0 " stroke="black" stroke-width="1" fill="none" />
<polyline points="332,147.0 334,146.0 335,145.0 336,143.0 336,139.0 335,137.0 " stroke="black" stroke-width="1" fill="none" />
<polyline points="329,147.0 325,148.0 323,150.0 322,152.0 322,155.0 323,157.0 326,158.0 330,158.0 334,157.0 335,156.0 336,154.0 336,151.0 335,149.0 334,148.0 332,147.0 " stroke="black" stroke-width="1" fill="none" />
<polyline points="330,147.0 325,148.0 " stroke="black" stroke-width="1" fill="none" />
<polyline points="326,148.0 324,150.0 323,152.0 323,155.0 324,157.0 " stroke="black" stroke-width="1" fill="none" />
<polyline points="323,157.0 328,158.0 334,157.0 " stroke="black" stroke-width="1" fill="none" />
<polyline points="334,156.0 335,154.0 335,151.0 334,149.0 " stroke="black" stroke-width="1" fill="none" />
<polyline points="334,148.0 331,147.0 " stroke="black" stroke-width="1" fill="none" />
<polyline points="329,147.0 327,148.0 325,150.0 324,152.0 324,155.0 325,157.0 326,158.0 " stroke="black" stroke-width="1" fill="none" />
<polyline points="330,158.0 332,157.0 333,156.0 334,154.0 334,150.0 333,148.0 332,147.0 " stroke="black" stroke-width="1" fill="none" />
<polyline points="368,145.0 367,147.0 366,148.0 364,149.0 361,149.0 359,148.0 358,147.0 357,145.0 357,142.0 358,140.0 360,138.0 363,137.0 366,137.0 368,138.0 369,139.0 370,142.0 370,145.0 369,149.0 368,152.0 366,155.0 364,157.0 361,158.0 358,158.0 356,157.0 355,155.0 355,153.0 357,153.0 357,155.0 356,155.0 356,154.0 " stroke="black" stroke-width="1" fill="none" />
<polyline points="359,147.0 358,145.0 358,142.0 359,140.0 " stroke="black" stroke-width="1" fill="none" />
<polyline points="368,139.0 369,141.0 369,145.0 368,149.0 367,152.0 365,155.0 " stroke="black" stroke-width="1" fill="none" />
<polyline points="361,149.0 360,148.0 359,146.0 359,142.0 360,139.0 361,138.0 363,137.0 " stroke="black" stroke-width="1" fill="none" />
<polyline points="366,137.0 367,138.0 368,140.0 368,145.0 367,149.0 366,152.0 365,154.0 363,157.0 361,158.0 " stroke="black" stroke-width="1" fill="none" />
<polyline points="390,144.0 389,145.0 389,146.0 390,147.0 391,147.0 392,146.0 392,145.0 391,144.0 390,144.0 " stroke="black" stroke-width="1" fill="none" />
<polyline points="390,145.0 390,146.0 391,146.0 391,145.0 390,145.0 " stroke="black" stroke-width="1" fill="none" />
<polyline points="387,155.0 386,156.0 386,157.0 387,158.0 388,158.0 389,157.0 389,156.0 388,155.0 387,155.0 " stroke="black" stroke-width="1" fill="none" />
<polyline points="387,156.0 387,157.0 388,157.0 388,156.0 387,156.0 " stroke="black" stroke-width="1" fill="none" />
<polyline points="422,144.0 421,145.0 421,146.0 422,147.0 423,147.0 424,146.0 424,145.0 423,144.0 422,144.0 " stroke="black" stroke-width="1" fill="none" />
<polyline points="422,145.0 422,146.0 423,146.0 423,145.0 422,145.0 " stroke="black" stroke-width="1" fill="none" />
<polyline points="420,158.0 419,158.0 418,157.0 418,156.0 419,155.0 420,155.0 421,156.0 421,158.0 420,160.0 419,161.0 417,162.0 " stroke="black" stroke-width="1" fill="none" />
<polyline points="419,156.0 419,157.0 420,157.0 420,156.0 419,156.0 " stroke="black" stroke-width="1" fill="none" />
<polyline points="420,158.0 420,159.0 419,161.0 " stroke="black" stroke-width="1" fill="none" />
<polyline points="468,140.0 452,149.0 468,158.0 " stroke="black" stroke-width="1" fill="none" />
<polyline points="484,144.0 501,144.0 501,145.0 " stroke="black" stroke-width="1" fill="none" />
<polyline points="484,144.0 484,145.0 501,145.0 " stroke="black" stroke-width="1" fill="none" />
<polyline points="484,152.0 501,152.0 501,153.0 " stroke="black" stroke-width="1" fill="none" />
<polyline points="484,152.0 484,153.0 501,153.0 " stroke="black" stroke-width="1" fill="none" />
<polyline points="516,140.0 532,149.0 516,158.0 " stroke="black" stroke-width="1" fill="none" />
<polyline points="551,142.0 551,141.0 552,141.0 552,143.0 550,143.0 550,141.0 551,139.0 552,138.0 555,137.0 559,137.0 562,138.0 563,140.0 563,142.0 562,144.0 561,145.0 559,146.0 555,147.0 553,148.0 553,150.0 555,151.0 556,151.0 " stroke="black" stroke-width="1" fill="none" />
<polyline points="557,137.0 562,138.0 " stroke="black" stroke-width="1" fill="none" />
<polyline points="561,138.0 562,140.0 562,142.0 561,144.0 560,145.0 558,146.0 " stroke="black" stroke-width="1" fill="none" />
<polyline points="559,137.0 560,138.0 561,140.0 561,142.0 560,144.0 559,145.0 555,147.0 554,148.0 554,150.0 555,151.0 " stroke="black" stroke-width="1" fill="none" />
<polyline points="552,155.0 551,156.0 551,157.0 552,158.0 553,158.0 554,157.0 554,156.0 553,155.0 552,155.0 " stroke="black" stroke-width="1" fill="none" />
<polyline points="552,156.0 552,157.0 553,157.0 553,156.0 552,156.0 " stroke="black" stroke-width="1" fill="none" />
<polyline points="82,200.0 81,198.0 79,197.0 76,197.0 74,198.0 73,199.0 72,202.0 72,205.0 73,207.0 75,208.0 78,208.0 80,207.0 81,205.0 " stroke="black" stroke-width="1" fill="none" />
<polyline points="76,197.0 74,199.0 73,202.0 73,205.0 74,207.0 75,208.0 " stroke="black" stroke-width="1" fill="none" />
<polyline points="82,197.0 81,205.0 81,207.0 83,208.0 85,208.0 87,206.0 88,203.0 88,201.0 87,198.0 86,196.0 84,194.0 82,193.0 79,192.0 76,192.0 73,193.0 71,194.0 69,196.0 68,198.0 67,201.0 67,204.0 68,207.0 69,209.0 71,211.0 73,212.0 76,213.0 79,213.0 82,212.0 84,211.0 85,210.0 " stroke="black" stroke-width="1" fill="none" />
<polyline points="83,197.0 82,205.0 82,207.0 83,208.0 " stroke="black" stroke-width="1" fill="none" />
<polyline points="109,192.0 97,212.0 " stroke="black" stroke-width="1" fill="none" />
<polyline points="107,196.0 108,213.0 " stroke="black" stroke-width="1" fill="none" />
<polyline points="108,194.0 109,212.0 " stroke="black" stroke-width="1" fill="none" />
<polyline points="109,192.0 109,194.0 110,211.0 110,213.0 " stroke="black" stroke-width="1" fill="none" />
<polyline points="100,207.0 108,207.0 " stroke="black" stroke-width="1" fill="none" />
<polyline points="94,213.0 100,213.0 " stroke="black" stroke-width="1" fill="none" />
<polyline points="105,213.0 112,213.0 " stroke="black" stroke-width="1" fill="none" />
<polyline points="97,212.0 95,213.0 " stroke="black" stroke-width="1" fill="none" />
<polyline points="97,212.0 99,213.0 " stroke="black" stroke-width="1" fill="none" />
<polyline points="108,212.0 106,213.0 " stroke="black" stroke-width="1" fill="none" />
<polyline points="108,211.0 107,213.0 " stroke="black" stroke-width="1" fill="none" />
<polyline points="110,211.0 111,213.0 " stroke="black" stroke-width="1" fill="none" />
<polyline points="137,192.0 131,213.0 " stroke="black" stroke-width="1" fill="none" />
<polyline points="138,192.0 132,213.0 " stroke="black" stroke-width="1" fill="none" />
<polyline points="139,192.0 133,213.0 " stroke="black" stroke-width="1" fill="none" />
<polyline points="134,192.0 145,192.0 148,193.0 149,195.0 149,197.0 148,200.0 147,201.0 144,202.0 " stroke="black" stroke-width="1" fill="none" />
<polyline points="147,193.0 148,195.0 148,197.0 147,200.0 146,201.0 " stroke="black" stroke-width="1" fill="none" />
<polyline points="145,192.0 146,193.0 147,195.0 147,197.0 146,200.0 144,202.0 " stroke="black" stroke-width="1" fill="none" />
<polyline points="136,202.0 144,202.0 146,203.0 147,205.0 147,207.0 146,210.0 144,212.0 140,213.0 128,213.0 " stroke="black" stroke-width="1" fill="none" />
<polyline points="145,203.0 146,205.0 146,207.0 145,210.0 143,212.0 " stroke="black" stroke-width="1" fill="none" />
<polyline points="144,202.0 145,204.0 145,207.0 144,210.0 142,212.0 140,213.0 " stroke="black" stroke-width="1" fill="none" />
<polyline points="135,192.0 138,193.0 " stroke="black" stroke-width="1" fill="none" />
<polyline points="136,192.0 137,194.0 " stroke="black" stroke-width="1" fill="none" />
<polyline points="140,192.0 138,194.0 " stroke="black" stroke-width="1" fill="none" />
<polyline points="141,192.0 138,193.0 " stroke="black" stroke-width="1" fill="none" />
<polyline points="132,212.0 129,213.0 " stroke="black" stroke-width="1" fill="none" />
<polyline points="132,211.0 130,213.0 " stroke="black" stroke-width="1" fill="none" />
<polyline points="133,211.0 134,213.0 " stroke="black" stroke-width="1" fill="none" />
<polyline points="132,212.0 135,213.0 " stroke="black" stroke-width="1" fill="none" />
<polyline points="178,194.0 179,194.0 180,192.0 179,198.0 179,196.0 178,194.0 177,193.0 175,192.0 172,192.0 169,193.0 167,195.0 165,198.0 164,201.0 163,205.0 163,208.0 164,211.0 165,212.0 168,213.0 171,213.0 173,212.0 175,210.0 176,208.0 " stroke="black" stroke-width="1" fill="none" />
<polyline points="169,194.0 167,196.0 166,198.0 165,201.0 164,205.0 164,209.0 165,211.0 " stroke="black" stroke-width="1" fill="none" />
<polyline points="172,192.0 170,193.0 168,196.0 167,198.0 166,201.0 165,205.0 165,210.0 166,212.0 168,213.0 " stroke="black" stroke-width="1" fill="none" />
<polyline points="201,192.0 195,213.0 " stroke="black" stroke-width="1" fill="none" />
<polyline points="202,192.0 196,213.0 " stroke="black" stroke-width="1" fill="none" />
<polyline points="203,192.0 197,213.0 " stroke="black" stroke-width="1" fill="none" />
<polyline points="198,192.0 207,192.0 210,193.0 211,194.0 212,197.0 212,201.0 211,205.0 209,209.0 207,211.0 205,212.0 201,213.0 192,213.0 " stroke="black" stroke-width="1" fill="none" />
<polyline points="209,193.0 210,194.0 211,197.0 211,201.0 210,205.0 208,209.0 206,211.0 " stroke="black" stroke-width="1" fill="none" />
<polyline points="207,192.0 209,194.0 210,197.0 210,201.0 209,205.0 207,209.0 204,212.0 201,213.0 " stroke="black" stroke-width="1" fill="none" />
<polyline points="199,192.0 202,193.0 " stroke="black" stroke-width="1" fill="none" />
<polyline points="200,192.0 201,194.0 " stroke="black" stroke-width="1" fill="none" />
<polyline points="204,192.0 202,194.0 " stroke="black" stroke-width="1" fill="none" />
<polyline points="205,192.0 202,193.0 " stroke="black" stroke-width="1" fill="none" />
<polyline points="196,212.0 193,213.0 " stroke="black" stroke-width="1" fill="none" />
<polyline points="196,211.0 194,213.0 " stroke="black" stroke-width="1" fill="none" />
<polyline points="197,211.0 198,213.0 " stroke="black" stroke-width="1" fill="none" />
<polyline points="196,212.0 199,213.0 " stroke="black" stroke-width="1" fill="none" />
<polyline points="233,192.0 227,213.0 " stroke="black" stroke-width="1" fill="none" />
<polyline points="234,192.0 228,213.0 " stroke="black" stroke-width="1" fill="none" />
<polyline points="235,192.0 229,213.0 " stroke="black" stroke-width="1" fill="none" />
<polyline points="239,198.0 237,206.0 " stroke="black" stroke-width="1" fill="none" />
<polyline points="230,192.0 245,192.0 244,198.0 " stroke="black" stroke-width="1" fill="none" />
<polyline points="232,202.0 238,202.0 " stroke="black" stroke-width="1" fill="none" />
<polyline points="224,213.0 239,213.0 241,208.0 " stroke="black" stroke-width="1" fill="none" />
<polyline points="231,192.0 234,193.0 " stroke="black" stroke-width="1" fill="none" />
<polyline points="232,192.0 233,194.0 " stroke="black" stroke-width="1" fill="none" />
<polyline points="236,192.0 234,194.0 " stroke="black" stroke-width="1" fill="none" />
<polyline points="237,192.0 234,193.0 " stroke="black" stroke-width="1" fill="none" />
<polyline points="241,192.0 244,193.0 " stroke="black" stroke-width="1" fill="none" />
<polyline points="242,192.0 244,194.0 " stroke="black" stroke-width="1" fill="none" />
<polyline points="243,192.0 244,195.0 " stroke="black" stroke-width="1" fill="none" />
<polyline points="244,192.0 244,198.0 " stroke="black" stroke-width="1" fill="none" />
<polyline points="239,198.0 237,202.0 237,206.0 " stroke="black" stroke-width="1" fill="none" />
<polyline points="238,200.0 236,202.0 237,204.0 " stroke="black" stroke-width="1" fill="none" />
<polyline points="238,201.0 235,202.0 237,203.0 " stroke="black" stroke-width="1" fill="none" />
<polyline points="228,212.0 225,213.0 " stroke="black" stroke-width="1" fill="none" />
<polyline points="228,211.0 226,213.0 " stroke="black" stroke-width="1" fill="none" />
<polyline points="229,211.0 230,213.0 " stroke="black" stroke-width="1" fill="none" />
<polyline points="228,212.0 231,213.0 " stroke="black" stroke-width="1" fill="none" />
<polyline points="234,213.0 239,212.0 " stroke="black" stroke-width="1" fill="none" />
<polyline points="236,213.0 239,211.0 " stroke="black" stroke-width="1" fill="none" />
<polyline points="239,211.0 241,208.0 " stroke="black" stroke-width="1" fill="none" />
<polyline points="265,192.0 259,213.0 " stroke="black" stroke-width="1" fill="none" />
<polyline points="266,192.0 260,213.0 " stroke="black" stroke-width="1" fill="none" />
<polyline points="267,192.0 261,213.0 " stroke="black" stroke-width="1" fill="none" />
<polyline points="271,198.0 269,206.0 " stroke="black" stroke-width="1" fill="none" />
<polyline points="262,192.0 277,192.0 276,198.0 " stroke="black" stroke-width="1" fill="none" />
<polyline points="264,202.0 270,202.0 " stroke="black" stroke-width="1" fill="none" />
<polyline points="256,213.0 264,213.0 " stroke="black" stroke-width="1" fill="none" />
<polyline points="263,192.0 266,193.0 " stroke="black" stroke-width="1" fill="none" />
<polyline points="264,192.0 265,194.0 " stroke="black" stroke-width="1" fill="none" />
<polyline points="268,192.0 266,194.0 " stroke="black" stroke-width="1" fill="none" />
<polyline points="269,192.0 266,193.0 " stroke="black" stroke-width="1" fill="none" />
<polyline points="273,192.0 276,193.0 " stroke="black" stroke-width="1" fill="none" />
<polyline points="274,192.0 276,194.0 " stroke="black" stroke-width="1" fill="none" />
<polyline points="275,192.0 276,195.0 " stroke="black" stroke-width="1" fill="none" />
<polyline points="276,192.0 276,198.0 " stroke="black" stroke-width="1" fill="none" />
<polyline points="271,198.0 269,202.0 269,206.0 " stroke="black" stroke-width="1" fill="none" />
<polyline points="270,200.0 268,202.0 269,204.0 " stroke="black" stroke-width="1" fill="none" />
<polyline points="270,201.0 267,202.0 269,203.0 " stroke="black" stroke-width="1" fill="none" />
<polyline points="260,212.0 257,213.0 " stroke="black" stroke-width="1" fill="none" />
<polyline points="260,211.0 258,213.0 " stroke="black" stroke-width="1" fill="none" />
<polyline points="261,211.0 262,213.0 " stroke="black" stroke-width="1" fill="none" />
<polyline points="260,212.0 263,213.0 " stroke="black" stroke-width="1" fill="none" />
<polyline points="306,194.0 307,194.0 308,192.0 307,198.0 307,196.0 306,194.0 305,193.0 303,192.0 300,192.0 297,193.0 295,195.0 293,198.0 292,201.0 291,205.0 291,208.0 292,211.0 293,212.0 296,213.0 298,213.0 301,212.0 303,210.0 305,206.0 " stroke="black" stroke-width="1" fill="none" />
<polyline points="297,194.0 295,196.0 294,198.0 293,201.0 292,205.0 292,209.0 293,211.0 " stroke="black" stroke-width="1" fill="none" />
<polyline points="302,210.0 303,209.0 304,206.0 " stroke="black" stroke-width="1" fill="none" />
<polyline points="300,192.0 298,193.0 296,196.0 295,198.0 294,201.0 293,205.0 293,210.0 294,212.0 296,213.0 " stroke="black" stroke-width="1" fill="none" />
<polyline points="298,213.0 300,212.0 302,209.0 303,206.0 " stroke="black" stroke-width="1" fill="none" />
<polyline points="300,206.0 308,206.0 " stroke="black" stroke-width="1" fill="none" />
<polyline points="301,206.0 303,207.0 " stroke="black" stroke-width="1" fill="none" />
<polyline points="302,206.0 303,209.0 " stroke="black" stroke-width="1" fill="none" />
<polyline points="306,206.0 304,208.0 " stroke="black" stroke-width="1" fill="none" />
<polyline points="307,206.0 304,207.0 " stroke="black" stroke-width="1" fill="none" />
<polyline points="329,192.0 323,213.0 " stroke="black" stroke-width="1" fill="none" />
<polyline points="330,192.0 324,213.0 " stroke="black" stroke-width="1" fill="none" />
<polyline points="331,192.0 325,213.0 " stroke="black" stroke-width="1" fill="none" />
<polyline points="341,192.0 335,213.0 " stroke="black" stroke-width="1" fill="none" />
<polyline points="342,192.0 336,213.0 " stroke="black" stroke-width="1" fill="none" />
<polyline points="343,192.0 337,213.0 " stroke="black" stroke-width="1" fill="none" />
<polyline points="326,192.0 334,192.0 " stroke="black" stroke-width="1" fill="none" />
<polyline points="338,192.0 346,192.0 " stroke="black" stroke-width="1" fill="none" />
<polyline points="327,202.0 339,202.0 " stroke="black" stroke-width="1" fill="none" />
<polyline points="320,213.0 328,213.0 " stroke="black" stroke-width="1" fill="none" />
<polyline points="332,213.0 340,213.0 " stroke="black" stroke-width="1" fill="none" />
<polyline points="327,192.0 330,193.0 " stroke="black" stroke-width="1" fill="none" />
<polyline points="328,192.0 329,194.0 " stroke="black" stroke-width="1" fill="none" />
<polyline points="332,192.0 330,194.0 " stroke="black" stroke-width="1" fill="none" />
<polyline points="333,192.0 330,193.0 " stroke="black" stroke-width="1" fill="none" />
<polyline points="339,192.0 342,193.0 " stroke="black" stroke-width="1" fill="none" />
<polyline points="340,192.0 341,194.0 " stroke="black" stroke-width="1" fill="none" />
<polyline points="344,192.0 342,194.0 " stroke="black" stroke-width="1" fill="none" />
<polyline points="345,192.0 342,193.0 " stroke="black" stroke-width="1" fill="none" />
<polyline points="324,212.0 321,213.0 " stroke="black" stroke-width="1" fill="none" />
<polyline points="324,211.0 322,213.0 " stroke="black" stroke-width="1" fill="none" />
<polyline points="325,211.0 326,213.0 " stroke="black" stroke-width="1" fill="none" />
<polyline points="324,212.0 327,213.0 " stroke="black" stroke-width="1" fill="none" />
<polyline points="336,212.0 333,213.0 " stroke="black" stroke-width="1" fill="none" />
<polyline points="336,211.0 334,213.0 " stroke="black" stroke-width="1" fill="none" />
<polyline points="337,211.0 338,213.0 " stroke="black" stroke-width="1" fill="none" />
<polyline points="336,212.0 339,213.0 " stroke="black" stroke-width="1" fill="none" />
<polyline points="361,192.0 355,213.0 " stroke="black" stroke-width="1" fill="none" />
<polyline points="362,192.0 356,213.0 " stroke="black" stroke-width="1" fill="none" />
<polyline points="363,192.0 357,213.0 " stroke="black" stroke-width="1" fill="none" />
<polyline points="358,192.0 366,192.0 " stroke="black" stroke-width="1" fill="none" />
<polyline points="352,213.0 360,213.0 " stroke="black" stroke-width="1" fill="none" />
<polyline points="359,192.0 362,193.0 " stroke="black" stroke-width="1" fill="none" />
<polyline points="360,192.0 361,194.0 " stroke="black" stroke-width="1" fill="none" />
<polyline points="364,192.0 362,194.0 " stroke="black" stroke-width="1" fill="none" />
<polyline points="365,192.0 362,193.0 " stroke="black" stroke-width="1" fill="none" />
<polyline points="356,212.0 353,213.0 " stroke="black" stroke-width="1" fill="none" />
<polyline points="356,211.0 354,213.0 " stroke="black" stroke-width="1" fill="none" />
<polyline points="357,211.0 358,213.0 " stroke="black" stroke-width="1" fill="none" />
<polyline points="356,212.0 359,213.0 " stroke="black" stroke-width="1" fill="none" />
<polyline points="398,192.0 393,209.0 392,211.0 390,213.0 " stroke="black" stroke-width="1" fill="none" />
<polyline points="399,192.0 395,205.0 394,208.0 393,210.0 " stroke="black" stroke-width="1" fill="none" />
<polyline points="400,192.0 396,205.0 394,210.0 392,212.0 390,213.0 388,213.0 386,212.0 385,210.0 385,208.0 386,207.0 387,207.0 388,208.0 388,209.0 387,210.0 386,210.0 " stroke="black" stroke-width="1" fill="none" />
<polyline points="386,208.0 386,209.0 387,209.0 387,208.0 386,208.0 " stroke="black" stroke-width="1" fill="none" />
<polyline points="395,192.0 403,192.0 " stroke="black" stroke-width="1" fill="none" />
<polyline points="396,192.0 399,193.0 " stroke="black" stroke-width="1" fill="none" />
<polyline points="397,192.0 398,194.0 " stroke="black" stroke-width="1" fill="none" />
<polyline points="401,192.0 399,194.0 " stroke="black" stroke-width="1" fill="none" />
<polyline points="402,192.0 399,193.0 " stroke="black" stroke-width="1" fill="none" />
<polyline points="425,192.0 419,213.0 " stroke="black" stroke-width="1" fill="none" />
<polyline points="426,192.0 420,213.0 " stroke="black" stroke-width="1" fill="none" />
<polyline points="427,192.0 421,213.0 " stroke="black" stroke-width="1" fill="none" />
<polyline points="438,193.0 423,204.0 " stroke="black" stroke-width="1" fill="none" />
<polyline points="427,201.0 431,213.0 " stroke="black" stroke-width="1" fill="none" />
<polyline points="428,201.0 432,213.0 " stroke="black" stroke-width="1" fill="none" />
<polyline points="429,200.0 433,212.0 " stroke="black" stroke-width="1" fill="none" />
<polyline points="422,192.0 430,192.0 " stroke="black" stroke-width="1" fill="none" />
<polyline points="435,192.0 441,192.0 " stroke="black" stroke-width="1" fill="none" />
<polyline points="416,213.0 424,213.0 " stroke="black" stroke-width="1" fill="none" />
<polyline points="428,213.0 435,213.0 " stroke="black" stroke-width="1" fill="none" />
<polyline points="423,192.0 426,193.0 " stroke="black" stroke-width="1" fill="none" />
<polyline points="424,192.0 425,194.0 " stroke="black" stroke-width="1" fill="none" />
<polyline points="428,192.0 426,194.0 " stroke="black" stroke-width="1" fill="none" />
<polyline points="429,192.0 426,193.0 " stroke="black" stroke-width="1" fill="none" />
<polyline points="436,192.0 438,193.0 " stroke="black" stroke-width="1" fill="none" />
<polyline points="440,192.0 438,193.0 " stroke="black" stroke-width="1" fill="none" />
<polyline points="420,212.0 417,213.0 " stroke="black" stroke-width="1" fill="none" />
<polyline points="420,211.0 418,213.0 " stroke="black" stroke-width="1" fill="none" />
<polyline points="421,211.0 422,213.0 " stroke="black" stroke-width="1" fill="none" />
<polyline points="420,212.0 423,213.0 " stroke="black" stroke-width="1" fill="none" />
<polyline points="431,212.0 429,213.0 " stroke="black" stroke-width="1" fill="none" />
<polyline points="431,211.0 430,213.0 " stroke="black" stroke-width="1" fill="none" />
<polyline points="432,211.0 434,213.0 " stroke="black" stroke-width="1" fill="none" />
<polyline points="457,192.0 451,213.0 " stroke="black" stroke-width="1" fill="none" />
<polyline points="458,192.0 452,213.0 " stroke="black" stroke-width="1" fill="none" />
<polyline points="459,192.0 453,213.0 " stroke="black" stroke-width="1" fill="none" />
<polyline points="454,192.0 462,192.0 " stroke="black" stroke-width="1" fill="none" />
<polyline points="448,213.0 463,213.0 465,207.0 " stroke="black" stroke-width="1" fill="none" />
<polyline points="455,192.0 458,193.0 " stroke="black" stroke-width="1" fill="none" />
<polyline points="456,192.0 457,194.0 " stroke="black" stroke-width="1" fill="none" />
<polyline points="460,192.0 458,194.0 " stroke="black" stroke-width="1" fill="none" />
<polyline points="461,192.0 458,193.0 " stroke="black" stroke-width="1" fill="none" />
<polyline points="452,212.0 449,213.0 " stroke="black" stroke-width="1" fill="none" />
<polyline points="452,211.0 450,213.0 " stroke="black" stroke-width="1" fill="none" />
<polyline points="453,211.0 454,213.0 " stroke="black" stroke-width="1" fill="none" />
<polyline points="452,212.0 455,213.0 " stroke="black" stroke-width="1" fill="none" />
<polyline points="458,213.0 463,212.0 " stroke="black" stroke-width="1" fill="none" />
<polyline points="460,213.0 464,210.0 " stroke="black" stroke-width="1" fill="none" />
<polyline points="462,213.0 465,207.0 " stroke="black" stroke-width="1" fill="none" />
<polyline points="489,192.0 483,212.0 " stroke="black" stroke-width="1" fill="none" />
<polyline points="489,193.0 490,211.0 490,213.0 " stroke="black" stroke-width="1" fill="none" />
<polyline points="490,192.0 491,211.0 " stroke="black" stroke-width="1" fill="none" />
<polyline points="491,192.0 492,210.0 " stroke="black" stroke-width="1" fill="none" />
<polyline points="503,192.0 492,210.0 490,213.0 " stroke="black" stroke-width="1" fill="none" />
<polyline points="503,192.0 497,213.0 " stroke="black" stroke-width="1" fill="none" />
<polyline points="504,192.0 498,213.0 " stroke="black" stroke-width="1" fill="none" />
<polyline points="505,192.0 499,213.0 " stroke="black" stroke-width="1" fill="none" />
<polyline points="486,192.0 491,192.0 " stroke="black" stroke-width="1" fill="none" />
<polyline points="503,192.0 508,192.0 " stroke="black" stroke-width="1" fill="none" />
<polyline points="480,213.0 486,213.0 " stroke="black" stroke-width="1" fill="none" />
<polyline points="494,213.0 502,213.0 " stroke="black" stroke-width="1" fill="none" />
<polyline points="487,192.0 489,193.0 " stroke="black" stroke-width="1" fill="none" />
<polyline points="488,192.0 489,194.0 " stroke="black" stroke-width="1" fill="none" />
<polyline points="506,192.0 504,194.0 " stroke="black" stroke-width="1" fill="none" />
<polyline points="507,192.0 504,193.0 " stroke="black" stroke-width="1" fill="none" />
<polyline points="483,212.0 481,213.0 " stroke="black" stroke-width="1" fill="none" />
<polyline points="483,212.0 485,213.0 " stroke="black" stroke-width="1" fill="none" />
<polyline points="498,212.0 495,213.0 " stroke="black" stroke-width="1" fill="none" />
<polyline points="498,211.0 496,213.0 " stroke="black" stroke-width="1" fill="none" />
<polyline points="499,211.0 500,213.0 " stroke="black" stroke-width="1" fill="none" />
<polyline points="498,212.0 501,213.0 " stroke="black" stroke-width="1" fill="none" />
<polyline points="521,192.0 515,212.0 " stroke="black" stroke-width="1" fill="none" />
<polyline points="521,192.0 528,213.0 " stroke="black" stroke-width="1" fill="none" />
<polyline points="522,192.0 528,210.0 " stroke="black" stroke-width="1" fill="none" />
<polyline points="523,192.0 529,210.0 " stroke="black" stroke-width="1" fill="none" />
<polyline points="534,193.0 529,210.0 528,213.0 " stroke="black" stroke-width="1" fill="none" />
<polyline points="518,192.0 523,192.0 " stroke="black" stroke-width="1" fill="none" />
<polyline points="531,192.0 537,192.0 " stroke="black" stroke-width="1" fill="none" />
<polyline points="512,213.0 518,213.0 " stroke="black" stroke-width="1" fill="none" />
<polyline points="519,192.0 522,193.0 " stroke="black" stroke-width="1" fill="none" />
<polyline points="520,192.0 522,194.0 " stroke="black" stroke-width="1" fill="none" />
<polyline points="532,192.0 534,193.0 " stroke="black" stroke-width="1" fill="none" />
<polyline points="536,192.0 534,193.0 " stroke="black" stroke-width="1" fill="none" />
<polyline points="515,212.0 513,213.0 " stroke="black" stroke-width="1" fill="none" />
<polyline points="515,212.0 517,213.0 " stroke="black" stroke-width="1" fill="none" />
<polyline points="556,192.0 553,193.0 551,195.0 549,198.0 548,201.0 547,205.0 547,208.0 548,211.0 549,212.0 551,213.0 554,213.0 557,212.0 559,210.0 561,207.0 562,204.0 563,200.0 563,197.0 562,194.0 561,193.0 559,192.0 556,192.0 " stroke="black" stroke-width="1" fill="none" />
<polyline points="552,195.0 550,198.0 549,201.0 548,205.0 548,209.0 549,211.0 " stroke="black" stroke-width="1" fill="none" />
<polyline points="558,210.0 560,207.0 561,204.0 562,200.0 562,196.0 561,194.0 " stroke="black" stroke-width="1" fill="none" />
<polyline points="556,192.0 554,193.0 552,196.0 551,198.0 550,201.0 549,205.0 549,210.0 550,212.0 551,213.0 " stroke="black" stroke-width="1" fill="none" />
<polyline points="554,213.0 556,212.0 558,209.0 559,207.0 560,204.0 561,200.0 561,195.0 560,193.0 559,192.0 " stroke="black" stroke-width="1" fill="none" />
<polyline points="73,247.0 67,268.0 " stroke="black" stroke-width="1" fill="none" />
<polyline points="74,247.0 68,268.0 " stroke="black" stroke-width="1" fill="none" />
<polyline points="75,247.0 69,268.0 " stroke="black" stroke-width="1" fill="none" />
<polyline points="70,247.0 82,247.0 85,248.0 86,250.0 86,252.0 85,255.0 83,257.0 79,258.0 71,258.0 " stroke="black" stroke-width="1" fill="none" />
<polyline points="84,248.0 85,250.0 85,252.0 84,255.0 82,257.0 " stroke="black" stroke-width="1" fill="none" />
<polyline points="82,247.0 83,248.0 84,250.0 84,252.0 83,255.0 81,257.0 79,258.0 " stroke="black" stroke-width="1" fill="none" />
<polyline points="64,268.0 72,268.0 " stroke="black" stroke-width="1" fill="none" />
<polyline points="71,247.0 74,248.0 " stroke="black" stroke-width="1" fill="none" />
<polyline points="72,247.0 73,249.0 " stroke="black" stroke-width="1" fill="none" />
<polyline points="76,247.0 74,249.0 " stroke="black" stroke-width="1" fill="none" />
<polyline points="77,247.0 74,248.0 " stroke="black" stroke-width="1" fill="none" />
<polyline points="68,267.0 65,268.0 " stroke="black" stroke-width="1" fill="none" />
<polyline points="68,266.0 66,268.0 " stroke="black" stroke-width="1" fill="none" />
<polyline points="69,266.0 70,268.0 " stroke="black" stroke-width="1" fill="none" />
<polyline points="68,267.0 71,268.0 " stroke="black" stroke-width="1" fill="none" />
<polyline points="108,247.0 105,248.0 103,250.0 101,253.0 100,256.0 99,260.0 99,263.0 100,266.0 101,267.0 103,268.0 106,268.0 109,267.0 111,265.0 113,262.0 114,259.0 115,255.0 115,252.0 114,249.0 113,248.0 111,247.0 108,247.0 " stroke="black" stroke-width="1" fill="none" />
<polyline points="104,250.0 102,253.0 101,256.0 100,260.0 100,264.0 101,266.0 " stroke="black" stroke-width="1" fill="none" />
<polyline points="110,265.0 112,262.0 113,259.0 114,255.0 114,251.0 113,249.0 " stroke="black" stroke-width="1" fill="none" />
<polyline points="108,247.0 106,248.0 104,251.0 103,253.0 102,256.0 101,260.0 101,265.0 102,267.0 103,268.0 " stroke="black" stroke-width="1" fill="none" />
<polyline points="106,268.0 108,267.0 110,264.0 111,262.0 112,259.0 113,255.0 113,250.0 112,248.0 111,247.0 " stroke="black" stroke-width="1" fill="none" />
<polyline points="101,265.0 102,263.0 104,262.0 105,262.0 107,263.0 108,265.0 109,270.0 110,271.0 111,271.0 112,270.0 " stroke="black" stroke-width="1" fill="none" />
<polyline points="109,271.0 110,272.0 111,272.0 " stroke="black" stroke-width="1" fill="none" />
<polyline points="108,265.0 108,272.0 109,273.0 111,273.0 112,270.0 112,269.0 " stroke="black" stroke-width="1" fill="none" />
<polyline points="137,247.0 131,268.0 " stroke="black" stroke-width="1" fill="none" />
<polyline points="138,247.0 132,268.0 " stroke="black" stroke-width="1" fill="none" />
<polyline points="139,247.0 133,268.0 " stroke="black" stroke-width="1" fill="none" />
<polyline points="134,247.0 145,247.0 148,248.0 149,250.0 149,252.0 148,255.0 147,256.0 144,257.0 136,257.0 " stroke="black" stroke-width="1" fill="none" />
<polyline points="147,248.0 148,250.0 148,252.0 147,255.0 146,256.0 " stroke="black" stroke-width="1" fill="none" />
<polyline points="145,247.0 146,248.0 147,250.0 147,252.0 146,255.0 144,257.0 " stroke="black" stroke-width="1" fill="none" />
<polyline points="140,257.0 142,258.0 143,259.0 145,265.0 146,266.0 147,266.0 148,265.0 " stroke="black" stroke-width="1" fill="none" />
<polyline points="145,266.0 146,267.0 147,267.0 " stroke="black" stroke-width="1" fill="none" />
<polyline points="143,259.0 144,267.0 145,268.0 147,268.0 148,265.0 148,264.0 " stroke="black" stroke-width="1" fill="none" />
<polyline points="128,268.0 136,268.0 " stroke="black" stroke-width="1" fill="none" />
<polyline points="135,247.0 138,248.0 " stroke="black" stroke-width="1" fill="none" />
<polyline points="136,247.0 137,249.0 " stroke="black" stroke-width="1" fill="none" />
<polyline points="140,247.0 138,249.0 " stroke="black" stroke-width="1" fill="none" />
<polyline points="141,247.0 138,248.0 " stroke="black" stroke-width="1" fill="none" />
<polyline points="132,267.0 129,268.0 " stroke="black" stroke-width="1" fill="none" />
<polyline points="132,266.0 130,268.0 " stroke="black" stroke-width="1" fill="none" />
<polyline points="133,266.0 134,268.0 " stroke="black" stroke-width="1" fill="none" />
<polyline points="132,267.0 135,268.0 " stroke="black" stroke-width="1" fill="none" />
<polyline points="179,249.0 180,249.0 181,247.0 180,253.0 180,251.0 179,249.0 178,248.0 175,247.0 171,247.0 168,248.0 166,250.0 166,253.0 167,255.0 169,257.0 175,260.0 176,262.0 176,265.0 175,267.0 " stroke="black" stroke-width="1" fill="none" />
<polyline points="167,253.0 168,255.0 175,259.0 176,261.0 " stroke="black" stroke-width="1" fill="none" />
<polyline points="168,248.0 167,250.0 167,252.0 168,254.0 174,257.0 176,259.0 177,261.0 177,264.0 176,266.0 175,267.0 172,268.0 168,268.0 165,267.0 164,266.0 163,264.0 163,262.0 162,268.0 163,266.0 164,266.0 " stroke="black" stroke-width="1" fill="none" />
<polyline points="205,247.0 199,268.0 " stroke="black" stroke-width="1" fill="none" />
<polyline points="206,247.0 200,268.0 " stroke="black" stroke-width="1" fill="none" />
<polyline points="207,247.0 201,268.0 " stroke="black" stroke-width="1" fill="none" />
<polyline points="198,247.0 196,253.0 " stroke="black" stroke-width="1" fill="none" />
<polyline points="214,247.0 213,253.0 " stroke="black" stroke-width="1" fill="none" />
<polyline points="198,247.0 214,247.0 " stroke="black" stroke-width="1" fill="none" />
<polyline points="196,268.0 204,268.0 " stroke="black" stroke-width="1" fill="none" />
<polyline points="199,247.0 196,253.0 " stroke="black" stroke-width="1" fill="none" />
<polyline points="201,247.0 197,250.0 " stroke="black" stroke-width="1" fill="none" />
<polyline points="203,247.0 198,248.0 " stroke="black" stroke-width="1" fill="none" />
<polyline points="210,247.0 213,248.0 " stroke="black" stroke-width="1" fill="none" />
<polyline points="211,247.0 213,249.0 " stroke="black" stroke-width="1" fill="none" />
<polyline points="212,247.0 213,250.0 " stroke="black" stroke-width="1" fill="none" />
<polyline points="213,247.0 213,253.0 " stroke="black" stroke-width="1" fill="none" />
<polyline points="200,267.0 197,268.0 " stroke="black" stroke-width="1" fill="none" />
<polyline points="200,266.0 198,268.0 " stroke="black" stroke-width="1" fill="none" />
<polyline points="201,266.0 202,268.0 " stroke="black" stroke-width="1" fill="none" />
<polyline points="200,267.0 203,268.0 " stroke="black" stroke-width="1" fill="none" />
<polyline points="232,247.0 229,258.0 228,262.0 228,265.0 229,267.0 232,268.0 236,268.0 239,267.0 241,265.0 242,262.0 246,248.0 " stroke="black" stroke-width="1" fill="none" />
<polyline points="233,247.0 230,258.0 229,262.0 229,266.0 230,267.0 " stroke="black" stroke-width="1" fill="none" />
<polyline points="234,247.0 231,258.0 230,262.0 230,266.0 232,268.0 " stroke="black" stroke-width="1" fill="none" />
<polyline points="229,247.0 237,247.0 " stroke="black" stroke-width="1" fill="none" />
<polyline points="243,247.0 249,247.0 " stroke="black" stroke-width="1" fill="none" />
<polyline points="230,247.0 233,248.0 " stroke="black" stroke-width="1" fill="none" />
<polyline points="231,247.0 232,249.0 " stroke="black" stroke-width="1" fill="none" />
<polyline points="235,247.0 233,249.0 " stroke="black" stroke-width="1" fill="none" />
<polyline points="236,247.0 233,248.0 " stroke="black" stroke-width="1" fill="none" />
<polyline points="244,247.0 246,248.0 " stroke="black" stroke-width="1" fill="none" />
<polyline points="248,247.0 246,248.0 " stroke="black" stroke-width="1" fill="none" />
<polyline points="262,247.0 262,249.0 263,266.0 263,268.0 " stroke="black" stroke-width="1" fill="none" />
<polyline points="263,248.0 264,265.0 " stroke="black" stroke-width="1" fill="none" />
<polyline points="264,247.0 265,264.0 " stroke="black" stroke-width="1" fill="none" />
<polyline points="275,248.0 263,268.0 " stroke="black" stroke-width="1" fill="none" />
<polyline points="260,247.0 267,247.0 " stroke="black" stroke-width="1" fill="none" />
<polyline points="272,247.0 278,247.0 " stroke="black" stroke-width="1" fill="none" />
<polyline points="261,247.0 262,249.0 " stroke="black" stroke-width="1" fill="none" />
<polyline points="265,247.0 264,249.0 " stroke="black" stroke-width="1" fill="none" />
<polyline points="266,247.0 263,248.0 " stroke="black" stroke-width="1" fill="none" />
<polyline points="273,247.0 275,248.0 " stroke="black" stroke-width="1" fill="none" />
<polyline points="277,247.0 275,248.0 " stroke="black" stroke-width="1" fill="none" />
<polyline points="296,247.0 296,249.0 294,266.0 294,268.0 " stroke="black" stroke-width="1" fill="none" />
<polyline points="297,248.0 295,265.0 " stroke="black" stroke-width="1" fill="none" />
<polyline points="298,247.0 296,264.0 " stroke="black" stroke-width="1" fill="none" />
<polyline points="304,247.0 296,264.0 294,268.0 " stroke="black" stroke-width="1" fill="none" />
<polyline points="304,247.0 304,249.0 302,266.0 302,268.0 " stroke="black" stroke-width="1" fill="none" />
<polyline points="305,248.0 303,265.0 " stroke="black" stroke-width="1" fill="none" />
<polyline points="306,247.0 304,264.0 " stroke="black" stroke-width="1" fill="none" />
<polyline points="312,248.0 304,264.0 302,268.0 " stroke="black" stroke-width="1" fill="none" />
<polyline points="293,247.0 301,247.0 " stroke="black" stroke-width="1" fill="none" />
<polyline points="304,247.0 306,247.0 " stroke="black" stroke-width="1" fill="none" />
<polyline points="309,247.0 315,247.0 " stroke="black" stroke-width="1" fill="none" />
<polyline points="294,247.0 297,248.0 " stroke="black" stroke-width="1" fill="none" />
<polyline points="295,247.0 296,249.0 " stroke="black" stroke-width="1" fill="none" />
<polyline points="299,247.0 297,250.0 " stroke="black" stroke-width="1" fill="none" />
<polyline points="300,247.0 297,248.0 " stroke="black" stroke-width="1" fill="none" />
<polyline points="310,247.0 312,248.0 " stroke="black" stroke-width="1" fill="none" />
<polyline points="314,247.0 312,248.0 " stroke="black" stroke-width="1" fill="none" />
<polyline points="327,247.0 333,268.0 " stroke="black" stroke-width="1" fill="none" />
<polyline points="328,247.0 334,268.0 " stroke="black" stroke-width="1" fill="none" />
<polyline points="329,247.0 335,268.0 " stroke="black" stroke-width="1" fill="none" />
<polyline points="340,248.0 322,267.0 " stroke="black" stroke-width="1" fill="none" />
<polyline points="325,247.0 332,247.0 " stroke="black" stroke-width="1" fill="none" />
<polyline points="337,247.0 343,247.0 " stroke="black" stroke-width="1" fill="none" />
<polyline points="319,268.0 325,268.0 " stroke="black" stroke-width="1" fill="none" />
<polyline points="330,268.0 337,268.0 " stroke="black" stroke-width="1" fill="none" />
<polyline points="326,247.0 328,249.0 " stroke="black" stroke-width="1" fill="none" />
<polyline points="330,247.0 329,249.0 " stroke="black" stroke-width="1" fill="none" />
<polyline points="331,247.0 329,248.0 " stroke="black" stroke-width="1" fill="none" />
<polyline points="338,247.0 340,248.0 " stroke="black" stroke-width="1" fill="none" />
<polyline points="342,247.0 340,248.0 " stroke="black" stroke-width="1" fill="none" />
<polyline points="322,267.0 320,268.0 " stroke="black" stroke-width="1" fill="none" />
<polyline points="322,267.0 324,268.0 " stroke="black" stroke-width="1" fill="none" />
<polyline points="333,267.0 331,268.0 " stroke="black" stroke-width="1" fill="none" />
<polyline points="333,266.0 332,268.0 " stroke="black" stroke-width="1" fill="none" />
<polyline points="334,266.0 336,268.0 " stroke="black" stroke-width="1" fill="none" />
<polyline points="358,247.0 362,257.0 359,268.0 " stroke="black" stroke-width="1" fill="none" />
<polyline points="359,247.0 363,257.0 360,268.0 " stroke="black" stroke-width="1" fill="none" />
<polyline points="360,247.0 364,257.0 361,268.0 " stroke="black" stroke-width="1" fill="none" />
<polyline points="373,248.0 364,257.0 " stroke="black" stroke-width="1" fill="none" />
<polyline points="356,247.0 363,247.0 " stroke="black" stroke-width="1" fill="none" />
<polyline points="370,247.0 376,247.0 " stroke="black" stroke-width="1" fill="none" />
<polyline points="356,268.0 364,268.0 " stroke="black" stroke-width="1" fill="none" />
<polyline points="357,247.0 359,248.0 " stroke="black" stroke-width="1" fill="none" />
<polyline points="361,247.0 360,249.0 " stroke="black" stroke-width="1" fill="none" />
<polyline points="362,247.0 359,248.0 " stroke="black" stroke-width="1" fill="none" />
<polyline points="371,247.0 373,248.0 " stroke="black" stroke-width="1" fill="none" />
<polyline points="375,247.0 373,248.0 " stroke="black" stroke-width="1" fill="none" />
<polyline points="360,267.0 357,268.0 " stroke="black" stroke-width="1" fill="none" />
<polyline points="360,266.0 358,268.0 " stroke="black" stroke-width="1" fill="none" />
<polyline points="361,266.0 362,268.0 " stroke="black" stroke-width="1" fill="none" />
<polyline points="360,267.0 363,268.0 " stroke="black" stroke-width="1" fill="none" />
<polyline points="403,247.0 385,268.0 " stroke="black" stroke-width="1" fill="none" />
<polyline points="404,247.0 386,268.0 " stroke="black" stroke-width="1" fill="none" />
<polyline points="405,247.0 387,268.0 " stroke="black" stroke-width="1" fill="none" />
<polyline points="405,247.0 391,247.0 389,253.0 " stroke="black" stroke-width="1" fill="none" />
<polyline points="385,268.0 399,268.0 401,262.0 " stroke="black" stroke-width="1" fill="none" />
<polyline points="392,247.0 389,253.0 " stroke="black" stroke-width="1" fill="none" />
<polyline points="393,247.0 390,250.0 " stroke="black" stroke-width="1" fill="none" />
<polyline points="395,247.0 391,248.0 " stroke="black" stroke-width="1" fill="none" />
<polyline points="395,268.0 399,267.0 " stroke="black" stroke-width="1" fill="none" />
<polyline points="397,268.0 400,265.0 " stroke="black" stroke-width="1" fill="none" />
<polyline points="398,268.0 401,262.0 " stroke="black" stroke-width="1" fill="none" />
<polyline points="420,243.0 420,275.0 " stroke="black" stroke-width="1" fill="none" />
<polyline points="421,243.0 421,275.0 " stroke="black" stroke-width="1" fill="none" />
<polyline points="420,243.0 427,243.0 " stroke="black" stroke-width="1" fill="none" />
<polyline points="420,275.0 427,275.0 " stroke="black" stroke-width="1" fill="none" />
<polyline points="448,247.0 462,271.0 " stroke="black" stroke-width="1" fill="none" />
<polyline points="489,243.0 489,275.0 " stroke="black" stroke-width="1" fill="none" />
<polyline points="490,243.0 490,275.0 " stroke="black" stroke-width="1" fill="none" />
<polyline points="483,243.0 490,243.0 " stroke="black" stroke-width="1" fill="none" />
<polyline points="483,275.0 490,275.0 " stroke="black" stroke-width="1" fill="none" />
<polyline points="515,261.0 523,256.0 531,261.0 " stroke="black" stroke-width="1" fill="none" />
<polyline points="515,261.0 523,257.0 531,261.0 " stroke="black" stroke-width="1" fill="none" />
<polyline points="544,275.0 564,275.0 " stroke="black" stroke-width="1" fill="none" />
<polyline points="68,302.0 73,308.0 " stroke="black" stroke-width="1" fill="none" />
<polyline points="68,302.0 67,303.0 73,308.0 " stroke="black" stroke-width="1" fill="none" />
<polyline points="112,309.0 110,316.0 110,320.0 111,322.0 112,323.0 114,323.0 116,321.0 117,319.0 " stroke="black" stroke-width="1" fill="none" />
<polyline points="113,309.0 111,316.0 111,322.0 " stroke="black" stroke-width="1" fill="none" />
<polyline points="112,309.0 114,309.0 112,316.0 111,320.0 " stroke="black" stroke-width="1" fill="none" />
<polyline points="110,316.0 110,313.0 109,310.0 107,309.0 105,309.0 102,310.0 100,313.0 99,316.0 99,318.0 100,321.0 101,322.0 103,323.0 105,323.0 107,322.0 108,321.0 109,319.0 110,316.0 " stroke="black" stroke-width="1" fill="none" />
<polyline points="103,310.0 101,313.0 100,316.0 100,319.0 101,321.0 " stroke="black" stroke-width="1" fill="none" />
<polyline points="105,309.0 103,311.0 102,313.0 101,316.0 101,319.0 102,322.0 103,323.0 " stroke="black" stroke-width="1" fill="none" />
<polyline points="135,302.0 133,309.0 132,315.0 132,319.0 133,321.0 134,322.0 136,323.0 138,323.0 141,322.0 143,319.0 144,316.0 144,314.0 143,311.0 142,310.0 140,309.0 138,309.0 136,310.0 135,311.0 134,313.0 133,316.0 " stroke="black" stroke-width="1" fill="none" />
<polyline points="136,302.0 134,309.0 133,313.0 133,319.0 134,322.0 " stroke="black" stroke-width="1" fill="none" />
<polyline points="141,321.0 142,319.0 143,316.0 143,313.0 142,311.0 " stroke="black" stroke-width="1" fill="none" />
<polyline points="132,302.0 137,302.0 135,309.0 133,316.0 " stroke="black" stroke-width="1" fill="none" />
<polyline points="138,323.0 140,321.0 141,319.0 142,316.0 142,313.0 141,310.0 140,309.0 " stroke="black" stroke-width="1" fill="none" />
<polyline points="133,302.0 136,303.0 " stroke="black" stroke-width="1" fill="none" />
<polyline points="134,302.0 135,304.0 " stroke="black" stroke-width="1" fill="none" />
<polyline points="174,313.0 174,312.0 173,312.0 173,314.0 175,314.0 175,312.0 174,310.0 172,309.0 169,309.0 166,310.0 164,313.0 163,316.0 163,318.0 164,321.0 165,322.0 167,323.0 169,323.0 172,322.0 174,319.0 " stroke="black" stroke-width="1" fill="none" />
<polyline points="166,311.0 165,313.0 164,316.0 164,319.0 165,321.0 " stroke="black" stroke-width="1" fill="none" />
<polyline points="169,309.0 167,311.0 166,313.0 165,316.0 165,319.0 166,322.0 167,323.0 " stroke="black" stroke-width="1" fill="none" />
<polyline points="210,302.0 207,313.0 206,317.0 206,320.0 207,322.0 208,323.0 210,323.0 212,321.0 213,319.0 " stroke="black" stroke-width="1" fill="none" />
<polyline points="211,302.0 208,313.0 207,317.0 207,322.0 " stroke="black" stroke-width="1" fill="none" />
<polyline points="207,302.0 212,302.0 208,316.0 207,320.0 " stroke="black" stroke-width="1" fill="none" />
<polyline points="206,316.0 206,313.0 205,310.0 203,309.0 201,309.0 198,310.0 196,313.0 195,316.0 195,318.0 196,321.0 197,322.0 199,323.0 201,323.0 203,322.0 204,321.0 205,319.0 206,316.0 " stroke="black" stroke-width="1" fill="none" />
<polyline points="198,311.0 197,313.0 196,316.0 196,319.0 197,321.0 " stroke="black" stroke-width="1" fill="none" />
<polyline points="201,309.0 199,311.0 198,313.0 197,316.0 197,319.0 198,322.0 199,323.0 " stroke="black" stroke-width="1" fill="none" />
<polyline points="208,302.0 211,303.0 " stroke="black" stroke-width="1" fill="none" />
<polyline points="209,302.0 210,304.0 " stroke="black" stroke-width="1" fill="none" />
<polyline points="228,318.0 232,317.0 235,316.0 238,314.0 239,312.0 238,310.0 236,309.0 233,309.0 230,310.0 228,313.0 227,316.0 227,318.0 228,321.0 229,322.0 231,323.0 233,323.0 236,322.0 238,320.0 " stroke="black" stroke-width="1" fill="none" />
<polyline points="230,311.0 229,313.0 228,316.0 228,319.0 229,321.0 " stroke="black" stroke-width="1" fill="none" />
<polyline points="233,309.0 231,311.0 230,313.0 229,316.0 229,319.0 230,322.0 231,323.0 " stroke="black" stroke-width="1" fill="none" />
<polyline points="272,304.0 272,303.0 271,303.0 271,305.0 273,305.0 273,303.0 272,302.0 270,302.0 268,303.0 266,305.0 265,307.0 264,310.0 263,314.0 261,323.0 260,326.0 259,328.0 257,330.0 " stroke="black" stroke-width="1" fill="none" />
<polyline points="266,306.0 265,309.0 264,314.0 262,323.0 261,326.0 " stroke="black" stroke-width="1" fill="none" />
<polyline points="270,302.0 268,304.0 267,306.0 266,309.0 265,314.0 263,322.0 262,325.0 261,327.0 259,329.0 257,330.0 255,330.0 254,329.0 254,327.0 256,327.0 256,329.0 255,329.0 255,328.0 " stroke="black" stroke-width="1" fill="none" />
<polyline points="260,309.0 271,309.0 " stroke="black" stroke-width="1" fill="none" />
<polyline points="304,309.0 300,323.0 299,326.0 297,329.0 295,330.0 " stroke="black" stroke-width="1" fill="none" />
<polyline points="305,309.0 301,323.0 299,327.0 " stroke="black" stroke-width="1" fill="none" />
<polyline points="304,309.0 306,309.0 302,323.0 300,327.0 298,329.0 295,330.0 292,330.0 290,329.0 289,328.0 289,326.0 291,326.0 291,328.0 290,328.0 290,327.0 " stroke="black" stroke-width="1" fill="none" />
<polyline points="302,316.0 302,313.0 301,310.0 299,309.0 297,309.0 294,310.0 292,313.0 291,316.0 291,318.0 292,321.0 293,322.0 295,323.0 297,323.0 299,322.0 300,321.0 301,319.0 302,316.0 " stroke="black" stroke-width="1" fill="none" />
<polyline points="294,311.0 293,313.0 292,316.0 292,319.0 293,321.0 " stroke="black" stroke-width="1" fill="none" />
<polyline points="297,309.0 295,311.0 294,313.0 293,316.0 293,319.0 294,322.0 295,323.0 " stroke="black" stroke-width="1" fill="none" />
<polyline points="328,302.0 322,323.0 324,323.0 " stroke="black" stroke-width="1" fill="none" />
<polyline points="329,302.0 323,323.0 " stroke="black" stroke-width="1" fill="none" />
<polyline points="325,302.0 330,302.0 324,323.0 " stroke="black" stroke-width="1" fill="none" />
<polyline points="326,316.0 328,312.0 330,310.0 332,309.0 334,309.0 336,310.0 337,312.0 337,315.0 335,320.0 " stroke="black" stroke-width="1" fill="none" />
<polyline points="336,310.0 336,314.0 335,318.0 335,322.0 " stroke="black" stroke-width="1" fill="none" />
<polyline points="336,312.0 334,317.0 334,320.0 335,322.0 336,323.0 338,323.0 340,321.0 341,319.0 " stroke="black" stroke-width="1" fill="none" />
<polyline points="326,302.0 329,303.0 " stroke="black" stroke-width="1" fill="none" />
<polyline points="327,302.0 328,304.0 " stroke="black" stroke-width="1" fill="none" />
<polyline points="360,302.0 360,304.0 362,304.0 362,302.0 360,302.0 " stroke="black" stroke-width="1" fill="none" />
<polyline points="361,302.0 361,304.0 " stroke="black" stroke-width="1" fill="none" />
<polyline points="360,303.0 362,303.0 " stroke="black" stroke-width="1" fill="none" />
<polyline points="353,313.0 354,311.0 356,309.0 358,309.0 359,310.0 360,312.0 360,315.0 358,320.0 " stroke="black" stroke-width="1" fill="none" />
<polyline points="359,310.0 359,314.0 358,318.0 358,322.0 " stroke="black" stroke-width="1" fill="none" />
<polyline points="359,312.0 357,317.0 357,320.0 358,322.0 359,323.0 361,323.0 363,321.0 364,319.0 " stroke="black" stroke-width="1" fill="none" />
<polyline points="394,302.0 394,304.0 396,304.0 396,302.0 394,302.0 " stroke="black" stroke-width="1" fill="none" />
<polyline points="395,302.0 395,304.0 " stroke="black" stroke-width="1" fill="none" />
<polyline points="394,303.0 396,303.0 " stroke="black" stroke-width="1" fill="none" />
<polyline points="386,313.0 387,311.0 389,309.0 391,309.0 392,310.0 393,312.0 393,315.0 391,322.0 390,325.0 389,327.0 387,329.0 385,330.0 383,330.0 382,329.0 382,327.0 384,327.0 384,329.0 383,329.0 383,328.0 " stroke="black" stroke-width="1" fill="none" />
<polyline points="392,310.0 392,315.0 390,322.0 389,325.0 388,327.0 " stroke="black" stroke-width="1" fill="none" />
<polyline points="392,312.0 391,316.0 389,323.0 388,326.0 387,328.0 385,330.0 " stroke="black" stroke-width="1" fill="none" />
<polyline points="424,302.0 418,323.0 420,323.0 " stroke="black" stroke-width="1" fill="none" />
<polyline points="425,302.0 419,323.0 " stroke="black" stroke-width="1" fill="none" />
<polyline points="421,302.0 426,302.0 420,323.0 " stroke="black" stroke-width="1" fill="none" />
<polyline points="434,311.0 434,310.0 433,310.0 433,312.0 435,312.0 435,310.0 434,309.0 432,309.0 430,310.0 426,314.0 424,315.0 " stroke="black" stroke-width="1" fill="none" />
<polyline points="422,315.0 424,315.0 426,316.0 427,317.0 429,321.0 430,322.0 432,322.0 " stroke="black" stroke-width="1" fill="none" />
<polyline points="426,317.0 428,321.0 429,322.0 " stroke="black" stroke-width="1" fill="none" />
<polyline points="424,315.0 425,316.0 427,322.0 428,323.0 430,323.0 432,322.0 434,319.0 " stroke="black" stroke-width="1" fill="none" />
<polyline points="422,302.0 425,303.0 " stroke="black" stroke-width="1" fill="none" />
<polyline points="423,302.0 424,304.0 " stroke="black" stroke-width="1" fill="none" />
<polyline points="456,302.0 453,313.0 452,317.0 452,320.0 453,322.0 454,323.0 456,323.0 458,321.0 459,319.0 " stroke="black" stroke-width="1" fill="none" />
<polyline points="457,302.0 454,313.0 453,317.0 453,322.0 " stroke="black" stroke-width="1" fill="none" />
<polyline points="453,302.0 458,302.0 454,316.0 453,320.0 " stroke="black" stroke-width="1" fill="none" />
<polyline points="454,302.0 457,303.0 " stroke="black" stroke-width="1" fill="none" />
<polyline points="455,302.0 456,304.0 " stroke="black" stroke-width="1" fill="none" />
<polyline points="481,313.0 482,311.0 484,309.0 486,309.0 487,310.0 488,312.0 488,315.0 486,323.0 " stroke="black" stroke-width="1" fill="none" />
<polyline points="487,310.0 487,315.0 485,323.0 " stroke="black" stroke-width="1" fill="none" />
<polyline points="487,312.0 486,316.0 484,323.0 486,323.0 " stroke="black" stroke-width="1" fill="none" />
<polyline points="488,315.0 490,312.0 492,310.0 494,309.0 496,309.0 498,310.0 499,312.0 499,315.0 497,323.0 " stroke="black" stroke-width="1" fill="none" />
<polyline points="498,310.0 498,315.0 496,323.0 " stroke="black" stroke-width="1" fill="none" />
<polyline points="498,312.0 497,316.0 495,323.0 497,323.0 " stroke="black" stroke-width="1" fill="none" />
<polyline points="499,315.0 501,312.0 503,310.0 505,309.0 507,309.0 509,310.0 510,312.0 510,315.0 508,320.0 " stroke="black" stroke-width="1" fill="none" />
<polyline points="509,310.0 509,314.0 508,318.0 508,322.0 " stroke="black" stroke-width="1" fill="none" />
<polyline points="509,312.0 507,317.0 507,320.0 508,322.0 509,323.0 511,323.0 513,321.0 514,319.0 " stroke="black" stroke-width="1" fill="none" />
<polyline points="513,313.0 514,311.0 516,309.0 518,309.0 519,310.0 520,312.0 520,315.0 518,323.0 " stroke="black" stroke-width="1" fill="none" />
<polyline points="519,310.0 519,315.0 517,323.0 " stroke="black" stroke-width="1" fill="none" />
<polyline points="519,312.0 518,316.0 516,323.0 518,323.0 " stroke="black" stroke-width="1" fill="none" />
<polyline points="520,315.0 522,312.0 524,310.0 526,309.0 528,309.0 530,310.0 531,312.0 531,315.0 529,320.0 " stroke="black" stroke-width="1" fill="none" />
<polyline points="530,310.0 530,314.0 529,318.0 529,322.0 " stroke="black" stroke-width="1" fill="none" />
<polyline points="530,312.0 528,317.0 528,320.0 529,322.0 530,323.0 532,323.0 534,321.0 535,319.0 " stroke="black" stroke-width="1" fill="none" />
<polyline points="553,309.0 550,310.0 548,313.0 547,316.0 547,318.0 548,321.0 549,322.0 552,323.0 555,323.0 558,322.0 560,319.0 561,316.0 561,314.0 560,311.0 559,310.0 556,309.0 553,309.0 " stroke="black" stroke-width="1" fill="none" />
<polyline points="550,311.0 549,313.0 548,316.0 548,319.0 549,321.0 " stroke="black" stroke-width="1" fill="none" />
<polyline points="558,321.0 559,319.0 560,316.0 560,313.0 559,311.0 " stroke="black" stroke-width="1" fill="none" />
<polyline points="553,309.0 551,311.0 550,313.0 549,316.0 549,319.0 550,322.0 552,323.0 " stroke="black" stroke-width="1" fill="none" />
<polyline points="555,323.0 557,321.0 558,319.0 559,316.0 559,313.0 558,310.0 556,309.0 " stroke="black" stroke-width="1" fill="none" />
<polyline points="65,368.0 66,366.0 68,364.0 70,364.0 71,365.0 72,367.0 72,370.0 71,374.0 68,385.0 " stroke="black" stroke-width="1" fill="none" />
<polyline points="71,365.0 71,370.0 70,374.0 67,385.0 " stroke="black" stroke-width="1" fill="none" />
<polyline points="71,367.0 70,371.0 66,385.0 " stroke="black" stroke-width="1" fill="none" />
<polyline points="72,371.0 73,368.0 74,366.0 75,365.0 77,364.0 79,364.0 81,365.0 82,366.0 83,369.0 83,371.0 82,374.0 80,377.0 77,378.0 75,378.0 73,377.0 72,374.0 72,371.0 " stroke="black" stroke-width="1" fill="none" />
<polyline points="81,366.0 82,368.0 82,371.0 81,374.0 80,376.0 " stroke="black" stroke-width="1" fill="none" />
<polyline points="79,364.0 80,365.0 81,368.0 81,371.0 80,374.0 79,376.0 77,378.0 " stroke="black" stroke-width="1" fill="none" />
<polyline points="63,385.0 71,385.0 " stroke="black" stroke-width="1" fill="none" />
<polyline points="67,384.0 64,385.0 " stroke="black" stroke-width="1" fill="none" />
<polyline points="67,383.0 65,385.0 " stroke="black" stroke-width="1" fill="none" />
<polyline points="68,383.0 69,385.0 " stroke="black" stroke-width="1" fill="none" />
<polyline points="67,384.0 70,385.0 " stroke="black" stroke-width="1" fill="none" />
<polyline points="112,364.0 106,385.0 " stroke="black" stroke-width="1" fill="none" />
<polyline points="113,364.0 107,385.0 " stroke="black" stroke-width="1" fill="none" />
<polyline points="112,364.0 114,364.0 108,385.0 " stroke="black" stroke-width="1" fill="none" />
<polyline points="110,371.0 110,368.0 109,365.0 107,364.0 105,364.0 102,365.0 100,368.0 99,371.0 99,373.0 100,376.0 101,377.0 103,378.0 105,378.0 107,377.0 108,376.0 109,374.0 110,371.0 " stroke="black" stroke-width="1" fill="none" />
<polyline points="102,366.0 101,368.0 100,371.0 100,374.0 101,376.0 " stroke="black" stroke-width="1" fill="none" />
<polyline points="105,364.0 103,366.0 102,368.0 101,371.0 101,374.0 102,377.0 103,378.0 " stroke="black" stroke-width="1" fill="none" />
<polyline points="103,385.0 111,385.0 " stroke="black" stroke-width="1" fill="none" />
<polyline points="107,384.0 104,385.0 " stroke="black" stroke-width="1" fill="none" />
<polyline points="107,383.0 105,385.0 " stroke="black" stroke-width="1" fill="none" />
<polyline points="108,383.0 109,385.0 " stroke="black" stroke-width="1" fill="none" />
<polyline points="107,384.0 110,385.0 " stroke="black" stroke-width="1" fill="none" />
<polyline points="129,368.0 130,366.0 132,364.0 134,364.0 135,365.0 136,367.0 136,371.0 134,378.0 " stroke="black" stroke-width="1" fill="none" />
<polyline points="135,365.0 135,371.0 133,378.0 " stroke="black" stroke-width="1" fill="none" />
<polyline points="135,367.0 134,371.0 132,378.0 134,378.0 " stroke="black" stroke-width="1" fill="none" />
<polyline points="144,366.0 144,365.0 143,365.0 143,367.0 145,367.0 145,365.0 144,364.0 142,364.0 140,365.0 138,367.0 136,371.0 " stroke="black" stroke-width="1" fill="none" />
<polyline points="174,367.0 174,366.0 173,366.0 173,368.0 175,368.0 175,366.0 174,365.0 171,364.0 168,364.0 165,365.0 164,366.0 164,368.0 165,370.0 167,371.0 170,372.0 172,373.0 173,375.0 " stroke="black" stroke-width="1" fill="none" />
<polyline points="165,365.0 164,368.0 " stroke="black" stroke-width="1" fill="none" />
<polyline points="165,369.0 167,370.0 170,371.0 172,372.0 " stroke="black" stroke-width="1" fill="none" />
<polyline points="173,373.0 172,377.0 " stroke="black" stroke-width="1" fill="none" />
<polyline points="164,366.0 165,368.0 167,369.0 170,370.0 172,371.0 173,373.0 173,375.0 172,377.0 169,378.0 166,378.0 163,377.0 162,376.0 162,374.0 164,374.0 164,376.0 163,376.0 163,375.0 " stroke="black" stroke-width="1" fill="none" />
<polyline points="201,357.0 198,368.0 197,372.0 197,375.0 198,377.0 199,378.0 201,378.0 203,376.0 204,374.0 " stroke="black" stroke-width="1" fill="none" />
<polyline points="202,357.0 199,368.0 198,372.0 198,377.0 " stroke="black" stroke-width="1" fill="none" />
<polyline points="201,357.0 203,357.0 199,371.0 198,375.0 " stroke="black" stroke-width="1" fill="none" />
<polyline points="195,364.0 205,364.0 " stroke="black" stroke-width="1" fill="none" />
<polyline points="225,368.0 226,366.0 228,364.0 230,364.0 231,365.0 232,367.0 232,370.0 230,375.0 " stroke="black" stroke-width="1" fill="none" />
<polyline points="231,365.0 231,369.0 230,373.0 230,377.0 " stroke="black" stroke-width="1" fill="none" />
<polyline points="231,367.0 229,372.0 229,375.0 230,377.0 232,378.0 234,378.0 236,377.0 238,375.0 240,372.0 " stroke="black" stroke-width="1" fill="none" />
<polyline points="242,364.0 240,372.0 240,375.0 241,377.0 242,378.0 244,378.0 246,376.0 247,374.0 " stroke="black" stroke-width="1" fill="none" />
<polyline points="243,364.0 241,372.0 241,377.0 " stroke="black" stroke-width="1" fill="none" />
<polyline points="242,364.0 244,364.0 242,371.0 241,375.0 " stroke="black" stroke-width="1" fill="none" />
<polyline points="257,368.0 258,366.0 260,364.0 262,364.0 263,365.0 264,367.0 264,370.0 262,375.0 " stroke="black" stroke-width="1" fill="none" />
<polyline points="263,365.0 263,369.0 262,373.0 262,377.0 " stroke="black" stroke-width="1" fill="none" />
<polyline points="263,367.0 261,372.0 261,375.0 262,377.0 264,378.0 266,378.0 268,377.0 270,375.0 272,372.0 273,368.0 273,364.0 272,364.0 272,365.0 273,367.0 " stroke="black" stroke-width="1" fill="none" />
<polyline points="289,368.0 290,366.0 292,364.0 294,364.0 295,365.0 296,367.0 296,370.0 294,375.0 " stroke="black" stroke-width="1" fill="none" />
<polyline points="295,365.0 295,369.0 294,373.0 294,377.0 " stroke="black" stroke-width="1" fill="none" />
<polyline points="295,367.0 293,372.0 293,375.0 294,377.0 296,378.0 298,378.0 300,377.0 302,375.0 303,372.0 " stroke="black" stroke-width="1" fill="none" />
<polyline points="305,364.0 303,372.0 303,375.0 304,377.0 306,378.0 308,378.0 310,377.0 312,375.0 314,372.0 315,368.0 315,364.0 314,364.0 314,365.0 315,367.0 " stroke="black" stroke-width="1" fill="none" />
<polyline points="306,364.0 304,372.0 304,377.0 " stroke="black" stroke-width="1" fill="none" />
<polyline points="305,364.0 307,364.0 305,371.0 304,375.0 " stroke="black" stroke-width="1" fill="none" />
<polyline points="323,368.0 325,365.0 327,364.0 329,364.0 331,365.0 332,367.0 332,369.0 " stroke="black" stroke-width="1" fill="none" />
<polyline points="329,364.0 330,365.0 330,369.0 329,373.0 328,375.0 326,377.0 324,378.0 322,378.0 321,377.0 321,375.0 323,375.0 323,377.0 322,377.0 322,376.0 " stroke="black" stroke-width="1" fill="none" />
<polyline points="331,366.0 331,369.0 330,373.0 330,376.0 " stroke="black" stroke-width="1" fill="none" />
<polyline points="339,366.0 339,365.0 338,365.0 338,367.0 340,367.0 340,365.0 339,364.0 337,364.0 335,365.0 333,367.0 332,369.0 331,373.0 331,377.0 332,378.0 " stroke="black" stroke-width="1" fill="none" />
<polyline points="329,373.0 329,375.0 330,377.0 332,378.0 334,378.0 336,377.0 338,374.0 " stroke="black" stroke-width="1" fill="none" />
<polyline points="353,368.0 354,366.0 356,364.0 358,364.0 359,365.0 360,367.0 360,370.0 358,375.0 " stroke="black" stroke-width="1" fill="none" />
<polyline points="359,365.0 359,369.0 358,373.0 358,377.0 " stroke="black" stroke-width="1" fill="none" />
<polyline points="359,367.0 357,372.0 357,375.0 358,377.0 360,378.0 362,378.0 364,377.0 366,375.0 368,371.0 " stroke="black" stroke-width="1" fill="none" />
<polyline points="370,364.0 366,378.0 365,381.0 363,384.0 361,385.0 " stroke="black" stroke-width="1" fill="none" />
<polyline points="371,364.0 367,378.0 365,382.0 " stroke="black" stroke-width="1" fill="none" />
<polyline points="370,364.0 372,364.0 368,378.0 366,382.0 364,384.0 361,385.0 358,385.0 356,384.0 355,383.0 355,381.0 357,381.0 357,383.0 356,383.0 356,382.0 " stroke="black" stroke-width="1" fill="none" />
<polyline points="401,364.0 400,366.0 398,368.0 390,374.0 388,376.0 387,378.0 " stroke="black" stroke-width="1" fill="none" />
<polyline points="400,366.0 391,366.0 389,367.0 388,369.0 " stroke="black" stroke-width="1" fill="none" />
<polyline points="398,366.0 394,365.0 391,365.0 390,366.0 " stroke="black" stroke-width="1" fill="none" />
<polyline points="398,366.0 394,364.0 391,364.0 389,366.0 388,369.0 " stroke="black" stroke-width="1" fill="none" />
<polyline points="388,376.0 397,376.0 399,375.0 400,373.0 " stroke="black" stroke-width="1" fill="none" />
<polyline points="390,376.0 394,377.0 397,377.0 398,376.0 " stroke="black" stroke-width="1" fill="none" />
<polyline points="390,376.0 394,378.0 397,378.0 399,376.0 400,373.0 " stroke="black" stroke-width="1" fill="none" />
<polyline points="425,353.0 423,354.0 422,355.0 421,357.0 421,359.0 422,361.0 423,362.0 424,364.0 424,366.0 422,368.0 " stroke="black" stroke-width="1" fill="none" />
<polyline points="423,354.0 422,356.0 422,358.0 423,360.0 424,361.0 425,363.0 425,365.0 424,367.0 420,369.0 424,371.0 425,373.0 425,375.0 424,377.0 423,378.0 422,380.0 422,382.0 423,384.0 " stroke="black" stroke-width="1" fill="none" />
<polyline points="422,370.0 424,372.0 424,374.0 423,376.0 422,377.0 421,379.0 421,381.0 422,383.0 423,384.0 425,385.0 " stroke="black" stroke-width="1" fill="none" />
<polyline points="452,353.0 452,385.0 " stroke="black" stroke-width="1" fill="none" />
<polyline points="485,353.0 487,354.0 488,355.0 489,357.0 489,359.0 488,361.0 487,362.0 486,364.0 486,366.0 488,368.0 " stroke="black" stroke-width="1" fill="none" />
<polyline points="487,354.0 488,356.0 488,358.0 487,360.0 486,361.0 485,363.0 485,365.0 486,367.0 490,369.0 486,371.0 485,373.0 485,375.0 486,377.0 487,378.0 488,380.0 488,382.0 487,384.0 " stroke="black" stroke-width="1" fill="none" />
<polyline points="488,370.0 486,372.0 486,374.0 487,376.0 488,377.0 489,379.0 489,381.0 488,383.0 487,384.0 485,385.0 " stroke="black" stroke-width="1" fill="none" />
<polyline points="515,372.0 515,370.0 516,367.0 518,366.0 520,366.0 522,367.0 526,370.0 528,371.0 530,371.0 532,370.0 533,368.0 " stroke="black" stroke-width="1" fill="none" />
<polyline points="515,370.0 516,368.0 518,367.0 520,367.0 522,368.0 526,371.0 528,372.0 530,372.0 532,371.0 533,368.0 533,366.0 " stroke="black" stroke-width="1" fill="none" />
<polyline points="544,357.0 544,378.0 545,378.0 545,357.0 546,357.0 546,378.0 547,378.0 547,357.0 548,357.0 548,378.0 549,378.0 549,357.0 550,357.0 550,378.0 551,378.0 551,357.0 552,357.0 552,378.0 553,378.0 553,357.0 554,357.0 554,378.0 555,378.0 555,357.0 556,357.0 556,378.0 557,378.0 557,357.0 558,357.0 558,378.0 559,378.0 559,357.0 560,357.0 560,378.0 " stroke="black" stroke-width="1" fill="none" />
<text x="370" y="405.625" font-size="smaller">Max Height 32 Width 32</text>
</svg>
