<svg width="608" height="990" xmlns="http://www.w3.org/2000/svg">
<style>.small { font: italic 13px sans-serif; }</style>
<rect x="0" y="0" width="608" height="967" fill="lightyellow" stroke-width="4" stroke="black" />
<line x1="5" y1="55" x2="603" y2="55" stroke="lightgrey" stroke-width="1" />
<line x1="55" y1="5" x2="55" y2="964" stroke="lightgrey" stroke-width="1" />
<text x="16.0" y="31" class="small">hex</text>
<text x="20" y="102" font-size="large">0x</text>
<text x="20" y="157" font-size="large">1x</text>
<text x="20" y="212" font-size="large">2x</text>
<text x="20" y="267" font-size="large">3x</text>
<text x="20" y="322" font-size="large">4x</text>
<text x="20" y="377" font-size="large">5x</text>
<text x="20" y="432" font-size="large">6x</text>
<text x="20" y="487" font-size="large">7x</text>
<text x="20" y="542" font-size="large">8x</text>
<text x="20" y="597" font-size="large">9x</text>
<text x="20" y="652" font-size="large">Ax</text>
<text x="20" y="707" font-size="large">Bx</text>
<text x="20" y="762" font-size="large">Cx</text>
<text x="20" y="817" font-size="large">Dx</text>
<text x="20" y="872" font-size="large">Ex</text>
<text x="20" y="927" font-size="large">Fx</text>
<text x="72" y="35" font-size="large">0</text>
<text x="104" y="35" font-size="large">1</text>
<text x="136" y="35" font-size="large">2</text>
<text x="168" y="35" font-size="large">3</text>
<text x="200" y="35" font-size="large">4</text>
<text x="232" y="35" font-size="large">5</text>
<text x="264" y="35" font-size="large">6</text>
<text x="296" y="35" font-size="large">7</text>
<text x="328" y="35" font-size="large">8</text>
<text x="360" y="35" font-size="large">9</text>
<text x="392" y="35" font-size="large">A</text>
<text x="424" y="35" font-size="large">B</text>
<text x="456" y="35" font-size="large">C</text>
<text x="488" y="35" font-size="large">D</text>
<text x="520" y="35" font-size="large">E</text>
<text x="552" y="35" font-size="large">F</text>
<polyline points="" stroke="black" stroke-width="1" fill="none" />
<polyline points="" stroke="black" stroke-width="1" fill="none" />
<polyline points="130,91.0 136,97.0 " stroke="black" stroke-width="1" fill="none" />
<polyline points="136,91.0 130,97.0 " stroke="black" stroke-width="1" fill="none" />
<polyline points="165,91.0 165,97.0 " stroke="black" stroke-width="1" fill="none" />
<polyline points="162,92.0 168,96.0 " stroke="black" stroke-width="1" fill="none" />
<polyline points="168,92.0 162,96.0 " stroke="black" stroke-width="1" fill="none" />
<polyline points="199,91.0 202,94.0 199,97.0 " stroke="black" stroke-width="1" fill="none" />
<polyline points="194,94.0 202,94.0 " stroke="black" stroke-width="1" fill="none" />
<polyline points="226,90.0 227,93.0 227,95.0 226,98.0 " stroke="black" stroke-width="1" fill="none" />
<polyline points="234,90.0 233,93.0 233,95.0 234,98.0 " stroke="black" stroke-width="1" fill="none" />
<polyline points="226,90.0 229,91.0 231,91.0 234,90.0 " stroke="black" stroke-width="1" fill="none" />
<polyline points="226,98.0 229,97.0 231,97.0 234,98.0 " stroke="black" stroke-width="1" fill="none" />
<polyline points="257,82.0 265,103.0 " stroke="black" stroke-width="1" fill="none" />
<polyline points="273,82.0 265,103.0 " stroke="black" stroke-width="1" fill="none" />
<polyline points="257,82.0 273,82.0 " stroke="black" stroke-width="1" fill="none" />
<polyline points="289,103.0 292,102.0 295,100.0 297,98.0 299,95.0 301,91.0 302,87.0 302,85.0 301,83.0 299,82.0 297,83.0 296,84.0 295,86.0 294,91.0 294,96.0 295,100.0 296,102.0 298,103.0 300,103.0 302,102.0 303,101.0 " stroke="black" stroke-width="1" fill="none" />
<polyline points="334,97.0 334,94.0 333,91.0 332,90.0 330,89.0 328,89.0 326,90.0 324,92.0 323,95.0 323,98.0 324,101.0 325,102.0 327,103.0 329,103.0 331,102.0 333,100.0 334,97.0 335,92.0 335,87.0 334,84.0 333,83.0 331,82.0 329,82.0 327,83.0 325,85.0 " stroke="black" stroke-width="1" fill="none" />
<polyline points="365,90.0 363,89.0 360,89.0 358,90.0 356,92.0 355,95.0 355,98.0 356,101.0 357,102.0 359,103.0 362,103.0 364,102.0 " stroke="black" stroke-width="1" fill="none" />
<polyline points="355,96.0 363,96.0 " stroke="black" stroke-width="1" fill="none" />
<polyline points="394,82.0 392,83.0 390,86.0 389,88.0 388,91.0 387,96.0 387,100.0 388,102.0 389,103.0 391,103.0 393,102.0 395,99.0 396,97.0 397,94.0 398,89.0 398,85.0 397,83.0 396,82.0 394,82.0 " stroke="black" stroke-width="1" fill="none" />
<polyline points="388,92.0 397,92.0 " stroke="black" stroke-width="1" fill="none" />
<polyline points="430,82.0 422,110.0 " stroke="black" stroke-width="1" fill="none" />
<polyline points="425,89.0 422,90.0 420,92.0 419,95.0 419,98.0 420,100.0 422,102.0 425,103.0 427,103.0 430,102.0 432,100.0 433,97.0 433,94.0 432,92.0 430,90.0 427,89.0 425,89.0 " stroke="black" stroke-width="1" fill="none" />
<polyline points="463,91.0 462,90.0 459,89.0 456,89.0 453,90.0 452,91.0 451,93.0 451,95.0 452,97.0 454,99.0 458,102.0 459,104.0 459,106.0 458,107.0 456,107.0 " stroke="black" stroke-width="1" fill="none" />
<polyline points="" stroke="black" stroke-width="1" fill="none" />
<polyline points="" stroke="black" stroke-width="1" fill="none" />
<polyline points="" stroke="black" stroke-width="1" fill="none" />
<polyline points="69,144.0 68,145.0 69,146.0 70,145.0 69,144.0 " stroke="black" stroke-width="1" fill="none" />
<polyline points="70,157.0 69,158.0 68,157.0 69,156.0 70,157.0 70,159.0 69,161.0 68,162.0 " stroke="black" stroke-width="1" fill="none" />
<polyline points="100,137.0 100,144.0 " stroke="black" stroke-width="1" fill="none" />
<polyline points="132,146.0 150,146.0 " stroke="black" stroke-width="1" fill="none" />
<polyline points="132,152.0 150,152.0 " stroke="black" stroke-width="1" fill="none" />
<polyline points="165,148.0 164,149.0 165,150.0 166,149.0 165,148.0 " stroke="black" stroke-width="1" fill="none" />
<polyline points="198,137.0 197,138.0 196,140.0 196,142.0 197,143.0 198,142.0 197,141.0 " stroke="black" stroke-width="1" fill="none" />
<polyline points="229,139.0 228,138.0 229,137.0 230,138.0 230,140.0 229,142.0 228,143.0 " stroke="black" stroke-width="1" fill="none" />
<polyline points="272,144.0 275,147.0 278,149.0 275,151.0 272,154.0 " stroke="black" stroke-width="1" fill="none" />
<polyline points="260,149.0 278,149.0 " stroke="black" stroke-width="1" fill="none" />
<polyline points="292,133.0 292,158.0 " stroke="black" stroke-width="1" fill="none" />
<polyline points="298,133.0 298,158.0 " stroke="black" stroke-width="1" fill="none" />
<polyline points="323,150.0 324,150.0 326,151.0 327,153.0 327,155.0 326,157.0 " stroke="black" stroke-width="1" fill="none" />
<polyline points="323,150.0 323,149.0 324,148.0 326,148.0 327,149.0 328,151.0 328,154.0 327,156.0 326,157.0 " stroke="black" stroke-width="1" fill="none" />
<polyline points="332,138.0 330,140.0 329,143.0 329,146.0 331,152.0 331,155.0 330,157.0 332,159.0 " stroke="black" stroke-width="1" fill="none" />
<polyline points="332,138.0 334,140.0 335,143.0 335,146.0 333,152.0 333,155.0 334,157.0 332,159.0 " stroke="black" stroke-width="1" fill="none" />
<polyline points="341,150.0 341,149.0 340,148.0 338,148.0 337,149.0 336,151.0 336,154.0 337,156.0 338,157.0 " stroke="black" stroke-width="1" fill="none" />
<polyline points="341,150.0 340,150.0 338,151.0 337,153.0 337,155.0 338,157.0 " stroke="black" stroke-width="1" fill="none" />
<polyline points="325,153.0 339,153.0 " stroke="black" stroke-width="1" fill="none" />
<polyline points="362,139.0 361,138.0 359,137.0 356,137.0 354,138.0 353,139.0 352,141.0 352,143.0 353,145.0 354,146.0 360,150.0 361,151.0 362,153.0 362,155.0 361,157.0 360,158.0 358,159.0 355,159.0 353,158.0 352,157.0 " stroke="black" stroke-width="1" fill="none" />
<polyline points="384,149.0 424,149.0 " stroke="black" stroke-width="1" fill="none" />
<polyline points="417,148.0 416,149.0 417,150.0 418,149.0 417,148.0 " stroke="black" stroke-width="1" fill="none" />
<polyline points="449,147.0 448,148.0 448,150.0 449,151.0 451,151.0 452,150.0 452,148.0 451,147.0 449,147.0 " stroke="black" stroke-width="1" fill="none" />
<polyline points="483,145.0 481,146.0 480,148.0 480,150.0 481,152.0 483,153.0 485,153.0 487,152.0 488,150.0 488,148.0 487,146.0 485,145.0 483,145.0 " stroke="black" stroke-width="1" fill="none" />
<polyline points="516,144.0 514,145.0 513,146.0 512,148.0 512,150.0 513,152.0 514,153.0 516,154.0 518,154.0 520,153.0 521,152.0 522,150.0 522,148.0 521,146.0 520,145.0 518,144.0 516,144.0 " stroke="black" stroke-width="1" fill="none" />
<polyline points="550,142.0 547,143.0 545,145.0 544,148.0 544,150.0 545,153.0 547,155.0 550,156.0 552,156.0 555,155.0 557,153.0 558,150.0 558,148.0 557,145.0 555,143.0 552,142.0 550,142.0 " stroke="black" stroke-width="1" fill="none" />
<polyline points="73,193.0 70,194.0 67,196.0 65,199.0 64,202.0 64,206.0 65,209.0 67,212.0 70,214.0 73,215.0 77,215.0 80,214.0 83,212.0 85,209.0 86,206.0 86,202.0 85,199.0 83,196.0 80,194.0 77,193.0 73,193.0 " stroke="black" stroke-width="1" fill="none" />
<polyline points="111,187.0 107,188.0 105,189.0 102,191.0 100,193.0 98,196.0 97,198.0 96,202.0 96,206.0 97,210.0 98,212.0 100,215.0 102,217.0 105,219.0 107,220.0 111,221.0 115,221.0 119,220.0 121,219.0 124,217.0 126,215.0 128,212.0 129,210.0 130,206.0 130,202.0 129,198.0 128,196.0 126,193.0 124,191.0 121,189.0 119,188.0 115,187.0 111,187.0 " stroke="black" stroke-width="1" fill="none" />
<polyline points="148,182.0 143,183.0 139,185.0 136,187.0 133,190.0 131,193.0 129,197.0 128,202.0 128,206.0 129,211.0 131,215.0 133,218.0 136,221.0 139,223.0 143,225.0 148,226.0 152,226.0 157,225.0 161,223.0 164,221.0 167,218.0 169,215.0 171,211.0 172,206.0 172,202.0 171,197.0 169,193.0 167,190.0 164,187.0 161,185.0 157,183.0 152,182.0 148,182.0 " stroke="black" stroke-width="1" fill="none" />
<polyline points="198,163.0 192,164.0 188,165.0 183,167.0 178,170.0 174,173.0 170,177.0 167,181.0 164,186.0 162,191.0 161,195.0 160,201.0 160,207.0 161,213.0 162,217.0 164,222.0 167,227.0 170,231.0 174,235.0 178,238.0 183,241.0 188,243.0 192,244.0 198,245.0 204,245.0 210,244.0 214,243.0 219,241.0 224,238.0 228,235.0 232,231.0 235,227.0 238,222.0 240,217.0 241,213.0 242,207.0 242,201.0 241,195.0 240,191.0 238,186.0 235,181.0 232,177.0 228,173.0 224,170.0 219,167.0 214,165.0 210,164.0 204,163.0 198,163.0 " stroke="black" stroke-width="1" fill="none" />
<polyline points="212,187.0 210,189.0 207,190.0 204,190.0 201,189.0 199,187.0 192,194.0 194,196.0 195,199.0 195,212.0 196,215.0 198,217.0 201,218.0 207,218.0 210,219.0 212,221.0 " stroke="black" stroke-width="1" fill="none" />
<polyline points="212,187.0 214,189.0 217,190.0 220,190.0 223,189.0 225,187.0 232,194.0 230,196.0 229,199.0 229,212.0 228,215.0 226,217.0 223,218.0 217,218.0 214,219.0 212,221.0 " stroke="black" stroke-width="1" fill="none" />
<polyline points="241,187.0 239,189.0 236,190.0 233,190.0 230,189.0 228,187.0 225,193.0 224,197.0 224,202.0 225,206.0 227,210.0 230,214.0 235,218.0 241,221.0 " stroke="black" stroke-width="1" fill="none" />
<polyline points="241,187.0 243,189.0 246,190.0 249,190.0 252,189.0 254,187.0 257,193.0 258,197.0 258,202.0 257,206.0 255,210.0 252,214.0 247,218.0 241,221.0 " stroke="black" stroke-width="1" fill="none" />
<polyline points="225,194.0 257,194.0 " stroke="black" stroke-width="1" fill="none" />
<polyline points="256,215.0 272,215.0 " stroke="black" stroke-width="1" fill="none" />
<polyline points="294,201.0 292,202.0 291,203.0 290,205.0 290,207.0 291,209.0 293,210.0 294,210.0 296,209.0 298,207.0 300,204.0 301,201.0 " stroke="black" stroke-width="1" fill="none" />
<polyline points="294,201.0 292,203.0 291,205.0 291,207.0 292,209.0 293,210.0 " stroke="black" stroke-width="1" fill="none" />
<polyline points="294,201.0 296,201.0 298,202.0 300,209.0 301,210.0 " stroke="black" stroke-width="1" fill="none" />
<polyline points="296,201.0 297,202.0 299,209.0 301,210.0 302,210.0 " stroke="black" stroke-width="1" fill="none" />
<polyline points="327,197.0 325,199.0 324,201.0 322,207.0 320,214.0 " stroke="black" stroke-width="1" fill="none" />
<polyline points="326,198.0 325,200.0 323,206.0 321,214.0 " stroke="black" stroke-width="1" fill="none" />
<polyline points="327,197.0 329,197.0 331,198.0 331,200.0 330,202.0 327,203.0 " stroke="black" stroke-width="1" fill="none" />
<polyline points="329,197.0 330,198.0 330,200.0 329,202.0 327,203.0 " stroke="black" stroke-width="1" fill="none" />
<polyline points="327,203.0 329,204.0 330,206.0 330,208.0 329,209.0 327,210.0 326,210.0 324,209.0 323,206.0 " stroke="black" stroke-width="1" fill="none" />
<polyline points="327,203.0 328,204.0 329,206.0 329,208.0 327,210.0 " stroke="black" stroke-width="1" fill="none" />
<polyline points="353,203.0 355,201.0 357,201.0 359,202.0 360,205.0 360,210.0 359,214.0 " stroke="black" stroke-width="1" fill="none" />
<polyline points="353,203.0 355,202.0 357,202.0 359,203.0 360,205.0 " stroke="black" stroke-width="1" fill="none" />
<polyline points="364,201.0 363,204.0 360,210.0 358,214.0 " stroke="black" stroke-width="1" fill="none" />
<polyline points="392,201.0 390,201.0 388,202.0 387,203.0 386,205.0 386,207.0 387,209.0 389,210.0 391,210.0 393,209.0 394,208.0 395,206.0 395,204.0 394,202.0 391,200.0 390,198.0 390,197.0 391,196.0 393,196.0 394,197.0 395,199.0 " stroke="black" stroke-width="1" fill="none" />
<polyline points="390,201.0 388,203.0 387,205.0 387,208.0 389,210.0 " stroke="black" stroke-width="1" fill="none" />
<polyline points="391,210.0 393,208.0 394,206.0 394,203.0 392,201.0 " stroke="black" stroke-width="1" fill="none" />
<polyline points="390,198.0 391,197.0 393,197.0 395,199.0 " stroke="black" stroke-width="1" fill="none" />
<polyline points="426,202.0 424,201.0 421,201.0 419,202.0 419,203.0 420,204.0 422,205.0 " stroke="black" stroke-width="1" fill="none" />
<polyline points="421,201.0 420,202.0 420,203.0 422,205.0 " stroke="black" stroke-width="1" fill="none" />
<polyline points="422,205.0 419,206.0 418,207.0 418,209.0 420,210.0 423,210.0 425,209.0 " stroke="black" stroke-width="1" fill="none" />
<polyline points="422,205.0 420,206.0 419,207.0 419,209.0 420,210.0 " stroke="black" stroke-width="1" fill="none" />
<polyline points="454,197.0 453,198.0 453,199.0 455,200.0 458,200.0 458,199.0 455,200.0 452,201.0 451,202.0 450,204.0 450,206.0 451,208.0 452,209.0 454,210.0 455,211.0 455,213.0 454,214.0 452,214.0 451,213.0 " stroke="black" stroke-width="1" fill="none" />
<polyline points="455,200.0 453,201.0 452,202.0 451,204.0 451,206.0 452,208.0 454,210.0 " stroke="black" stroke-width="1" fill="none" />
<polyline points="481,204.0 482,202.0 483,201.0 485,201.0 486,202.0 486,203.0 484,210.0 " stroke="black" stroke-width="1" fill="none" />
<polyline points="484,201.0 485,202.0 485,203.0 483,210.0 " stroke="black" stroke-width="1" fill="none" />
<polyline points="486,203.0 487,202.0 489,201.0 491,201.0 493,202.0 493,204.0 490,214.0 " stroke="black" stroke-width="1" fill="none" />
<polyline points="491,201.0 492,202.0 492,204.0 489,214.0 " stroke="black" stroke-width="1" fill="none" />
<polyline points="513,205.0 514,203.0 515,202.0 517,202.0 518,203.0 518,208.0 519,210.0 " stroke="black" stroke-width="1" fill="none" />
<polyline points="516,202.0 517,203.0 517,207.0 518,209.0 519,210.0 520,210.0 522,209.0 523,208.0 524,206.0 525,203.0 525,200.0 524,198.0 523,197.0 521,197.0 520,198.0 520,200.0 521,202.0 524,204.0 526,205.0 " stroke="black" stroke-width="1" fill="none" />
<polyline points="520,210.0 522,208.0 523,206.0 524,203.0 524,200.0 523,197.0 " stroke="black" stroke-width="1" fill="none" />
<polyline points="548,201.0 546,208.0 546,209.0 547,210.0 549,210.0 551,209.0 552,207.0 " stroke="black" stroke-width="1" fill="none" />
<polyline points="549,201.0 547,208.0 547,209.0 548,210.0 " stroke="black" stroke-width="1" fill="none" />
<polyline points="68,256.0 65,265.0 " stroke="black" stroke-width="1" fill="none" />
<polyline points="69,256.0 66,265.0 " stroke="black" stroke-width="1" fill="none" />
<polyline points="74,256.0 75,257.0 76,257.0 75,256.0 73,256.0 71,258.0 68,259.0 " stroke="black" stroke-width="1" fill="none" />
<polyline points="68,259.0 69,260.0 71,264.0 73,265.0 75,264.0 76,262.0 " stroke="black" stroke-width="1" fill="none" />
<polyline points="68,259.0 70,260.0 72,264.0 73,265.0 " stroke="black" stroke-width="1" fill="none" />
<polyline points="96,252.0 98,252.0 100,253.0 107,265.0 " stroke="black" stroke-width="1" fill="none" />
<polyline points="98,252.0 99,253.0 106,265.0 " stroke="black" stroke-width="1" fill="none" />
<polyline points="102,257.0 97,265.0 " stroke="black" stroke-width="1" fill="none" />
<polyline points="102,257.0 98,265.0 " stroke="black" stroke-width="1" fill="none" />
<polyline points="132,256.0 128,269.0 " stroke="black" stroke-width="1" fill="none" />
<polyline points="133,256.0 129,269.0 " stroke="black" stroke-width="1" fill="none" />
<polyline points="131,262.0 131,264.0 132,265.0 134,265.0 136,264.0 137,263.0 " stroke="black" stroke-width="1" fill="none" />
<polyline points="139,256.0 137,263.0 137,264.0 138,265.0 140,265.0 141,264.0 142,262.0 " stroke="black" stroke-width="1" fill="none" />
<polyline points="140,256.0 138,263.0 138,264.0 139,265.0 " stroke="black" stroke-width="1" fill="none" />
<polyline points="164,256.0 163,265.0 " stroke="black" stroke-width="1" fill="none" />
<polyline points="165,256.0 164,262.0 163,265.0 " stroke="black" stroke-width="1" fill="none" />
<polyline points="172,259.0 172,256.0 173,256.0 172,259.0 170,262.0 167,264.0 164,265.0 163,265.0 " stroke="black" stroke-width="1" fill="none" />
<polyline points="162,256.0 165,256.0 " stroke="black" stroke-width="1" fill="none" />
<polyline points="197,252.0 196,253.0 196,254.0 198,255.0 201,255.0 " stroke="black" stroke-width="1" fill="none" />
<polyline points="199,255.0 196,256.0 195,257.0 195,259.0 197,260.0 200,260.0 " stroke="black" stroke-width="1" fill="none" />
<polyline points="199,255.0 197,256.0 196,257.0 196,259.0 197,260.0 " stroke="black" stroke-width="1" fill="none" />
<polyline points="198,260.0 195,261.0 194,262.0 194,264.0 196,265.0 198,266.0 199,267.0 199,268.0 198,269.0 196,269.0 " stroke="black" stroke-width="1" fill="none" />
<polyline points="198,260.0 196,261.0 195,262.0 195,264.0 196,265.0 " stroke="black" stroke-width="1" fill="none" />
<polyline points="230,256.0 228,257.0 227,258.0 226,260.0 226,262.0 227,264.0 229,265.0 231,265.0 233,264.0 234,263.0 235,261.0 235,259.0 234,257.0 232,256.0 230,256.0 " stroke="black" stroke-width="1" fill="none" />
<polyline points="230,256.0 228,258.0 227,260.0 227,263.0 229,265.0 " stroke="black" stroke-width="1" fill="none" />
<polyline points="231,265.0 233,263.0 234,261.0 234,258.0 232,256.0 " stroke="black" stroke-width="1" fill="none" />
<polyline points="263,257.0 260,265.0 " stroke="black" stroke-width="1" fill="none" />
<polyline points="263,257.0 261,265.0 " stroke="black" stroke-width="1" fill="none" />
<polyline points="267,257.0 266,265.0 " stroke="black" stroke-width="1" fill="none" />
<polyline points="267,257.0 267,265.0 " stroke="black" stroke-width="1" fill="none" />
<polyline points="258,258.0 260,256.0 271,256.0 " stroke="black" stroke-width="1" fill="none" />
<polyline points="258,258.0 260,257.0 271,257.0 " stroke="black" stroke-width="1" fill="none" />
<polyline points="297,256.0 295,256.0 293,257.0 292,258.0 291,260.0 288,269.0 " stroke="black" stroke-width="1" fill="none" />
<polyline points="295,256.0 293,258.0 292,260.0 289,269.0 " stroke="black" stroke-width="1" fill="none" />
<polyline points="297,256.0 299,257.0 300,259.0 300,261.0 299,263.0 298,264.0 296,265.0 294,265.0 292,264.0 291,262.0 " stroke="black" stroke-width="1" fill="none" />
<polyline points="297,256.0 299,258.0 299,261.0 298,263.0 296,265.0 " stroke="black" stroke-width="1" fill="none" />
<polyline points="334,256.0 326,256.0 324,257.0 323,258.0 322,260.0 322,262.0 323,264.0 325,265.0 327,265.0 329,264.0 330,263.0 331,261.0 331,259.0 330,257.0 334,257.0 " stroke="black" stroke-width="1" fill="none" />
<polyline points="326,256.0 324,258.0 323,260.0 323,263.0 325,265.0 " stroke="black" stroke-width="1" fill="none" />
<polyline points="327,265.0 329,263.0 330,261.0 330,258.0 328,256.0 " stroke="black" stroke-width="1" fill="none" />
<polyline points="360,257.0 358,265.0 " stroke="black" stroke-width="1" fill="none" />
<polyline points="360,257.0 359,265.0 " stroke="black" stroke-width="1" fill="none" />
<polyline points="354,258.0 356,256.0 365,256.0 " stroke="black" stroke-width="1" fill="none" />
<polyline points="354,258.0 356,257.0 365,257.0 " stroke="black" stroke-width="1" fill="none" />
<polyline points="385,259.0 386,257.0 387,256.0 389,256.0 390,257.0 390,259.0 389,262.0 389,264.0 390,265.0 " stroke="black" stroke-width="1" fill="none" />
<polyline points="388,256.0 389,257.0 389,259.0 388,262.0 388,264.0 390,265.0 391,265.0 393,264.0 395,262.0 396,259.0 396,256.0 395,256.0 396,257.0 " stroke="black" stroke-width="1" fill="none" />
<polyline points="420,257.0 419,258.0 418,260.0 418,262.0 419,264.0 421,265.0 423,265.0 426,264.0 428,262.0 429,259.0 429,257.0 428,256.0 426,256.0 425,257.0 424,259.0 423,262.0 420,269.0 " stroke="black" stroke-width="1" fill="none" />
<polyline points="418,262.0 419,263.0 421,264.0 423,264.0 426,263.0 428,261.0 429,259.0 " stroke="black" stroke-width="1" fill="none" />
<polyline points="429,258.0 428,257.0 426,257.0 424,259.0 " stroke="black" stroke-width="1" fill="none" />
<polyline points="423,262.0 422,265.0 421,269.0 " stroke="black" stroke-width="1" fill="none" />
<polyline points="450,256.0 451,256.0 453,257.0 456,268.0 457,269.0 " stroke="black" stroke-width="1" fill="none" />
<polyline points="451,256.0 452,257.0 455,268.0 457,269.0 458,269.0 " stroke="black" stroke-width="1" fill="none" />
<polyline points="459,256.0 457,259.0 451,266.0 449,269.0 " stroke="black" stroke-width="1" fill="none" />
<polyline points="491,252.0 488,269.0 " stroke="black" stroke-width="1" fill="none" />
<polyline points="492,252.0 487,269.0 " stroke="black" stroke-width="1" fill="none" />
<polyline points="481,259.0 482,257.0 483,256.0 485,256.0 486,257.0 486,263.0 487,264.0 490,264.0 492,263.0 494,261.0 " stroke="black" stroke-width="1" fill="none" />
<polyline points="484,256.0 485,257.0 485,261.0 486,264.0 487,265.0 490,265.0 492,264.0 494,261.0 495,259.0 496,256.0 " stroke="black" stroke-width="1" fill="none" />
<polyline points="516,257.0 518,257.0 518,256.0 516,257.0 515,258.0 514,260.0 514,262.0 515,264.0 516,265.0 518,265.0 519,264.0 520,262.0 521,259.0 " stroke="black" stroke-width="1" fill="none" />
<polyline points="514,262.0 516,264.0 518,264.0 520,262.0 " stroke="black" stroke-width="1" fill="none" />
<polyline points="520,259.0 520,264.0 521,265.0 523,265.0 525,263.0 526,261.0 526,259.0 525,257.0 524,256.0 524,257.0 525,257.0 " stroke="black" stroke-width="1" fill="none" />
<polyline points="520,262.0 521,264.0 523,264.0 525,263.0 " stroke="black" stroke-width="1" fill="none" />
<polyline points="554,252.0 555,253.0 555,254.0 556,254.0 556,253.0 554,252.0 551,252.0 549,253.0 548,255.0 548,265.0 " stroke="black" stroke-width="1" fill="none" />
<polyline points="551,252.0 550,253.0 549,255.0 549,265.0 " stroke="black" stroke-width="1" fill="none" />
<polyline points="560,252.0 561,253.0 561,254.0 562,254.0 562,253.0 560,252.0 558,252.0 556,254.0 556,265.0 " stroke="black" stroke-width="1" fill="none" />
<polyline points="558,252.0 557,254.0 557,265.0 " stroke="black" stroke-width="1" fill="none" />
<polyline points="546,256.0 559,256.0 " stroke="black" stroke-width="1" fill="none" />
<polyline points="546,265.0 551,265.0 " stroke="black" stroke-width="1" fill="none" />
<polyline points="554,265.0 559,265.0 " stroke="black" stroke-width="1" fill="none" />
<polyline points="75,307.0 76,308.0 77,308.0 77,307.0 71,307.0 69,308.0 68,310.0 68,320.0 " stroke="black" stroke-width="1" fill="none" />
<polyline points="71,307.0 70,308.0 69,310.0 69,320.0 " stroke="black" stroke-width="1" fill="none" />
<polyline points="76,311.0 76,320.0 " stroke="black" stroke-width="1" fill="none" />
<polyline points="77,311.0 77,320.0 " stroke="black" stroke-width="1" fill="none" />
<polyline points="66,311.0 77,311.0 " stroke="black" stroke-width="1" fill="none" />
<polyline points="66,320.0 71,320.0 " stroke="black" stroke-width="1" fill="none" />
<polyline points="74,320.0 79,320.0 " stroke="black" stroke-width="1" fill="none" />
<polyline points="109,307.0 103,307.0 101,308.0 100,310.0 100,320.0 " stroke="black" stroke-width="1" fill="none" />
<polyline points="103,307.0 102,308.0 101,310.0 101,320.0 " stroke="black" stroke-width="1" fill="none" />
<polyline points="107,307.0 108,308.0 108,320.0 " stroke="black" stroke-width="1" fill="none" />
<polyline points="109,307.0 109,320.0 " stroke="black" stroke-width="1" fill="none" />
<polyline points="98,311.0 108,311.0 " stroke="black" stroke-width="1" fill="none" />
<polyline points="98,320.0 103,320.0 " stroke="black" stroke-width="1" fill="none" />
<polyline points="106,320.0 111,320.0 " stroke="black" stroke-width="1" fill="none" />
<polyline points="138,307.0 139,308.0 139,309.0 140,309.0 140,308.0 138,307.0 135,307.0 133,308.0 132,310.0 132,320.0 " stroke="black" stroke-width="1" fill="none" />
<polyline points="135,307.0 134,308.0 133,310.0 133,320.0 " stroke="black" stroke-width="1" fill="none" />
<polyline points="147,307.0 148,308.0 149,308.0 149,307.0 143,307.0 141,308.0 140,310.0 140,320.0 " stroke="black" stroke-width="1" fill="none" />
<polyline points="143,307.0 142,308.0 141,310.0 141,320.0 " stroke="black" stroke-width="1" fill="none" />
<polyline points="148,311.0 148,320.0 " stroke="black" stroke-width="1" fill="none" />
<polyline points="149,311.0 149,320.0 " stroke="black" stroke-width="1" fill="none" />
<polyline points="130,311.0 149,311.0 " stroke="black" stroke-width="1" fill="none" />
<polyline points="130,320.0 135,320.0 " stroke="black" stroke-width="1" fill="none" />
<polyline points="138,320.0 143,320.0 " stroke="black" stroke-width="1" fill="none" />
<polyline points="146,320.0 151,320.0 " stroke="black" stroke-width="1" fill="none" />
<polyline points="170,307.0 171,308.0 171,309.0 172,309.0 172,308.0 170,307.0 167,307.0 165,308.0 164,310.0 164,320.0 " stroke="black" stroke-width="1" fill="none" />
<polyline points="167,307.0 166,308.0 165,310.0 165,320.0 " stroke="black" stroke-width="1" fill="none" />
<polyline points="181,307.0 175,307.0 173,308.0 172,310.0 172,320.0 " stroke="black" stroke-width="1" fill="none" />
<polyline points="175,307.0 174,308.0 173,310.0 173,320.0 " stroke="black" stroke-width="1" fill="none" />
<polyline points="179,307.0 180,308.0 180,320.0 " stroke="black" stroke-width="1" fill="none" />
<polyline points="181,307.0 181,320.0 " stroke="black" stroke-width="1" fill="none" />
<polyline points="162,311.0 180,311.0 " stroke="black" stroke-width="1" fill="none" />
<polyline points="162,320.0 167,320.0 " stroke="black" stroke-width="1" fill="none" />
<polyline points="170,320.0 175,320.0 " stroke="black" stroke-width="1" fill="none" />
<polyline points="178,320.0 183,320.0 " stroke="black" stroke-width="1" fill="none" />
<polyline points="196,311.0 196,320.0 " stroke="black" stroke-width="1" fill="none" />
<polyline points="197,311.0 197,320.0 " stroke="black" stroke-width="1" fill="none" />
<polyline points="194,311.0 197,311.0 " stroke="black" stroke-width="1" fill="none" />
<polyline points="194,320.0 199,320.0 " stroke="black" stroke-width="1" fill="none" />
<polyline points="234,312.0 232,311.0 230,311.0 228,312.0 227,313.0 226,315.0 226,317.0 227,319.0 229,320.0 231,320.0 233,319.0 " stroke="black" stroke-width="1" fill="none" />
<polyline points="230,311.0 228,313.0 227,315.0 227,318.0 229,320.0 " stroke="black" stroke-width="1" fill="none" />
<polyline points="227,315.0 231,315.0 " stroke="black" stroke-width="1" fill="none" />
<polyline points="263,307.0 261,308.0 260,309.0 259,311.0 258,314.0 258,317.0 259,319.0 260,320.0 262,320.0 264,319.0 265,318.0 266,316.0 267,313.0 267,310.0 266,308.0 265,307.0 263,307.0 " stroke="black" stroke-width="1" fill="none" />
<polyline points="263,307.0 261,309.0 260,311.0 259,315.0 259,318.0 260,320.0 " stroke="black" stroke-width="1" fill="none" />
<polyline points="262,320.0 264,318.0 265,316.0 266,312.0 266,309.0 265,307.0 " stroke="black" stroke-width="1" fill="none" />
<polyline points="259,313.0 266,313.0 " stroke="black" stroke-width="1" fill="none" />
<polyline points="297,307.0 294,324.0 " stroke="black" stroke-width="1" fill="none" />
<polyline points="298,307.0 293,324.0 " stroke="black" stroke-width="1" fill="none" />
<polyline points="294,311.0 291,312.0 290,314.0 290,317.0 291,319.0 294,320.0 297,320.0 300,319.0 301,317.0 301,314.0 300,312.0 297,311.0 294,311.0 " stroke="black" stroke-width="1" fill="none" />
<polyline points="294,311.0 292,312.0 291,314.0 291,317.0 292,319.0 294,320.0 " stroke="black" stroke-width="1" fill="none" />
<polyline points="297,320.0 299,319.0 300,317.0 300,314.0 299,312.0 297,311.0 " stroke="black" stroke-width="1" fill="none" />
<polyline points="329,312.0 330,314.0 330,313.0 329,312.0 327,311.0 325,311.0 323,312.0 322,314.0 322,316.0 323,318.0 326,320.0 " stroke="black" stroke-width="1" fill="none" />
<polyline points="325,311.0 323,313.0 323,316.0 324,318.0 326,320.0 327,321.0 327,323.0 326,324.0 324,324.0 " stroke="black" stroke-width="1" fill="none" />
<polyline points="365,307.0 366,308.0 367,308.0 365,307.0 362,307.0 360,308.0 359,309.0 358,311.0 355,321.0 354,323.0 353,324.0 " stroke="black" stroke-width="1" fill="none" />
<polyline points="362,307.0 360,309.0 359,311.0 356,321.0 355,323.0 353,324.0 351,324.0 351,323.0 352,324.0 " stroke="black" stroke-width="1" fill="none" />
<polyline points="369,307.0 370,308.0 370,307.0 368,307.0 366,308.0 365,310.0 362,321.0 361,323.0 360,324.0 " stroke="black" stroke-width="1" fill="none" />
<polyline points="368,307.0 367,308.0 366,310.0 363,321.0 362,323.0 360,324.0 358,324.0 358,323.0 359,324.0 " stroke="black" stroke-width="1" fill="none" />
<polyline points="355,311.0 368,311.0 " stroke="black" stroke-width="1" fill="none" />
<polyline points="397,307.0 398,308.0 399,308.0 399,307.0 394,307.0 392,308.0 391,309.0 390,311.0 387,321.0 386,323.0 385,324.0 " stroke="black" stroke-width="1" fill="none" />
<polyline points="394,307.0 392,309.0 391,311.0 388,321.0 387,323.0 385,324.0 383,324.0 383,323.0 384,324.0 " stroke="black" stroke-width="1" fill="none" />
<polyline points="397,311.0 395,318.0 395,319.0 396,320.0 398,320.0 399,319.0 400,317.0 " stroke="black" stroke-width="1" fill="none" />
<polyline points="398,311.0 396,318.0 396,319.0 397,320.0 " stroke="black" stroke-width="1" fill="none" />
<polyline points="387,311.0 398,311.0 " stroke="black" stroke-width="1" fill="none" />
<polyline points="429,307.0 430,308.0 " stroke="black" stroke-width="1" fill="none" />
<polyline points="431,307.0 426,307.0 424,308.0 423,309.0 422,311.0 419,321.0 418,323.0 417,324.0 " stroke="black" stroke-width="1" fill="none" />
<polyline points="426,307.0 424,309.0 423,311.0 420,321.0 419,323.0 417,324.0 415,324.0 415,323.0 416,324.0 " stroke="black" stroke-width="1" fill="none" />
<polyline points="430,307.0 427,318.0 427,319.0 428,320.0 430,320.0 431,319.0 432,317.0 " stroke="black" stroke-width="1" fill="none" />
<polyline points="431,307.0 428,318.0 428,319.0 429,320.0 " stroke="black" stroke-width="1" fill="none" />
<polyline points="419,311.0 429,311.0 " stroke="black" stroke-width="1" fill="none" />
<polyline points="461,307.0 462,308.0 462,309.0 " stroke="black" stroke-width="1" fill="none" />
<polyline points="463,308.0 461,307.0 458,307.0 456,308.0 455,309.0 454,311.0 451,321.0 450,323.0 449,324.0 " stroke="black" stroke-width="1" fill="none" />
<polyline points="458,307.0 456,309.0 455,311.0 452,321.0 451,323.0 449,324.0 447,324.0 447,323.0 448,324.0 " stroke="black" stroke-width="1" fill="none" />
<polyline points="468,307.0 469,308.0 470,308.0 470,307.0 465,307.0 463,308.0 " stroke="black" stroke-width="1" fill="none" />
<polyline points="462,309.0 461,311.0 458,321.0 457,323.0 456,324.0 " stroke="black" stroke-width="1" fill="none" />
<polyline points="465,307.0 463,309.0 462,311.0 459,321.0 458,323.0 456,324.0 454,324.0 454,323.0 455,324.0 " stroke="black" stroke-width="1" fill="none" />
<polyline points="468,311.0 466,318.0 466,319.0 467,320.0 469,320.0 470,319.0 471,317.0 " stroke="black" stroke-width="1" fill="none" />
<polyline points="469,311.0 467,318.0 467,319.0 468,320.0 " stroke="black" stroke-width="1" fill="none" />
<polyline points="451,311.0 469,311.0 " stroke="black" stroke-width="1" fill="none" />
<polyline points="493,307.0 494,308.0 494,309.0 " stroke="black" stroke-width="1" fill="none" />
<polyline points="495,308.0 493,307.0 490,307.0 488,308.0 487,309.0 486,311.0 483,321.0 482,323.0 481,324.0 " stroke="black" stroke-width="1" fill="none" />
<polyline points="490,307.0 488,309.0 487,311.0 484,321.0 483,323.0 481,324.0 479,324.0 479,323.0 480,324.0 " stroke="black" stroke-width="1" fill="none" />
<polyline points="500,307.0 501,308.0 " stroke="black" stroke-width="1" fill="none" />
<polyline points="502,307.0 497,307.0 495,308.0 " stroke="black" stroke-width="1" fill="none" />
<polyline points="494,309.0 493,311.0 490,321.0 489,323.0 488,324.0 " stroke="black" stroke-width="1" fill="none" />
<polyline points="497,307.0 495,309.0 494,311.0 491,321.0 490,323.0 488,324.0 486,324.0 486,323.0 487,324.0 " stroke="black" stroke-width="1" fill="none" />
<polyline points="501,307.0 498,318.0 498,319.0 499,320.0 501,320.0 502,319.0 503,317.0 " stroke="black" stroke-width="1" fill="none" />
<polyline points="502,307.0 499,318.0 499,319.0 500,320.0 " stroke="black" stroke-width="1" fill="none" />
<polyline points="483,311.0 500,311.0 " stroke="black" stroke-width="1" fill="none" />
<polyline points="513,314.0 514,312.0 515,311.0 517,311.0 518,312.0 518,314.0 517,317.0 517,319.0 518,320.0 " stroke="black" stroke-width="1" fill="none" />
<polyline points="516,311.0 517,312.0 517,314.0 516,317.0 516,319.0 517,320.0 519,320.0 520,319.0 521,317.0 " stroke="black" stroke-width="1" fill="none" />
<polyline points="" stroke="black" stroke-width="1" fill="none" />
<polyline points="" stroke="black" stroke-width="1" fill="none" />
<polyline points="99,362.0 99,367.0 " stroke="black" stroke-width="1" fill="none" />
<polyline points="100,362.0 99,367.0 " stroke="black" stroke-width="1" fill="none" />
<polyline points="131,362.0 131,367.0 " stroke="black" stroke-width="1" fill="none" />
<polyline points="132,362.0 131,367.0 " stroke="black" stroke-width="1" fill="none" />
<polyline points="137,362.0 137,367.0 " stroke="black" stroke-width="1" fill="none" />
<polyline points="138,362.0 137,367.0 " stroke="black" stroke-width="1" fill="none" />
<polyline points="167,359.0 163,369.0 167,379.0 " stroke="black" stroke-width="1" fill="none" />
<polyline points="195,359.0 199,369.0 195,379.0 " stroke="black" stroke-width="1" fill="none" />
<polyline points="227,359.0 227,379.0 " stroke="black" stroke-width="1" fill="none" />
<polyline points="231,359.0 231,379.0 " stroke="black" stroke-width="1" fill="none" />
<polyline points="264,364.0 264,375.0 " stroke="black" stroke-width="1" fill="none" />
<polyline points="259,369.0 269,369.0 " stroke="black" stroke-width="1" fill="none" />
<polyline points="259,375.0 269,375.0 " stroke="black" stroke-width="1" fill="none" />
<polyline points="296,364.0 296,375.0 " stroke="black" stroke-width="1" fill="none" />
<polyline points="291,364.0 301,364.0 " stroke="black" stroke-width="1" fill="none" />
<polyline points="291,369.0 301,369.0 " stroke="black" stroke-width="1" fill="none" />
<polyline points="323,364.0 333,374.0 " stroke="black" stroke-width="1" fill="none" />
<polyline points="333,364.0 323,374.0 " stroke="black" stroke-width="1" fill="none" />
<polyline points="356,368.0 355,369.0 356,370.0 357,369.0 356,368.0 " stroke="black" stroke-width="1" fill="none" />
<polyline points="393,363.0 392,364.0 393,365.0 394,364.0 393,363.0 " stroke="black" stroke-width="1" fill="none" />
<polyline points="387,369.0 399,369.0 " stroke="black" stroke-width="1" fill="none" />
<polyline points="393,373.0 392,374.0 393,375.0 394,374.0 393,373.0 " stroke="black" stroke-width="1" fill="none" />
<polyline points="430,363.0 420,375.0 " stroke="black" stroke-width="1" fill="none" />
<polyline points="419,367.0 431,367.0 " stroke="black" stroke-width="1" fill="none" />
<polyline points="419,371.0 431,371.0 " stroke="black" stroke-width="1" fill="none" />
<polyline points="451,365.0 463,365.0 " stroke="black" stroke-width="1" fill="none" />
<polyline points="451,369.0 463,369.0 " stroke="black" stroke-width="1" fill="none" />
<polyline points="451,373.0 463,373.0 " stroke="black" stroke-width="1" fill="none" />
<polyline points="493,362.0 483,366.0 493,370.0 " stroke="black" stroke-width="1" fill="none" />
<polyline points="483,371.0 493,371.0 " stroke="black" stroke-width="1" fill="none" />
<polyline points="483,375.0 493,375.0 " stroke="black" stroke-width="1" fill="none" />
<polyline points="515,362.0 525,366.0 515,370.0 " stroke="black" stroke-width="1" fill="none" />
<polyline points="515,371.0 525,371.0 " stroke="black" stroke-width="1" fill="none" />
<polyline points="515,375.0 525,375.0 " stroke="black" stroke-width="1" fill="none" />
<polyline points="561,372.0 559,372.0 557,371.0 556,370.0 554,367.0 553,366.0 551,365.0 550,365.0 548,366.0 547,368.0 547,369.0 548,371.0 550,372.0 551,372.0 553,371.0 554,370.0 556,367.0 557,366.0 559,365.0 561,365.0 " stroke="black" stroke-width="1" fill="none" />
<polyline points="67,425.0 72,422.0 77,425.0 " stroke="black" stroke-width="1" fill="none" />
<polyline points="67,425.0 72,423.0 77,425.0 " stroke="black" stroke-width="1" fill="none" />
<polyline points="101,417.0 98,421.0 " stroke="black" stroke-width="1" fill="none" />
<polyline points="101,417.0 102,418.0 98,421.0 " stroke="black" stroke-width="1" fill="none" />
<polyline points="131,417.0 134,421.0 " stroke="black" stroke-width="1" fill="none" />
<polyline points="131,417.0 130,418.0 134,421.0 " stroke="black" stroke-width="1" fill="none" />
<polyline points="162,417.0 163,419.0 165,420.0 167,420.0 169,419.0 170,417.0 " stroke="black" stroke-width="1" fill="none" />
<polyline points="162,417.0 163,420.0 165,421.0 167,421.0 169,420.0 170,417.0 " stroke="black" stroke-width="1" fill="none" />
<polyline points="195,418.0 196,419.0 197,418.0 196,417.0 195,418.0 195,420.0 197,422.0 " stroke="black" stroke-width="1" fill="none" />
<polyline points="227,417.0 229,419.0 229,421.0 228,422.0 227,421.0 228,420.0 229,421.0 " stroke="black" stroke-width="1" fill="none" />
<polyline points="269,419.0 263,419.0 261,420.0 260,421.0 259,423.0 259,425.0 260,427.0 261,428.0 263,429.0 269,429.0 " stroke="black" stroke-width="1" fill="none" />
<polyline points="291,419.0 291,425.0 292,427.0 293,428.0 295,429.0 297,429.0 299,428.0 300,427.0 301,425.0 301,419.0 " stroke="black" stroke-width="1" fill="none" />
<polyline points="323,419.0 329,419.0 331,420.0 332,421.0 333,423.0 333,425.0 332,427.0 331,428.0 329,429.0 323,429.0 " stroke="black" stroke-width="1" fill="none" />
<polyline points="355,429.0 355,423.0 356,421.0 357,420.0 359,419.0 361,419.0 363,420.0 364,421.0 365,423.0 365,429.0 " stroke="black" stroke-width="1" fill="none" />
<polyline points="397,419.0 391,419.0 389,420.0 388,421.0 387,423.0 387,425.0 388,427.0 389,428.0 391,429.0 397,429.0 " stroke="black" stroke-width="1" fill="none" />
<polyline points="387,424.0 395,424.0 " stroke="black" stroke-width="1" fill="none" />
<polyline points="427,421.0 428,422.0 431,424.0 428,426.0 427,427.0 " stroke="black" stroke-width="1" fill="none" />
<polyline points="428,422.0 430,424.0 428,426.0 " stroke="black" stroke-width="1" fill="none" />
<polyline points="419,424.0 430,424.0 " stroke="black" stroke-width="1" fill="none" />
<polyline points="455,421.0 454,422.0 451,424.0 454,426.0 455,427.0 " stroke="black" stroke-width="1" fill="none" />
<polyline points="454,422.0 452,424.0 454,426.0 " stroke="black" stroke-width="1" fill="none" />
<polyline points="452,424.0 463,424.0 " stroke="black" stroke-width="1" fill="none" />
<polyline points="485,418.0 485,429.0 " stroke="black" stroke-width="1" fill="none" />
<polyline points="482,426.0 483,427.0 485,430.0 487,427.0 488,426.0 " stroke="black" stroke-width="1" fill="none" />
<polyline points="483,427.0 485,429.0 487,427.0 " stroke="black" stroke-width="1" fill="none" />
<polyline points="523,425.0 522,422.0 520,421.0 518,421.0 516,422.0 515,423.0 514,425.0 514,427.0 515,429.0 517,430.0 519,430.0 521,429.0 522,428.0 523,426.0 524,423.0 524,420.0 523,418.0 521,417.0 518,417.0 517,418.0 518,418.0 519,417.0 " stroke="black" stroke-width="1" fill="none" />
<polyline points="518,421.0 516,423.0 515,425.0 515,428.0 517,430.0 " stroke="black" stroke-width="1" fill="none" />
<polyline points="519,430.0 521,428.0 522,426.0 523,423.0 523,420.0 522,418.0 521,417.0 " stroke="black" stroke-width="1" fill="none" />
<polyline points="546,417.0 552,430.0 " stroke="black" stroke-width="1" fill="none" />
<polyline points="547,417.0 552,428.0 " stroke="black" stroke-width="1" fill="none" />
<polyline points="558,417.0 552,430.0 " stroke="black" stroke-width="1" fill="none" />
<polyline points="546,417.0 558,417.0 " stroke="black" stroke-width="1" fill="none" />
<polyline points="548,418.0 557,418.0 " stroke="black" stroke-width="1" fill="none" />
<polyline points="66,476.0 69,476.0 75,484.0 " stroke="black" stroke-width="1" fill="none" />
<polyline points="68,476.0 75,485.0 " stroke="black" stroke-width="1" fill="none" />
<polyline points="84,467.0 75,485.0 " stroke="black" stroke-width="1" fill="none" />
<polyline points="111,470.0 111,471.0 112,471.0 112,470.0 111,469.0 109,469.0 107,471.0 106,473.0 105,476.0 104,482.0 103,486.0 102,488.0 " stroke="black" stroke-width="1" fill="none" />
<polyline points="108,470.0 107,472.0 106,476.0 105,482.0 104,485.0 103,487.0 101,489.0 99,489.0 98,488.0 98,487.0 99,487.0 99,488.0 " stroke="black" stroke-width="1" fill="none" />
<polyline points="143,470.0 143,471.0 144,471.0 144,470.0 143,469.0 141,469.0 139,471.0 138,473.0 137,476.0 136,482.0 135,486.0 134,488.0 " stroke="black" stroke-width="1" fill="none" />
<polyline points="140,470.0 139,472.0 138,476.0 137,482.0 136,485.0 135,487.0 133,489.0 131,489.0 130,488.0 130,487.0 131,487.0 131,488.0 " stroke="black" stroke-width="1" fill="none" />
<polyline points="136,475.0 134,476.0 133,478.0 133,480.0 134,482.0 136,483.0 138,483.0 140,482.0 141,480.0 141,478.0 140,476.0 138,475.0 136,475.0 " stroke="black" stroke-width="1" fill="none" />
<polyline points="178,479.0 177,481.0 175,482.0 174,482.0 172,481.0 171,480.0 169,477.0 168,476.0 166,475.0 165,475.0 163,476.0 162,478.0 162,479.0 163,481.0 165,482.0 166,482.0 168,481.0 169,480.0 171,477.0 172,476.0 174,475.0 175,475.0 177,476.0 178,478.0 178,479.0 " stroke="black" stroke-width="1" fill="none" />
<polyline points="200,473.0 199,473.0 199,474.0 200,474.0 200,473.0 199,472.0 197,472.0 196,473.0 196,475.0 197,477.0 200,479.0 201,480.0 " stroke="black" stroke-width="1" fill="none" />
<polyline points="196,475.0 197,476.0 200,478.0 201,480.0 201,482.0 199,484.0 " stroke="black" stroke-width="1" fill="none" />
<polyline points="197,477.0 195,479.0 195,481.0 196,483.0 199,485.0 200,486.0 " stroke="black" stroke-width="1" fill="none" />
<polyline points="195,481.0 196,482.0 199,484.0 200,486.0 200,488.0 199,489.0 197,489.0 196,488.0 196,487.0 197,487.0 197,488.0 196,488.0 " stroke="black" stroke-width="1" fill="none" />
<polyline points="230,472.0 229,473.0 230,474.0 231,473.0 230,472.0 " stroke="black" stroke-width="1" fill="none" />
<polyline points="230,474.0 230,478.0 " stroke="black" stroke-width="1" fill="none" />
<polyline points="230,478.0 229,480.0 230,483.0 231,480.0 230,478.0 " stroke="black" stroke-width="1" fill="none" />
<polyline points="230,483.0 230,489.0 " stroke="black" stroke-width="1" fill="none" />
<polyline points="228,476.0 227,475.0 226,476.0 227,477.0 228,476.0 232,476.0 233,475.0 234,476.0 233,477.0 232,476.0 " stroke="black" stroke-width="1" fill="none" />
<polyline points="262,474.0 263,473.0 262,472.0 261,473.0 262,474.0 262,478.0 261,479.0 263,482.0 262,483.0 " stroke="black" stroke-width="1" fill="none" />
<polyline points="262,478.0 263,479.0 261,482.0 262,483.0 262,487.0 261,488.0 262,489.0 263,488.0 262,487.0 " stroke="black" stroke-width="1" fill="none" />
<polyline points="260,476.0 259,475.0 258,476.0 259,477.0 260,476.0 264,476.0 265,475.0 266,476.0 265,477.0 264,476.0 " stroke="black" stroke-width="1" fill="none" />
<polyline points="260,485.0 259,484.0 258,485.0 259,486.0 260,485.0 264,485.0 265,484.0 266,485.0 265,486.0 264,485.0 " stroke="black" stroke-width="1" fill="none" />
<polyline points="298,472.0 298,485.0 " stroke="black" stroke-width="1" fill="none" />
<polyline points="290,472.0 298,472.0 " stroke="black" stroke-width="1" fill="none" />
<polyline points="293,478.0 298,478.0 " stroke="black" stroke-width="1" fill="none" />
<polyline points="290,485.0 298,485.0 " stroke="black" stroke-width="1" fill="none" />
<polyline points="329,472.0 326,473.0 324,475.0 323,478.0 323,480.0 324,483.0 326,485.0 329,486.0 331,486.0 334,485.0 336,483.0 337,480.0 337,478.0 336,475.0 334,473.0 331,472.0 329,472.0 " stroke="black" stroke-width="1" fill="none" />
<polyline points="330,478.0 329,479.0 330,480.0 331,479.0 330,478.0 " stroke="black" stroke-width="1" fill="none" />
<polyline points="357,472.0 356,473.0 356,474.0 357,475.0 " stroke="black" stroke-width="1" fill="none" />
<polyline points="360,472.0 361,473.0 361,474.0 360,475.0 " stroke="black" stroke-width="1" fill="none" />
<polyline points="358,475.0 356,476.0 355,478.0 355,479.0 356,481.0 358,482.0 359,482.0 361,481.0 362,479.0 362,478.0 361,476.0 359,475.0 358,475.0 " stroke="black" stroke-width="1" fill="none" />
<polyline points="358,482.0 358,486.0 " stroke="black" stroke-width="1" fill="none" />
<polyline points="359,482.0 359,486.0 " stroke="black" stroke-width="1" fill="none" />
<polyline points="355,484.0 362,484.0 " stroke="black" stroke-width="1" fill="none" />
<polyline points="390,472.0 388,473.0 387,475.0 387,476.0 388,478.0 390,479.0 391,479.0 393,478.0 394,476.0 394,475.0 393,473.0 391,472.0 390,472.0 " stroke="black" stroke-width="1" fill="none" />
<polyline points="390,479.0 390,485.0 " stroke="black" stroke-width="1" fill="none" />
<polyline points="391,479.0 391,485.0 " stroke="black" stroke-width="1" fill="none" />
<polyline points="387,482.0 394,482.0 " stroke="black" stroke-width="1" fill="none" />
<polyline points="425,472.0 422,473.0 420,475.0 419,478.0 419,480.0 420,483.0 422,485.0 425,486.0 427,486.0 430,485.0 432,483.0 433,480.0 433,478.0 432,475.0 430,473.0 427,472.0 425,472.0 " stroke="black" stroke-width="1" fill="none" />
<polyline points="426,472.0 426,486.0 " stroke="black" stroke-width="1" fill="none" />
<polyline points="419,479.0 433,479.0 " stroke="black" stroke-width="1" fill="none" />
<polyline points="456,479.0 454,478.0 453,478.0 451,479.0 450,481.0 450,482.0 451,484.0 453,485.0 454,485.0 456,484.0 457,482.0 457,481.0 456,479.0 " stroke="black" stroke-width="1" fill="none" />
<polyline points="461,474.0 456,479.0 " stroke="black" stroke-width="1" fill="none" />
<polyline points="456,474.0 461,474.0 461,479.0 " stroke="black" stroke-width="1" fill="none" />
<polyline points="456,474.0 460,475.0 461,479.0 " stroke="black" stroke-width="1" fill="none" />
<polyline points="482,473.0 483,472.0 485,472.0 487,473.0 488,475.0 488,477.0 487,479.0 486,480.0 484,481.0 " stroke="black" stroke-width="1" fill="none" />
<polyline points="485,472.0 486,473.0 487,475.0 487,478.0 486,480.0 " stroke="black" stroke-width="1" fill="none" />
<polyline points="492,472.0 491,485.0 " stroke="black" stroke-width="1" fill="none" />
<polyline points="493,472.0 490,485.0 " stroke="black" stroke-width="1" fill="none" />
<polyline points="484,481.0 494,481.0 " stroke="black" stroke-width="1" fill="none" />
<polyline points="516,472.0 516,482.0 " stroke="black" stroke-width="1" fill="none" />
<polyline points="517,472.0 516,479.0 " stroke="black" stroke-width="1" fill="none" />
<polyline points="516,479.0 517,477.0 519,476.0 521,476.0 523,477.0 524,478.0 524,481.0 522,483.0 522,485.0 523,486.0 524,486.0 525,485.0 " stroke="black" stroke-width="1" fill="none" />
<polyline points="521,476.0 523,478.0 523,481.0 522,483.0 " stroke="black" stroke-width="1" fill="none" />
<polyline points="514,472.0 517,472.0 " stroke="black" stroke-width="1" fill="none" />
<polyline points="547,475.0 550,472.0 550,478.0 " stroke="black" stroke-width="1" fill="none" />
<polyline points="554,475.0 551,472.0 551,478.0 " stroke="black" stroke-width="1" fill="none" />
<polyline points="550,478.0 548,479.0 547,481.0 547,482.0 548,484.0 550,485.0 551,485.0 553,484.0 554,482.0 554,481.0 553,479.0 551,478.0 " stroke="black" stroke-width="1" fill="none" />
<polyline points="550,481.0 550,482.0 551,482.0 551,481.0 550,481.0 " stroke="black" stroke-width="1" fill="none" />
<polyline points="72,527.0 72,541.0 " stroke="black" stroke-width="1" fill="none" />
<polyline points="67,527.0 67,532.0 68,534.0 70,535.0 74,535.0 76,534.0 77,532.0 77,527.0 " stroke="black" stroke-width="1" fill="none" />
<polyline points="66,529.0 67,527.0 68,529.0 " stroke="black" stroke-width="1" fill="none" />
<polyline points="71,529.0 72,527.0 73,529.0 " stroke="black" stroke-width="1" fill="none" />
<polyline points="76,529.0 77,527.0 78,529.0 " stroke="black" stroke-width="1" fill="none" />
<polyline points="69,538.0 75,538.0 " stroke="black" stroke-width="1" fill="none" />
<polyline points="100,527.0 100,540.0 " stroke="black" stroke-width="1" fill="none" />
<polyline points="101,527.0 101,540.0 " stroke="black" stroke-width="1" fill="none" />
<polyline points="98,527.0 105,527.0 108,528.0 109,530.0 109,531.0 108,533.0 105,534.0 101,534.0 " stroke="black" stroke-width="1" fill="none" />
<polyline points="105,527.0 107,528.0 108,530.0 108,531.0 107,533.0 105,534.0 " stroke="black" stroke-width="1" fill="none" />
<polyline points="98,540.0 108,540.0 108,537.0 107,540.0 " stroke="black" stroke-width="1" fill="none" />
<polyline points="139,527.0 136,527.0 133,528.0 131,530.0 130,533.0 130,535.0 131,538.0 133,540.0 136,541.0 139,541.0 " stroke="black" stroke-width="1" fill="none" />
<polyline points="139,527.0 136,528.0 134,530.0 133,533.0 133,535.0 134,538.0 136,540.0 139,541.0 " stroke="black" stroke-width="1" fill="none" />
<polyline points="168,534.0 166,533.0 165,533.0 163,534.0 162,536.0 162,537.0 163,539.0 165,540.0 166,540.0 168,539.0 169,537.0 169,536.0 168,534.0 " stroke="black" stroke-width="1" fill="none" />
<polyline points="169,528.0 167,533.0 " stroke="black" stroke-width="1" fill="none" />
<polyline points="173,529.0 168,534.0 " stroke="black" stroke-width="1" fill="none" />
<polyline points="174,533.0 169,535.0 " stroke="black" stroke-width="1" fill="none" />
<polyline points="197,529.0 201,539.0 " stroke="black" stroke-width="1" fill="none" />
<polyline points="201,529.0 197,539.0 " stroke="black" stroke-width="1" fill="none" />
<polyline points="194,532.0 204,536.0 " stroke="black" stroke-width="1" fill="none" />
<polyline points="204,532.0 194,536.0 " stroke="black" stroke-width="1" fill="none" />
<polyline points="229,537.0 227,537.0 226,538.0 226,540.0 227,541.0 229,541.0 230,540.0 230,538.0 228,536.0 227,534.0 227,531.0 228,529.0 229,528.0 231,527.0 234,527.0 236,528.0 237,529.0 238,531.0 238,534.0 237,536.0 235,538.0 235,540.0 236,541.0 238,541.0 239,540.0 239,538.0 238,537.0 236,537.0 " stroke="black" stroke-width="1" fill="none" />
<polyline points="228,529.0 230,528.0 235,528.0 237,529.0 " stroke="black" stroke-width="1" fill="none" />
<polyline points="261,531.0 259,531.0 258,530.0 258,528.0 259,527.0 261,527.0 262,528.0 262,530.0 260,532.0 259,534.0 259,537.0 260,539.0 261,540.0 263,541.0 266,541.0 268,540.0 269,539.0 270,537.0 270,534.0 269,532.0 267,530.0 267,528.0 268,527.0 270,527.0 271,528.0 271,530.0 270,531.0 268,531.0 " stroke="black" stroke-width="1" fill="none" />
<polyline points="260,539.0 262,540.0 267,540.0 269,539.0 " stroke="black" stroke-width="1" fill="none" />
<polyline points="293,524.0 293,544.0 " stroke="black" stroke-width="1" fill="none" />
<polyline points="294,524.0 294,544.0 " stroke="black" stroke-width="1" fill="none" />
<polyline points="306,524.0 306,544.0 " stroke="black" stroke-width="1" fill="none" />
<polyline points="307,524.0 307,544.0 " stroke="black" stroke-width="1" fill="none" />
<polyline points="290,524.0 310,524.0 " stroke="black" stroke-width="1" fill="none" />
<polyline points="290,544.0 297,544.0 " stroke="black" stroke-width="1" fill="none" />
<polyline points="303,544.0 310,544.0 " stroke="black" stroke-width="1" fill="none" />
<polyline points="323,524.0 330,533.0 322,544.0 " stroke="black" stroke-width="1" fill="none" />
<polyline points="322,524.0 329,533.0 " stroke="black" stroke-width="1" fill="none" />
<polyline points="322,524.0 337,524.0 338,529.0 336,524.0 " stroke="black" stroke-width="1" fill="none" />
<polyline points="323,543.0 336,543.0 " stroke="black" stroke-width="1" fill="none" />
<polyline points="322,544.0 337,544.0 338,539.0 336,544.0 " stroke="black" stroke-width="1" fill="none" />
<polyline points="363,518.0 361,520.0 359,523.0 357,527.0 356,532.0 356,536.0 357,541.0 359,545.0 361,548.0 363,550.0 " stroke="black" stroke-width="1" fill="none" />
<polyline points="361,520.0 359,524.0 358,527.0 357,532.0 357,536.0 358,541.0 359,544.0 361,548.0 " stroke="black" stroke-width="1" fill="none" />
<polyline points="387,518.0 389,520.0 391,523.0 393,527.0 394,532.0 394,536.0 393,541.0 391,545.0 389,548.0 387,550.0 " stroke="black" stroke-width="1" fill="none" />
<polyline points="389,520.0 391,524.0 392,527.0 393,532.0 393,536.0 392,541.0 391,544.0 389,548.0 " stroke="black" stroke-width="1" fill="none" />
<polyline points="426,516.0 423,519.0 421,522.0 420,525.0 420,528.0 421,531.0 424,538.0 425,541.0 425,544.0 424,547.0 423,549.0 " stroke="black" stroke-width="1" fill="none" />
<polyline points="423,519.0 422,521.0 421,524.0 421,527.0 422,530.0 425,537.0 426,540.0 426,543.0 425,546.0 423,549.0 420,552.0 " stroke="black" stroke-width="1" fill="none" />
<polyline points="452,516.0 455,519.0 457,522.0 458,525.0 458,528.0 457,531.0 454,538.0 453,541.0 453,544.0 454,547.0 455,549.0 " stroke="black" stroke-width="1" fill="none" />
<polyline points="455,519.0 456,521.0 457,524.0 457,527.0 456,530.0 453,537.0 452,540.0 452,543.0 453,546.0 455,549.0 458,552.0 " stroke="black" stroke-width="1" fill="none" />
<polyline points="482,534.0 486,534.0 497,548.0 " stroke="black" stroke-width="1" fill="none" />
<polyline points="486,535.0 497,549.0 " stroke="black" stroke-width="1" fill="none" />
<polyline points="485,535.0 497,550.0 " stroke="black" stroke-width="1" fill="none" />
<polyline points="503,510.0 497,550.0 " stroke="black" stroke-width="1" fill="none" />
<polyline points="533,519.0 532,520.0 533,521.0 534,520.0 534,519.0 533,518.0 531,518.0 529,519.0 527,521.0 526,523.0 525,526.0 524,530.0 522,542.0 521,546.0 520,548.0 " stroke="black" stroke-width="1" fill="none" />
<polyline points="528,520.0 527,522.0 526,526.0 524,538.0 523,542.0 522,545.0 521,547.0 519,549.0 517,550.0 515,550.0 514,549.0 514,548.0 515,547.0 516,548.0 515,549.0 " stroke="black" stroke-width="1" fill="none" />
<polyline points="559,523.0 558,524.0 559,525.0 560,524.0 560,523.0 558,522.0 555,522.0 552,523.0 550,525.0 549,528.0 549,543.0 " stroke="black" stroke-width="1" fill="none" />
<polyline points="555,522.0 553,523.0 551,525.0 550,528.0 550,543.0 " stroke="black" stroke-width="1" fill="none" />
<polyline points="565,523.0 564,524.0 565,525.0 566,524.0 566,523.0 565,522.0 563,522.0 561,523.0 560,525.0 560,543.0 " stroke="black" stroke-width="1" fill="none" />
<polyline points="563,522.0 562,523.0 561,525.0 561,543.0 " stroke="black" stroke-width="1" fill="none" />
<polyline points="546,529.0 564,529.0 " stroke="black" stroke-width="1" fill="none" />
<polyline points="546,543.0 553,543.0 " stroke="black" stroke-width="1" fill="none" />
<polyline points="557,543.0 564,543.0 " stroke="black" stroke-width="1" fill="none" />
<polyline points="80,578.0 79,579.0 80,580.0 81,579.0 80,578.0 78,577.0 75,577.0 72,578.0 70,580.0 69,583.0 69,598.0 " stroke="black" stroke-width="1" fill="none" />
<polyline points="75,577.0 73,578.0 71,580.0 70,583.0 70,598.0 " stroke="black" stroke-width="1" fill="none" />
<polyline points="80,584.0 80,598.0 " stroke="black" stroke-width="1" fill="none" />
<polyline points="81,584.0 81,598.0 " stroke="black" stroke-width="1" fill="none" />
<polyline points="66,584.0 81,584.0 " stroke="black" stroke-width="1" fill="none" />
<polyline points="66,598.0 73,598.0 " stroke="black" stroke-width="1" fill="none" />
<polyline points="77,598.0 84,598.0 " stroke="black" stroke-width="1" fill="none" />
<polyline points="111,578.0 110,579.0 111,580.0 112,579.0 112,578.0 110,577.0 " stroke="black" stroke-width="1" fill="none" />
<polyline points="113,577.0 107,577.0 104,578.0 102,580.0 101,583.0 101,598.0 " stroke="black" stroke-width="1" fill="none" />
<polyline points="107,577.0 105,578.0 103,580.0 102,583.0 102,598.0 " stroke="black" stroke-width="1" fill="none" />
<polyline points="112,579.0 112,598.0 " stroke="black" stroke-width="1" fill="none" />
<polyline points="113,577.0 113,598.0 " stroke="black" stroke-width="1" fill="none" />
<polyline points="98,584.0 112,584.0 " stroke="black" stroke-width="1" fill="none" />
<polyline points="98,598.0 105,598.0 " stroke="black" stroke-width="1" fill="none" />
<polyline points="109,598.0 116,598.0 " stroke="black" stroke-width="1" fill="none" />
<polyline points="144,578.0 143,579.0 144,580.0 145,579.0 144,578.0 142,577.0 139,577.0 136,578.0 134,580.0 133,583.0 133,598.0 " stroke="black" stroke-width="1" fill="none" />
<polyline points="139,577.0 137,578.0 135,580.0 134,583.0 134,598.0 " stroke="black" stroke-width="1" fill="none" />
<polyline points="155,578.0 154,579.0 155,580.0 156,579.0 155,578.0 153,577.0 150,577.0 147,578.0 145,580.0 144,583.0 144,598.0 " stroke="black" stroke-width="1" fill="none" />
<polyline points="150,577.0 148,578.0 146,580.0 145,583.0 145,598.0 " stroke="black" stroke-width="1" fill="none" />
<polyline points="155,584.0 155,598.0 " stroke="black" stroke-width="1" fill="none" />
<polyline points="156,584.0 156,598.0 " stroke="black" stroke-width="1" fill="none" />
<polyline points="130,584.0 156,584.0 " stroke="black" stroke-width="1" fill="none" />
<polyline points="130,598.0 137,598.0 " stroke="black" stroke-width="1" fill="none" />
<polyline points="141,598.0 148,598.0 " stroke="black" stroke-width="1" fill="none" />
<polyline points="152,598.0 159,598.0 " stroke="black" stroke-width="1" fill="none" />
<polyline points="176,578.0 175,579.0 176,580.0 177,579.0 176,578.0 174,577.0 171,577.0 168,578.0 166,580.0 165,583.0 165,598.0 " stroke="black" stroke-width="1" fill="none" />
<polyline points="171,577.0 169,578.0 167,580.0 166,583.0 166,598.0 " stroke="black" stroke-width="1" fill="none" />
<polyline points="186,578.0 185,579.0 186,580.0 187,579.0 187,578.0 185,577.0 " stroke="black" stroke-width="1" fill="none" />
<polyline points="188,577.0 182,577.0 179,578.0 177,580.0 176,583.0 176,598.0 " stroke="black" stroke-width="1" fill="none" />
<polyline points="182,577.0 180,578.0 178,580.0 177,583.0 177,598.0 " stroke="black" stroke-width="1" fill="none" />
<polyline points="187,579.0 187,598.0 " stroke="black" stroke-width="1" fill="none" />
<polyline points="188,577.0 188,598.0 " stroke="black" stroke-width="1" fill="none" />
<polyline points="162,584.0 187,584.0 " stroke="black" stroke-width="1" fill="none" />
<polyline points="162,598.0 169,598.0 " stroke="black" stroke-width="1" fill="none" />
<polyline points="173,598.0 180,598.0 " stroke="black" stroke-width="1" fill="none" />
<polyline points="184,598.0 191,598.0 " stroke="black" stroke-width="1" fill="none" />
<polyline points="197,584.0 197,598.0 " stroke="black" stroke-width="1" fill="none" />
<polyline points="198,584.0 198,598.0 " stroke="black" stroke-width="1" fill="none" />
<polyline points="194,584.0 198,584.0 " stroke="black" stroke-width="1" fill="none" />
<polyline points="194,598.0 201,598.0 " stroke="black" stroke-width="1" fill="none" />
<polyline points="238,585.0 236,584.0 233,584.0 230,585.0 228,587.0 227,590.0 227,593.0 228,596.0 229,597.0 232,598.0 235,598.0 237,597.0 " stroke="black" stroke-width="1" fill="none" />
<polyline points="233,584.0 231,585.0 229,587.0 228,590.0 228,593.0 229,596.0 230,597.0 232,598.0 " stroke="black" stroke-width="1" fill="none" />
<polyline points="228,591.0 236,591.0 " stroke="black" stroke-width="1" fill="none" />
<polyline points="267,577.0 264,578.0 262,581.0 261,583.0 260,586.0 259,591.0 259,595.0 260,597.0 262,598.0 264,598.0 267,597.0 269,594.0 270,592.0 271,589.0 272,584.0 272,580.0 271,578.0 269,577.0 267,577.0 " stroke="black" stroke-width="1" fill="none" />
<polyline points="267,577.0 265,578.0 263,581.0 262,583.0 261,586.0 260,591.0 260,595.0 261,597.0 262,598.0 " stroke="black" stroke-width="1" fill="none" />
<polyline points="264,598.0 266,597.0 268,594.0 269,592.0 270,589.0 271,584.0 271,580.0 270,578.0 269,577.0 " stroke="black" stroke-width="1" fill="none" />
<polyline points="261,587.0 270,587.0 " stroke="black" stroke-width="1" fill="none" />
<polyline points="302,577.0 296,605.0 " stroke="black" stroke-width="1" fill="none" />
<polyline points="303,577.0 295,605.0 " stroke="black" stroke-width="1" fill="none" />
<polyline points="298,584.0 294,585.0 292,587.0 291,590.0 291,593.0 292,595.0 294,597.0 297,598.0 300,598.0 304,597.0 306,595.0 307,592.0 307,589.0 306,587.0 304,585.0 301,584.0 298,584.0 " stroke="black" stroke-width="1" fill="none" />
<polyline points="298,584.0 295,585.0 293,587.0 292,590.0 292,593.0 293,595.0 295,597.0 297,598.0 " stroke="black" stroke-width="1" fill="none" />
<polyline points="300,598.0 303,597.0 305,595.0 306,592.0 306,589.0 305,587.0 303,585.0 301,584.0 " stroke="black" stroke-width="1" fill="none" />
<polyline points="" stroke="black" stroke-width="1" fill="none" />
<polyline points="" stroke="black" stroke-width="1" fill="none" />
<polyline points="389,596.0 388,597.0 389,598.0 390,597.0 389,596.0 " stroke="black" stroke-width="1" fill="none" />
<polyline points="421,598.0 420,597.0 421,596.0 422,597.0 422,599.0 421,601.0 420,602.0 " stroke="black" stroke-width="1" fill="none" />
<polyline points="453,584.0 452,585.0 453,586.0 454,585.0 453,584.0 " stroke="black" stroke-width="1" fill="none" />
<polyline points="453,596.0 452,597.0 453,598.0 454,597.0 453,596.0 " stroke="black" stroke-width="1" fill="none" />
<polyline points="485,584.0 484,585.0 485,586.0 486,585.0 485,584.0 " stroke="black" stroke-width="1" fill="none" />
<polyline points="485,598.0 484,597.0 485,596.0 486,597.0 486,599.0 485,601.0 484,602.0 " stroke="black" stroke-width="1" fill="none" />
<polyline points="518,577.0 516,578.0 515,580.0 515,582.0 516,584.0 518,585.0 520,585.0 522,584.0 523,582.0 523,580.0 522,578.0 520,577.0 518,577.0 " stroke="black" stroke-width="1" fill="none" />
<polyline points="552,577.0 552,589.0 " stroke="black" stroke-width="1" fill="none" />
<polyline points="547,580.0 557,586.0 " stroke="black" stroke-width="1" fill="none" />
<polyline points="557,580.0 547,586.0 " stroke="black" stroke-width="1" fill="none" />
<polyline points="84,628.0 66,660.0 " stroke="black" stroke-width="1" fill="none" />
<polyline points="100,628.0 100,660.0 " stroke="black" stroke-width="1" fill="none" />
<polyline points="101,628.0 101,660.0 " stroke="black" stroke-width="1" fill="none" />
<polyline points="100,628.0 107,628.0 " stroke="black" stroke-width="1" fill="none" />
<polyline points="100,660.0 107,660.0 " stroke="black" stroke-width="1" fill="none" />
<polyline points="137,628.0 137,660.0 " stroke="black" stroke-width="1" fill="none" />
<polyline points="138,628.0 138,660.0 " stroke="black" stroke-width="1" fill="none" />
<polyline points="131,628.0 138,628.0 " stroke="black" stroke-width="1" fill="none" />
<polyline points="131,660.0 138,660.0 " stroke="black" stroke-width="1" fill="none" />
<polyline points="169,628.0 167,629.0 166,630.0 165,632.0 165,634.0 166,636.0 167,637.0 168,639.0 168,641.0 166,643.0 " stroke="black" stroke-width="1" fill="none" />
<polyline points="167,629.0 166,631.0 166,633.0 167,635.0 168,636.0 169,638.0 169,640.0 168,642.0 164,644.0 168,646.0 169,648.0 169,650.0 168,652.0 167,653.0 166,655.0 166,657.0 167,659.0 " stroke="black" stroke-width="1" fill="none" />
<polyline points="166,645.0 168,647.0 168,649.0 167,651.0 166,652.0 165,654.0 165,656.0 166,658.0 167,659.0 169,660.0 " stroke="black" stroke-width="1" fill="none" />
<polyline points="197,628.0 199,629.0 200,630.0 201,632.0 201,634.0 200,636.0 199,637.0 198,639.0 198,641.0 200,643.0 " stroke="black" stroke-width="1" fill="none" />
<polyline points="199,629.0 200,631.0 200,633.0 199,635.0 198,636.0 197,638.0 197,640.0 198,642.0 202,644.0 198,646.0 197,648.0 197,650.0 198,652.0 199,653.0 200,655.0 200,657.0 199,659.0 " stroke="black" stroke-width="1" fill="none" />
<polyline points="200,645.0 198,647.0 198,649.0 199,651.0 200,652.0 201,654.0 201,656.0 200,658.0 199,659.0 197,660.0 " stroke="black" stroke-width="1" fill="none" />
<polyline points="228,628.0 228,660.0 " stroke="black" stroke-width="1" fill="none" />
<polyline points="260,644.0 278,644.0 " stroke="black" stroke-width="1" fill="none" />
<polyline points="301,635.0 301,653.0 " stroke="black" stroke-width="1" fill="none" />
<polyline points="292,644.0 310,644.0 " stroke="black" stroke-width="1" fill="none" />
<polyline points="325,643.0 324,644.0 325,645.0 326,644.0 325,643.0 " stroke="black" stroke-width="1" fill="none" />
<polyline points="355,632.0 356,634.0 358,636.0 361,637.0 363,637.0 366,636.0 368,634.0 369,632.0 " stroke="black" stroke-width="1" fill="none" />
<polyline points="355,632.0 356,635.0 358,637.0 361,638.0 363,638.0 366,637.0 368,635.0 369,632.0 " stroke="black" stroke-width="1" fill="none" />
<polyline points="390,632.0 389,633.0 388,635.0 388,637.0 389,638.0 390,637.0 389,636.0 " stroke="black" stroke-width="1" fill="none" />
<polyline points="421,634.0 422,633.0 421,632.0 420,633.0 420,635.0 421,637.0 422,638.0 " stroke="black" stroke-width="1" fill="none" />
<polyline points="452,632.0 453,633.0 454,635.0 454,637.0 453,638.0 452,637.0 453,636.0 " stroke="black" stroke-width="1" fill="none" />
<polyline points="501,629.0 500,630.0 501,631.0 502,630.0 502,629.0 501,628.0 499,628.0 497,629.0 495,631.0 494,633.0 493,636.0 492,640.0 490,652.0 489,656.0 488,658.0 " stroke="black" stroke-width="1" fill="none" />
<polyline points="496,630.0 495,632.0 494,636.0 492,648.0 491,652.0 490,655.0 489,657.0 487,659.0 485,660.0 483,660.0 482,659.0 482,658.0 483,657.0 484,658.0 483,659.0 " stroke="black" stroke-width="1" fill="none" />
<polyline points="491,637.0 488,638.0 486,640.0 485,643.0 485,645.0 486,648.0 488,650.0 491,651.0 493,651.0 496,650.0 498,648.0 499,645.0 499,643.0 498,640.0 496,638.0 493,637.0 491,637.0 " stroke="black" stroke-width="1" fill="none" />
<polyline points="523,632.0 516,660.0 " stroke="black" stroke-width="1" fill="none" />
<polyline points="529,632.0 522,660.0 " stroke="black" stroke-width="1" fill="none" />
<polyline points="516,643.0 530,643.0 " stroke="black" stroke-width="1" fill="none" />
<polyline points="515,649.0 529,649.0 " stroke="black" stroke-width="1" fill="none" />
<polyline points="547,645.0 551,645.0 550,644.0 549,641.0 549,639.0 550,636.0 552,634.0 555,633.0 557,633.0 560,634.0 562,636.0 563,639.0 563,641.0 562,644.0 561,645.0 565,645.0 " stroke="black" stroke-width="1" fill="none" />
<polyline points="547,646.0 553,646.0 551,644.0 550,641.0 550,639.0 551,636.0 553,634.0 555,633.0 " stroke="black" stroke-width="1" fill="none" />
<polyline points="557,633.0 559,634.0 561,636.0 562,639.0 562,641.0 561,644.0 559,646.0 565,646.0 " stroke="black" stroke-width="1" fill="none" />
<polyline points="549,650.0 563,650.0 " stroke="black" stroke-width="1" fill="none" />
<polyline points="549,651.0 563,651.0 " stroke="black" stroke-width="1" fill="none" />
<polyline points="67,698.0 67,700.0 69,700.0 69,698.0 67,698.0 " stroke="black" stroke-width="1" fill="none" />
<polyline points="67,698.0 69,700.0 " stroke="black" stroke-width="1" fill="none" />
<polyline points="69,698.0 67,700.0 " stroke="black" stroke-width="1" fill="none" />
<polyline points="99,698.0 99,700.0 101,700.0 101,698.0 99,698.0 " stroke="black" stroke-width="1" fill="none" />
<polyline points="99,698.0 101,700.0 " stroke="black" stroke-width="1" fill="none" />
<polyline points="101,698.0 99,700.0 " stroke="black" stroke-width="1" fill="none" />
<polyline points="131,697.0 135,699.0 138,701.0 140,703.0 141,706.0 141,708.0 140,710.0 139,711.0 " stroke="black" stroke-width="1" fill="none" />
<polyline points="131,698.0 137,701.0 " stroke="black" stroke-width="1" fill="none" />
<polyline points="131,699.0 134,700.0 138,702.0 140,704.0 141,706.0 " stroke="black" stroke-width="1" fill="none" />
<polyline points="173,692.0 172,694.0 170,696.0 166,698.0 163,699.0 " stroke="black" stroke-width="1" fill="none" />
<polyline points="169,697.0 163,700.0 " stroke="black" stroke-width="1" fill="none" />
<polyline points="171,687.0 172,688.0 173,690.0 173,692.0 172,695.0 170,697.0 167,699.0 163,701.0 " stroke="black" stroke-width="1" fill="none" />
<polyline points="200,694.0 197,695.0 196,696.0 195,698.0 195,700.0 196,702.0 197,703.0 200,704.0 204,704.0 207,703.0 208,702.0 209,700.0 209,698.0 208,696.0 207,695.0 204,694.0 200,694.0 " stroke="black" stroke-width="1" fill="none" />
<polyline points="197,695.0 196,697.0 196,700.0 197,702.0 198,703.0 200,704.0 " stroke="black" stroke-width="1" fill="none" />
<polyline points="207,703.0 208,701.0 208,698.0 207,696.0 206,695.0 204,694.0 " stroke="black" stroke-width="1" fill="none" />
<polyline points="235,694.0 231,695.0 228,697.0 227,699.0 227,701.0 228,703.0 230,704.0 233,704.0 237,703.0 240,701.0 241,699.0 241,697.0 240,695.0 238,694.0 235,694.0 " stroke="black" stroke-width="1" fill="none" />
<polyline points="240,695.0 235,694.0 " stroke="black" stroke-width="1" fill="none" />
<polyline points="238,694.0 233,695.0 228,697.0 " stroke="black" stroke-width="1" fill="none" />
<polyline points="231,695.0 227,699.0 " stroke="black" stroke-width="1" fill="none" />
<polyline points="228,703.0 233,704.0 " stroke="black" stroke-width="1" fill="none" />
<polyline points="230,704.0 235,703.0 240,701.0 " stroke="black" stroke-width="1" fill="none" />
<polyline points="237,703.0 241,699.0 " stroke="black" stroke-width="1" fill="none" />
<polyline points="265,694.0 262,695.0 260,697.0 259,699.0 259,701.0 260,703.0 262,704.0 264,704.0 267,703.0 269,701.0 270,699.0 270,697.0 269,695.0 267,694.0 265,694.0 " stroke="black" stroke-width="1" fill="none" />
<polyline points="261,697.0 267,694.0 " stroke="black" stroke-width="1" fill="none" />
<polyline points="260,699.0 268,695.0 " stroke="black" stroke-width="1" fill="none" />
<polyline points="259,701.0 269,696.0 " stroke="black" stroke-width="1" fill="none" />
<polyline points="260,702.0 270,697.0 " stroke="black" stroke-width="1" fill="none" />
<polyline points="261,703.0 269,699.0 " stroke="black" stroke-width="1" fill="none" />
<polyline points="262,704.0 268,701.0 " stroke="black" stroke-width="1" fill="none" />
<polyline points="293,688.0 293,711.0 " stroke="black" stroke-width="1" fill="none" />
<polyline points="299,687.0 299,710.0 " stroke="black" stroke-width="1" fill="none" />
<polyline points="291,695.0 301,693.0 " stroke="black" stroke-width="1" fill="none" />
<polyline points="291,696.0 301,694.0 " stroke="black" stroke-width="1" fill="none" />
<polyline points="291,704.0 301,702.0 " stroke="black" stroke-width="1" fill="none" />
<polyline points="291,705.0 301,703.0 " stroke="black" stroke-width="1" fill="none" />
<polyline points="324,687.0 324,705.0 " stroke="black" stroke-width="1" fill="none" />
<polyline points="332,693.0 332,711.0 " stroke="black" stroke-width="1" fill="none" />
<polyline points="324,695.0 332,693.0 " stroke="black" stroke-width="1" fill="none" />
<polyline points="324,696.0 332,694.0 " stroke="black" stroke-width="1" fill="none" />
<polyline points="324,704.0 332,702.0 " stroke="black" stroke-width="1" fill="none" />
<polyline points="324,705.0 332,703.0 " stroke="black" stroke-width="1" fill="none" />
<polyline points="356,683.0 356,704.0 " stroke="black" stroke-width="1" fill="none" />
<polyline points="356,695.0 359,693.0 362,693.0 364,694.0 365,696.0 365,698.0 364,700.0 361,702.0 359,703.0 356,704.0 " stroke="black" stroke-width="1" fill="none" />
<polyline points="356,695.0 359,694.0 362,694.0 364,695.0 " stroke="black" stroke-width="1" fill="none" />
<polyline points="363,694.0 364,696.0 364,698.0 363,700.0 361,702.0 " stroke="black" stroke-width="1" fill="none" />
<polyline points="387,690.0 387,693.0 " stroke="black" stroke-width="1" fill="none" />
<polyline points="407,690.0 407,693.0 " stroke="black" stroke-width="1" fill="none" />
<polyline points="387,690.0 407,690.0 " stroke="black" stroke-width="1" fill="none" />
<polyline points="387,691.0 407,691.0 " stroke="black" stroke-width="1" fill="none" />
<polyline points="387,692.0 407,692.0 " stroke="black" stroke-width="1" fill="none" />
<polyline points="387,693.0 407,693.0 " stroke="black" stroke-width="1" fill="none" />
<polyline points="422,696.0 421,694.0 421,692.0 419,692.0 419,694.0 420,695.0 422,696.0 425,696.0 427,695.0 429,693.0 " stroke="black" stroke-width="1" fill="none" />
<polyline points="420,692.0 420,695.0 " stroke="black" stroke-width="1" fill="none" />
<polyline points="419,693.0 421,693.0 " stroke="black" stroke-width="1" fill="none" />
<polyline points="419,694.0 425,696.0 " stroke="black" stroke-width="1" fill="none" />
<polyline points="422,696.0 427,695.0 " stroke="black" stroke-width="1" fill="none" />
<polyline points="429,693.0 425,706.0 " stroke="black" stroke-width="1" fill="none" />
<polyline points="454,719.0 455,719.0 456,718.0 456,717.0 455,716.0 454,716.0 453,717.0 453,719.0 454,721.0 456,722.0 458,722.0 461,721.0 463,719.0 464,717.0 465,713.0 465,702.0 464,676.0 464,669.0 465,664.0 466,662.0 468,661.0 469,661.0 471,662.0 472,664.0 472,668.0 471,671.0 470,673.0 468,676.0 463,680.0 457,684.0 455,686.0 453,689.0 452,691.0 451,695.0 451,699.0 452,703.0 454,706.0 457,708.0 461,709.0 465,709.0 469,708.0 471,707.0 473,704.0 474,701.0 474,697.0 473,694.0 472,692.0 470,690.0 467,689.0 463,689.0 460,690.0 458,692.0 457,695.0 457,699.0 458,702.0 460,704.0 " stroke="black" stroke-width="1" fill="none" />
<polyline points="454,717.0 454,718.0 455,718.0 455,717.0 454,717.0 " stroke="black" stroke-width="1" fill="none" />
<polyline points="468,676.0 464,680.0 459,684.0 456,687.0 454,690.0 453,692.0 452,695.0 452,699.0 453,703.0 454,705.0 457,708.0 " stroke="black" stroke-width="1" fill="none" />
<polyline points="465,709.0 468,708.0 470,707.0 472,704.0 473,701.0 473,697.0 472,694.0 471,692.0 469,690.0 467,689.0 " stroke="black" stroke-width="1" fill="none" />
<polyline points="" stroke="black" stroke-width="1" fill="none" />
<polyline points="" stroke="black" stroke-width="1" fill="none" />
<polyline points="" stroke="black" stroke-width="1" fill="none" />
<polyline points="71,742.0 69,743.0 68,745.0 68,748.0 69,749.0 70,749.0 71,748.0 71,747.0 70,746.0 69,746.0 68,747.0 " stroke="black" stroke-width="1" fill="none" />
<polyline points="69,747.0 69,748.0 70,748.0 70,747.0 69,747.0 " stroke="black" stroke-width="1" fill="none" />
<polyline points="69,743.0 68,747.0 " stroke="black" stroke-width="1" fill="none" />
<polyline points="68,745.0 69,746.0 " stroke="black" stroke-width="1" fill="none" />
<polyline points="103,744.0 102,745.0 101,745.0 100,744.0 100,743.0 101,742.0 102,742.0 103,743.0 103,746.0 102,748.0 100,749.0 " stroke="black" stroke-width="1" fill="none" />
<polyline points="101,743.0 101,744.0 102,744.0 102,743.0 101,743.0 " stroke="black" stroke-width="1" fill="none" />
<polyline points="102,745.0 103,746.0 " stroke="black" stroke-width="1" fill="none" />
<polyline points="103,744.0 102,748.0 " stroke="black" stroke-width="1" fill="none" />
<polyline points="150,749.0 148,749.0 146,750.0 145,752.0 143,758.0 142,760.0 141,761.0 139,762.0 135,762.0 133,761.0 132,759.0 132,757.0 133,755.0 134,754.0 139,751.0 141,749.0 142,747.0 142,745.0 141,743.0 139,742.0 138,742.0 136,743.0 135,745.0 135,747.0 136,750.0 138,753.0 143,759.0 146,762.0 148,763.0 150,763.0 " stroke="black" stroke-width="1" fill="none" />
<polyline points="150,749.0 150,750.0 148,750.0 146,751.0 " stroke="black" stroke-width="1" fill="none" />
<polyline points="147,750.0 146,752.0 144,758.0 143,760.0 141,762.0 139,763.0 135,763.0 133,762.0 132,761.0 131,759.0 131,757.0 132,755.0 134,753.0 139,750.0 140,749.0 141,747.0 141,745.0 140,743.0 " stroke="black" stroke-width="1" fill="none" />
<polyline points="141,744.0 139,743.0 138,743.0 136,744.0 " stroke="black" stroke-width="1" fill="none" />
<polyline points="137,743.0 136,745.0 136,747.0 137,750.0 139,753.0 144,759.0 146,761.0 148,762.0 150,762.0 150,763.0 " stroke="black" stroke-width="1" fill="none" />
<polyline points="164,753.0 181,753.0 181,754.0 " stroke="black" stroke-width="1" fill="none" />
<polyline points="164,753.0 164,754.0 181,754.0 " stroke="black" stroke-width="1" fill="none" />
<polyline points="198,742.0 196,743.0 195,745.0 195,747.0 196,749.0 198,750.0 200,750.0 202,749.0 203,747.0 203,745.0 202,743.0 200,742.0 198,742.0 " stroke="black" stroke-width="1" fill="none" />
<polyline points="198,742.0 195,745.0 196,749.0 200,750.0 203,747.0 202,743.0 198,742.0 " stroke="black" stroke-width="1" fill="none" />
<polyline points="200,742.0 196,743.0 195,747.0 198,750.0 202,749.0 203,745.0 200,742.0 " stroke="black" stroke-width="1" fill="none" />
<polyline points="" stroke="black" stroke-width="1" fill="none" />
<polyline points="" stroke="black" stroke-width="1" fill="none" />
<polyline points="" stroke="black" stroke-width="1" fill="none" />
<polyline points="329,742.0 327,744.0 326,746.0 326,747.0 327,748.0 328,747.0 327,746.0 " stroke="black" stroke-width="1" fill="none" />
<polyline points="360,744.0 359,743.0 360,742.0 361,743.0 361,744.0 360,746.0 358,748.0 " stroke="black" stroke-width="1" fill="none" />
<polyline points="407,750.0 406,751.0 407,752.0 408,751.0 408,750.0 407,749.0 406,749.0 404,750.0 402,752.0 397,760.0 395,762.0 393,763.0 390,763.0 387,762.0 386,760.0 386,758.0 387,756.0 388,755.0 390,754.0 395,752.0 397,751.0 399,749.0 400,747.0 400,745.0 399,743.0 397,742.0 395,743.0 394,745.0 394,748.0 395,754.0 396,757.0 398,760.0 400,762.0 402,763.0 404,763.0 405,761.0 405,760.0 " stroke="black" stroke-width="1" fill="none" />
<polyline points="390,763.0 388,762.0 387,760.0 387,758.0 388,756.0 389,755.0 395,752.0 " stroke="black" stroke-width="1" fill="none" />
<polyline points="394,748.0 395,753.0 396,756.0 398,759.0 400,761.0 402,762.0 404,762.0 405,761.0 " stroke="black" stroke-width="1" fill="none" />
<polyline points="440,738.0 414,770.0 " stroke="black" stroke-width="1" fill="none" />
<polyline points="458,742.0 458,754.0 " stroke="black" stroke-width="1" fill="none" />
<polyline points="453,745.0 463,751.0 " stroke="black" stroke-width="1" fill="none" />
<polyline points="463,745.0 453,751.0 " stroke="black" stroke-width="1" fill="none" />
<polyline points="484,754.0 502,754.0 " stroke="black" stroke-width="1" fill="none" />
<polyline points="525,745.0 525,763.0 " stroke="black" stroke-width="1" fill="none" />
<polyline points="516,754.0 534,754.0 " stroke="black" stroke-width="1" fill="none" />
<polyline points="548,751.0 566,751.0 " stroke="black" stroke-width="1" fill="none" />
<polyline points="548,757.0 566,757.0 " stroke="black" stroke-width="1" fill="none" />
<polyline points="72,797.0 70,798.0 69,800.0 69,802.0 70,804.0 72,805.0 74,805.0 76,804.0 77,802.0 77,800.0 76,798.0 74,797.0 72,797.0 " stroke="black" stroke-width="1" fill="none" />
<polyline points="101,797.0 101,818.0 " stroke="black" stroke-width="1" fill="none" />
<polyline points="102,797.0 102,818.0 " stroke="black" stroke-width="1" fill="none" />
<polyline points="114,797.0 114,818.0 " stroke="black" stroke-width="1" fill="none" />
<polyline points="115,797.0 115,818.0 " stroke="black" stroke-width="1" fill="none" />
<polyline points="98,797.0 105,797.0 " stroke="black" stroke-width="1" fill="none" />
<polyline points="111,797.0 118,797.0 " stroke="black" stroke-width="1" fill="none" />
<polyline points="114,799.0 102,816.0 " stroke="black" stroke-width="1" fill="none" />
<polyline points="98,818.0 105,818.0 " stroke="black" stroke-width="1" fill="none" />
<polyline points="111,818.0 118,818.0 " stroke="black" stroke-width="1" fill="none" />
<polyline points="104,791.0 104,790.0 103,790.0 103,791.0 104,793.0 106,794.0 110,794.0 112,793.0 113,791.0 " stroke="black" stroke-width="1" fill="none" />
<polyline points="132,806.0 131,804.0 131,808.0 132,806.0 133,805.0 135,804.0 138,804.0 141,805.0 143,807.0 144,810.0 144,812.0 143,815.0 141,817.0 138,818.0 135,818.0 133,817.0 131,815.0 131,814.0 132,813.0 133,814.0 132,815.0 " stroke="black" stroke-width="1" fill="none" />
<polyline points="138,804.0 140,805.0 142,807.0 143,810.0 143,812.0 142,815.0 140,817.0 138,818.0 " stroke="black" stroke-width="1" fill="none" />
<polyline points="137,811.0 143,811.0 " stroke="black" stroke-width="1" fill="none" />
<polyline points="" stroke="black" stroke-width="1" fill="none" />
<polyline points="" stroke="black" stroke-width="1" fill="none" />
<polyline points="" stroke="black" stroke-width="1" fill="none" />
<polyline points="263,797.0 261,798.0 260,800.0 260,803.0 261,804.0 262,804.0 263,803.0 263,802.0 262,801.0 261,801.0 260,802.0 " stroke="black" stroke-width="1" fill="none" />
<polyline points="261,802.0 261,803.0 262,803.0 262,802.0 261,802.0 " stroke="black" stroke-width="1" fill="none" />
<polyline points="261,798.0 260,802.0 " stroke="black" stroke-width="1" fill="none" />
<polyline points="260,800.0 261,801.0 " stroke="black" stroke-width="1" fill="none" />
<polyline points="295,799.0 294,800.0 293,800.0 292,799.0 292,798.0 293,797.0 294,797.0 295,798.0 295,801.0 294,803.0 292,804.0 " stroke="black" stroke-width="1" fill="none" />
<polyline points="293,798.0 293,799.0 294,799.0 294,798.0 293,798.0 " stroke="black" stroke-width="1" fill="none" />
<polyline points="294,800.0 295,801.0 " stroke="black" stroke-width="1" fill="none" />
<polyline points="295,799.0 294,803.0 " stroke="black" stroke-width="1" fill="none" />
<polyline points="340,793.0 322,825.0 323,825.0 " stroke="black" stroke-width="1" fill="none" />
<polyline points="340,793.0 341,793.0 323,825.0 " stroke="black" stroke-width="1" fill="none" />
<polyline points="360,797.0 359,798.0 361,808.0 360,809.0 " stroke="black" stroke-width="1" fill="none" />
<polyline points="360,797.0 360,809.0 " stroke="black" stroke-width="1" fill="none" />
<polyline points="360,797.0 361,798.0 359,808.0 360,809.0 " stroke="black" stroke-width="1" fill="none" />
<polyline points="355,800.0 356,800.0 364,806.0 365,806.0 " stroke="black" stroke-width="1" fill="none" />
<polyline points="355,800.0 365,806.0 " stroke="black" stroke-width="1" fill="none" />
<polyline points="355,800.0 355,801.0 365,805.0 365,806.0 " stroke="black" stroke-width="1" fill="none" />
<polyline points="365,800.0 364,800.0 356,806.0 355,806.0 " stroke="black" stroke-width="1" fill="none" />
<polyline points="365,800.0 355,806.0 " stroke="black" stroke-width="1" fill="none" />
<polyline points="365,800.0 365,801.0 355,805.0 355,806.0 " stroke="black" stroke-width="1" fill="none" />
<polyline points="388,808.0 405,808.0 405,809.0 " stroke="black" stroke-width="1" fill="none" />
<polyline points="388,808.0 388,809.0 405,809.0 " stroke="black" stroke-width="1" fill="none" />
<polyline points="428,800.0 428,817.0 429,817.0 " stroke="black" stroke-width="1" fill="none" />
<polyline points="428,800.0 429,800.0 429,817.0 " stroke="black" stroke-width="1" fill="none" />
<polyline points="420,808.0 437,808.0 437,809.0 " stroke="black" stroke-width="1" fill="none" />
<polyline points="420,808.0 420,809.0 437,809.0 " stroke="black" stroke-width="1" fill="none" />
<polyline points="452,804.0 469,804.0 469,805.0 " stroke="black" stroke-width="1" fill="none" />
<polyline points="452,804.0 452,805.0 469,805.0 " stroke="black" stroke-width="1" fill="none" />
<polyline points="452,812.0 469,812.0 469,813.0 " stroke="black" stroke-width="1" fill="none" />
<polyline points="452,812.0 452,813.0 469,813.0 " stroke="black" stroke-width="1" fill="none" />
<polyline points="486,797.0 484,798.0 483,800.0 483,802.0 484,804.0 486,805.0 488,805.0 490,804.0 491,802.0 491,800.0 490,798.0 488,797.0 486,797.0 " stroke="black" stroke-width="1" fill="none" />
<polyline points="486,797.0 483,800.0 484,804.0 488,805.0 491,802.0 490,798.0 486,797.0 " stroke="black" stroke-width="1" fill="none" />
<polyline points="488,797.0 484,798.0 483,802.0 486,805.0 490,804.0 491,800.0 488,797.0 " stroke="black" stroke-width="1" fill="none" />
<polyline points="" stroke="black" stroke-width="1" fill="none" />
<polyline points="" stroke="black" stroke-width="1" fill="none" />
<polyline points="" stroke="black" stroke-width="1" fill="none" />
<polyline points="106,852.0 104,853.0 103,854.0 102,856.0 102,858.0 103,859.0 104,859.0 105,858.0 105,857.0 104,856.0 103,856.0 " stroke="black" stroke-width="1" fill="none" />
<polyline points="104,853.0 103,855.0 103,856.0 " stroke="black" stroke-width="1" fill="none" />
<polyline points="103,857.0 103,858.0 104,858.0 104,857.0 103,857.0 " stroke="black" stroke-width="1" fill="none" />
<polyline points="137,855.0 136,855.0 135,854.0 135,853.0 136,852.0 137,852.0 138,853.0 138,855.0 137,857.0 136,858.0 134,859.0 " stroke="black" stroke-width="1" fill="none" />
<polyline points="136,853.0 136,854.0 137,854.0 137,853.0 136,853.0 " stroke="black" stroke-width="1" fill="none" />
<polyline points="137,855.0 137,856.0 136,858.0 " stroke="black" stroke-width="1" fill="none" />
<polyline points="184,848.0 158,880.0 159,880.0 " stroke="black" stroke-width="1" fill="none" />
<polyline points="184,848.0 185,848.0 159,880.0 " stroke="black" stroke-width="1" fill="none" />
<polyline points="208,848.0 206,849.0 203,851.0 200,854.0 198,857.0 196,861.0 195,865.0 195,870.0 196,874.0 197,877.0 199,880.0 " stroke="black" stroke-width="1" fill="none" />
<polyline points="201,854.0 199,857.0 197,861.0 196,866.0 196,874.0 " stroke="black" stroke-width="1" fill="none" />
<polyline points="208,848.0 205,850.0 202,853.0 200,856.0 199,858.0 198,861.0 197,865.0 196,874.0 " stroke="black" stroke-width="1" fill="none" />
<polyline points="196,866.0 197,875.0 198,878.0 199,880.0 " stroke="black" stroke-width="1" fill="none" />
<polyline points="233,848.0 235,851.0 236,854.0 237,858.0 237,863.0 236,867.0 234,871.0 232,874.0 229,877.0 226,879.0 224,880.0 " stroke="black" stroke-width="1" fill="none" />
<polyline points="236,854.0 236,862.0 235,867.0 233,871.0 231,874.0 " stroke="black" stroke-width="1" fill="none" />
<polyline points="233,848.0 234,850.0 235,853.0 236,862.0 " stroke="black" stroke-width="1" fill="none" />
<polyline points="236,854.0 235,863.0 234,867.0 233,870.0 232,872.0 230,875.0 227,878.0 224,880.0 " stroke="black" stroke-width="1" fill="none" />
<polyline points="260,863.0 277,863.0 277,864.0 " stroke="black" stroke-width="1" fill="none" />
<polyline points="260,863.0 260,864.0 277,864.0 " stroke="black" stroke-width="1" fill="none" />
<polyline points="300,855.0 300,872.0 301,872.0 " stroke="black" stroke-width="1" fill="none" />
<polyline points="300,855.0 301,855.0 301,872.0 " stroke="black" stroke-width="1" fill="none" />
<polyline points="292,863.0 309,863.0 309,864.0 " stroke="black" stroke-width="1" fill="none" />
<polyline points="292,863.0 292,864.0 309,864.0 " stroke="black" stroke-width="1" fill="none" />
<polyline points="324,859.0 341,859.0 341,860.0 " stroke="black" stroke-width="1" fill="none" />
<polyline points="324,859.0 324,860.0 341,860.0 " stroke="black" stroke-width="1" fill="none" />
<polyline points="324,867.0 341,867.0 341,868.0 " stroke="black" stroke-width="1" fill="none" />
<polyline points="324,867.0 324,868.0 341,868.0 " stroke="black" stroke-width="1" fill="none" />
<polyline points="360,852.0 359,853.0 357,859.0 " stroke="black" stroke-width="1" fill="none" />
<polyline points="360,853.0 357,859.0 " stroke="black" stroke-width="1" fill="none" />
<polyline points="360,852.0 361,853.0 357,859.0 " stroke="black" stroke-width="1" fill="none" />
<polyline points="392,852.0 391,853.0 389,859.0 " stroke="black" stroke-width="1" fill="none" />
<polyline points="392,853.0 389,859.0 " stroke="black" stroke-width="1" fill="none" />
<polyline points="392,852.0 393,853.0 389,859.0 " stroke="black" stroke-width="1" fill="none" />
<polyline points="402,852.0 401,853.0 399,859.0 " stroke="black" stroke-width="1" fill="none" />
<polyline points="402,853.0 399,859.0 " stroke="black" stroke-width="1" fill="none" />
<polyline points="402,852.0 403,853.0 399,859.0 " stroke="black" stroke-width="1" fill="none" />
<polyline points="424,852.0 422,853.0 421,855.0 421,857.0 422,859.0 424,860.0 426,860.0 428,859.0 429,857.0 429,855.0 428,853.0 426,852.0 424,852.0 " stroke="black" stroke-width="1" fill="none" />
<polyline points="424,852.0 421,855.0 422,859.0 426,860.0 429,857.0 428,853.0 424,852.0 " stroke="black" stroke-width="1" fill="none" />
<polyline points="426,852.0 422,853.0 421,857.0 424,860.0 428,859.0 429,855.0 426,852.0 " stroke="black" stroke-width="1" fill="none" />
<polyline points="456,859.0 454,860.0 451,862.0 451,864.0 452,867.0 " stroke="black" stroke-width="1" fill="none" />
<polyline points="452,862.0 452,864.0 453,866.0 " stroke="black" stroke-width="1" fill="none" />
<polyline points="454,860.0 453,861.0 453,864.0 454,866.0 " stroke="black" stroke-width="1" fill="none" />
<polyline points="454,860.0 456,861.0 458,861.0 460,860.0 461,859.0 461,857.0 460,856.0 458,856.0 " stroke="black" stroke-width="1" fill="none" />
<polyline points="455,860.0 457,860.0 " stroke="black" stroke-width="1" fill="none" />
<polyline points="456,859.0 458,860.0 460,860.0 " stroke="black" stroke-width="1" fill="none" />
<polyline points="452,867.0 460,864.0 461,867.0 461,869.0 460,871.0 456,873.0 " stroke="black" stroke-width="1" fill="none" />
<polyline points="459,865.0 460,867.0 460,870.0 459,871.0 " stroke="black" stroke-width="1" fill="none" />
<polyline points="458,865.0 459,867.0 459,870.0 458,872.0 " stroke="black" stroke-width="1" fill="none" />
<polyline points="458,872.0 456,871.0 453,871.0 450,873.0 " stroke="black" stroke-width="1" fill="none" />
<polyline points="457,872.0 455,872.0 " stroke="black" stroke-width="1" fill="none" />
<polyline points="456,873.0 454,872.0 452,872.0 450,873.0 " stroke="black" stroke-width="1" fill="none" />
<polyline points="492,852.0 491,853.0 489,853.0 487,852.0 485,852.0 484,854.0 484,859.0 483,861.0 482,862.0 " stroke="black" stroke-width="1" fill="none" />
<polyline points="490,854.0 488,854.0 486,853.0 485,853.0 " stroke="black" stroke-width="1" fill="none" />
<polyline points="492,852.0 491,854.0 490,855.0 488,855.0 486,854.0 485,854.0 484,855.0 " stroke="black" stroke-width="1" fill="none" />
<polyline points="484,857.0 486,862.0 " stroke="black" stroke-width="1" fill="none" />
<polyline points="484,862.0 484,866.0 485,878.0 " stroke="black" stroke-width="1" fill="none" />
<polyline points="485,861.0 484,861.0 485,860.0 485,873.0 " stroke="black" stroke-width="1" fill="none" />
<polyline points="486,862.0 486,866.0 485,878.0 " stroke="black" stroke-width="1" fill="none" />
<polyline points="482,862.0 484,862.0 " stroke="black" stroke-width="1" fill="none" />
<polyline points="486,862.0 491,859.0 493,860.0 494,862.0 494,864.0 493,866.0 489,868.0 " stroke="black" stroke-width="1" fill="none" />
<polyline points="491,860.0 493,861.0 " stroke="black" stroke-width="1" fill="none" />
<polyline points="490,860.0 492,861.0 493,863.0 493,864.0 492,866.0 491,867.0 " stroke="black" stroke-width="1" fill="none" />
<polyline points="491,867.0 493,868.0 494,870.0 494,873.0 493,875.0 491,877.0 488,878.0 " stroke="black" stroke-width="1" fill="none" />
<polyline points="491,868.0 493,869.0 " stroke="black" stroke-width="1" fill="none" />
<polyline points="489,868.0 490,868.0 492,869.0 493,871.0 493,874.0 492,876.0 " stroke="black" stroke-width="1" fill="none" />
<polyline points="518,855.0 517,858.0 516,860.0 515,861.0 513,862.0 " stroke="black" stroke-width="1" fill="none" />
<polyline points="518,855.0 518,870.0 519,871.0 517,873.0 " stroke="black" stroke-width="1" fill="none" />
<polyline points="517,861.0 516,861.0 517,860.0 517,870.0 516,871.0 517,872.0 518,871.0 517,870.0 " stroke="black" stroke-width="1" fill="none" />
<polyline points="513,862.0 516,862.0 516,870.0 515,871.0 517,873.0 " stroke="black" stroke-width="1" fill="none" />
<polyline points="518,862.0 523,859.0 525,860.0 526,862.0 526,864.0 525,866.0 521,868.0 " stroke="black" stroke-width="1" fill="none" />
<polyline points="523,860.0 525,861.0 " stroke="black" stroke-width="1" fill="none" />
<polyline points="522,860.0 524,861.0 525,863.0 525,864.0 524,866.0 523,867.0 " stroke="black" stroke-width="1" fill="none" />
<polyline points="523,867.0 525,868.0 526,870.0 526,873.0 525,875.0 523,877.0 520,878.0 " stroke="black" stroke-width="1" fill="none" />
<polyline points="523,868.0 525,869.0 " stroke="black" stroke-width="1" fill="none" />
<polyline points="521,868.0 522,868.0 524,869.0 525,871.0 525,874.0 524,876.0 " stroke="black" stroke-width="1" fill="none" />
<polyline points="" stroke="black" stroke-width="1" fill="none" />
<polyline points="" stroke="black" stroke-width="1" fill="none" />
<polyline points="" stroke="black" stroke-width="1" fill="none" />
<polyline points="136,907.0 134,908.0 133,910.0 133,912.0 134,914.0 136,912.0 134,910.0 134,908.0 " stroke="black" stroke-width="1" fill="none" />
<polyline points="134,911.0 134,913.0 135,912.0 134,911.0 " stroke="black" stroke-width="1" fill="none" />
<polyline points="166,913.0 166,911.0 164,909.0 166,907.0 167,909.0 167,911.0 166,913.0 164,914.0 " stroke="black" stroke-width="1" fill="none" />
<polyline points="166,908.0 165,909.0 166,910.0 166,908.0 " stroke="black" stroke-width="1" fill="none" />
<polyline points="212,903.0 194,935.0 195,935.0 " stroke="black" stroke-width="1" fill="none" />
<polyline points="212,903.0 213,903.0 195,935.0 " stroke="black" stroke-width="1" fill="none" />
<polyline points="234,903.0 232,905.0 230,908.0 228,912.0 227,917.0 227,921.0 228,926.0 230,930.0 232,933.0 234,935.0 " stroke="black" stroke-width="1" fill="none" />
<polyline points="230,909.0 229,912.0 228,916.0 228,922.0 229,926.0 230,929.0 " stroke="black" stroke-width="1" fill="none" />
<polyline points="232,905.0 231,907.0 230,910.0 229,916.0 229,922.0 230,928.0 231,931.0 232,933.0 " stroke="black" stroke-width="1" fill="none" />
<polyline points="260,903.0 262,905.0 264,908.0 266,912.0 267,917.0 267,921.0 266,926.0 264,930.0 262,933.0 260,935.0 " stroke="black" stroke-width="1" fill="none" />
<polyline points="264,909.0 265,912.0 266,916.0 266,922.0 265,926.0 264,929.0 " stroke="black" stroke-width="1" fill="none" />
<polyline points="262,905.0 263,907.0 264,910.0 265,916.0 265,922.0 264,928.0 263,931.0 262,933.0 " stroke="black" stroke-width="1" fill="none" />
<polyline points="296,907.0 295,908.0 297,918.0 296,919.0 " stroke="black" stroke-width="1" fill="none" />
<polyline points="296,907.0 296,919.0 " stroke="black" stroke-width="1" fill="none" />
<polyline points="296,907.0 297,908.0 295,918.0 296,919.0 " stroke="black" stroke-width="1" fill="none" />
<polyline points="291,910.0 292,910.0 300,916.0 301,916.0 " stroke="black" stroke-width="1" fill="none" />
<polyline points="291,910.0 301,916.0 " stroke="black" stroke-width="1" fill="none" />
<polyline points="291,910.0 291,911.0 301,915.0 301,916.0 " stroke="black" stroke-width="1" fill="none" />
<polyline points="301,910.0 300,910.0 292,916.0 291,916.0 " stroke="black" stroke-width="1" fill="none" />
<polyline points="301,910.0 291,916.0 " stroke="black" stroke-width="1" fill="none" />
<polyline points="301,910.0 301,911.0 291,915.0 291,916.0 " stroke="black" stroke-width="1" fill="none" />
<polyline points="324,918.0 341,918.0 341,919.0 " stroke="black" stroke-width="1" fill="none" />
<polyline points="324,918.0 324,919.0 341,919.0 " stroke="black" stroke-width="1" fill="none" />
<polyline points="364,910.0 364,927.0 365,927.0 " stroke="black" stroke-width="1" fill="none" />
<polyline points="364,910.0 365,910.0 365,927.0 " stroke="black" stroke-width="1" fill="none" />
<polyline points="356,918.0 373,918.0 373,919.0 " stroke="black" stroke-width="1" fill="none" />
<polyline points="356,918.0 356,919.0 373,919.0 " stroke="black" stroke-width="1" fill="none" />
<polyline points="388,914.0 405,914.0 405,915.0 " stroke="black" stroke-width="1" fill="none" />
<polyline points="388,914.0 388,915.0 405,915.0 " stroke="black" stroke-width="1" fill="none" />
<polyline points="388,922.0 405,922.0 405,923.0 " stroke="black" stroke-width="1" fill="none" />
<polyline points="388,922.0 388,923.0 405,923.0 " stroke="black" stroke-width="1" fill="none" />
<polyline points="421,907.0 420,908.0 420,914.0 " stroke="black" stroke-width="1" fill="none" />
<polyline points="421,908.0 420,914.0 " stroke="black" stroke-width="1" fill="none" />
<polyline points="421,907.0 422,908.0 420,914.0 " stroke="black" stroke-width="1" fill="none" />
<polyline points="454,907.0 452,908.0 451,910.0 451,912.0 452,914.0 454,915.0 456,915.0 458,914.0 459,912.0 459,910.0 458,908.0 456,907.0 454,907.0 " stroke="black" stroke-width="1" fill="none" />
<polyline points="454,907.0 451,910.0 452,914.0 456,915.0 459,912.0 458,908.0 454,907.0 " stroke="black" stroke-width="1" fill="none" />
<polyline points="456,907.0 452,908.0 451,912.0 454,915.0 458,914.0 459,910.0 456,907.0 " stroke="black" stroke-width="1" fill="none" />
<text x="370" y="955.625" font-size="smaller">Max Height 82 Width 82</text>
</svg>
