<svg width="608" height="440" xmlns="http://www.w3.org/2000/svg">
<style>.small { font: italic 13px sans-serif; }</style>
<rect x="0" y="0" width="608" height="417" fill="lightyellow" stroke-width="4" stroke="black" />
<line x1="5" y1="55" x2="603" y2="55" stroke="lightgrey" stroke-width="1" />
<line x1="55" y1="5" x2="55" y2="414" stroke="lightgrey" stroke-width="1" />
<text x="16.0" y="31" class="small">hex</text>
<text x="20" y="102" font-size="large">2x</text>
<text x="20" y="157" font-size="large">3x</text>
<text x="20" y="212" font-size="large">4x</text>
<text x="20" y="267" font-size="large">5x</text>
<text x="20" y="322" font-size="large">6x</text>
<text x="20" y="377" font-size="large">7x</text>
<text x="72" y="35" font-size="large">0</text>
<text x="104" y="35" font-size="large">1</text>
<text x="136" y="35" font-size="large">2</text>
<text x="168" y="35" font-size="large">3</text>
<text x="200" y="35" font-size="large">4</text>
<text x="232" y="35" font-size="large">5</text>
<text x="264" y="35" font-size="large">6</text>
<text x="296" y="35" font-size="large">7</text>
<text x="328" y="35" font-size="large">8</text>
<text x="360" y="35" font-size="large">9</text>
<text x="392" y="35" font-size="large">A</text>
<text x="424" y="35" font-size="large">B</text>
<text x="456" y="35" font-size="large">C</text>
<text x="488" y="35" font-size="large">D</text>
<text x="520" y="35" font-size="large">E</text>
<text x="552" y="35" font-size="large">F</text>
<polyline points="" stroke="black" stroke-width="1" fill="none" />
<polyline points="101,82.0 101,96.0 " stroke="black" stroke-width="1" fill="none" />
<polyline points="101,101.0 100,102.0 101,103.0 102,102.0 101,101.0 " stroke="black" stroke-width="1" fill="none" />
<polyline points="132,82.0 132,89.0 " stroke="black" stroke-width="1" fill="none" />
<polyline points="140,82.0 140,89.0 " stroke="black" stroke-width="1" fill="none" />
<polyline points="171,78.0 164,110.0 " stroke="black" stroke-width="1" fill="none" />
<polyline points="177,78.0 170,110.0 " stroke="black" stroke-width="1" fill="none" />
<polyline points="164,91.0 178,91.0 " stroke="black" stroke-width="1" fill="none" />
<polyline points="163,97.0 177,97.0 " stroke="black" stroke-width="1" fill="none" />
<polyline points="200,78.0 200,107.0 " stroke="black" stroke-width="1" fill="none" />
<polyline points="204,78.0 204,107.0 " stroke="black" stroke-width="1" fill="none" />
<polyline points="209,85.0 207,83.0 204,82.0 200,82.0 197,83.0 195,85.0 195,87.0 196,89.0 197,90.0 199,91.0 205,93.0 207,94.0 208,95.0 209,97.0 209,100.0 207,102.0 204,103.0 200,103.0 197,102.0 195,100.0 " stroke="black" stroke-width="1" fill="none" />
<polyline points="245,82.0 227,103.0 " stroke="black" stroke-width="1" fill="none" />
<polyline points="232,82.0 234,84.0 234,86.0 233,88.0 231,89.0 229,89.0 227,87.0 227,85.0 228,83.0 230,82.0 232,82.0 234,83.0 237,84.0 240,84.0 243,83.0 245,82.0 " stroke="black" stroke-width="1" fill="none" />
<polyline points="241,96.0 239,97.0 238,99.0 238,101.0 240,103.0 242,103.0 244,102.0 245,100.0 245,98.0 243,96.0 241,96.0 " stroke="black" stroke-width="1" fill="none" />
<polyline points="279,91.0 279,90.0 278,89.0 277,89.0 276,90.0 275,92.0 273,97.0 271,100.0 269,102.0 267,103.0 263,103.0 261,102.0 260,101.0 259,99.0 259,97.0 260,95.0 261,94.0 268,90.0 269,89.0 270,87.0 270,85.0 269,83.0 267,82.0 265,83.0 264,85.0 264,87.0 265,90.0 267,93.0 272,100.0 274,102.0 276,103.0 278,103.0 279,102.0 279,101.0 " stroke="black" stroke-width="1" fill="none" />
<polyline points="290,89.0 290,93.0 " stroke="black" stroke-width="1" fill="none" />
<polyline points="331,78.0 329,80.0 327,83.0 325,87.0 324,92.0 324,96.0 325,101.0 327,105.0 329,108.0 331,110.0 " stroke="black" stroke-width="1" fill="none" />
<polyline points="355,78.0 357,80.0 359,83.0 361,87.0 362,92.0 362,96.0 361,101.0 359,105.0 357,108.0 355,110.0 " stroke="black" stroke-width="1" fill="none" />
<polyline points="392,88.0 392,100.0 " stroke="black" stroke-width="1" fill="none" />
<polyline points="387,91.0 397,97.0 " stroke="black" stroke-width="1" fill="none" />
<polyline points="397,91.0 387,97.0 " stroke="black" stroke-width="1" fill="none" />
<polyline points="429,85.0 429,103.0 " stroke="black" stroke-width="1" fill="none" />
<polyline points="420,94.0 438,94.0 " stroke="black" stroke-width="1" fill="none" />
<polyline points="453,99.0 452,100.0 451,99.0 452,98.0 453,99.0 453,101.0 451,103.0 " stroke="black" stroke-width="1" fill="none" />
<polyline points="484,94.0 502,94.0 " stroke="black" stroke-width="1" fill="none" />
<polyline points="516,98.0 515,99.0 516,100.0 517,99.0 516,98.0 " stroke="black" stroke-width="1" fill="none" />
<polyline points="564,78.0 546,110.0 " stroke="black" stroke-width="1" fill="none" />
<polyline points="73,137.0 70,138.0 68,141.0 67,146.0 67,149.0 68,154.0 70,157.0 73,158.0 75,158.0 78,157.0 80,154.0 81,149.0 81,146.0 80,141.0 78,138.0 75,137.0 73,137.0 " stroke="black" stroke-width="1" fill="none" />
<polyline points="102,141.0 104,140.0 107,137.0 107,158.0 " stroke="black" stroke-width="1" fill="none" />
<polyline points="132,142.0 132,141.0 133,139.0 134,138.0 136,137.0 140,137.0 142,138.0 143,139.0 144,141.0 144,143.0 143,145.0 141,148.0 131,158.0 145,158.0 " stroke="black" stroke-width="1" fill="none" />
<polyline points="165,137.0 176,137.0 170,145.0 173,145.0 175,146.0 176,147.0 177,150.0 177,152.0 176,155.0 174,157.0 171,158.0 168,158.0 165,157.0 164,156.0 163,154.0 " stroke="black" stroke-width="1" fill="none" />
<polyline points="205,137.0 195,151.0 210,151.0 " stroke="black" stroke-width="1" fill="none" />
<polyline points="205,137.0 205,158.0 " stroke="black" stroke-width="1" fill="none" />
<polyline points="239,137.0 229,137.0 228,146.0 229,145.0 232,144.0 235,144.0 238,145.0 240,147.0 241,150.0 241,152.0 240,155.0 238,157.0 235,158.0 232,158.0 229,157.0 228,156.0 227,154.0 " stroke="black" stroke-width="1" fill="none" />
<polyline points="272,140.0 271,138.0 268,137.0 266,137.0 263,138.0 261,141.0 260,146.0 260,151.0 261,155.0 263,157.0 266,158.0 267,158.0 270,157.0 272,155.0 273,152.0 273,151.0 272,148.0 270,146.0 267,145.0 266,145.0 263,146.0 261,148.0 260,151.0 " stroke="black" stroke-width="1" fill="none" />
<polyline points="305,137.0 295,158.0 " stroke="black" stroke-width="1" fill="none" />
<polyline points="291,137.0 305,137.0 " stroke="black" stroke-width="1" fill="none" />
<polyline points="328,137.0 325,138.0 324,140.0 324,142.0 325,144.0 327,145.0 331,146.0 334,147.0 336,149.0 337,151.0 337,154.0 336,156.0 335,157.0 332,158.0 328,158.0 325,157.0 324,156.0 323,154.0 323,151.0 324,149.0 326,147.0 329,146.0 333,145.0 335,144.0 336,142.0 336,140.0 335,138.0 332,137.0 328,137.0 " stroke="black" stroke-width="1" fill="none" />
<polyline points="368,144.0 367,147.0 365,149.0 362,150.0 361,150.0 358,149.0 356,147.0 355,144.0 355,143.0 356,140.0 358,138.0 361,137.0 362,137.0 365,138.0 367,140.0 368,144.0 368,149.0 367,154.0 365,157.0 362,158.0 360,158.0 357,157.0 356,155.0 " stroke="black" stroke-width="1" fill="none" />
<polyline points="388,146.0 387,147.0 388,148.0 389,147.0 388,146.0 " stroke="black" stroke-width="1" fill="none" />
<polyline points="388,153.0 387,154.0 388,155.0 389,154.0 388,153.0 " stroke="black" stroke-width="1" fill="none" />
<polyline points="420,146.0 419,147.0 420,148.0 421,147.0 420,146.0 " stroke="black" stroke-width="1" fill="none" />
<polyline points="421,154.0 420,155.0 419,154.0 420,153.0 421,154.0 421,156.0 419,158.0 " stroke="black" stroke-width="1" fill="none" />
<polyline points="468,140.0 452,149.0 468,158.0 " stroke="black" stroke-width="1" fill="none" />
<polyline points="484,146.0 502,146.0 " stroke="black" stroke-width="1" fill="none" />
<polyline points="484,152.0 502,152.0 " stroke="black" stroke-width="1" fill="none" />
<polyline points="516,140.0 532,149.0 516,158.0 " stroke="black" stroke-width="1" fill="none" />
<polyline points="547,142.0 547,141.0 548,139.0 549,138.0 551,137.0 555,137.0 557,138.0 558,139.0 559,141.0 559,143.0 558,145.0 557,146.0 553,148.0 553,151.0 " stroke="black" stroke-width="1" fill="none" />
<polyline points="553,156.0 552,157.0 553,158.0 554,157.0 553,156.0 " stroke="black" stroke-width="1" fill="none" />
<polyline points="82,200.0 81,198.0 79,197.0 76,197.0 74,198.0 73,199.0 72,202.0 72,205.0 73,207.0 75,208.0 78,208.0 80,207.0 81,205.0 " stroke="black" stroke-width="1" fill="none" />
<polyline points="76,197.0 74,199.0 73,202.0 73,205.0 74,207.0 75,208.0 " stroke="black" stroke-width="1" fill="none" />
<polyline points="82,197.0 81,205.0 81,207.0 83,208.0 85,208.0 87,206.0 88,203.0 88,201.0 87,198.0 86,196.0 84,194.0 82,193.0 79,192.0 76,192.0 73,193.0 71,194.0 69,196.0 68,198.0 67,201.0 67,204.0 68,207.0 69,209.0 71,211.0 73,212.0 76,213.0 79,213.0 82,212.0 84,211.0 85,210.0 " stroke="black" stroke-width="1" fill="none" />
<polyline points="83,197.0 82,205.0 82,207.0 83,208.0 " stroke="black" stroke-width="1" fill="none" />
<polyline points="96,213.0 98,212.0 101,209.0 104,205.0 108,198.0 111,192.0 111,213.0 110,210.0 108,207.0 106,205.0 103,203.0 101,203.0 100,204.0 100,206.0 101,208.0 103,210.0 106,212.0 109,213.0 114,213.0 " stroke="black" stroke-width="1" fill="none" />
<polyline points="141,194.0 142,195.0 142,198.0 141,202.0 140,205.0 139,207.0 137,210.0 135,212.0 133,213.0 132,213.0 131,212.0 131,209.0 132,204.0 133,201.0 134,199.0 136,196.0 138,194.0 140,193.0 143,192.0 146,192.0 148,193.0 149,195.0 149,197.0 148,199.0 147,200.0 145,201.0 142,202.0 " stroke="black" stroke-width="1" fill="none" />
<polyline points="141,202.0 142,202.0 145,203.0 146,204.0 147,206.0 147,209.0 146,211.0 145,212.0 143,213.0 140,213.0 138,212.0 137,210.0 " stroke="black" stroke-width="1" fill="none" />
<polyline points="172,198.0 172,199.0 173,200.0 175,200.0 177,199.0 178,197.0 178,195.0 177,193.0 175,192.0 172,192.0 169,193.0 167,195.0 165,198.0 164,200.0 163,204.0 163,208.0 164,211.0 165,212.0 167,213.0 169,213.0 172,212.0 174,210.0 175,208.0 " stroke="black" stroke-width="1" fill="none" />
<polyline points="205,192.0 203,193.0 202,195.0 201,199.0 200,205.0 199,208.0 198,210.0 196,212.0 194,213.0 192,213.0 191,212.0 191,210.0 192,209.0 194,209.0 196,210.0 198,212.0 201,213.0 204,213.0 207,212.0 209,210.0 211,206.0 212,201.0 212,197.0 211,194.0 210,193.0 208,192.0 205,192.0 203,194.0 203,196.0 204,199.0 206,202.0 208,204.0 211,206.0 213,207.0 " stroke="black" stroke-width="1" fill="none" />
<polyline points="238,196.0 238,197.0 239,198.0 241,198.0 242,197.0 242,195.0 241,193.0 238,192.0 234,192.0 231,193.0 230,195.0 230,198.0 231,200.0 232,201.0 235,202.0 232,202.0 229,203.0 228,204.0 227,206.0 227,209.0 228,211.0 229,212.0 232,213.0 235,213.0 238,212.0 240,210.0 241,208.0 " stroke="black" stroke-width="1" fill="none" />
<polyline points="266,198.0 264,198.0 262,197.0 261,195.0 262,193.0 265,192.0 268,192.0 272,193.0 275,193.0 277,192.0 " stroke="black" stroke-width="1" fill="none" />
<polyline points="272,193.0 270,200.0 268,206.0 266,210.0 264,212.0 262,213.0 260,213.0 258,212.0 257,210.0 257,208.0 258,207.0 260,207.0 262,208.0 " stroke="black" stroke-width="1" fill="none" />
<polyline points="265,202.0 274,202.0 " stroke="black" stroke-width="1" fill="none" />
<polyline points="288,213.0 290,212.0 294,208.0 297,203.0 298,200.0 299,196.0 299,193.0 298,192.0 297,192.0 296,193.0 295,195.0 295,198.0 296,200.0 298,201.0 302,201.0 305,200.0 306,199.0 307,197.0 307,203.0 306,208.0 305,210.0 303,212.0 300,213.0 296,213.0 293,212.0 291,210.0 290,208.0 290,206.0 " stroke="black" stroke-width="1" fill="none" />
<polyline points="327,199.0 325,198.0 324,196.0 324,195.0 325,193.0 327,192.0 328,192.0 330,193.0 331,195.0 331,197.0 330,201.0 328,207.0 326,211.0 324,213.0 322,213.0 321,212.0 321,210.0 " stroke="black" stroke-width="1" fill="none" />
<polyline points="327,204.0 336,201.0 338,200.0 341,198.0 343,196.0 344,194.0 344,193.0 343,192.0 342,192.0 340,194.0 338,198.0 336,204.0 335,209.0 335,212.0 336,213.0 337,213.0 339,212.0 340,211.0 342,208.0 " stroke="black" stroke-width="1" fill="none" />
<polyline points="366,208.0 364,206.0 362,203.0 361,201.0 360,198.0 360,195.0 361,193.0 362,192.0 364,192.0 365,193.0 366,195.0 366,198.0 365,203.0 363,208.0 362,210.0 360,212.0 358,213.0 356,213.0 354,212.0 353,210.0 353,208.0 354,207.0 356,207.0 358,208.0 " stroke="black" stroke-width="1" fill="none" />
<polyline points="394,216.0 392,213.0 390,208.0 389,202.0 389,196.0 390,193.0 392,192.0 394,192.0 395,193.0 396,196.0 396,199.0 395,204.0 392,213.0 390,219.0 389,222.0 388,224.0 386,225.0 385,224.0 385,222.0 386,219.0 388,216.0 390,214.0 393,212.0 397,210.0 " stroke="black" stroke-width="1" fill="none" />
<polyline points="423,199.0 421,198.0 420,196.0 420,195.0 421,193.0 423,192.0 424,192.0 426,193.0 427,195.0 427,197.0 426,201.0 424,207.0 422,211.0 420,213.0 418,213.0 417,212.0 417,210.0 " stroke="black" stroke-width="1" fill="none" />
<polyline points="440,195.0 440,193.0 439,192.0 438,192.0 436,193.0 434,195.0 432,198.0 430,200.0 428,201.0 426,201.0 " stroke="black" stroke-width="1" fill="none" />
<polyline points="428,201.0 429,203.0 429,210.0 430,212.0 431,213.0 432,213.0 434,212.0 435,211.0 437,208.0 " stroke="black" stroke-width="1" fill="none" />
<polyline points="452,204.0 454,204.0 458,203.0 461,201.0 463,199.0 464,197.0 464,194.0 463,192.0 461,192.0 460,193.0 459,195.0 458,200.0 457,205.0 456,208.0 455,210.0 453,212.0 451,213.0 449,213.0 448,212.0 448,210.0 449,209.0 451,209.0 453,210.0 456,212.0 459,213.0 461,213.0 464,212.0 466,210.0 " stroke="black" stroke-width="1" fill="none" />
<polyline points="485,199.0 483,198.0 482,196.0 482,195.0 483,193.0 485,192.0 486,192.0 488,193.0 489,195.0 489,197.0 488,202.0 487,206.0 485,213.0 " stroke="black" stroke-width="1" fill="none" />
<polyline points="487,206.0 490,198.0 492,194.0 493,193.0 495,192.0 496,192.0 498,193.0 499,195.0 499,197.0 498,202.0 497,206.0 495,213.0 " stroke="black" stroke-width="1" fill="none" />
<polyline points="497,206.0 500,198.0 502,194.0 503,193.0 505,192.0 506,192.0 508,193.0 509,195.0 509,197.0 508,202.0 506,209.0 506,212.0 507,213.0 508,213.0 510,212.0 511,211.0 513,208.0 " stroke="black" stroke-width="1" fill="none" />
<polyline points="517,199.0 515,198.0 514,196.0 514,195.0 515,193.0 517,192.0 518,192.0 520,193.0 521,195.0 521,197.0 520,202.0 519,206.0 517,213.0 " stroke="black" stroke-width="1" fill="none" />
<polyline points="519,206.0 522,198.0 524,194.0 525,193.0 527,192.0 529,192.0 531,193.0 532,195.0 532,197.0 531,202.0 529,209.0 529,212.0 530,213.0 531,213.0 533,212.0 534,211.0 536,208.0 " stroke="black" stroke-width="1" fill="none" />
<polyline points="556,192.0 553,193.0 551,195.0 549,198.0 548,200.0 547,204.0 547,208.0 548,211.0 549,212.0 551,213.0 553,213.0 556,212.0 558,210.0 560,207.0 561,205.0 562,201.0 562,197.0 561,194.0 560,193.0 558,192.0 556,192.0 554,194.0 554,197.0 555,200.0 557,203.0 559,205.0 562,207.0 564,208.0 " stroke="black" stroke-width="1" fill="none" />
<polyline points="77,249.0 78,250.0 78,253.0 77,257.0 76,260.0 75,262.0 73,265.0 71,267.0 69,268.0 68,268.0 67,267.0 67,264.0 68,259.0 69,256.0 70,254.0 72,251.0 74,249.0 76,248.0 79,247.0 84,247.0 86,248.0 87,249.0 88,251.0 88,254.0 87,256.0 86,257.0 84,258.0 81,258.0 79,257.0 78,256.0 " stroke="black" stroke-width="1" fill="none" />
<polyline points="109,253.0 108,255.0 107,256.0 105,257.0 103,257.0 102,255.0 102,253.0 103,250.0 105,248.0 108,247.0 111,247.0 113,248.0 114,250.0 114,254.0 113,257.0 111,260.0 107,264.0 104,266.0 102,267.0 99,268.0 97,268.0 96,267.0 96,265.0 97,264.0 99,264.0 101,265.0 104,267.0 107,268.0 110,268.0 113,267.0 115,265.0 " stroke="black" stroke-width="1" fill="none" />
<polyline points="141,249.0 142,250.0 142,253.0 141,257.0 140,260.0 139,262.0 137,265.0 135,267.0 133,268.0 132,268.0 131,267.0 131,264.0 132,259.0 133,256.0 134,254.0 136,251.0 138,249.0 140,248.0 143,247.0 147,247.0 149,248.0 150,249.0 151,251.0 151,254.0 150,256.0 149,257.0 147,258.0 144,258.0 141,257.0 142,258.0 143,260.0 143,265.0 144,267.0 146,268.0 148,267.0 149,266.0 151,263.0 " stroke="black" stroke-width="1" fill="none" />
<polyline points="160,268.0 162,267.0 164,265.0 167,261.0 169,258.0 171,254.0 172,251.0 172,248.0 171,247.0 170,247.0 169,248.0 168,250.0 168,252.0 169,254.0 171,256.0 174,258.0 176,260.0 177,262.0 177,264.0 176,266.0 175,267.0 172,268.0 168,268.0 165,267.0 163,265.0 162,263.0 162,261.0 " stroke="black" stroke-width="1" fill="none" />
<polyline points="202,253.0 200,253.0 198,252.0 197,250.0 198,248.0 201,247.0 204,247.0 208,248.0 211,248.0 213,247.0 " stroke="black" stroke-width="1" fill="none" />
<polyline points="208,248.0 206,255.0 204,261.0 202,265.0 200,267.0 198,268.0 196,268.0 194,267.0 193,265.0 193,263.0 194,262.0 196,262.0 198,263.0 " stroke="black" stroke-width="1" fill="none" />
<polyline points="229,254.0 227,253.0 226,251.0 226,250.0 227,248.0 229,247.0 230,247.0 232,248.0 233,250.0 233,252.0 232,256.0 231,259.0 230,263.0 230,265.0 231,267.0 233,268.0 235,268.0 237,267.0 238,266.0 240,262.0 243,254.0 245,247.0 " stroke="black" stroke-width="1" fill="none" />
<polyline points="243,254.0 242,258.0 241,264.0 241,267.0 242,268.0 243,268.0 245,267.0 246,266.0 248,263.0 " stroke="black" stroke-width="1" fill="none" />
<polyline points="261,254.0 259,253.0 258,251.0 258,250.0 259,248.0 261,247.0 262,247.0 264,248.0 265,250.0 265,252.0 264,256.0 263,259.0 262,263.0 262,266.0 263,268.0 265,268.0 267,267.0 270,264.0 272,261.0 274,257.0 275,254.0 276,250.0 276,248.0 275,247.0 274,247.0 273,248.0 272,250.0 272,252.0 273,255.0 275,257.0 277,258.0 " stroke="black" stroke-width="1" fill="none" />
<polyline points="293,254.0 291,253.0 290,251.0 290,250.0 291,248.0 293,247.0 294,247.0 296,248.0 297,250.0 297,253.0 296,268.0 " stroke="black" stroke-width="1" fill="none" />
<polyline points="306,247.0 296,268.0 " stroke="black" stroke-width="1" fill="none" />
<polyline points="306,247.0 304,268.0 " stroke="black" stroke-width="1" fill="none" />
<polyline points="318,247.0 316,248.0 313,251.0 310,255.0 307,261.0 304,268.0 " stroke="black" stroke-width="1" fill="none" />
<polyline points="328,253.0 326,253.0 325,252.0 325,250.0 326,248.0 328,247.0 330,247.0 332,248.0 333,250.0 333,253.0 331,262.0 331,265.0 332,267.0 334,268.0 336,268.0 338,267.0 339,265.0 339,263.0 338,262.0 336,262.0 " stroke="black" stroke-width="1" fill="none" />
<polyline points="343,250.0 343,248.0 342,247.0 340,247.0 338,248.0 336,250.0 334,253.0 330,262.0 328,265.0 326,267.0 324,268.0 322,268.0 321,267.0 321,265.0 " stroke="black" stroke-width="1" fill="none" />
<polyline points="357,254.0 355,253.0 354,251.0 354,250.0 355,248.0 357,247.0 358,247.0 360,248.0 361,250.0 361,252.0 360,256.0 359,259.0 358,263.0 358,265.0 359,267.0 360,268.0 362,268.0 364,267.0 366,265.0 368,262.0 369,260.0 371,254.0 " stroke="black" stroke-width="1" fill="none" />
<polyline points="373,247.0 371,254.0 368,264.0 366,270.0 364,275.0 362,279.0 360,280.0 359,279.0 359,277.0 360,274.0 362,271.0 365,268.0 368,266.0 373,263.0 " stroke="black" stroke-width="1" fill="none" />
<polyline points="397,253.0 396,255.0 395,256.0 393,257.0 391,257.0 390,255.0 390,253.0 391,250.0 393,248.0 396,247.0 399,247.0 401,248.0 402,250.0 402,254.0 401,257.0 399,261.0 396,264.0 392,267.0 390,268.0 387,268.0 386,267.0 386,265.0 387,264.0 390,264.0 392,265.0 393,266.0 394,268.0 394,271.0 393,274.0 392,276.0 390,279.0 388,280.0 387,279.0 387,277.0 388,274.0 390,271.0 393,268.0 396,266.0 402,263.0 " stroke="black" stroke-width="1" fill="none" />
<polyline points="420,243.0 420,275.0 " stroke="black" stroke-width="1" fill="none" />
<polyline points="421,243.0 421,275.0 " stroke="black" stroke-width="1" fill="none" />
<polyline points="420,243.0 427,243.0 " stroke="black" stroke-width="1" fill="none" />
<polyline points="420,275.0 427,275.0 " stroke="black" stroke-width="1" fill="none" />
<polyline points="448,247.0 462,271.0 " stroke="black" stroke-width="1" fill="none" />
<polyline points="489,243.0 489,275.0 " stroke="black" stroke-width="1" fill="none" />
<polyline points="490,243.0 490,275.0 " stroke="black" stroke-width="1" fill="none" />
<polyline points="483,243.0 490,243.0 " stroke="black" stroke-width="1" fill="none" />
<polyline points="483,275.0 490,275.0 " stroke="black" stroke-width="1" fill="none" />
<polyline points="520,245.0 512,259.0 " stroke="black" stroke-width="1" fill="none" />
<polyline points="520,245.0 528,259.0 " stroke="black" stroke-width="1" fill="none" />
<polyline points="544,275.0 564,275.0 " stroke="black" stroke-width="1" fill="none" />
<polyline points="69,307.0 67,309.0 67,311.0 68,312.0 69,311.0 68,310.0 67,311.0 " stroke="black" stroke-width="1" fill="none" />
<polyline points="105,317.0 104,315.0 102,314.0 100,314.0 98,315.0 97,316.0 96,318.0 96,320.0 97,322.0 99,323.0 101,323.0 103,322.0 104,320.0 106,314.0 105,319.0 105,322.0 106,323.0 107,323.0 109,322.0 110,321.0 112,318.0 " stroke="black" stroke-width="1" fill="none" />
<polyline points="128,318.0 130,315.0 133,310.0 134,308.0 135,305.0 135,303.0 134,302.0 132,303.0 131,305.0 130,309.0 129,316.0 129,322.0 130,323.0 131,323.0 133,322.0 135,320.0 136,317.0 136,314.0 137,318.0 138,319.0 140,319.0 142,318.0 " stroke="black" stroke-width="1" fill="none" />
<polyline points="167,316.0 167,315.0 166,314.0 164,314.0 162,315.0 161,316.0 160,318.0 160,320.0 161,322.0 163,323.0 166,323.0 169,321.0 171,318.0 " stroke="black" stroke-width="1" fill="none" />
<polyline points="201,317.0 200,315.0 198,314.0 196,314.0 194,315.0 193,316.0 192,318.0 192,320.0 193,322.0 195,323.0 197,323.0 199,322.0 200,320.0 206,302.0 " stroke="black" stroke-width="1" fill="none" />
<polyline points="202,314.0 201,319.0 201,322.0 202,323.0 203,323.0 205,322.0 206,321.0 208,318.0 " stroke="black" stroke-width="1" fill="none" />
<polyline points="225,321.0 227,320.0 228,319.0 229,317.0 229,315.0 228,314.0 227,314.0 225,315.0 224,317.0 224,320.0 225,322.0 227,323.0 229,323.0 231,322.0 232,321.0 234,318.0 " stroke="black" stroke-width="1" fill="none" />
<polyline points="256,318.0 260,313.0 262,310.0 263,308.0 264,305.0 264,303.0 263,302.0 261,303.0 260,305.0 258,313.0 255,322.0 252,329.0 251,332.0 251,334.0 252,335.0 254,334.0 255,331.0 256,322.0 257,323.0 259,323.0 261,322.0 262,321.0 264,318.0 " stroke="black" stroke-width="1" fill="none" />
<polyline points="297,317.0 296,315.0 294,314.0 292,314.0 290,315.0 289,316.0 288,318.0 288,320.0 289,322.0 291,323.0 293,323.0 295,322.0 296,321.0 " stroke="black" stroke-width="1" fill="none" />
<polyline points="298,314.0 296,321.0 292,332.0 291,334.0 289,335.0 288,334.0 288,332.0 289,329.0 292,326.0 295,324.0 297,323.0 300,321.0 303,318.0 " stroke="black" stroke-width="1" fill="none" />
<polyline points="320,318.0 322,315.0 325,310.0 326,308.0 327,305.0 327,303.0 326,302.0 324,303.0 323,305.0 322,309.0 321,315.0 320,323.0 " stroke="black" stroke-width="1" fill="none" />
<polyline points="320,323.0 321,320.0 322,318.0 324,315.0 326,314.0 328,314.0 329,315.0 329,317.0 328,320.0 328,322.0 329,323.0 330,323.0 332,322.0 333,321.0 335,318.0 " stroke="black" stroke-width="1" fill="none" />
<polyline points="355,309.0 355,310.0 356,310.0 356,309.0 355,309.0 " stroke="black" stroke-width="1" fill="none" />
<polyline points="352,318.0 354,314.0 352,320.0 352,322.0 353,323.0 354,323.0 356,322.0 357,321.0 359,318.0 " stroke="black" stroke-width="1" fill="none" />
<polyline points="387,309.0 387,310.0 388,310.0 388,309.0 387,309.0 " stroke="black" stroke-width="1" fill="none" />
<polyline points="384,318.0 386,314.0 380,332.0 379,334.0 377,335.0 376,334.0 376,332.0 377,329.0 380,326.0 383,324.0 385,323.0 388,321.0 391,318.0 " stroke="black" stroke-width="1" fill="none" />
<polyline points="416,318.0 418,315.0 421,310.0 422,308.0 423,305.0 423,303.0 422,302.0 420,303.0 419,305.0 418,309.0 417,315.0 416,323.0 " stroke="black" stroke-width="1" fill="none" />
<polyline points="416,323.0 417,320.0 418,318.0 420,315.0 422,314.0 424,314.0 425,315.0 425,317.0 423,318.0 420,318.0 " stroke="black" stroke-width="1" fill="none" />
<polyline points="420,318.0 422,319.0 423,322.0 424,323.0 425,323.0 427,322.0 428,321.0 430,318.0 " stroke="black" stroke-width="1" fill="none" />
<polyline points="448,318.0 450,315.0 453,310.0 454,308.0 455,305.0 455,303.0 454,302.0 452,303.0 451,305.0 450,309.0 449,316.0 449,322.0 450,323.0 451,323.0 453,322.0 454,321.0 456,318.0 " stroke="black" stroke-width="1" fill="none" />
<polyline points="480,318.0 482,315.0 484,314.0 485,315.0 485,316.0 484,320.0 483,323.0 " stroke="black" stroke-width="1" fill="none" />
<polyline points="484,320.0 485,318.0 487,315.0 489,314.0 491,314.0 492,315.0 492,316.0 491,320.0 490,323.0 " stroke="black" stroke-width="1" fill="none" />
<polyline points="491,320.0 492,318.0 494,315.0 496,314.0 498,314.0 499,315.0 499,317.0 498,320.0 498,322.0 499,323.0 500,323.0 502,322.0 503,321.0 505,318.0 " stroke="black" stroke-width="1" fill="none" />
<polyline points="512,318.0 514,315.0 516,314.0 517,315.0 517,316.0 516,320.0 515,323.0 " stroke="black" stroke-width="1" fill="none" />
<polyline points="516,320.0 517,318.0 519,315.0 521,314.0 523,314.0 524,315.0 524,317.0 523,320.0 523,322.0 524,323.0 525,323.0 527,322.0 528,321.0 530,318.0 " stroke="black" stroke-width="1" fill="none" />
<polyline points="550,314.0 548,314.0 546,315.0 545,316.0 544,318.0 544,320.0 545,322.0 547,323.0 549,323.0 551,322.0 552,321.0 553,319.0 553,317.0 552,315.0 550,314.0 549,315.0 549,317.0 550,319.0 552,320.0 555,320.0 557,319.0 558,318.0 " stroke="black" stroke-width="1" fill="none" />
<polyline points="64,373.0 66,370.0 67,368.0 66,372.0 60,390.0 " stroke="black" stroke-width="1" fill="none" />
<polyline points="66,372.0 67,370.0 69,369.0 71,369.0 73,370.0 74,372.0 74,374.0 73,376.0 72,377.0 70,378.0 " stroke="black" stroke-width="1" fill="none" />
<polyline points="66,377.0 68,378.0 71,378.0 74,377.0 76,376.0 79,373.0 " stroke="black" stroke-width="1" fill="none" />
<polyline points="105,372.0 104,370.0 102,369.0 100,369.0 98,370.0 97,371.0 96,373.0 96,375.0 97,377.0 99,378.0 101,378.0 103,377.0 " stroke="black" stroke-width="1" fill="none" />
<polyline points="106,369.0 105,372.0 103,377.0 100,384.0 99,387.0 99,389.0 100,390.0 102,389.0 103,386.0 103,379.0 105,378.0 108,376.0 111,373.0 " stroke="black" stroke-width="1" fill="none" />
<polyline points="128,373.0 130,370.0 131,368.0 131,370.0 134,370.0 135,371.0 135,373.0 134,376.0 134,377.0 135,378.0 136,378.0 138,377.0 139,376.0 141,373.0 " stroke="black" stroke-width="1" fill="none" />
<polyline points="160,373.0 162,370.0 163,368.0 163,370.0 165,373.0 166,375.0 166,377.0 164,378.0 " stroke="black" stroke-width="1" fill="none" />
<polyline points="160,377.0 162,378.0 166,378.0 168,377.0 169,376.0 171,373.0 " stroke="black" stroke-width="1" fill="none" />
<polyline points="192,373.0 194,370.0 196,366.0 " stroke="black" stroke-width="1" fill="none" />
<polyline points="199,357.0 193,375.0 193,377.0 194,378.0 196,378.0 198,377.0 199,376.0 201,373.0 " stroke="black" stroke-width="1" fill="none" />
<polyline points="193,365.0 200,365.0 " stroke="black" stroke-width="1" fill="none" />
<polyline points="224,373.0 226,369.0 224,375.0 224,377.0 225,378.0 227,378.0 229,377.0 231,375.0 233,372.0 " stroke="black" stroke-width="1" fill="none" />
<polyline points="234,369.0 232,375.0 232,377.0 233,378.0 234,378.0 236,377.0 237,376.0 239,373.0 " stroke="black" stroke-width="1" fill="none" />
<polyline points="256,373.0 258,369.0 257,374.0 257,377.0 258,378.0 259,378.0 262,377.0 264,375.0 265,372.0 265,369.0 " stroke="black" stroke-width="1" fill="none" />
<polyline points="265,369.0 266,373.0 267,374.0 269,374.0 271,373.0 " stroke="black" stroke-width="1" fill="none" />
<polyline points="291,369.0 289,371.0 288,374.0 288,376.0 289,378.0 291,378.0 293,377.0 295,375.0 " stroke="black" stroke-width="1" fill="none" />
<polyline points="297,369.0 295,375.0 295,377.0 296,378.0 298,378.0 300,377.0 302,375.0 303,372.0 303,369.0 " stroke="black" stroke-width="1" fill="none" />
<polyline points="303,369.0 304,373.0 305,374.0 307,374.0 309,373.0 " stroke="black" stroke-width="1" fill="none" />
<polyline points="320,373.0 322,370.0 324,369.0 326,369.0 327,370.0 327,377.0 328,378.0 331,378.0 334,376.0 336,373.0 " stroke="black" stroke-width="1" fill="none" />
<polyline points="333,370.0 332,369.0 330,369.0 329,370.0 325,377.0 324,378.0 322,378.0 321,377.0 " stroke="black" stroke-width="1" fill="none" />
<polyline points="352,373.0 354,369.0 352,375.0 352,377.0 353,378.0 355,378.0 357,377.0 359,375.0 361,372.0 " stroke="black" stroke-width="1" fill="none" />
<polyline points="362,369.0 356,387.0 355,389.0 353,390.0 352,389.0 352,387.0 353,384.0 356,381.0 359,379.0 361,378.0 364,376.0 367,373.0 " stroke="black" stroke-width="1" fill="none" />
<polyline points="384,373.0 386,370.0 388,369.0 390,369.0 392,371.0 392,373.0 391,375.0 389,377.0 386,378.0 388,379.0 389,381.0 389,384.0 388,387.0 387,389.0 385,390.0 384,389.0 384,387.0 385,384.0 388,381.0 391,379.0 395,376.0 398,373.0 " stroke="black" stroke-width="1" fill="none" />
<polyline points="425,353.0 423,354.0 422,355.0 421,357.0 421,359.0 422,361.0 423,362.0 424,364.0 424,366.0 422,368.0 " stroke="black" stroke-width="1" fill="none" />
<polyline points="423,354.0 422,356.0 422,358.0 423,360.0 424,361.0 425,363.0 425,365.0 424,367.0 420,369.0 424,371.0 425,373.0 425,375.0 424,377.0 423,378.0 422,380.0 422,382.0 423,384.0 " stroke="black" stroke-width="1" fill="none" />
<polyline points="422,370.0 424,372.0 424,374.0 423,376.0 422,377.0 421,379.0 421,381.0 422,383.0 423,384.0 425,385.0 " stroke="black" stroke-width="1" fill="none" />
<polyline points="452,353.0 452,385.0 " stroke="black" stroke-width="1" fill="none" />
<polyline points="485,353.0 487,354.0 488,355.0 489,357.0 489,359.0 488,361.0 487,362.0 486,364.0 486,366.0 488,368.0 " stroke="black" stroke-width="1" fill="none" />
<polyline points="487,354.0 488,356.0 488,358.0 487,360.0 486,361.0 485,363.0 485,365.0 486,367.0 490,369.0 486,371.0 485,373.0 485,375.0 486,377.0 487,378.0 488,380.0 488,382.0 487,384.0 " stroke="black" stroke-width="1" fill="none" />
<polyline points="488,370.0 486,372.0 486,374.0 487,376.0 488,377.0 489,379.0 489,381.0 488,383.0 487,384.0 485,385.0 " stroke="black" stroke-width="1" fill="none" />
<polyline points="515,372.0 515,370.0 516,367.0 518,366.0 520,366.0 522,367.0 526,370.0 528,371.0 530,371.0 532,370.0 533,368.0 " stroke="black" stroke-width="1" fill="none" />
<polyline points="515,370.0 516,368.0 518,367.0 520,367.0 522,368.0 526,371.0 528,372.0 530,372.0 532,371.0 533,368.0 533,366.0 " stroke="black" stroke-width="1" fill="none" />
<polyline points="544,357.0 544,378.0 545,378.0 545,357.0 546,357.0 546,378.0 547,378.0 547,357.0 548,357.0 548,378.0 549,378.0 549,357.0 550,357.0 550,378.0 551,378.0 551,357.0 552,357.0 552,378.0 553,378.0 553,357.0 554,357.0 554,378.0 555,378.0 555,357.0 556,357.0 556,378.0 557,378.0 557,357.0 558,357.0 558,378.0 559,378.0 559,357.0 560,357.0 560,378.0 " stroke="black" stroke-width="1" fill="none" />
<text x="370" y="405.625" font-size="smaller">Max Height 37 Width 37</text>
</svg>
