<svg width="608" height="440" xmlns="http://www.w3.org/2000/svg">
<style>.small { font: italic 13px sans-serif; }</style>
<rect x="0" y="0" width="608" height="417" fill="lightyellow" stroke-width="4" stroke="black" />
<line x1="5" y1="55" x2="603" y2="55" stroke="lightgrey" stroke-width="1" />
<line x1="55" y1="5" x2="55" y2="414" stroke="lightgrey" stroke-width="1" />
<text x="16.0" y="31" class="small">hex</text>
<text x="20" y="102" font-size="large">2x</text>
<text x="20" y="157" font-size="large">3x</text>
<text x="20" y="212" font-size="large">4x</text>
<text x="20" y="267" font-size="large">5x</text>
<text x="20" y="322" font-size="large">6x</text>
<text x="20" y="377" font-size="large">7x</text>
<text x="72" y="35" font-size="large">0</text>
<text x="104" y="35" font-size="large">1</text>
<text x="136" y="35" font-size="large">2</text>
<text x="168" y="35" font-size="large">3</text>
<text x="200" y="35" font-size="large">4</text>
<text x="232" y="35" font-size="large">5</text>
<text x="264" y="35" font-size="large">6</text>
<text x="296" y="35" font-size="large">7</text>
<text x="328" y="35" font-size="large">8</text>
<text x="360" y="35" font-size="large">9</text>
<text x="392" y="35" font-size="large">A</text>
<text x="424" y="35" font-size="large">B</text>
<text x="456" y="35" font-size="large">C</text>
<text x="488" y="35" font-size="large">D</text>
<text x="520" y="35" font-size="large">E</text>
<text x="552" y="35" font-size="large">F</text>
<polyline points="" stroke="black" stroke-width="1" fill="none" />
<polyline points="108,86.0 108,103.0 " stroke="black" stroke-width="1" fill="none" />
<polyline points="100,94.0 116,94.0 " stroke="black" stroke-width="1" fill="none" />
<polyline points="100,103.0 116,103.0 " stroke="black" stroke-width="1" fill="none" />
<polyline points="140,86.0 140,103.0 " stroke="black" stroke-width="1" fill="none" />
<polyline points="132,86.0 148,86.0 " stroke="black" stroke-width="1" fill="none" />
<polyline points="132,94.0 148,94.0 " stroke="black" stroke-width="1" fill="none" />
<polyline points="164,87.0 178,101.0 " stroke="black" stroke-width="1" fill="none" />
<polyline points="178,87.0 164,101.0 " stroke="black" stroke-width="1" fill="none" />
<polyline points="194,93.0 194,94.0 195,94.0 195,93.0 194,93.0 " stroke="black" stroke-width="1" fill="none" />
<polyline points="245,82.0 227,103.0 " stroke="black" stroke-width="1" fill="none" />
<polyline points="232,82.0 234,84.0 234,86.0 233,88.0 231,89.0 229,89.0 227,87.0 227,85.0 228,83.0 230,82.0 232,82.0 234,83.0 237,84.0 240,84.0 243,83.0 245,82.0 " stroke="black" stroke-width="1" fill="none" />
<polyline points="241,96.0 239,97.0 238,99.0 238,101.0 240,103.0 242,103.0 244,102.0 245,100.0 245,98.0 243,96.0 241,96.0 " stroke="black" stroke-width="1" fill="none" />
<polyline points="276,82.0 260,89.0 276,96.0 " stroke="black" stroke-width="1" fill="none" />
<polyline points="260,98.0 276,98.0 " stroke="black" stroke-width="1" fill="none" />
<polyline points="260,103.0 276,103.0 " stroke="black" stroke-width="1" fill="none" />
<polyline points="292,82.0 308,89.0 292,96.0 " stroke="black" stroke-width="1" fill="none" />
<polyline points="292,98.0 308,98.0 " stroke="black" stroke-width="1" fill="none" />
<polyline points="292,103.0 308,103.0 " stroke="black" stroke-width="1" fill="none" />
<polyline points="331,78.0 329,80.0 327,83.0 325,87.0 324,92.0 324,96.0 325,101.0 327,105.0 329,108.0 331,110.0 " stroke="black" stroke-width="1" fill="none" />
<polyline points="329,80.0 327,84.0 326,87.0 325,92.0 325,96.0 326,101.0 327,104.0 329,108.0 " stroke="black" stroke-width="1" fill="none" />
<polyline points="355,78.0 357,80.0 359,83.0 361,87.0 362,92.0 362,96.0 361,101.0 359,105.0 357,108.0 355,110.0 " stroke="black" stroke-width="1" fill="none" />
<polyline points="357,80.0 359,84.0 360,87.0 361,92.0 361,96.0 360,101.0 359,104.0 357,108.0 " stroke="black" stroke-width="1" fill="none" />
<polyline points="392,88.0 392,100.0 " stroke="black" stroke-width="1" fill="none" />
<polyline points="387,91.0 397,97.0 " stroke="black" stroke-width="1" fill="none" />
<polyline points="397,91.0 387,97.0 " stroke="black" stroke-width="1" fill="none" />
<polyline points="429,85.0 429,103.0 " stroke="black" stroke-width="1" fill="none" />
<polyline points="420,94.0 438,94.0 " stroke="black" stroke-width="1" fill="none" />
<polyline points="454,102.0 453,103.0 452,102.0 453,101.0 454,102.0 454,104.0 453,106.0 452,107.0 " stroke="black" stroke-width="1" fill="none" />
<polyline points="484,94.0 502,94.0 " stroke="black" stroke-width="1" fill="none" />
<polyline points="517,101.0 516,102.0 517,103.0 518,102.0 517,101.0 " stroke="black" stroke-width="1" fill="none" />
<polyline points="564,78.0 546,110.0 " stroke="black" stroke-width="1" fill="none" />
<polyline points="73,137.0 70,138.0 68,141.0 67,146.0 67,149.0 68,154.0 70,157.0 73,158.0 75,158.0 78,157.0 80,154.0 81,149.0 81,146.0 80,141.0 78,138.0 75,137.0 73,137.0 " stroke="black" stroke-width="1" fill="none" />
<polyline points="102,141.0 104,140.0 107,137.0 107,158.0 " stroke="black" stroke-width="1" fill="none" />
<polyline points="132,142.0 132,141.0 133,139.0 134,138.0 136,137.0 140,137.0 142,138.0 143,139.0 144,141.0 144,143.0 143,145.0 141,148.0 131,158.0 145,158.0 " stroke="black" stroke-width="1" fill="none" />
<polyline points="165,137.0 176,137.0 170,145.0 173,145.0 175,146.0 176,147.0 177,150.0 177,152.0 176,155.0 174,157.0 171,158.0 168,158.0 165,157.0 164,156.0 163,154.0 " stroke="black" stroke-width="1" fill="none" />
<polyline points="205,137.0 195,151.0 210,151.0 " stroke="black" stroke-width="1" fill="none" />
<polyline points="205,137.0 205,158.0 " stroke="black" stroke-width="1" fill="none" />
<polyline points="239,137.0 229,137.0 228,146.0 229,145.0 232,144.0 235,144.0 238,145.0 240,147.0 241,150.0 241,152.0 240,155.0 238,157.0 235,158.0 232,158.0 229,157.0 228,156.0 227,154.0 " stroke="black" stroke-width="1" fill="none" />
<polyline points="272,140.0 271,138.0 268,137.0 266,137.0 263,138.0 261,141.0 260,146.0 260,151.0 261,155.0 263,157.0 266,158.0 267,158.0 270,157.0 272,155.0 273,152.0 273,151.0 272,148.0 270,146.0 267,145.0 266,145.0 263,146.0 261,148.0 260,151.0 " stroke="black" stroke-width="1" fill="none" />
<polyline points="305,137.0 295,158.0 " stroke="black" stroke-width="1" fill="none" />
<polyline points="291,137.0 305,137.0 " stroke="black" stroke-width="1" fill="none" />
<polyline points="328,137.0 325,138.0 324,140.0 324,142.0 325,144.0 327,145.0 331,146.0 334,147.0 336,149.0 337,151.0 337,154.0 336,156.0 335,157.0 332,158.0 328,158.0 325,157.0 324,156.0 323,154.0 323,151.0 324,149.0 326,147.0 329,146.0 333,145.0 335,144.0 336,142.0 336,140.0 335,138.0 332,137.0 328,137.0 " stroke="black" stroke-width="1" fill="none" />
<polyline points="368,144.0 367,147.0 365,149.0 362,150.0 361,150.0 358,149.0 356,147.0 355,144.0 355,143.0 356,140.0 358,138.0 361,137.0 362,137.0 365,138.0 367,140.0 368,144.0 368,149.0 367,154.0 365,157.0 362,158.0 360,158.0 357,157.0 356,155.0 " stroke="black" stroke-width="1" fill="none" />
<polyline points="391,133.0 391,165.0 " stroke="black" stroke-width="1" fill="none" />
<polyline points="392,133.0 392,165.0 " stroke="black" stroke-width="1" fill="none" />
<polyline points="410,133.0 410,165.0 " stroke="black" stroke-width="1" fill="none" />
<polyline points="411,133.0 411,165.0 " stroke="black" stroke-width="1" fill="none" />
<polyline points="387,133.0 415,133.0 " stroke="black" stroke-width="1" fill="none" />
<polyline points="387,165.0 396,165.0 " stroke="black" stroke-width="1" fill="none" />
<polyline points="406,165.0 415,165.0 " stroke="black" stroke-width="1" fill="none" />
<polyline points="421,133.0 431,147.0 420,165.0 " stroke="black" stroke-width="1" fill="none" />
<polyline points="420,133.0 430,147.0 " stroke="black" stroke-width="1" fill="none" />
<polyline points="419,133.0 430,148.0 " stroke="black" stroke-width="1" fill="none" />
<polyline points="419,133.0 442,133.0 444,140.0 441,133.0 " stroke="black" stroke-width="1" fill="none" />
<polyline points="421,164.0 442,164.0 " stroke="black" stroke-width="1" fill="none" />
<polyline points="420,165.0 442,165.0 444,158.0 441,165.0 " stroke="black" stroke-width="1" fill="none" />
<polyline points="468,140.0 452,149.0 468,158.0 " stroke="black" stroke-width="1" fill="none" />
<polyline points="484,146.0 502,146.0 " stroke="black" stroke-width="1" fill="none" />
<polyline points="484,152.0 502,152.0 " stroke="black" stroke-width="1" fill="none" />
<polyline points="516,140.0 532,149.0 516,158.0 " stroke="black" stroke-width="1" fill="none" />
<polyline points="564,140.0 550,158.0 " stroke="black" stroke-width="1" fill="none" />
<polyline points="548,146.0 566,146.0 " stroke="black" stroke-width="1" fill="none" />
<polyline points="548,152.0 566,152.0 " stroke="black" stroke-width="1" fill="none" />
<polyline points="68,199.0 86,199.0 " stroke="black" stroke-width="1" fill="none" />
<polyline points="68,204.0 86,204.0 " stroke="black" stroke-width="1" fill="none" />
<polyline points="68,209.0 86,209.0 " stroke="black" stroke-width="1" fill="none" />
<polyline points="105,192.0 97,213.0 " stroke="black" stroke-width="1" fill="none" />
<polyline points="105,192.0 113,213.0 " stroke="black" stroke-width="1" fill="none" />
<polyline points="100,206.0 110,206.0 " stroke="black" stroke-width="1" fill="none" />
<polyline points="132,192.0 132,213.0 " stroke="black" stroke-width="1" fill="none" />
<polyline points="132,192.0 141,192.0 144,193.0 145,194.0 146,196.0 146,198.0 145,200.0 144,201.0 141,202.0 " stroke="black" stroke-width="1" fill="none" />
<polyline points="132,202.0 141,202.0 144,203.0 145,204.0 146,206.0 146,209.0 145,211.0 144,212.0 141,213.0 132,213.0 " stroke="black" stroke-width="1" fill="none" />
<polyline points="178,197.0 177,195.0 175,193.0 173,192.0 169,192.0 167,193.0 165,195.0 164,197.0 163,200.0 163,205.0 164,208.0 165,210.0 167,212.0 169,213.0 173,213.0 175,212.0 177,210.0 178,208.0 " stroke="black" stroke-width="1" fill="none" />
<polyline points="196,192.0 196,213.0 " stroke="black" stroke-width="1" fill="none" />
<polyline points="196,192.0 203,192.0 206,193.0 208,195.0 209,197.0 210,200.0 210,205.0 209,208.0 208,210.0 206,212.0 203,213.0 196,213.0 " stroke="black" stroke-width="1" fill="none" />
<polyline points="228,192.0 228,213.0 " stroke="black" stroke-width="1" fill="none" />
<polyline points="228,192.0 241,192.0 " stroke="black" stroke-width="1" fill="none" />
<polyline points="228,202.0 236,202.0 " stroke="black" stroke-width="1" fill="none" />
<polyline points="228,213.0 241,213.0 " stroke="black" stroke-width="1" fill="none" />
<polyline points="260,192.0 260,213.0 " stroke="black" stroke-width="1" fill="none" />
<polyline points="260,192.0 273,192.0 " stroke="black" stroke-width="1" fill="none" />
<polyline points="260,202.0 268,202.0 " stroke="black" stroke-width="1" fill="none" />
<polyline points="306,197.0 305,195.0 303,193.0 301,192.0 297,192.0 295,193.0 293,195.0 292,197.0 291,200.0 291,205.0 292,208.0 293,210.0 295,212.0 297,213.0 301,213.0 303,212.0 305,210.0 306,208.0 306,205.0 " stroke="black" stroke-width="1" fill="none" />
<polyline points="301,205.0 306,205.0 " stroke="black" stroke-width="1" fill="none" />
<polyline points="324,192.0 324,213.0 " stroke="black" stroke-width="1" fill="none" />
<polyline points="338,192.0 338,213.0 " stroke="black" stroke-width="1" fill="none" />
<polyline points="324,202.0 338,202.0 " stroke="black" stroke-width="1" fill="none" />
<polyline points="356,192.0 356,213.0 " stroke="black" stroke-width="1" fill="none" />
<polyline points="396,192.0 396,208.0 395,211.0 394,212.0 392,213.0 390,213.0 388,212.0 387,211.0 386,208.0 386,206.0 " stroke="black" stroke-width="1" fill="none" />
<polyline points="420,192.0 420,213.0 " stroke="black" stroke-width="1" fill="none" />
<polyline points="434,192.0 420,206.0 " stroke="black" stroke-width="1" fill="none" />
<polyline points="425,201.0 434,213.0 " stroke="black" stroke-width="1" fill="none" />
<polyline points="452,192.0 452,213.0 " stroke="black" stroke-width="1" fill="none" />
<polyline points="452,213.0 464,213.0 " stroke="black" stroke-width="1" fill="none" />
<polyline points="484,192.0 484,213.0 " stroke="black" stroke-width="1" fill="none" />
<polyline points="484,192.0 492,213.0 " stroke="black" stroke-width="1" fill="none" />
<polyline points="500,192.0 492,213.0 " stroke="black" stroke-width="1" fill="none" />
<polyline points="500,192.0 500,213.0 " stroke="black" stroke-width="1" fill="none" />
<polyline points="516,192.0 516,213.0 " stroke="black" stroke-width="1" fill="none" />
<polyline points="516,192.0 530,213.0 " stroke="black" stroke-width="1" fill="none" />
<polyline points="530,192.0 530,213.0 " stroke="black" stroke-width="1" fill="none" />
<polyline points="553,192.0 551,193.0 549,195.0 548,197.0 547,200.0 547,205.0 548,208.0 549,210.0 551,212.0 553,213.0 557,213.0 559,212.0 561,210.0 562,208.0 563,205.0 563,200.0 562,197.0 561,195.0 559,193.0 557,192.0 553,192.0 " stroke="black" stroke-width="1" fill="none" />
<polyline points="68,247.0 68,268.0 " stroke="black" stroke-width="1" fill="none" />
<polyline points="68,247.0 77,247.0 80,248.0 81,249.0 82,251.0 82,254.0 81,256.0 80,257.0 77,258.0 68,258.0 " stroke="black" stroke-width="1" fill="none" />
<polyline points="105,247.0 103,248.0 101,250.0 100,252.0 99,255.0 99,260.0 100,263.0 101,265.0 103,267.0 105,268.0 109,268.0 111,267.0 113,265.0 114,263.0 115,260.0 115,255.0 114,252.0 113,250.0 111,248.0 109,247.0 105,247.0 " stroke="black" stroke-width="1" fill="none" />
<polyline points="108,264.0 114,270.0 " stroke="black" stroke-width="1" fill="none" />
<polyline points="132,247.0 132,268.0 " stroke="black" stroke-width="1" fill="none" />
<polyline points="132,247.0 141,247.0 144,248.0 145,249.0 146,251.0 146,253.0 145,255.0 144,256.0 141,257.0 132,257.0 " stroke="black" stroke-width="1" fill="none" />
<polyline points="139,257.0 146,268.0 " stroke="black" stroke-width="1" fill="none" />
<polyline points="177,250.0 175,248.0 172,247.0 168,247.0 165,248.0 163,250.0 163,252.0 164,254.0 165,255.0 167,256.0 173,258.0 175,259.0 176,260.0 177,262.0 177,265.0 175,267.0 172,268.0 168,268.0 165,267.0 163,265.0 " stroke="black" stroke-width="1" fill="none" />
<polyline points="200,247.0 200,268.0 " stroke="black" stroke-width="1" fill="none" />
<polyline points="193,247.0 207,247.0 " stroke="black" stroke-width="1" fill="none" />
<polyline points="228,247.0 228,262.0 229,265.0 231,267.0 234,268.0 236,268.0 239,267.0 241,265.0 242,262.0 242,247.0 " stroke="black" stroke-width="1" fill="none" />
<polyline points="257,247.0 265,268.0 " stroke="black" stroke-width="1" fill="none" />
<polyline points="273,247.0 265,268.0 " stroke="black" stroke-width="1" fill="none" />
<polyline points="290,247.0 295,268.0 " stroke="black" stroke-width="1" fill="none" />
<polyline points="300,247.0 295,268.0 " stroke="black" stroke-width="1" fill="none" />
<polyline points="300,247.0 305,268.0 " stroke="black" stroke-width="1" fill="none" />
<polyline points="310,247.0 305,268.0 " stroke="black" stroke-width="1" fill="none" />
<polyline points="323,247.0 337,268.0 " stroke="black" stroke-width="1" fill="none" />
<polyline points="337,247.0 323,268.0 " stroke="black" stroke-width="1" fill="none" />
<polyline points="353,247.0 361,257.0 361,268.0 " stroke="black" stroke-width="1" fill="none" />
<polyline points="369,247.0 361,257.0 " stroke="black" stroke-width="1" fill="none" />
<polyline points="401,247.0 387,268.0 " stroke="black" stroke-width="1" fill="none" />
<polyline points="387,247.0 401,247.0 " stroke="black" stroke-width="1" fill="none" />
<polyline points="387,268.0 401,268.0 " stroke="black" stroke-width="1" fill="none" />
<polyline points="420,243.0 420,275.0 " stroke="black" stroke-width="1" fill="none" />
<polyline points="421,243.0 421,275.0 " stroke="black" stroke-width="1" fill="none" />
<polyline points="420,243.0 427,243.0 " stroke="black" stroke-width="1" fill="none" />
<polyline points="420,275.0 427,275.0 " stroke="black" stroke-width="1" fill="none" />
<polyline points="448,247.0 462,271.0 " stroke="black" stroke-width="1" fill="none" />
<polyline points="489,243.0 489,275.0 " stroke="black" stroke-width="1" fill="none" />
<polyline points="490,243.0 490,275.0 " stroke="black" stroke-width="1" fill="none" />
<polyline points="483,243.0 490,243.0 " stroke="black" stroke-width="1" fill="none" />
<polyline points="483,275.0 490,275.0 " stroke="black" stroke-width="1" fill="none" />
<polyline points="533,264.0 531,264.0 529,263.0 527,261.0 524,257.0 523,256.0 521,255.0 519,255.0 517,256.0 516,258.0 516,260.0 517,262.0 519,263.0 521,263.0 523,262.0 524,261.0 527,257.0 529,255.0 531,254.0 533,254.0 " stroke="black" stroke-width="1" fill="none" />
<polyline points="566,260.0 565,262.0 563,263.0 561,263.0 559,262.0 558,261.0 555,257.0 554,256.0 552,255.0 550,255.0 548,256.0 547,258.0 547,260.0 548,262.0 550,263.0 552,263.0 554,262.0 555,261.0 558,257.0 559,256.0 561,255.0 563,255.0 565,256.0 566,258.0 566,260.0 " stroke="black" stroke-width="1" fill="none" />
<polyline points="70,302.0 68,303.0 67,305.0 67,307.0 68,309.0 70,310.0 72,310.0 74,309.0 75,307.0 75,305.0 74,303.0 72,302.0 70,302.0 " stroke="black" stroke-width="1" fill="none" />
<polyline points="104,308.0 104,320.0 " stroke="black" stroke-width="1" fill="none" />
<polyline points="99,311.0 109,317.0 " stroke="black" stroke-width="1" fill="none" />
<polyline points="109,311.0 99,317.0 " stroke="black" stroke-width="1" fill="none" />
<polyline points="131,309.0 135,309.0 141,321.0 " stroke="black" stroke-width="1" fill="none" />
<polyline points="134,309.0 141,323.0 " stroke="black" stroke-width="1" fill="none" />
<polyline points="150,298.0 141,323.0 " stroke="black" stroke-width="1" fill="none" />
<polyline points="163,309.0 168,309.0 177,321.0 " stroke="black" stroke-width="1" fill="none" />
<polyline points="167,310.0 177,323.0 " stroke="black" stroke-width="1" fill="none" />
<polyline points="193,290.0 177,323.0 " stroke="black" stroke-width="1" fill="none" />
<polyline points="212,306.0 205,306.0 201,307.0 199,308.0 197,310.0 196,313.0 196,315.0 197,318.0 199,320.0 201,321.0 205,322.0 212,322.0 " stroke="black" stroke-width="1" fill="none" />
<polyline points="228,306.0 228,313.0 229,317.0 230,319.0 232,321.0 235,322.0 237,322.0 240,321.0 242,319.0 243,317.0 244,313.0 244,306.0 " stroke="black" stroke-width="1" fill="none" />
<polyline points="260,306.0 267,306.0 271,307.0 273,308.0 275,310.0 276,313.0 276,315.0 275,318.0 273,320.0 271,321.0 267,322.0 260,322.0 " stroke="black" stroke-width="1" fill="none" />
<polyline points="292,322.0 292,315.0 293,311.0 294,309.0 296,307.0 299,306.0 301,306.0 304,307.0 306,309.0 307,311.0 308,315.0 308,322.0 " stroke="black" stroke-width="1" fill="none" />
<polyline points="340,306.0 333,306.0 329,307.0 327,308.0 325,310.0 324,313.0 324,315.0 325,318.0 327,320.0 329,321.0 333,322.0 340,322.0 " stroke="black" stroke-width="1" fill="none" />
<polyline points="324,314.0 336,314.0 " stroke="black" stroke-width="1" fill="none" />
<polyline points="371,312.0 374,314.0 371,316.0 " stroke="black" stroke-width="1" fill="none" />
<polyline points="368,309.0 373,314.0 368,319.0 " stroke="black" stroke-width="1" fill="none" />
<polyline points="356,314.0 373,314.0 " stroke="black" stroke-width="1" fill="none" />
<polyline points="390,308.0 392,305.0 394,308.0 " stroke="black" stroke-width="1" fill="none" />
<polyline points="387,311.0 392,306.0 397,311.0 " stroke="black" stroke-width="1" fill="none" />
<polyline points="392,306.0 392,323.0 " stroke="black" stroke-width="1" fill="none" />
<polyline points="423,312.0 420,314.0 423,316.0 " stroke="black" stroke-width="1" fill="none" />
<polyline points="426,309.0 421,314.0 426,319.0 " stroke="black" stroke-width="1" fill="none" />
<polyline points="421,314.0 438,314.0 " stroke="black" stroke-width="1" fill="none" />
<polyline points="454,320.0 456,323.0 458,320.0 " stroke="black" stroke-width="1" fill="none" />
<polyline points="451,317.0 456,322.0 461,317.0 " stroke="black" stroke-width="1" fill="none" />
<polyline points="456,305.0 456,322.0 " stroke="black" stroke-width="1" fill="none" />
<polyline points="495,314.0 494,311.0 493,310.0 491,309.0 489,309.0 486,310.0 484,313.0 483,316.0 483,319.0 484,321.0 485,322.0 487,323.0 489,323.0 492,322.0 494,320.0 495,317.0 496,312.0 496,307.0 495,304.0 494,303.0 492,302.0 489,302.0 487,303.0 486,304.0 486,305.0 487,305.0 487,304.0 " stroke="black" stroke-width="1" fill="none" />
<polyline points="489,309.0 487,310.0 485,313.0 484,316.0 484,320.0 485,322.0 " stroke="black" stroke-width="1" fill="none" />
<polyline points="489,323.0 491,322.0 493,320.0 494,317.0 495,312.0 495,307.0 494,304.0 492,302.0 " stroke="black" stroke-width="1" fill="none" />
<polyline points="514,302.0 522,323.0 " stroke="black" stroke-width="1" fill="none" />
<polyline points="515,302.0 522,321.0 " stroke="black" stroke-width="1" fill="none" />
<polyline points="530,302.0 522,323.0 " stroke="black" stroke-width="1" fill="none" />
<polyline points="514,302.0 530,302.0 " stroke="black" stroke-width="1" fill="none" />
<polyline points="515,303.0 529,303.0 " stroke="black" stroke-width="1" fill="none" />
<polyline points="547,309.0 552,309.0 561,321.0 " stroke="black" stroke-width="1" fill="none" />
<polyline points="551,310.0 561,323.0 " stroke="black" stroke-width="1" fill="none" />
<polyline points="577,290.0 561,323.0 " stroke="black" stroke-width="1" fill="none" />
<polyline points="85,354.0 84,355.0 85,356.0 86,355.0 86,354.0 85,353.0 83,353.0 81,354.0 79,356.0 78,358.0 77,361.0 76,365.0 74,377.0 73,381.0 72,383.0 " stroke="black" stroke-width="1" fill="none" />
<polyline points="80,355.0 79,357.0 78,361.0 76,373.0 75,377.0 74,380.0 73,382.0 71,384.0 69,385.0 67,385.0 66,384.0 66,383.0 67,382.0 68,383.0 67,384.0 " stroke="black" stroke-width="1" fill="none" />
<polyline points="122,333.0 121,333.0 120,334.0 120,335.0 121,336.0 122,336.0 123,335.0 123,333.0 122,331.0 120,330.0 118,330.0 116,331.0 114,333.0 113,335.0 112,338.0 111,345.0 110,361.0 110,393.0 109,402.0 108,405.0 " stroke="black" stroke-width="1" fill="none" />
<polyline points="121,334.0 121,335.0 122,335.0 122,334.0 121,334.0 " stroke="black" stroke-width="1" fill="none" />
<polyline points="111,345.0 111,393.0 " stroke="black" stroke-width="1" fill="none" />
<polyline points="114,333.0 113,336.0 112,345.0 112,377.0 111,393.0 110,400.0 109,403.0 108,405.0 106,407.0 104,408.0 102,408.0 100,407.0 99,405.0 99,403.0 100,402.0 101,402.0 102,403.0 102,404.0 101,405.0 100,405.0 " stroke="black" stroke-width="1" fill="none" />
<polyline points="100,403.0 100,404.0 101,404.0 101,403.0 100,403.0 " stroke="black" stroke-width="1" fill="none" />
<polyline points="143,330.0 140,336.0 137,343.0 135,348.0 134,352.0 133,357.0 132,365.0 132,373.0 133,381.0 134,386.0 135,390.0 137,395.0 140,402.0 143,408.0 " stroke="black" stroke-width="1" fill="none" />
<polyline points="140,336.0 138,341.0 136,347.0 135,351.0 134,357.0 133,365.0 133,373.0 134,381.0 135,387.0 136,391.0 138,397.0 140,402.0 " stroke="black" stroke-width="1" fill="none" />
<polyline points="163,330.0 166,336.0 169,343.0 171,348.0 172,352.0 173,357.0 174,365.0 174,373.0 173,381.0 172,386.0 171,390.0 169,395.0 166,402.0 163,408.0 " stroke="black" stroke-width="1" fill="none" />
<polyline points="166,336.0 168,341.0 170,347.0 171,351.0 172,357.0 173,365.0 173,373.0 172,381.0 171,387.0 170,391.0 168,397.0 166,402.0 " stroke="black" stroke-width="1" fill="none" />
<polyline points="196,330.0 196,369.0 196,408.0 " stroke="black" stroke-width="1" fill="none" />
<polyline points="197,330.0 197,369.0 197,408.0 " stroke="black" stroke-width="1" fill="none" />
<polyline points="196,330.0 207,330.0 " stroke="black" stroke-width="1" fill="none" />
<polyline points="196,408.0 207,408.0 " stroke="black" stroke-width="1" fill="none" />
<polyline points="237,330.0 237,369.0 237,408.0 " stroke="black" stroke-width="1" fill="none" />
<polyline points="238,330.0 238,369.0 238,408.0 " stroke="black" stroke-width="1" fill="none" />
<polyline points="227,330.0 238,330.0 " stroke="black" stroke-width="1" fill="none" />
<polyline points="227,408.0 238,408.0 " stroke="black" stroke-width="1" fill="none" />
<polyline points="271,357.0 271,378.0 " stroke="black" stroke-width="1" fill="none" />
<polyline points="258,357.0 271,357.0 " stroke="black" stroke-width="1" fill="none" />
<polyline points="263,367.0 271,367.0 " stroke="black" stroke-width="1" fill="none" />
<polyline points="258,378.0 271,378.0 " stroke="black" stroke-width="1" fill="none" />
<polyline points="291,360.0 292,362.0 304,374.0 305,376.0 305,378.0 " stroke="black" stroke-width="1" fill="none" />
<polyline points="292,363.0 304,375.0 " stroke="black" stroke-width="1" fill="none" />
<polyline points="291,360.0 291,362.0 292,364.0 304,376.0 305,378.0 " stroke="black" stroke-width="1" fill="none" />
<polyline points="296,367.0 292,371.0 291,373.0 291,375.0 292,377.0 291,378.0 " stroke="black" stroke-width="1" fill="none" />
<polyline points="291,373.0 293,377.0 " stroke="black" stroke-width="1" fill="none" />
<polyline points="292,371.0 292,373.0 293,375.0 293,377.0 291,378.0 " stroke="black" stroke-width="1" fill="none" />
<polyline points="299,370.0 304,365.0 " stroke="black" stroke-width="1" fill="none" />
<polyline points="302,360.0 302,363.0 303,365.0 305,365.0 305,363.0 303,362.0 302,360.0 " stroke="black" stroke-width="1" fill="none" />
<polyline points="302,360.0 303,363.0 305,365.0 " stroke="black" stroke-width="1" fill="none" />
<polyline points="333,360.0 332,361.0 333,362.0 334,361.0 333,360.0 " stroke="black" stroke-width="1" fill="none" />
<polyline points="324,369.0 342,369.0 " stroke="black" stroke-width="1" fill="none" />
<polyline points="333,376.0 332,377.0 333,378.0 334,377.0 333,376.0 " stroke="black" stroke-width="1" fill="none" />
<polyline points="356,353.0 356,385.0 " stroke="black" stroke-width="1" fill="none" />
<polyline points="362,353.0 362,385.0 " stroke="black" stroke-width="1" fill="none" />
<polyline points="396,353.0 396,378.0 " stroke="black" stroke-width="1" fill="none" />
<polyline points="387,378.0 405,378.0 " stroke="black" stroke-width="1" fill="none" />
<polyline points="425,353.0 425,385.0 " stroke="black" stroke-width="1" fill="none" />
<polyline points="426,353.0 426,385.0 " stroke="black" stroke-width="1" fill="none" />
<polyline points="419,353.0 426,353.0 " stroke="black" stroke-width="1" fill="none" />
<polyline points="419,385.0 426,385.0 " stroke="black" stroke-width="1" fill="none" />
<polyline points="469,353.0 451,378.0 469,378.0 " stroke="black" stroke-width="1" fill="none" />
<polyline points="489,353.0 487,354.0 486,355.0 485,357.0 485,359.0 486,361.0 487,362.0 488,364.0 488,366.0 486,368.0 " stroke="black" stroke-width="1" fill="none" />
<polyline points="487,354.0 486,356.0 486,358.0 487,360.0 488,361.0 489,363.0 489,365.0 488,367.0 484,369.0 488,371.0 489,373.0 489,375.0 488,377.0 487,378.0 486,380.0 486,382.0 487,384.0 " stroke="black" stroke-width="1" fill="none" />
<polyline points="486,370.0 488,372.0 488,374.0 487,376.0 486,377.0 485,379.0 485,381.0 486,383.0 487,384.0 489,385.0 " stroke="black" stroke-width="1" fill="none" />
<polyline points="525,360.0 524,361.0 525,362.0 526,361.0 525,360.0 " stroke="black" stroke-width="1" fill="none" />
<polyline points="516,376.0 515,377.0 516,378.0 517,377.0 516,376.0 " stroke="black" stroke-width="1" fill="none" />
<polyline points="534,376.0 533,377.0 534,378.0 535,377.0 534,376.0 " stroke="black" stroke-width="1" fill="none" />
<polyline points="547,372.0 547,370.0 548,367.0 550,366.0 552,366.0 554,367.0 558,370.0 560,371.0 562,371.0 564,370.0 565,368.0 " stroke="black" stroke-width="1" fill="none" />
<polyline points="547,370.0 548,368.0 550,367.0 552,367.0 554,368.0 558,371.0 560,372.0 562,372.0 564,371.0 565,368.0 565,366.0 " stroke="black" stroke-width="1" fill="none" />
<text x="370" y="405.625" font-size="smaller">Max Height 78 Width 78</text>
</svg>
